<?xml version="1.0" encoding="UTF-8" standalone="no"?>
<!DOCTYPE svg PUBLIC "-//W3C//DTD SVG 1.1//EN"
 "http://www.w3.org/Graphics/SVG/1.1/DTD/svg11.dtd">
<!-- Generated by graphviz version 2.46.0 (20210118.1747)
 -->
<!-- Title: /home/Aaron/2DVVM/full/0402/model/src/AddForcing.cpp Pages: 1 -->
<svg width="208pt" height="208pt"
 viewBox="0.00 0.00 207.58 208.00" xmlns="http://www.w3.org/2000/svg" xmlns:xlink="http://www.w3.org/1999/xlink">
<g id="graph0" class="graph" transform="scale(1 1) rotate(0) translate(4 204)">
<title>/home/Aaron/2DVVM/full/0402/model/src/AddForcing.cpp</title>
<!-- Node1 -->
<g id="Node000001" class="node">
<title>Node1</title>
<g id="a_Node000001"><a xlink:title=" ">
<polygon fill="#999999" stroke="#666666" points="166.1,-200 6.25,-200 6.25,-168 166.1,-168 166.1,-200"/>
<text text-anchor="start" x="14.21" y="-187" font-family="Helvetica,sans-Serif" font-size="10.00">/home/Aaron/2DVVM/full</text>
<text text-anchor="middle" x="86.17" y="-175" font-family="Helvetica,sans-Serif" font-size="10.00">/0402/model/src/AddForcing.cpp</text>
</a>
</g>
</g>
<!-- Node2 -->
<g id="Node000002" class="node">
<title>Node2</title>
<g id="a_Node000002"><a xlink:href="Declare_8hpp.html" target="_top" xlink:title="This file is used to declare the class vvm.">
<polygon fill="white" stroke="#666666" points="121.08,-132 51.27,-132 51.27,-112 121.08,-112 121.08,-132"/>
<text text-anchor="middle" x="86.17" y="-119" font-family="Helvetica,sans-Serif" font-size="10.00">Declare.hpp</text>
</a>
</g>
</g>
<!-- Node1&#45;&gt;Node2 -->
<g id="edge1_Node000001_Node000002" class="edge">
<title>Node1&#45;&gt;Node2</title>
<g id="a_edge1_Node000001_Node000002"><a xlink:title=" ">
<path fill="none" stroke="#63b8ff" d="M86.17,-167.86C86.17,-160.13 86.17,-150.63 86.17,-142.37"/>
<polygon fill="#63b8ff" stroke="#63b8ff" points="89.68,-142.15 86.17,-132.15 82.68,-142.15 89.68,-142.15"/>
</a>
</g>
</g>
<!-- Node3 -->
<g id="Node000003" class="node">
<title>Node3</title>
<g id="a_Node000003"><a xlink:href="Const_8hpp.html" target="_top" xlink:title="Here are some constants defined in this model. You don&#39;t need to change them.">
<polygon fill="white" stroke="#666666" points="62.75,-76 1.6,-76 1.6,-56 62.75,-56 62.75,-76"/>
<text text-anchor="middle" x="32.17" y="-63" font-family="Helvetica,sans-Serif" font-size="10.00">Const.hpp</text>
</a>
</g>
</g>
<!-- Node2&#45;&gt;Node3 -->
<g id="edge2_Node000002_Node000003" class="edge">
<title>Node2&#45;&gt;Node3</title>
<g id="a_edge2_Node000002_Node000003"><a xlink:title=" ">
<path fill="none" stroke="#63b8ff" d="M76.77,-111.59C69.03,-103.85 57.86,-92.69 48.64,-83.47"/>
<polygon fill="#63b8ff" stroke="#63b8ff" points="51.02,-80.89 41.47,-76.3 46.07,-85.84 51.02,-80.89"/>
</a>
</g>
</g>
<!-- Node5 -->
<g id="Node000005" class="node">
<title>Node5</title>
<g id="a_Node000005"><a xlink:title=" ">
<polygon fill="#e0e0e0" stroke="#999999" points="199.48,-76 80.87,-76 80.87,-56 199.48,-56 199.48,-76"/>
<text text-anchor="middle" x="140.18" y="-63" font-family="Helvetica,sans-Serif" font-size="10.00">../include/Eigen/Sparse</text>
</a>
</g>
</g>
<!-- Node2&#45;&gt;Node5 -->
<g id="edge4_Node000002_Node000005" class="edge">
<title>Node2&#45;&gt;Node5</title>
<g id="a_edge4_Node000002_Node000005"><a xlink:title=" ">
<path fill="none" stroke="#63b8ff" d="M95.58,-111.59C103.32,-103.85 114.49,-92.69 123.71,-83.47"/>
<polygon fill="#63b8ff" stroke="#63b8ff" points="126.28,-85.84 130.88,-76.3 121.33,-80.89 126.28,-85.84"/>
</a>
</g>
</g>
<!-- Node4 -->
<g id="Node000004" class="node">
<title>Node4</title>
<g id="a_Node000004"><a xlink:href="Config_8hpp.html" target="_top" xlink:title="Here are the parameters for the model that you can tune them to fit your needs.">
<polygon fill="white" stroke="#666666" points="64.53,-20 -0.18,-20 -0.18,0 64.53,0 64.53,-20"/>
<text text-anchor="middle" x="32.17" y="-7" font-family="Helvetica,sans-Serif" font-size="10.00">Config.hpp</text>
</a>
</g>
</g>
<!-- Node3&#45;&gt;Node4 -->
<g id="edge3_Node000003_Node000004" class="edge">
<title>Node3&#45;&gt;Node4</title>
<g id="a_edge3_Node000003_Node000004"><a xlink:title=" ">
<path fill="none" stroke="#63b8ff" d="M32.17,-55.59C32.17,-48.7 32.17,-39.1 32.17,-30.57"/>
<polygon fill="#63b8ff" stroke="#63b8ff" points="35.68,-30.3 32.17,-20.3 28.68,-30.3 35.68,-30.3"/>
</a>
</g>
</g>
</g>
</svg>
