<?xml version="1.0" encoding="UTF-8" standalone="no"?>
<!DOCTYPE svg PUBLIC "-//W3C//DTD SVG 1.1//EN"
 "http://www.w3.org/Graphics/SVG/1.1/DTD/svg11.dtd">
<!-- Generated by graphviz version 2.46.0 (20210118.1747)
 -->
<!-- Title: MINUS Pages: 1 -->
<svg width="575pt" height="180pt"
 viewBox="0.00 0.00 575.38 180.00" xmlns="http://www.w3.org/2000/svg" xmlns:xlink="http://www.w3.org/1999/xlink">
<g id="graph0" class="graph" transform="scale(1 1) rotate(0) translate(4 176)">
<title>MINUS</title>
<!-- Node1 -->
<g id="Node000001" class="node">
<title>Node1</title>
<g id="a_Node000001"><a xlink:title=" ">
<polygon fill="#999999" stroke="#666666" points="567.49,-115 519.06,-115 519.06,-95 567.49,-95 567.49,-115"/>
<text text-anchor="middle" x="543.28" y="-102" font-family="Helvetica,sans-Serif" font-size="10.00">MINUS</text>
</a>
</g>
</g>
<!-- Node2 -->
<g id="Node000002" class="node">
<title>Node2</title>
<g id="a_Node000002"><a xlink:href="classvvm.html#a5a6a59d52a4562766f6c57429cae2cb5" target="_top" xlink:title=" ">
<polygon fill="white" stroke="#666666" points="478.45,-162 367.42,-162 367.42,-142 478.45,-142 478.45,-162"/>
<text text-anchor="middle" x="422.94" y="-149" font-family="Helvetica,sans-Serif" font-size="10.00">vvm::Advection_qrVT</text>
</a>
</g>
</g>
<!-- Node1&#45;&gt;Node2 -->
<g id="edge1_Node000001_Node000002" class="edge">
<title>Node1&#45;&gt;Node2</title>
<g id="a_edge1_Node000001_Node000002"><a xlink:title=" ">
<path fill="none" stroke="#63b8ff" d="M509.43,-118.04C490.43,-125.59 466.89,-134.94 449.32,-141.92"/>
<polygon fill="#63b8ff" stroke="#63b8ff" points="510.89,-121.23 518.9,-114.29 508.31,-114.72 510.89,-121.23"/>
</a>
</g>
</g>
<!-- Node6 -->
<g id="Node000006" class="node">
<title>Node6</title>
<g id="a_Node000006"><a xlink:href="classvvm.html#a7a376a97df688fa6a19e5f6d9fc02491" target="_top" xlink:title=" ">
<polygon fill="white" stroke="#666666" points="483.4,-115 362.47,-115 362.47,-95 483.4,-95 483.4,-115"/>
<text text-anchor="middle" x="422.94" y="-102" font-family="Helvetica,sans-Serif" font-size="10.00">vvm::Advection_thermo</text>
</a>
</g>
</g>
<!-- Node1&#45;&gt;Node6 -->
<g id="edge5_Node000001_Node000006" class="edge">
<title>Node1&#45;&gt;Node6</title>
<g id="a_edge5_Node000001_Node000006"><a xlink:title=" ">
<path fill="none" stroke="#63b8ff" d="M508.7,-105C500.82,-105 492.21,-105 483.57,-105"/>
<polygon fill="#63b8ff" stroke="#63b8ff" points="508.9,-108.5 518.9,-105 508.9,-101.5 508.9,-108.5"/>
</a>
</g>
</g>
<!-- Node10 -->
<g id="Node000010" class="node">
<title>Node10</title>
<g id="a_Node000010"><a xlink:href="classvvm.html#aec9080346387072f75c1e5907a5f9964" target="_top" xlink:title=" ">
<polygon fill="white" stroke="#666666" points="477.18,-58 368.69,-58 368.69,-38 477.18,-38 477.18,-58"/>
<text text-anchor="middle" x="422.94" y="-45" font-family="Helvetica,sans-Serif" font-size="10.00">vvm::Advection_zeta</text>
</a>
</g>
</g>
<!-- Node1&#45;&gt;Node10 -->
<g id="edge13_Node000001_Node000010" class="edge">
<title>Node1&#45;&gt;Node10</title>
<g id="a_edge13_Node000001_Node000010"><a xlink:title=" ">
<path fill="none" stroke="#63b8ff" d="M512.26,-90.54C491.25,-80.42 463.71,-67.16 445.01,-58.15"/>
<polygon fill="#63b8ff" stroke="#63b8ff" points="510.86,-93.75 521.39,-94.94 513.9,-87.45 510.86,-93.75"/>
</a>
</g>
</g>
<!-- Node3 -->
<g id="Node000003" class="node">
<title>Node3</title>
<g id="a_Node000003"><a xlink:href="classIteration.html#ac30ea16c9e339a59c78637fa0753f775" target="_top" xlink:title=" ">
<polygon fill="white" stroke="#666666" points="321.71,-172 235.67,-172 235.67,-152 321.71,-152 321.71,-172"/>
<text text-anchor="middle" x="278.69" y="-159" font-family="Helvetica,sans-Serif" font-size="10.00">Iteration::pqr_pt</text>
</a>
</g>
</g>
<!-- Node2&#45;&gt;Node3 -->
<g id="edge2_Node000002_Node000003" class="edge">
<title>Node2&#45;&gt;Node3</title>
<g id="a_edge2_Node000002_Node000003"><a xlink:title=" ">
<path fill="none" stroke="#63b8ff" d="M357.36,-156.54C345.36,-157.38 333.1,-158.25 321.98,-159.03"/>
<polygon fill="#63b8ff" stroke="#63b8ff" points="357.62,-160.03 367.35,-155.84 357.13,-153.05 357.62,-160.03"/>
</a>
</g>
</g>
<!-- Node4 -->
<g id="Node000004" class="node">
<title>Node4</title>
<g id="a_Node000004"><a xlink:href="classIteration.html#ae341a02edb030229055de37fd518ac89" target="_top" xlink:title=" ">
<polygon fill="white" stroke="#666666" points="194.68,-96 73.66,-96 73.66,-76 194.68,-76 194.68,-96"/>
<text text-anchor="middle" x="134.17" y="-83" font-family="Helvetica,sans-Serif" font-size="10.00">Iteration::TimeMarching</text>
</a>
</g>
</g>
<!-- Node3&#45;&gt;Node4 -->
<g id="edge3_Node000003_Node000004" class="edge">
<title>Node3&#45;&gt;Node4</title>
<g id="a_edge3_Node000003_Node000004"><a xlink:title=" ">
<path fill="none" stroke="#63b8ff" d="M241.12,-147.87C237.56,-146.3 234.02,-144.66 230.67,-143 201.28,-128.4 168.81,-108.05 150.31,-96.03"/>
<polygon fill="#63b8ff" stroke="#63b8ff" points="239.95,-151.17 250.52,-151.85 242.68,-144.73 239.95,-151.17"/>
</a>
</g>
</g>
<!-- Node5 -->
<g id="Node000005" class="node">
<title>Node5</title>
<g id="a_Node000005"><a xlink:href="main_8cpp.html#a3c04138a5bfe5d72780bb7e82a18e627" target="_top" xlink:title=" ">
<polygon fill="white" stroke="#666666" points="37.5,-96 0.17,-96 0.17,-76 37.5,-76 37.5,-96"/>
<text text-anchor="middle" x="18.83" y="-83" font-family="Helvetica,sans-Serif" font-size="10.00">main</text>
</a>
</g>
</g>
<!-- Node4&#45;&gt;Node5 -->
<g id="edge4_Node000004_Node000005" class="edge">
<title>Node4&#45;&gt;Node5</title>
<g id="a_edge4_Node000004_Node000005"><a xlink:title=" ">
<path fill="none" stroke="#63b8ff" d="M63.24,-86C53.91,-86 45.09,-86 37.86,-86"/>
<polygon fill="#63b8ff" stroke="#63b8ff" points="63.51,-89.5 73.51,-86 63.51,-82.5 63.51,-89.5"/>
</a>
</g>
</g>
<!-- Node6&#45;&gt;Node3 -->
<g id="edge8_Node000006_Node000003" class="edge">
<title>Node6&#45;&gt;Node3</title>
<g id="a_edge8_Node000006_Node000003"><a xlink:title=" ">
<path fill="none" stroke="#63b8ff" d="M387.55,-118.78C362.1,-128.98 328.01,-142.64 305.02,-151.85"/>
<polygon fill="#63b8ff" stroke="#63b8ff" points="388.85,-122.03 396.83,-115.06 386.25,-115.53 388.85,-122.03"/>
</a>
</g>
</g>
<!-- Node7 -->
<g id="Node000007" class="node">
<title>Node7</title>
<g id="a_Node000007"><a xlink:href="classIteration.html#a6b9d511fea92c2569c8da11c1a86a066" target="_top" xlink:title=" ">
<polygon fill="white" stroke="#666666" points="322.38,-134 235,-134 235,-114 322.38,-114 322.38,-134"/>
<text text-anchor="middle" x="278.69" y="-121" font-family="Helvetica,sans-Serif" font-size="10.00">Iteration::pqc_pt</text>
</a>
</g>
</g>
<!-- Node6&#45;&gt;Node7 -->
<g id="edge6_Node000006_Node000007" class="edge">
<title>Node6&#45;&gt;Node7</title>
<g id="a_edge6_Node000006_Node000007"><a xlink:title=" ">
<path fill="none" stroke="#63b8ff" d="M352.31,-114.3C342.14,-115.66 331.93,-117.02 322.51,-118.28"/>
<polygon fill="#63b8ff" stroke="#63b8ff" points="352.99,-117.74 362.44,-112.95 352.06,-110.8 352.99,-117.74"/>
</a>
</g>
</g>
<!-- Node8 -->
<g id="Node000008" class="node">
<title>Node8</title>
<g id="a_Node000008"><a xlink:href="classIteration.html#ab92cc262ad139b14958847277b88d017" target="_top" xlink:title=" ">
<polygon fill="white" stroke="#666666" points="322.38,-96 235,-96 235,-76 322.38,-76 322.38,-96"/>
<text text-anchor="middle" x="278.69" y="-83" font-family="Helvetica,sans-Serif" font-size="10.00">Iteration::pqv_pt</text>
</a>
</g>
</g>
<!-- Node6&#45;&gt;Node8 -->
<g id="edge9_Node000006_Node000008" class="edge">
<title>Node6&#45;&gt;Node8</title>
<g id="a_edge9_Node000006_Node000008"><a xlink:title=" ">
<path fill="none" stroke="#63b8ff" d="M352.31,-95.7C342.14,-94.34 331.93,-92.98 322.51,-91.72"/>
<polygon fill="#63b8ff" stroke="#63b8ff" points="352.06,-99.2 362.44,-97.05 352.99,-92.26 352.06,-99.2"/>
</a>
</g>
</g>
<!-- Node9 -->
<g id="Node000009" class="node">
<title>Node9</title>
<g id="a_Node000009"><a xlink:href="classIteration.html#a7d5499ac76ee826bdda0184feb1fef5f" target="_top" xlink:title=" ">
<polygon fill="white" stroke="#666666" points="321.66,-58 235.72,-58 235.72,-38 321.66,-38 321.66,-58"/>
<text text-anchor="middle" x="278.69" y="-45" font-family="Helvetica,sans-Serif" font-size="10.00">Iteration::pth_pt</text>
</a>
</g>
</g>
<!-- Node6&#45;&gt;Node9 -->
<g id="edge11_Node000006_Node000009" class="edge">
<title>Node6&#45;&gt;Node9</title>
<g id="a_edge11_Node000006_Node000009"><a xlink:title=" ">
<path fill="none" stroke="#63b8ff" d="M387.55,-91.22C362.1,-81.02 328.01,-67.36 305.02,-58.15"/>
<polygon fill="#63b8ff" stroke="#63b8ff" points="386.25,-94.47 396.83,-94.94 388.85,-87.97 386.25,-94.47"/>
</a>
</g>
</g>
<!-- Node7&#45;&gt;Node4 -->
<g id="edge7_Node000007_Node000004" class="edge">
<title>Node7&#45;&gt;Node4</title>
<g id="a_edge7_Node000007_Node000004"><a xlink:title=" ">
<path fill="none" stroke="#63b8ff" d="M230.15,-111.32C211.61,-106.38 190.66,-100.8 173.17,-96.13"/>
<polygon fill="#63b8ff" stroke="#63b8ff" points="229.31,-114.72 239.87,-113.92 231.11,-107.96 229.31,-114.72"/>
</a>
</g>
</g>
<!-- Node8&#45;&gt;Node4 -->
<g id="edge10_Node000008_Node000004" class="edge">
<title>Node8&#45;&gt;Node4</title>
<g id="a_edge10_Node000008_Node000004"><a xlink:title=" ">
<path fill="none" stroke="#63b8ff" d="M224.91,-86C215.09,-86 204.77,-86 194.76,-86"/>
<polygon fill="#63b8ff" stroke="#63b8ff" points="224.93,-89.5 234.93,-86 224.93,-82.5 224.93,-89.5"/>
</a>
</g>
</g>
<!-- Node9&#45;&gt;Node4 -->
<g id="edge12_Node000009_Node000004" class="edge">
<title>Node9&#45;&gt;Node4</title>
<g id="a_edge12_Node000009_Node000004"><a xlink:title=" ">
<path fill="none" stroke="#63b8ff" d="M230.15,-60.68C211.61,-65.62 190.66,-71.2 173.17,-75.87"/>
<polygon fill="#63b8ff" stroke="#63b8ff" points="231.11,-64.04 239.87,-58.08 229.31,-57.28 231.11,-64.04"/>
</a>
</g>
</g>
<!-- Node11 -->
<g id="Node000011" class="node">
<title>Node11</title>
<g id="a_Node000011"><a xlink:href="classIteration.html#a012d468a6070b5b181d88b226821ce5c" target="_top" xlink:title=" ">
<polygon fill="white" stroke="#666666" points="326.72,-20 230.66,-20 230.66,0 326.72,0 326.72,-20"/>
<text text-anchor="middle" x="278.69" y="-7" font-family="Helvetica,sans-Serif" font-size="10.00">Iteration::pzeta_pt</text>
</a>
</g>
</g>
<!-- Node10&#45;&gt;Node11 -->
<g id="edge14_Node000010_Node000011" class="edge">
<title>Node10&#45;&gt;Node11</title>
<g id="a_edge14_Node000010_Node000011"><a xlink:title=" ">
<path fill="none" stroke="#63b8ff" d="M374.49,-35.32C355.99,-30.38 335.08,-24.8 317.61,-20.13"/>
<polygon fill="#63b8ff" stroke="#63b8ff" points="373.63,-38.72 384.19,-37.92 375.43,-31.95 373.63,-38.72"/>
</a>
</g>
</g>
<!-- Node11&#45;&gt;Node4 -->
<g id="edge15_Node000011_Node000004" class="edge">
<title>Node11&#45;&gt;Node4</title>
<g id="a_edge15_Node000011_Node000004"><a xlink:title=" ">
<path fill="none" stroke="#63b8ff" d="M241.12,-24.13C237.56,-25.7 234.02,-27.34 230.67,-29 201.28,-43.6 168.81,-63.95 150.31,-75.97"/>
<polygon fill="#63b8ff" stroke="#63b8ff" points="242.68,-27.27 250.52,-20.15 239.95,-20.83 242.68,-27.27"/>
</a>
</g>
</g>
</g>
</svg>
