<?xml version="1.0" encoding="UTF-8" standalone="no"?>
<!DOCTYPE svg PUBLIC "-//W3C//DTD SVG 1.1//EN"
 "http://www.w3.org/Graphics/SVG/1.1/DTD/svg11.dtd">
<!-- Generated by graphviz version 2.46.0 (20210118.1747)
 -->
<!-- Title: Um_zeta Pages: 1 -->
<svg width="571pt" height="28pt"
 viewBox="0.00 0.00 570.96 28.00" xmlns="http://www.w3.org/2000/svg" xmlns:xlink="http://www.w3.org/1999/xlink">
<g id="graph0" class="graph" transform="scale(1 1) rotate(0) translate(4 24)">
<title>Um_zeta</title>
<!-- Node1 -->
<g id="Node000001" class="node">
<title>Node1</title>
<g id="a_Node000001"><a xlink:title=" ">
<polygon fill="#999999" stroke="#666666" points="562.96,-20 506.95,-20 506.95,0 562.96,0 562.96,-20"/>
<text text-anchor="middle" x="534.95" y="-7" font-family="Helvetica,sans-Serif" font-size="10.00">Um_zeta</text>
</a>
</g>
</g>
<!-- Node2 -->
<g id="Node000002" class="node">
<title>Node2</title>
<g id="a_Node000002"><a xlink:href="classvvm.html#aec9080346387072f75c1e5907a5f9964" target="_top" xlink:title=" ">
<polygon fill="white" stroke="#666666" points="471.08,-20 362.58,-20 362.58,0 471.08,0 471.08,-20"/>
<text text-anchor="middle" x="416.83" y="-7" font-family="Helvetica,sans-Serif" font-size="10.00">vvm::Advection_zeta</text>
</a>
</g>
</g>
<!-- Node1&#45;&gt;Node2 -->
<g id="edge1_Node000001_Node000002" class="edge">
<title>Node1&#45;&gt;Node2</title>
<g id="a_edge1_Node000001_Node000002"><a xlink:title=" ">
<path fill="none" stroke="#63b8ff" d="M496.57,-10C488.53,-10 479.88,-10 471.37,-10"/>
<polygon fill="#63b8ff" stroke="#63b8ff" points="496.73,-13.5 506.73,-10 496.73,-6.5 496.73,-13.5"/>
</a>
</g>
</g>
<!-- Node3 -->
<g id="Node000003" class="node">
<title>Node3</title>
<g id="a_Node000003"><a xlink:href="classIteration.html#a012d468a6070b5b181d88b226821ce5c" target="_top" xlink:title=" ">
<polygon fill="white" stroke="#666666" points="326.72,-20 230.66,-20 230.66,0 326.72,0 326.72,-20"/>
<text text-anchor="middle" x="278.69" y="-7" font-family="Helvetica,sans-Serif" font-size="10.00">Iteration::pzeta_pt</text>
</a>
</g>
</g>
<!-- Node2&#45;&gt;Node3 -->
<g id="edge2_Node000002_Node000003" class="edge">
<title>Node2&#45;&gt;Node3</title>
<g id="a_edge2_Node000002_Node000003"><a xlink:title=" ">
<path fill="none" stroke="#63b8ff" d="M352.37,-10C343.75,-10 335.03,-10 326.76,-10"/>
<polygon fill="#63b8ff" stroke="#63b8ff" points="352.41,-13.5 362.41,-10 352.41,-6.5 352.41,-13.5"/>
</a>
</g>
</g>
<!-- Node4 -->
<g id="Node000004" class="node">
<title>Node4</title>
<g id="a_Node000004"><a xlink:href="classIteration.html#ae341a02edb030229055de37fd518ac89" target="_top" xlink:title=" ">
<polygon fill="white" stroke="#666666" points="194.68,-20 73.66,-20 73.66,0 194.68,0 194.68,-20"/>
<text text-anchor="middle" x="134.17" y="-7" font-family="Helvetica,sans-Serif" font-size="10.00">Iteration::TimeMarching</text>
</a>
</g>
</g>
<!-- Node3&#45;&gt;Node4 -->
<g id="edge3_Node000003_Node000004" class="edge">
<title>Node3&#45;&gt;Node4</title>
<g id="a_edge3_Node000003_Node000004"><a xlink:title=" ">
<path fill="none" stroke="#63b8ff" d="M220.51,-10C212.08,-10 203.37,-10 194.89,-10"/>
<polygon fill="#63b8ff" stroke="#63b8ff" points="220.63,-13.5 230.63,-10 220.63,-6.5 220.63,-13.5"/>
</a>
</g>
</g>
<!-- Node5 -->
<g id="Node000005" class="node">
<title>Node5</title>
<g id="a_Node000005"><a xlink:href="main_8cpp.html#a3c04138a5bfe5d72780bb7e82a18e627" target="_top" xlink:title=" ">
<polygon fill="white" stroke="#666666" points="37.5,-20 0.17,-20 0.17,0 37.5,0 37.5,-20"/>
<text text-anchor="middle" x="18.83" y="-7" font-family="Helvetica,sans-Serif" font-size="10.00">main</text>
</a>
</g>
</g>
<!-- Node4&#45;&gt;Node5 -->
<g id="edge4_Node000004_Node000005" class="edge">
<title>Node4&#45;&gt;Node5</title>
<g id="a_edge4_Node000004_Node000005"><a xlink:title=" ">
<path fill="none" stroke="#63b8ff" d="M63.24,-10C53.91,-10 45.09,-10 37.86,-10"/>
<polygon fill="#63b8ff" stroke="#63b8ff" points="63.51,-13.5 73.51,-10 63.51,-6.5 63.51,-13.5"/>
</a>
</g>
</g>
</g>
</svg>
