<?xml version="1.0" encoding="UTF-8" standalone="no"?>
<!DOCTYPE svg PUBLIC "-//W3C//DTD SVG 1.1//EN"
 "http://www.w3.org/Graphics/SVG/1.1/DTD/svg11.dtd">
<!-- Generated by graphviz version 2.46.0 (20210118.1747)
 -->
<!-- Title: vvm::BoundaryProcess2D_center Pages: 1 -->
<svg width="533pt" height="331pt"
 viewBox="0.00 0.00 533.38 330.83" xmlns="http://www.w3.org/2000/svg" xmlns:xlink="http://www.w3.org/1999/xlink">
<g id="graph0" class="graph" transform="scale(1 1) rotate(0) translate(4 326.83)">
<title>vvm::BoundaryProcess2D_center</title>
<!-- Node1 -->
<g id="Node000001" class="node">
<title>Node1</title>
<g id="a_Node000001"><a xlink:title=" ">
<polygon fill="#999999" stroke="#666666" points="525.17,-164.83 394.02,-164.83 394.02,-132.83 525.17,-132.83 525.17,-164.83"/>
<text text-anchor="start" x="401.81" y="-151.83" font-family="Helvetica,sans-Serif" font-size="10.00">vvm::BoundaryProcess2D</text>
<text text-anchor="middle" x="459.6" y="-139.83" font-family="Helvetica,sans-Serif" font-size="10.00">_center</text>
</a>
</g>
</g>
<!-- Node2 -->
<g id="Node000002" class="node">
<title>Node2</title>
<g id="a_Node000002"><a xlink:href="classvvm.html#ae95d349fc79929ad9bd5b95e3cd97c0b" target="_top" xlink:title=" ">
<polygon fill="white" stroke="#666666" points="339.75,-272.83 248.73,-272.83 248.73,-252.83 339.75,-252.83 339.75,-272.83"/>
<text text-anchor="middle" x="294.24" y="-259.83" font-family="Helvetica,sans-Serif" font-size="10.00">vvm::AddForcing</text>
</a>
</g>
</g>
<!-- Node1&#45;&gt;Node2 -->
<g id="edge1_Node000001_Node000002" class="edge">
<title>Node1&#45;&gt;Node2</title>
<g id="a_edge1_Node000001_Node000002"><a xlink:title=" ">
<path fill="none" stroke="#63b8ff" d="M436.89,-172.54C417.67,-192.4 388.05,-220.39 357.81,-238.83 348.67,-244.4 338.02,-249.07 328.12,-252.76"/>
<polygon fill="#63b8ff" stroke="#63b8ff" points="439.61,-174.76 443.97,-165.1 434.54,-169.93 439.61,-174.76"/>
</a>
</g>
</g>
<!-- Node3 -->
<g id="Node000003" class="node">
<title>Node3</title>
<g id="a_Node000003"><a xlink:href="classIteration.html#ae341a02edb030229055de37fd518ac89" target="_top" xlink:title=" ">
<polygon fill="white" stroke="#666666" points="194.68,-177.83 73.66,-177.83 73.66,-157.83 194.68,-157.83 194.68,-177.83"/>
<text text-anchor="middle" x="134.17" y="-164.83" font-family="Helvetica,sans-Serif" font-size="10.00">Iteration::TimeMarching</text>
</a>
</g>
</g>
<!-- Node1&#45;&gt;Node3 -->
<g id="edge20_Node000001_Node000003" class="edge">
<title>Node1&#45;&gt;Node3</title>
<g id="a_edge20_Node000001_Node000003"><a xlink:title=" ">
<path fill="none" stroke="#63b8ff" d="M429.3,-170.79C410.07,-183.78 383.77,-199 357.81,-205.83 303.17,-220.21 286.17,-216.47 230.67,-205.83 202.98,-200.52 173.09,-187.29 154.27,-177.94"/>
<polygon fill="#63b8ff" stroke="#63b8ff" points="431.39,-173.6 437.6,-165.01 427.4,-167.85 431.39,-173.6"/>
</a>
</g>
</g>
<!-- Node5 -->
<g id="Node000005" class="node">
<title>Node5</title>
<g id="a_Node000005"><a xlink:href="classvvm_1_1PoissonSolver.html#a741f59b97f794a79a15fd919b3b2501e" target="_top" xlink:title=" ">
<polygon fill="white" stroke="#666666" points="346.03,-322.83 242.45,-322.83 242.45,-290.83 346.03,-290.83 346.03,-322.83"/>
<text text-anchor="start" x="250.35" y="-309.83" font-family="Helvetica,sans-Serif" font-size="10.00">vvm::PoissonSolver</text>
<text text-anchor="middle" x="294.24" y="-297.83" font-family="Helvetica,sans-Serif" font-size="10.00">::cal_u</text>
</a>
</g>
</g>
<!-- Node1&#45;&gt;Node5 -->
<g id="edge4_Node000001_Node000005" class="edge">
<title>Node1&#45;&gt;Node5</title>
<g id="a_edge4_Node000001_Node000005"><a xlink:title=" ">
<path fill="none" stroke="#63b8ff" d="M445.27,-173.85C428.44,-203.33 396.9,-252.04 357.81,-281.83 353.44,-285.16 348.56,-288.11 343.51,-290.71"/>
<polygon fill="#63b8ff" stroke="#63b8ff" points="448.39,-175.45 450.21,-165.01 442.28,-172.03 448.39,-175.45"/>
</a>
</g>
</g>
<!-- Node6 -->
<g id="Node000006" class="node">
<title>Node6</title>
<g id="a_Node000006"><a xlink:href="classInit.html#a622540f0e2606ee86b781a8eb8f5a67c" target="_top" xlink:title=" ">
<polygon fill="white" stroke="#666666" points="164.02,-44.83 104.32,-44.83 104.32,-24.83 164.02,-24.83 164.02,-44.83"/>
<text text-anchor="middle" x="134.17" y="-31.83" font-family="Helvetica,sans-Serif" font-size="10.00">Init::Init2d</text>
</a>
</g>
</g>
<!-- Node1&#45;&gt;Node6 -->
<g id="edge7_Node000001_Node000006" class="edge">
<title>Node1&#45;&gt;Node6</title>
<g id="a_edge7_Node000001_Node000006"><a xlink:title=" ">
<path fill="none" stroke="#63b8ff" d="M448.09,-123.54C433.29,-91.64 402.95,-38.26 357.81,-15.83 292.32,16.71 202.57,-8.97 159.78,-24.78"/>
<polygon fill="#63b8ff" stroke="#63b8ff" points="444.91,-124.99 452.19,-132.69 451.3,-122.13 444.91,-124.99"/>
</a>
</g>
</g>
<!-- Node7 -->
<g id="Node000007" class="node">
<title>Node7</title>
<g id="a_Node000007"><a xlink:href="classIteration.html#a6b9d511fea92c2569c8da11c1a86a066" target="_top" xlink:title=" ">
<polygon fill="white" stroke="#666666" points="337.94,-196.83 250.55,-196.83 250.55,-176.83 337.94,-176.83 337.94,-196.83"/>
<text text-anchor="middle" x="294.24" y="-183.83" font-family="Helvetica,sans-Serif" font-size="10.00">Iteration::pqc_pt</text>
</a>
</g>
</g>
<!-- Node1&#45;&gt;Node7 -->
<g id="edge9_Node000001_Node000007" class="edge">
<title>Node1&#45;&gt;Node7</title>
<g id="a_edge9_Node000001_Node000007"><a xlink:title=" ">
<path fill="none" stroke="#63b8ff" d="M383.4,-166.32C367.82,-169.95 351.93,-173.64 338.01,-176.88"/>
<polygon fill="#63b8ff" stroke="#63b8ff" points="384.62,-169.63 393.57,-163.96 383.03,-162.81 384.62,-169.63"/>
</a>
</g>
</g>
<!-- Node8 -->
<g id="Node000008" class="node">
<title>Node8</title>
<g id="a_Node000008"><a xlink:href="classIteration.html#ac30ea16c9e339a59c78637fa0753f775" target="_top" xlink:title=" ">
<polygon fill="white" stroke="#666666" points="337.27,-158.83 251.22,-158.83 251.22,-138.83 337.27,-138.83 337.27,-158.83"/>
<text text-anchor="middle" x="294.24" y="-145.83" font-family="Helvetica,sans-Serif" font-size="10.00">Iteration::pqr_pt</text>
</a>
</g>
</g>
<!-- Node1&#45;&gt;Node8 -->
<g id="edge11_Node000001_Node000008" class="edge">
<title>Node1&#45;&gt;Node8</title>
<g id="a_edge11_Node000001_Node000008"><a xlink:title=" ">
<path fill="none" stroke="#63b8ff" d="M383.3,-148.83C367.58,-148.83 351.54,-148.83 337.53,-148.83"/>
<polygon fill="#63b8ff" stroke="#63b8ff" points="383.57,-152.33 393.57,-148.83 383.57,-145.33 383.57,-152.33"/>
</a>
</g>
</g>
<!-- Node9 -->
<g id="Node000009" class="node">
<title>Node9</title>
<g id="a_Node000009"><a xlink:href="classIteration.html#ab92cc262ad139b14958847277b88d017" target="_top" xlink:title=" ">
<polygon fill="white" stroke="#666666" points="337.94,-120.83 250.55,-120.83 250.55,-100.83 337.94,-100.83 337.94,-120.83"/>
<text text-anchor="middle" x="294.24" y="-107.83" font-family="Helvetica,sans-Serif" font-size="10.00">Iteration::pqv_pt</text>
</a>
</g>
</g>
<!-- Node1&#45;&gt;Node9 -->
<g id="edge13_Node000001_Node000009" class="edge">
<title>Node1&#45;&gt;Node9</title>
<g id="a_edge13_Node000001_Node000009"><a xlink:title=" ">
<path fill="none" stroke="#63b8ff" d="M383.4,-131.34C367.82,-127.71 351.93,-124.02 338.01,-120.78"/>
<polygon fill="#63b8ff" stroke="#63b8ff" points="383.03,-134.85 393.57,-133.7 384.62,-128.03 383.03,-134.85"/>
</a>
</g>
</g>
<!-- Node10 -->
<g id="Node000010" class="node">
<title>Node10</title>
<g id="a_Node000010"><a xlink:href="classIteration.html#a7d5499ac76ee826bdda0184feb1fef5f" target="_top" xlink:title=" ">
<polygon fill="white" stroke="#666666" points="337.22,-82.83 251.27,-82.83 251.27,-62.83 337.22,-62.83 337.22,-82.83"/>
<text text-anchor="middle" x="294.24" y="-69.83" font-family="Helvetica,sans-Serif" font-size="10.00">Iteration::pth_pt</text>
</a>
</g>
</g>
<!-- Node1&#45;&gt;Node10 -->
<g id="edge15_Node000001_Node000010" class="edge">
<title>Node1&#45;&gt;Node10</title>
<g id="a_edge15_Node000001_Node000010"><a xlink:title=" ">
<path fill="none" stroke="#63b8ff" d="M425.05,-127.39C405.89,-115.78 381.1,-101.81 357.81,-91.83 349.98,-88.48 341.37,-85.46 333.11,-82.86"/>
<polygon fill="#63b8ff" stroke="#63b8ff" points="423.35,-130.45 433.71,-132.7 427.02,-124.49 423.35,-130.45"/>
</a>
</g>
</g>
<!-- Node11 -->
<g id="Node000011" class="node">
<title>Node11</title>
<g id="a_Node000011"><a xlink:href="classInit.html#a83424c08602c8f29653a28361be9c152" target="_top" xlink:title=" ">
<polygon fill="white" stroke="#666666" points="357.88,-44.83 230.61,-44.83 230.61,-24.83 357.88,-24.83 357.88,-44.83"/>
<text text-anchor="middle" x="294.24" y="-31.83" font-family="Helvetica,sans-Serif" font-size="10.00">Init::RandomPerturbation</text>
</a>
</g>
</g>
<!-- Node1&#45;&gt;Node11 -->
<g id="edge17_Node000001_Node000011" class="edge">
<title>Node1&#45;&gt;Node11</title>
<g id="a_edge17_Node000001_Node000011"><a xlink:title=" ">
<path fill="none" stroke="#63b8ff" d="M439.03,-124.94C420.27,-103.48 390.09,-72.54 357.81,-53.83 351.72,-50.3 344.91,-47.37 338.09,-44.95"/>
<polygon fill="#63b8ff" stroke="#63b8ff" points="436.48,-127.34 445.65,-132.65 441.8,-122.78 436.48,-127.34"/>
</a>
</g>
</g>
<!-- Node2&#45;&gt;Node3 -->
<g id="edge2_Node000002_Node000003" class="edge">
<title>Node2&#45;&gt;Node3</title>
<g id="a_edge2_Node000002_Node000003"><a xlink:title=" ">
<path fill="none" stroke="#63b8ff" d="M252.12,-248.91C244.82,-245.92 237.4,-242.53 230.67,-238.83 197.91,-220.81 163.73,-192.78 146.52,-177.9"/>
<polygon fill="#63b8ff" stroke="#63b8ff" points="251.35,-252.36 261.94,-252.73 253.89,-245.84 251.35,-252.36"/>
</a>
</g>
</g>
<!-- Node4 -->
<g id="Node000004" class="node">
<title>Node4</title>
<g id="a_Node000004"><a xlink:href="main_8cpp.html#a3c04138a5bfe5d72780bb7e82a18e627" target="_top" xlink:title=" ">
<polygon fill="white" stroke="#666666" points="37.5,-177.83 0.17,-177.83 0.17,-157.83 37.5,-157.83 37.5,-177.83"/>
<text text-anchor="middle" x="18.83" y="-164.83" font-family="Helvetica,sans-Serif" font-size="10.00">main</text>
</a>
</g>
</g>
<!-- Node3&#45;&gt;Node4 -->
<g id="edge3_Node000003_Node000004" class="edge">
<title>Node3&#45;&gt;Node4</title>
<g id="a_edge3_Node000003_Node000004"><a xlink:title=" ">
<path fill="none" stroke="#63b8ff" d="M63.24,-167.83C53.91,-167.83 45.09,-167.83 37.86,-167.83"/>
<polygon fill="#63b8ff" stroke="#63b8ff" points="63.51,-171.33 73.51,-167.83 63.51,-164.33 63.51,-171.33"/>
</a>
</g>
</g>
<!-- Node5&#45;&gt;Node3 -->
<g id="edge6_Node000005_Node000003" class="edge">
<title>Node5&#45;&gt;Node3</title>
<g id="a_edge6_Node000005_Node000003"><a xlink:title=" ">
<path fill="none" stroke="#63b8ff" d="M236.56,-285.75C234.53,-284.5 232.56,-283.2 230.67,-281.83 219.85,-273.99 164.09,-204.29 143.14,-177.9"/>
<polygon fill="#63b8ff" stroke="#63b8ff" points="235.33,-289.06 245.78,-290.82 238.71,-282.93 235.33,-289.06"/>
</a>
</g>
</g>
<!-- Node5&#45;&gt;Node4 -->
<g id="edge5_Node000005_Node000004" class="edge">
<title>Node5&#45;&gt;Node4</title>
<g id="a_edge5_Node000005_Node000004"><a xlink:title=" ">
<path fill="none" stroke="#63b8ff" d="M241.79,-286.83C238,-285.19 234.27,-283.51 230.67,-281.83 156.81,-247.25 72.46,-198.79 36.98,-177.98"/>
<polygon fill="#63b8ff" stroke="#63b8ff" points="240.65,-290.15 251.22,-290.82 243.37,-283.7 240.65,-290.15"/>
</a>
</g>
</g>
<!-- Node6&#45;&gt;Node4 -->
<g id="edge8_Node000006_Node000004" class="edge">
<title>Node6&#45;&gt;Node4</title>
<g id="a_edge8_Node000006_Node000004"><a xlink:title=" ">
<path fill="none" stroke="#63b8ff" d="M117.49,-53.23C93.21,-81.72 47.34,-135.55 28.37,-157.81"/>
<polygon fill="#63b8ff" stroke="#63b8ff" points="120.45,-55.15 124.28,-45.27 115.13,-50.61 120.45,-55.15"/>
</a>
</g>
</g>
<!-- Node7&#45;&gt;Node3 -->
<g id="edge10_Node000007_Node000003" class="edge">
<title>Node7&#45;&gt;Node3</title>
<g id="a_edge10_Node000007_Node000003"><a xlink:title=" ">
<path fill="none" stroke="#63b8ff" d="M240.15,-180.45C225.62,-178.7 209.77,-176.8 194.89,-175.01"/>
<polygon fill="#63b8ff" stroke="#63b8ff" points="240.12,-183.97 250.47,-181.69 240.95,-177.02 240.12,-183.97"/>
</a>
</g>
</g>
<!-- Node8&#45;&gt;Node3 -->
<g id="edge12_Node000008_Node000003" class="edge">
<title>Node8&#45;&gt;Node3</title>
<g id="a_edge12_Node000008_Node000003"><a xlink:title=" ">
<path fill="none" stroke="#63b8ff" d="M240.93,-155.12C226.18,-156.89 210.03,-158.83 194.88,-160.65"/>
<polygon fill="#63b8ff" stroke="#63b8ff" points="241.37,-158.59 250.88,-153.92 240.54,-151.64 241.37,-158.59"/>
</a>
</g>
</g>
<!-- Node9&#45;&gt;Node3 -->
<g id="edge14_Node000009_Node000003" class="edge">
<title>Node9&#45;&gt;Node3</title>
<g id="a_edge14_Node000009_Node000003"><a xlink:title=" ">
<path fill="none" stroke="#63b8ff" d="M248.38,-123.96C242.4,-125.85 236.37,-127.84 230.67,-129.83 205.92,-138.5 178.1,-149.74 158.9,-157.74"/>
<polygon fill="#63b8ff" stroke="#63b8ff" points="249.81,-127.18 258.32,-120.87 247.74,-120.49 249.81,-127.18"/>
</a>
</g>
</g>
<!-- Node10&#45;&gt;Node3 -->
<g id="edge16_Node000010_Node000003" class="edge">
<title>Node10&#45;&gt;Node3</title>
<g id="a_edge16_Node000010_Node000003"><a xlink:title=" ">
<path fill="none" stroke="#63b8ff" d="M242.42,-86.45C238.37,-88.08 234.41,-89.87 230.67,-91.83 195.97,-110.05 161.55,-141.63 145.12,-157.74"/>
<polygon fill="#63b8ff" stroke="#63b8ff" points="243.79,-89.68 251.97,-82.94 241.37,-83.11 243.79,-89.68"/>
</a>
</g>
</g>
<!-- Node11&#45;&gt;Node3 -->
<g id="edge19_Node000011_Node000003" class="edge">
<title>Node11&#45;&gt;Node3</title>
<g id="a_edge19_Node000011_Node000003"><a xlink:title=" ">
<path fill="none" stroke="#63b8ff" d="M238.94,-49.09C236.07,-50.52 233.29,-52.1 230.67,-53.83 187.81,-82.17 153.88,-135.33 140.89,-157.61"/>
<polygon fill="#63b8ff" stroke="#63b8ff" points="240.63,-52.17 248.38,-44.95 237.82,-45.76 240.63,-52.17"/>
</a>
</g>
</g>
<!-- Node11&#45;&gt;Node6 -->
<g id="edge18_Node000011_Node000006" class="edge">
<title>Node11&#45;&gt;Node6</title>
<g id="a_edge18_Node000011_Node000006"><a xlink:title=" ">
<path fill="none" stroke="#63b8ff" d="M220.29,-34.83C200.38,-34.83 179.95,-34.83 164.1,-34.83"/>
<polygon fill="#63b8ff" stroke="#63b8ff" points="220.31,-38.33 230.31,-34.83 220.31,-31.33 220.31,-38.33"/>
</a>
</g>
</g>
</g>
</svg>
