<?xml version="1.0" encoding="UTF-8" standalone="no"?>
<!DOCTYPE svg PUBLIC "-//W3C//DTD SVG 1.1//EN"
 "http://www.w3.org/Graphics/SVG/1.1/DTD/svg11.dtd">
<!-- Generated by graphviz version 2.46.0 (20210118.1747)
 -->
<!-- Title: Init::RandomPerturbation Pages: 1 -->
<svg width="366pt" height="66pt"
 viewBox="0.00 0.00 365.81 66.00" xmlns="http://www.w3.org/2000/svg" xmlns:xlink="http://www.w3.org/1999/xlink">
<g id="graph0" class="graph" transform="scale(1 1) rotate(0) translate(4 62)">
<title>Init::RandomPerturbation</title>
<!-- Node1 -->
<g id="Node000001" class="node">
<title>Node1</title>
<g id="a_Node000001"><a xlink:title=" ">
<polygon fill="#999999" stroke="#666666" points="357.88,-39 230.61,-39 230.61,-19 357.88,-19 357.88,-39"/>
<text text-anchor="middle" x="294.24" y="-26" font-family="Helvetica,sans-Serif" font-size="10.00">Init::RandomPerturbation</text>
</a>
</g>
</g>
<!-- Node2 -->
<g id="Node000002" class="node">
<title>Node2</title>
<g id="a_Node000002"><a xlink:href="classInit.html#a622540f0e2606ee86b781a8eb8f5a67c" target="_top" xlink:title=" ">
<polygon fill="white" stroke="#666666" points="164.02,-58 104.32,-58 104.32,-38 164.02,-38 164.02,-58"/>
<text text-anchor="middle" x="134.17" y="-45" font-family="Helvetica,sans-Serif" font-size="10.00">Init::Init2d</text>
</a>
</g>
</g>
<!-- Node1&#45;&gt;Node2 -->
<g id="edge1_Node000001_Node000002" class="edge">
<title>Node1&#45;&gt;Node2</title>
<g id="a_edge1_Node000001_Node000002"><a xlink:title=" ">
<path fill="none" stroke="#63b8ff" d="M220.29,-37.77C200.38,-40.16 179.95,-42.62 164.1,-44.52"/>
<polygon fill="#63b8ff" stroke="#63b8ff" points="220.8,-41.23 230.31,-36.56 219.97,-34.28 220.8,-41.23"/>
</a>
</g>
</g>
<!-- Node4 -->
<g id="Node000004" class="node">
<title>Node4</title>
<g id="a_Node000004"><a xlink:href="classIteration.html#ae341a02edb030229055de37fd518ac89" target="_top" xlink:title=" ">
<polygon fill="white" stroke="#666666" points="194.68,-20 73.66,-20 73.66,0 194.68,0 194.68,-20"/>
<text text-anchor="middle" x="134.17" y="-7" font-family="Helvetica,sans-Serif" font-size="10.00">Iteration::TimeMarching</text>
</a>
</g>
</g>
<!-- Node1&#45;&gt;Node4 -->
<g id="edge3_Node000001_Node000004" class="edge">
<title>Node1&#45;&gt;Node4</title>
<g id="a_edge3_Node000001_Node000004"><a xlink:title=" ">
<path fill="none" stroke="#63b8ff" d="M220.34,-20.24C211.79,-19.21 203.14,-18.17 194.8,-17.17"/>
<polygon fill="#63b8ff" stroke="#63b8ff" points="219.97,-23.72 230.31,-21.44 220.8,-16.77 219.97,-23.72"/>
</a>
</g>
</g>
<!-- Node3 -->
<g id="Node000003" class="node">
<title>Node3</title>
<g id="a_Node000003"><a xlink:href="main_8cpp.html#a3c04138a5bfe5d72780bb7e82a18e627" target="_top" xlink:title=" ">
<polygon fill="white" stroke="#666666" points="37.5,-39 0.17,-39 0.17,-19 37.5,-19 37.5,-39"/>
<text text-anchor="middle" x="18.83" y="-26" font-family="Helvetica,sans-Serif" font-size="10.00">main</text>
</a>
</g>
</g>
<!-- Node2&#45;&gt;Node3 -->
<g id="edge2_Node000002_Node000003" class="edge">
<title>Node2&#45;&gt;Node3</title>
<g id="a_edge2_Node000002_Node000003"><a xlink:title=" ">
<path fill="none" stroke="#63b8ff" d="M94.27,-41.48C75.07,-38.26 52.83,-34.53 37.7,-31.99"/>
<polygon fill="#63b8ff" stroke="#63b8ff" points="93.84,-44.95 104.28,-43.16 94.99,-38.05 93.84,-44.95"/>
</a>
</g>
</g>
<!-- Node4&#45;&gt;Node3 -->
<g id="edge4_Node000004_Node000003" class="edge">
<title>Node4&#45;&gt;Node3</title>
<g id="a_edge4_Node000004_Node000003"><a xlink:title=" ">
<path fill="none" stroke="#63b8ff" d="M63.54,-21.67C54.1,-23.26 45.16,-24.75 37.86,-25.98"/>
<polygon fill="#63b8ff" stroke="#63b8ff" points="64.23,-25.11 73.51,-20 63.07,-18.2 64.23,-25.11"/>
</a>
</g>
</g>
</g>
</svg>
