<?xml version="1.0" encoding="UTF-8" standalone="no"?>
<!DOCTYPE svg PUBLIC "-//W3C//DTD SVG 1.1//EN"
 "http://www.w3.org/Graphics/SVG/1.1/DTD/svg11.dtd">
<!-- Generated by graphviz version 2.46.0 (20210118.1747)
 -->
<!-- Title: vvm::Advection_qrVT Pages: 1 -->
<svg width="472pt" height="28pt"
 viewBox="0.00 0.00 471.71 28.00" xmlns="http://www.w3.org/2000/svg" xmlns:xlink="http://www.w3.org/1999/xlink">
<g id="graph0" class="graph" transform="scale(1 1) rotate(0) translate(4 24)">
<title>vvm::Advection_qrVT</title>
<!-- Node1 -->
<g id="Node000001" class="node">
<title>Node1</title>
<g id="a_Node000001"><a xlink:title=" ">
<polygon fill="#999999" stroke="#666666" points="463.72,-20 352.69,-20 352.69,0 463.72,0 463.72,-20"/>
<text text-anchor="middle" x="408.2" y="-7" font-family="Helvetica,sans-Serif" font-size="10.00">vvm::Advection_qrVT</text>
</a>
</g>
</g>
<!-- Node2 -->
<g id="Node000002" class="node">
<title>Node2</title>
<g id="a_Node000002"><a xlink:href="classIteration.html#ac30ea16c9e339a59c78637fa0753f775" target="_top" xlink:title=" ">
<polygon fill="white" stroke="#666666" points="316.71,-20 230.66,-20 230.66,0 316.71,0 316.71,-20"/>
<text text-anchor="middle" x="273.69" y="-7" font-family="Helvetica,sans-Serif" font-size="10.00">Iteration::pqr_pt</text>
</a>
</g>
</g>
<!-- Node1&#45;&gt;Node2 -->
<g id="edge1_Node000001_Node000002" class="edge">
<title>Node1&#45;&gt;Node2</title>
<g id="a_edge1_Node000001_Node000002"><a xlink:title=" ">
<path fill="none" stroke="#63b8ff" d="M342.47,-10C333.84,-10 325.19,-10 317.08,-10"/>
<polygon fill="#63b8ff" stroke="#63b8ff" points="342.54,-13.5 352.54,-10 342.54,-6.5 342.54,-13.5"/>
</a>
</g>
</g>
<!-- Node3 -->
<g id="Node000003" class="node">
<title>Node3</title>
<g id="a_Node000003"><a xlink:href="classIteration.html#ae341a02edb030229055de37fd518ac89" target="_top" xlink:title=" ">
<polygon fill="white" stroke="#666666" points="194.68,-20 73.66,-20 73.66,0 194.68,0 194.68,-20"/>
<text text-anchor="middle" x="134.17" y="-7" font-family="Helvetica,sans-Serif" font-size="10.00">Iteration::TimeMarching</text>
</a>
</g>
</g>
<!-- Node2&#45;&gt;Node3 -->
<g id="edge2_Node000002_Node000003" class="edge">
<title>Node2&#45;&gt;Node3</title>
<g id="a_edge2_Node000002_Node000003"><a xlink:title=" ">
<path fill="none" stroke="#63b8ff" d="M220.07,-10C211.82,-10 203.25,-10 194.85,-10"/>
<polygon fill="#63b8ff" stroke="#63b8ff" points="220.3,-13.5 230.3,-10 220.3,-6.5 220.3,-13.5"/>
</a>
</g>
</g>
<!-- Node4 -->
<g id="Node000004" class="node">
<title>Node4</title>
<g id="a_Node000004"><a xlink:href="main_8cpp.html#a3c04138a5bfe5d72780bb7e82a18e627" target="_top" xlink:title=" ">
<polygon fill="white" stroke="#666666" points="37.5,-20 0.17,-20 0.17,0 37.5,0 37.5,-20"/>
<text text-anchor="middle" x="18.83" y="-7" font-family="Helvetica,sans-Serif" font-size="10.00">main</text>
</a>
</g>
</g>
<!-- Node3&#45;&gt;Node4 -->
<g id="edge3_Node000003_Node000004" class="edge">
<title>Node3&#45;&gt;Node4</title>
<g id="a_edge3_Node000003_Node000004"><a xlink:title=" ">
<path fill="none" stroke="#63b8ff" d="M63.24,-10C53.91,-10 45.09,-10 37.86,-10"/>
<polygon fill="#63b8ff" stroke="#63b8ff" points="63.51,-13.5 73.51,-10 63.51,-6.5 63.51,-13.5"/>
</a>
</g>
</g>
</g>
</svg>
