<?xml version="1.0" encoding="UTF-8" standalone="no"?>
<!DOCTYPE svg PUBLIC "-//W3C//DTD SVG 1.1//EN"
 "http://www.w3.org/Graphics/SVG/1.1/DTD/svg11.dtd">
<!-- Generated by graphviz version 2.46.0 (20210118.1747)
 -->
<!-- Title: Iteration::TimeMarching Pages: 1 -->
<!--zoomable 790 -->

<svg id="main" version="1.1" xmlns="http://www.w3.org/2000/svg" xmlns:xlink="http://www.w3.org/1999/xlink" xml:space="preserve" onload="init(evt)">
<style type="text/css"><![CDATA[
.node, .edge {opacity: 0.7;}
.node.selected, .edge.selected {opacity: 1;}
.edge:hover path { stroke: red; }
.edge:hover polygon { stroke: red; fill: red; }
]]></style>

<defs>
  <circle id="rim" cx="0" cy="0" r="7"/>
  <circle id="rim2" cx="0" cy="0" r="3.5"/>
  <g id="zoomPlus">
    <use xlink:href="#rim" fill="#404040"><set attributeName="fill" to="#808080" begin="zoomplus.mouseover" end="zoomplus.mouseout"/></use>
    <path d="M-4,0h8M0,-4v8" fill="none" stroke="white" stroke-width="1.5" pointer-events="none"/>
  </g>
  <g id="zoomMin">
    <use xlink:href="#rim" fill="#404040"><set attributeName="fill" to="#808080" begin="zoomminus.mouseover" end="zoomminus.mouseout"/></use>
    <path d="M-4,0h8" fill="none" stroke="white" stroke-width="1.5" pointer-events="none"/>
  </g>
  <g id="arrowUp" transform="translate(30 24)">
    <use xlink:href="#rim"/>
    <path pointer-events="none" fill="none" stroke="white" stroke-width="1.5" d="M0,-3.0v7 M-2.5,-0.5L0,-3.0L2.5,-0.5"/>
  </g>
  <g id="arrowRight" transform="rotate(90) translate(36 -43)">
    <use xlink:href="#rim"/>
    <path pointer-events="none" fill="none" stroke="white" stroke-width="1.5" d="M0,-3.0v7 M-2.5,-0.5L0,-3.0L2.5,-0.5"/>
  </g>
  <g id="arrowDown" transform="rotate(180) translate(-30 -48)">
    <use xlink:href="#rim"/>
    <path pointer-events="none" fill="none" stroke="white" stroke-width="1.5" d="M0,-3.0v7 M-2.5,-0.5L0,-3.0L2.5,-0.5"/>
  </g>
  <g id="arrowLeft" transform="rotate(270) translate(-36 17)">
    <use xlink:href="#rim"/>
    <path pointer-events="none" fill="none" stroke="white" stroke-width="1.5" d="M0,-3.0v7 M-2.5,-0.5L0,-3.0L2.5,-0.5"/>
  </g>
  <g id="resetDef">
    <use xlink:href="#rim2" fill="#404040"><set attributeName="fill" to="#808080" begin="reset.mouseover" end="reset.mouseout"/></use>
  </g>
</defs>
<script type="application/ecmascript">
var viewWidth = 613;
var viewHeight = 790;
var sectionId = 'dynsection-11';
</script>
<script type="application/ecmascript" xlink:href="svg.min.js"/>
<svg id="graph" class="graph">
<g id="viewport">
<title>Iteration::TimeMarching</title>
<!-- Node1 -->
<g id="Node000001" class="node">
<title>Node1</title>
<g id="a_Node000001"><a xlink:title=" ">
<polygon fill="#999999" stroke="#666666" points="121.01,-404 -0,-404 -0,-384 121.01,-384 121.01,-404"/>
<text text-anchor="middle" x="60.5" y="-391" font-family="Helvetica,sans-Serif" font-size="10.00">Iteration::TimeMarching</text>
</a>
</g>
</g>
<!-- Node2 -->
<g id="Node000002" class="node">
<title>Node2</title>
<g id="a_Node000002"><a xlink:href="classvvm_1_1MicroPhysics.html#a124b68c95137705e772e933f3ff388c9" target="_top" xlink:title=" ">
<polygon fill="white" stroke="#666666" points="265.97,-782 161.31,-782 161.31,-750 265.97,-750 265.97,-782"/>
<text text-anchor="start" x="169.47" y="-769" font-family="Helvetica,sans-Serif" font-size="10.00">vvm::MicroPhysics::</text>
<text text-anchor="middle" x="213.64" y="-757" font-family="Helvetica,sans-Serif" font-size="10.00">accretion</text>
</a>
</g>
</g>
<!-- Node1&#45;&gt;Node2 -->
<g id="edge1_Node000001_Node000002" class="edge">
<title>Node1&#45;&gt;Node2</title>
<g id="a_edge1_Node000001_Node000002"><a xlink:title=" ">
<path fill="none" stroke="#63b8ff" d="M61.34,-404.23C61.14,-449.59 66.14,-634.96 157.01,-741 157.73,-741.84 158.49,-742.66 159.28,-743.45"/>
<polygon fill="#63b8ff" stroke="#63b8ff" points="157.13,-746.22 167.08,-749.88 161.58,-740.82 157.13,-746.22"/>
</a>
</g>
</g>
<!-- Node3 -->
<g id="Node000003" class="node">
<title>Node3</title>
<g id="a_Node000003"><a xlink:href="classvvm_1_1MicroPhysics.html#a30ea0fb37f59a0c9196225aa460049e1" target="_top" xlink:title=" ">
<polygon fill="white" stroke="#666666" points="265.97,-732 161.31,-732 161.31,-700 265.97,-700 265.97,-732"/>
<text text-anchor="start" x="169.47" y="-719" font-family="Helvetica,sans-Serif" font-size="10.00">vvm::MicroPhysics::</text>
<text text-anchor="middle" x="213.64" y="-707" font-family="Helvetica,sans-Serif" font-size="10.00">autoconversion</text>
</a>
</g>
</g>
<!-- Node1&#45;&gt;Node3 -->
<g id="edge2_Node000001_Node000003" class="edge">
<title>Node1&#45;&gt;Node3</title>
<g id="a_edge2_Node000001_Node000003"><a xlink:title=" ">
<path fill="none" stroke="#63b8ff" d="M61.9,-404.13C64.01,-445.26 77.2,-601.79 157.01,-691 157.77,-691.85 158.56,-692.67 159.38,-693.46"/>
<polygon fill="#63b8ff" stroke="#63b8ff" points="157.49,-696.43 167.49,-699.93 161.85,-690.96 157.49,-696.43"/>
</a>
</g>
</g>
<!-- Node4 -->
<g id="Node000004" class="node">
<title>Node4</title>
<g id="a_Node000004"><a xlink:href="classvvm.html#a0f7695aeeea1dac87393db3edfc7acd8" target="_top" xlink:title=" ">
<polygon fill="white" stroke="#666666" points="437.63,-618 306.48,-618 306.48,-586 437.63,-586 437.63,-618"/>
<text text-anchor="start" x="314.27" y="-605" font-family="Helvetica,sans-Serif" font-size="10.00">vvm::BoundaryProcess2D</text>
<text text-anchor="middle" x="372.05" y="-593" font-family="Helvetica,sans-Serif" font-size="10.00">_center</text>
</a>
</g>
</g>
<!-- Node1&#45;&gt;Node4 -->
<g id="edge3_Node000001_Node000004" class="edge">
<title>Node1&#45;&gt;Node4</title>
<g id="a_edge3_Node000001_Node000004"><a xlink:title=" ">
<path fill="none" stroke="#63b8ff" d="M62.46,-404.3C66.36,-439.65 84.51,-556.42 157.01,-603 200.32,-630.83 259.43,-628.25 304.56,-620.02"/>
<polygon fill="#63b8ff" stroke="#63b8ff" points="305.4,-623.42 314.55,-618.06 304.06,-616.55 305.4,-623.42"/>
</a>
</g>
</g>
<!-- Node5 -->
<g id="Node000005" class="node">
<title>Node5</title>
<g id="a_Node000005"><a xlink:href="classvvm.html#a88f21d908dca06f5c725da83a36caf96" target="_top" xlink:title=" ">
<polygon fill="white" stroke="#666666" points="605.2,-334 474.05,-334 474.05,-302 605.2,-302 605.2,-334"/>
<text text-anchor="start" x="481.84" y="-321" font-family="Helvetica,sans-Serif" font-size="10.00">vvm::BoundaryProcess2D</text>
<text text-anchor="middle" x="539.63" y="-309" font-family="Helvetica,sans-Serif" font-size="10.00">_westdown</text>
</a>
</g>
</g>
<!-- Node1&#45;&gt;Node5 -->
<g id="edge4_Node000001_Node000005" class="edge">
<title>Node1&#45;&gt;Node5</title>
<g id="a_edge4_Node000001_Node000005"><a xlink:title=" ">
<path fill="none" stroke="#63b8ff" d="M121.45,-384.45C208.38,-370.6 369.36,-344.96 463.91,-329.9"/>
<polygon fill="#63b8ff" stroke="#63b8ff" points="464.65,-333.33 473.98,-328.3 463.55,-326.41 464.65,-333.33"/>
</a>
</g>
</g>
<!-- Node6 -->
<g id="Node000006" class="node">
<title>Node6</title>
<g id="a_Node000006"><a xlink:href="classvvm_1_1PoissonSolver.html#a741f59b97f794a79a15fd919b3b2501e" target="_top" xlink:title=" ">
<polygon fill="white" stroke="#666666" points="265.42,-682 161.85,-682 161.85,-650 265.42,-650 265.42,-682"/>
<text text-anchor="start" x="169.74" y="-669" font-family="Helvetica,sans-Serif" font-size="10.00">vvm::PoissonSolver</text>
<text text-anchor="middle" x="213.64" y="-657" font-family="Helvetica,sans-Serif" font-size="10.00">::cal_u</text>
</a>
</g>
</g>
<!-- Node1&#45;&gt;Node6 -->
<g id="edge5_Node000001_Node000006" class="edge">
<title>Node1&#45;&gt;Node6</title>
<g id="a_edge5_Node000001_Node000006"><a xlink:title=" ">
<path fill="none" stroke="#63b8ff" d="M62.95,-404.04C68.56,-439.79 91.94,-562.71 157.01,-636 159.64,-638.96 162.63,-641.68 165.83,-644.18"/>
<polygon fill="#63b8ff" stroke="#63b8ff" points="163.92,-647.11 174.14,-649.9 167.89,-641.35 163.92,-647.11"/>
</a>
</g>
</g>
<!-- Node7 -->
<g id="Node000007" class="node">
<title>Node7</title>
<g id="a_Node000007"><a xlink:href="classvvm_1_1PoissonSolver.html#a03f3af096f7aa1861ee6512f41b5298f" target="_top" xlink:title=" ">
<polygon fill="white" stroke="#666666" points="423.84,-404 320.27,-404 320.27,-372 423.84,-372 423.84,-404"/>
<text text-anchor="start" x="328.16" y="-391" font-family="Helvetica,sans-Serif" font-size="10.00">vvm::PoissonSolver</text>
<text text-anchor="middle" x="372.05" y="-379" font-family="Helvetica,sans-Serif" font-size="10.00">::cal_w</text>
</a>
</g>
</g>
<!-- Node1&#45;&gt;Node7 -->
<g id="edge7_Node000001_Node000007" class="edge">
<title>Node1&#45;&gt;Node7</title>
<g id="a_edge7_Node000001_Node000007"><a xlink:title=" ">
<path fill="none" stroke="#63b8ff" d="M121.19,-392.84C175.49,-391.79 255.29,-390.24 310.01,-389.18"/>
<polygon fill="#63b8ff" stroke="#63b8ff" points="310.33,-392.68 320.26,-388.98 310.2,-385.68 310.33,-392.68"/>
</a>
</g>
</g>
<!-- Node8 -->
<g id="Node000008" class="node">
<title>Node8</title>
<g id="a_Node000008"><a xlink:href="classvvm_1_1MicroPhysics.html#a0e14e9f52aabebc378538378e39da16f" target="_top" xlink:title=" ">
<polygon fill="white" stroke="#666666" points="265.97,-290 161.31,-290 161.31,-258 265.97,-258 265.97,-290"/>
<text text-anchor="start" x="169.47" y="-277" font-family="Helvetica,sans-Serif" font-size="10.00">vvm::MicroPhysics::</text>
<text text-anchor="middle" x="213.64" y="-265" font-family="Helvetica,sans-Serif" font-size="10.00">condensation</text>
</a>
</g>
</g>
<!-- Node1&#45;&gt;Node8 -->
<g id="edge9_Node000001_Node000008" class="edge">
<title>Node1&#45;&gt;Node8</title>
<g id="a_edge9_Node000001_Node000008"><a xlink:title=" ">
<path fill="none" stroke="#63b8ff" d="M69.49,-383.93C84.79,-365.16 120.01,-324.45 157.01,-299 158.92,-297.68 160.92,-296.41 162.96,-295.18"/>
<polygon fill="#63b8ff" stroke="#63b8ff" points="165.13,-297.98 172.19,-290.08 161.74,-291.85 165.13,-297.98"/>
</a>
</g>
</g>
<!-- Node9 -->
<g id="Node000009" class="node">
<title>Node9</title>
<g id="a_Node000009"><a xlink:href="classvvm.html#ac6e47dca620f5b32dd6b0d1be432a347" target="_top" xlink:title=" ">
<polygon fill="white" stroke="#666666" points="252.92,-240 174.36,-240 174.36,-220 252.92,-220 252.92,-240"/>
<text text-anchor="middle" x="213.64" y="-227" font-family="Helvetica,sans-Serif" font-size="10.00">vvm::Diffusion</text>
</a>
</g>
</g>
<!-- Node1&#45;&gt;Node9 -->
<g id="edge10_Node000001_Node000009" class="edge">
<title>Node1&#45;&gt;Node9</title>
<g id="a_edge10_Node000001_Node000009"><a xlink:title=" ">
<path fill="none" stroke="#63b8ff" d="M65.39,-383.92C75.99,-357.74 107.91,-287.01 157.01,-249 159.47,-247.09 162.14,-245.37 164.92,-243.82"/>
<polygon fill="#63b8ff" stroke="#63b8ff" points="166.62,-246.88 174.13,-239.4 163.6,-240.57 166.62,-246.88"/>
</a>
</g>
</g>
<!-- Node10 -->
<g id="Node000010" class="node">
<title>Node10</title>
<g id="a_Node000010"><a xlink:href="classvvm_1_1MicroPhysics.html#aaaad239d8aa4db479cde21ce4ce12a65" target="_top" xlink:title=" ">
<polygon fill="white" stroke="#666666" points="265.97,-202 161.31,-202 161.31,-170 265.97,-170 265.97,-202"/>
<text text-anchor="start" x="169.47" y="-189" font-family="Helvetica,sans-Serif" font-size="10.00">vvm::MicroPhysics::</text>
<text text-anchor="middle" x="213.64" y="-177" font-family="Helvetica,sans-Serif" font-size="10.00">evaporation</text>
</a>
</g>
</g>
<!-- Node1&#45;&gt;Node10 -->
<g id="edge11_Node000001_Node000010" class="edge">
<title>Node1&#45;&gt;Node10</title>
<g id="a_edge11_Node000001_Node000010"><a xlink:title=" ">
<path fill="none" stroke="#63b8ff" d="M64.22,-383.83C72.79,-353.56 101.99,-262.88 157.01,-211 158.12,-209.96 159.27,-208.95 160.47,-207.98"/>
<polygon fill="#63b8ff" stroke="#63b8ff" points="162.69,-210.7 168.9,-202.12 158.7,-204.96 162.69,-210.7"/>
</a>
</g>
</g>
<!-- Node11 -->
<g id="Node000011" class="node">
<title>Node11</title>
<g id="a_Node000011"><a xlink:href="classvvm_1_1MicroPhysics.html#aa6a9e66b8c45fa524936db5a225d680e" target="_top" xlink:title=" ">
<polygon fill="white" stroke="#666666" points="430.69,-530 313.42,-530 313.42,-498 430.69,-498 430.69,-530"/>
<text text-anchor="start" x="321.49" y="-517" font-family="Helvetica,sans-Serif" font-size="10.00">vvm::MicroPhysics::</text>
<text text-anchor="middle" x="372.05" y="-505" font-family="Helvetica,sans-Serif" font-size="10.00">NegativeValueProcess</text>
</a>
</g>
</g>
<!-- Node1&#45;&gt;Node11 -->
<g id="edge12_Node000001_Node000011" class="edge">
<title>Node1&#45;&gt;Node11</title>
<g id="a_edge12_Node000001_Node000011"><a xlink:title=" ">
<path fill="none" stroke="#63b8ff" d="M121.14,-401.46C164.85,-408.95 224.33,-423.5 270.27,-451 290.23,-462.95 286.94,-476.05 306.27,-489 308.41,-490.44 310.66,-491.81 312.96,-493.12"/>
<polygon fill="#63b8ff" stroke="#63b8ff" points="311.61,-496.36 322.11,-497.85 314.83,-490.15 311.61,-496.36"/>
</a>
</g>
</g>
<!-- Node12 -->
<g id="Node000012" class="node">
<title>Node12</title>
<g id="a_Node000012"><a xlink:href="classOutput.html#a29f4af25257a72a15b771089d806fbb3" target="_top" xlink:title=" ">
<polygon fill="white" stroke="#666666" points="261.62,-152 165.65,-152 165.65,-132 261.62,-132 261.62,-152"/>
<text text-anchor="middle" x="213.64" y="-139" font-family="Helvetica,sans-Serif" font-size="10.00">Output::output_nc</text>
</a>
</g>
</g>
<!-- Node1&#45;&gt;Node12 -->
<g id="edge13_Node000001_Node000012" class="edge">
<title>Node1&#45;&gt;Node12</title>
<g id="a_edge13_Node000001_Node000012"><a xlink:title=" ">
<path fill="none" stroke="#63b8ff" d="M62.67,-383.95C67.34,-348.23 87.95,-226.04 157.01,-161 158.46,-159.64 160.01,-158.37 161.64,-157.19"/>
<polygon fill="#63b8ff" stroke="#63b8ff" points="163.51,-160.15 170.32,-152.04 159.94,-154.13 163.51,-160.15"/>
</a>
</g>
</g>
<!-- Node13 -->
<g id="Node000013" class="node">
<title>Node13</title>
<g id="a_Node000013"><a xlink:href="classIteration.html#a6b9d511fea92c2569c8da11c1a86a066" target="_top" xlink:title=" ">
<polygon fill="white" stroke="#666666" points="257.33,-518 169.94,-518 169.94,-498 257.33,-498 257.33,-518"/>
<text text-anchor="middle" x="213.64" y="-505" font-family="Helvetica,sans-Serif" font-size="10.00">Iteration::pqc_pt</text>
</a>
</g>
</g>
<!-- Node1&#45;&gt;Node13 -->
<g id="edge14_Node000001_Node000013" class="edge">
<title>Node1&#45;&gt;Node13</title>
<g id="a_edge14_Node000001_Node000013"><a xlink:title=" ">
<path fill="none" stroke="#63b8ff" d="M69.04,-404.1C83.86,-423.28 118.67,-465.18 157.01,-489 159.83,-490.75 162.82,-492.36 165.91,-493.84"/>
<polygon fill="#63b8ff" stroke="#63b8ff" points="164.79,-497.17 175.36,-497.9 167.55,-490.74 164.79,-497.17"/>
</a>
</g>
</g>
<!-- Node17 -->
<g id="Node000017" class="node">
<title>Node17</title>
<g id="a_Node000017"><a xlink:href="classIteration.html#ac30ea16c9e339a59c78637fa0753f775" target="_top" xlink:title=" ">
<polygon fill="white" stroke="#666666" points="256.66,-480 170.61,-480 170.61,-460 256.66,-460 256.66,-480"/>
<text text-anchor="middle" x="213.64" y="-467" font-family="Helvetica,sans-Serif" font-size="10.00">Iteration::pqr_pt</text>
</a>
</g>
</g>
<!-- Node1&#45;&gt;Node17 -->
<g id="edge20_Node000001_Node000017" class="edge">
<title>Node1&#45;&gt;Node17</title>
<g id="a_edge20_Node000001_Node000017"><a xlink:title=" ">
<path fill="none" stroke="#63b8ff" d="M78.86,-404.07C97.8,-414.92 129.17,-432.45 157.01,-446 163.9,-449.35 171.38,-452.74 178.55,-455.88"/>
<polygon fill="#63b8ff" stroke="#63b8ff" points="177.48,-459.23 188.05,-459.96 180.24,-452.8 177.48,-459.23"/>
</a>
</g>
</g>
<!-- Node19 -->
<g id="Node000019" class="node">
<title>Node19</title>
<g id="a_Node000019"><a xlink:href="classIteration.html#ab92cc262ad139b14958847277b88d017" target="_top" xlink:title=" ">
<polygon fill="white" stroke="#666666" points="257.33,-556 169.94,-556 169.94,-536 257.33,-536 257.33,-556"/>
<text text-anchor="middle" x="213.64" y="-543" font-family="Helvetica,sans-Serif" font-size="10.00">Iteration::pqv_pt</text>
</a>
</g>
</g>
<!-- Node1&#45;&gt;Node19 -->
<g id="edge27_Node000001_Node000019" class="edge">
<title>Node1&#45;&gt;Node19</title>
<g id="a_edge27_Node000001_Node000019"><a xlink:title=" ">
<path fill="none" stroke="#63b8ff" d="M66.13,-404.32C77.77,-429.13 110.67,-492.6 157.01,-527 159.2,-528.63 161.54,-530.12 163.97,-531.49"/>
<polygon fill="#63b8ff" stroke="#63b8ff" points="162.58,-534.7 173.1,-535.94 165.64,-528.41 162.58,-534.7"/>
</a>
</g>
</g>
<!-- Node20 -->
<g id="Node000020" class="node">
<title>Node20</title>
<g id="a_Node000020"><a xlink:href="classIteration.html#a7d5499ac76ee826bdda0184feb1fef5f" target="_top" xlink:title=" ">
<polygon fill="white" stroke="#666666" points="256.61,-594 170.66,-594 170.66,-574 256.61,-574 256.61,-594"/>
<text text-anchor="middle" x="213.64" y="-581" font-family="Helvetica,sans-Serif" font-size="10.00">Iteration::pth_pt</text>
</a>
</g>
</g>
<!-- Node1&#45;&gt;Node20 -->
<g id="edge31_Node000001_Node000020" class="edge">
<title>Node1&#45;&gt;Node20</title>
<g id="a_edge31_Node000001_Node000020"><a xlink:title=" ">
<path fill="none" stroke="#63b8ff" d="M64.34,-404.15C73.04,-433.49 102.18,-519.26 157.01,-565 158.76,-566.46 160.63,-567.81 162.58,-569.06"/>
<polygon fill="#63b8ff" stroke="#63b8ff" points="161.11,-572.25 171.58,-573.9 164.43,-566.08 161.11,-572.25"/>
</a>
</g>
</g>
<!-- Node21 -->
<g id="Node000021" class="node">
<title>Node21</title>
<g id="a_Node000021"><a xlink:href="classvvm_1_1PoissonSolver.html#a47ac6e26a9dde6ed72a178dcb92d3bab" target="_top" xlink:title=" ">
<polygon fill="white" stroke="#666666" points="265.42,-114 161.85,-114 161.85,-82 265.42,-82 265.42,-114"/>
<text text-anchor="start" x="169.74" y="-101" font-family="Helvetica,sans-Serif" font-size="10.00">vvm::PoissonSolver</text>
<text text-anchor="middle" x="213.64" y="-89" font-family="Helvetica,sans-Serif" font-size="10.00">::pubarTop_pt</text>
</a>
</g>
</g>
<!-- Node1&#45;&gt;Node21 -->
<g id="edge34_Node000001_Node000021" class="edge">
<title>Node1&#45;&gt;Node21</title>
<g id="a_edge34_Node000001_Node000021"><a xlink:title=" ">
<path fill="none" stroke="#63b8ff" d="M62.25,-383.96C65.66,-345.21 82.88,-203.59 157.01,-123 157.78,-122.16 158.58,-121.35 159.42,-120.56"/>
<polygon fill="#63b8ff" stroke="#63b8ff" points="161.88,-123.08 167.59,-114.16 157.56,-117.57 161.88,-123.08"/>
</a>
</g>
</g>
<!-- Node22 -->
<g id="Node000022" class="node">
<title>Node22</title>
<g id="a_Node000022"><a xlink:href="classIteration.html#a012d468a6070b5b181d88b226821ce5c" target="_top" xlink:title=" ">
<polygon fill="white" stroke="#666666" points="261.67,-328 165.61,-328 165.61,-308 261.67,-308 261.67,-328"/>
<text text-anchor="middle" x="213.64" y="-315" font-family="Helvetica,sans-Serif" font-size="10.00">Iteration::pzeta_pt</text>
</a>
</g>
</g>
<!-- Node1&#45;&gt;Node22 -->
<g id="edge35_Node000001_Node000022" class="edge">
<title>Node1&#45;&gt;Node22</title>
<g id="a_edge35_Node000001_Node000022"><a xlink:title=" ">
<path fill="none" stroke="#63b8ff" d="M78.86,-383.93C97.8,-373.08 129.17,-355.55 157.01,-342 163.9,-338.65 171.38,-335.26 178.55,-332.12"/>
<polygon fill="#63b8ff" stroke="#63b8ff" points="180.24,-335.2 188.05,-328.04 177.48,-328.77 180.24,-335.2"/>
</a>
</g>
</g>
<!-- Node30 -->
<g id="Node000030" class="node">
<title>Node30</title>
<g id="a_Node000030"><a xlink:href="classvvm.html#ab10c85732f7f7256133cf53f099232c2" target="_top" xlink:title=" ">
<polygon fill="white" stroke="#666666" points="255.96,-64 171.32,-64 171.32,-44 255.96,-44 255.96,-64"/>
<text text-anchor="middle" x="213.64" y="-51" font-family="Helvetica,sans-Serif" font-size="10.00">vvm::TimeFilter</text>
</a>
</g>
</g>
<!-- Node1&#45;&gt;Node30 -->
<g id="edge47_Node000001_Node000030" class="edge">
<title>Node1&#45;&gt;Node30</title>
<g id="a_edge47_Node000001_Node000030"><a xlink:title=" ">
<path fill="none" stroke="#63b8ff" d="M61.38,-383.74C61.41,-339.9 67.38,-166.29 157.01,-73 158.65,-71.3 160.44,-69.74 162.35,-68.33"/>
<polygon fill="#63b8ff" stroke="#63b8ff" points="164.55,-71.1 171.36,-62.99 160.97,-65.08 164.55,-71.1"/>
</a>
</g>
</g>
<!-- Node31 -->
<g id="Node000031" class="node">
<title>Node31</title>
<g id="a_Node000031"><a xlink:href="classIteration.html#a8836fdf87b17b4bc628fd77db64c6af3" target="_top" xlink:title=" ">
<polygon fill="white" stroke="#666666" points="270.4,-26 156.88,-26 156.88,-6 270.4,-6 270.4,-26"/>
<text text-anchor="middle" x="213.64" y="-13" font-family="Helvetica,sans-Serif" font-size="10.00">Iteration::updateMean</text>
</a>
</g>
</g>
<!-- Node1&#45;&gt;Node31 -->
<g id="edge48_Node000001_Node000031" class="edge">
<title>Node1&#45;&gt;Node31</title>
<g id="a_edge48_Node000001_Node000031"><a xlink:title=" ">
<path fill="none" stroke="#63b8ff" d="M61,-383.84C59.25,-337.14 58.23,-140.86 157.01,-35 158.07,-33.86 159.21,-32.78 160.41,-31.77"/>
<polygon fill="#63b8ff" stroke="#63b8ff" points="162.67,-34.47 169.03,-26.01 158.78,-28.66 162.67,-34.47"/>
</a>
</g>
</g>
<!-- Node6&#45;&gt;Node4 -->
<g id="edge6_Node000006_Node000004" class="edge">
<title>Node6&#45;&gt;Node4</title>
<g id="a_edge6_Node000006_Node000004"><a xlink:title=" ">
<path fill="none" stroke="#63b8ff" d="M254.11,-649.85C274.84,-641.37 300.44,-630.89 322.39,-621.91"/>
<polygon fill="#63b8ff" stroke="#63b8ff" points="323.94,-625.06 331.87,-618.03 321.29,-618.58 323.94,-625.06"/>
</a>
</g>
</g>
<!-- Node7&#45;&gt;Node5 -->
<g id="edge8_Node000007_Node000005" class="edge">
<title>Node7&#45;&gt;Node5</title>
<g id="a_edge8_Node000007_Node000005"><a xlink:title=" ">
<path fill="none" stroke="#63b8ff" d="M407.84,-371.93C427.18,-363.14 451.72,-352.2 473.84,-343 477.96,-341.29 482.24,-339.55 486.55,-337.82"/>
<polygon fill="#63b8ff" stroke="#63b8ff" points="487.97,-341.03 495.99,-334.09 485.4,-334.52 487.97,-341.03"/>
</a>
</g>
</g>
<!-- Node13&#45;&gt;Node4 -->
<g id="edge18_Node000013_Node000004" class="edge">
<title>Node13&#45;&gt;Node4</title>
<g id="a_edge18_Node000013_Node000004"><a xlink:title=" ">
<path fill="none" stroke="#63b8ff" d="M254.17,-518.07C259.87,-520.47 265.43,-523.41 270.27,-527 292.26,-543.31 284.59,-560.26 306.27,-577 308.05,-578.38 309.92,-579.69 311.85,-580.93"/>
<polygon fill="#63b8ff" stroke="#63b8ff" points="310.24,-584.04 320.65,-585.97 313.72,-577.97 310.24,-584.04"/>
</a>
</g>
</g>
<!-- Node13&#45;&gt;Node11 -->
<g id="edge19_Node000013_Node000011" class="edge">
<title>Node13&#45;&gt;Node11</title>
<g id="a_edge19_Node000013_Node000011"><a xlink:title=" ">
<path fill="none" stroke="#63b8ff" d="M257.38,-509.64C271.55,-510.18 287.69,-510.8 303.28,-511.4"/>
<polygon fill="#63b8ff" stroke="#63b8ff" points="303.28,-514.9 313.41,-511.79 303.55,-507.91 303.28,-514.9"/>
</a>
</g>
</g>
<!-- Node14 -->
<g id="Node000014" class="node">
<title>Node14</title>
<g id="a_Node000014"><a xlink:href="classvvm.html#a7a376a97df688fa6a19e5f6d9fc02491" target="_top" xlink:title=" ">
<polygon fill="white" stroke="#666666" points="432.52,-568 311.59,-568 311.59,-548 432.52,-548 432.52,-568"/>
<text text-anchor="middle" x="372.05" y="-555" font-family="Helvetica,sans-Serif" font-size="10.00">vvm::Advection_thermo</text>
</a>
</g>
</g>
<!-- Node13&#45;&gt;Node14 -->
<g id="edge15_Node000013_Node000014" class="edge">
<title>Node13&#45;&gt;Node14</title>
<g id="a_edge15_Node000013_Node000014"><a xlink:title=" ">
<path fill="none" stroke="#63b8ff" d="M244.23,-518.08C268.61,-526.37 300.14,-537.07 306.27,-539 312.65,-541.01 319.41,-543.08 326.06,-545.06"/>
<polygon fill="#63b8ff" stroke="#63b8ff" points="325.09,-548.43 335.67,-547.91 327.07,-541.71 325.09,-548.43"/>
</a>
</g>
</g>
<!-- Node15 -->
<g id="Node000015" class="node">
<title>Node15</title>
<g id="a_Node000015"><a xlink:href="Advection_8cpp.html#a8566d63c1693d34aba0fa86f658532a2" target="_top" xlink:title=" ">
<polygon fill="white" stroke="#666666" points="563.84,-562 515.41,-562 515.41,-542 563.84,-542 563.84,-562"/>
<text text-anchor="middle" x="539.63" y="-549" font-family="Helvetica,sans-Serif" font-size="10.00">MINUS</text>
</a>
</g>
</g>
<!-- Node14&#45;&gt;Node15 -->
<g id="edge16_Node000014_Node000015" class="edge">
<title>Node14&#45;&gt;Node15</title>
<g id="a_edge16_Node000014_Node000015"><a xlink:title=" ">
<path fill="none" stroke="#63b8ff" d="M432.36,-555.85C456.86,-554.96 484.34,-553.97 505.22,-553.21"/>
<polygon fill="#63b8ff" stroke="#63b8ff" points="505.62,-556.7 515.49,-552.84 505.37,-549.7 505.62,-556.7"/>
</a>
</g>
</g>
<!-- Node16 -->
<g id="Node000016" class="node">
<title>Node16</title>
<g id="a_Node000016"><a xlink:href="Advection_8cpp.html#ac35c0748e7807333a355cd2b8e5dfef8" target="_top" xlink:title=" ">
<polygon fill="white" stroke="#666666" points="560.74,-524 518.51,-524 518.51,-504 560.74,-504 560.74,-524"/>
<text text-anchor="middle" x="539.63" y="-511" font-family="Helvetica,sans-Serif" font-size="10.00">PLUS</text>
</a>
</g>
</g>
<!-- Node14&#45;&gt;Node16 -->
<g id="edge17_Node000014_Node000016" class="edge">
<title>Node14&#45;&gt;Node16</title>
<g id="a_edge17_Node000014_Node000016"><a xlink:title=" ">
<path fill="none" stroke="#63b8ff" d="M411.04,-547.91C440.67,-540.03 481.26,-529.25 508.63,-521.97"/>
<polygon fill="#63b8ff" stroke="#63b8ff" points="509.66,-525.32 518.43,-519.37 507.86,-518.55 509.66,-525.32"/>
</a>
</g>
</g>
<!-- Node17&#45;&gt;Node4 -->
<g id="edge25_Node000017_Node000004" class="edge">
<title>Node17&#45;&gt;Node4</title>
<g id="a_edge25_Node000017_Node000004"><a xlink:title=" ">
<path fill="none" stroke="#63b8ff" d="M256.68,-479.9C261.64,-482.3 266.33,-485.29 270.27,-489 301.02,-517.98 276.09,-547.42 306.27,-577 307.34,-578.05 308.47,-579.07 309.64,-580.04"/>
<polygon fill="#63b8ff" stroke="#63b8ff" points="307.69,-582.94 317.87,-585.85 311.72,-577.22 307.69,-582.94"/>
</a>
</g>
</g>
<!-- Node17&#45;&gt;Node11 -->
<g id="edge26_Node000017_Node000011" class="edge">
<title>Node17&#45;&gt;Node11</title>
<g id="a_edge26_Node000017_Node000011"><a xlink:title=" ">
<path fill="none" stroke="#63b8ff" d="M250.52,-480.09C266.42,-484.57 285.67,-489.98 304.07,-495.16"/>
<polygon fill="#63b8ff" stroke="#63b8ff" points="303.3,-498.58 313.88,-497.92 305.2,-491.84 303.3,-498.58"/>
</a>
</g>
</g>
<!-- Node17&#45;&gt;Node14 -->
<g id="edge24_Node000017_Node000014" class="edge">
<title>Node17&#45;&gt;Node14</title>
<g id="a_edge24_Node000017_Node000014"><a xlink:title=" ">
<path fill="none" stroke="#63b8ff" d="M254.17,-480.07C259.87,-482.47 265.43,-485.41 270.27,-489 292.26,-505.31 283.92,-523.18 306.27,-539 308.64,-540.68 311.17,-542.22 313.79,-543.62"/>
<polygon fill="#63b8ff" stroke="#63b8ff" points="312.47,-546.86 323.01,-547.88 315.4,-540.51 312.47,-546.86"/>
</a>
</g>
</g>
<!-- Node18 -->
<g id="Node000018" class="node">
<title>Node18</title>
<g id="a_Node000018"><a xlink:href="classvvm.html#a5a6a59d52a4562766f6c57429cae2cb5" target="_top" xlink:title=" ">
<polygon fill="white" stroke="#666666" points="427.57,-480 316.54,-480 316.54,-460 427.57,-460 427.57,-480"/>
<text text-anchor="middle" x="372.05" y="-467" font-family="Helvetica,sans-Serif" font-size="10.00">vvm::Advection_qrVT</text>
</a>
</g>
</g>
<!-- Node17&#45;&gt;Node18 -->
<g id="edge21_Node000017_Node000018" class="edge">
<title>Node17&#45;&gt;Node18</title>
<g id="a_edge21_Node000017_Node000018"><a xlink:title=" ">
<path fill="none" stroke="#63b8ff" d="M256.97,-470C272.1,-470 289.52,-470 306.13,-470"/>
<polygon fill="#63b8ff" stroke="#63b8ff" points="306.33,-473.5 316.33,-470 306.33,-466.5 306.33,-473.5"/>
</a>
</g>
</g>
<!-- Node18&#45;&gt;Node15 -->
<g id="edge22_Node000018_Node000015" class="edge">
<title>Node18&#45;&gt;Node15</title>
<g id="a_edge22_Node000018_Node000015"><a xlink:title=" ">
<path fill="none" stroke="#63b8ff" d="M419.88,-480.03C426.19,-482.43 432.37,-485.37 437.84,-489 458.9,-502.96 452.78,-519.04 473.84,-533 483.25,-539.23 494.73,-543.46 505.41,-546.32"/>
<polygon fill="#63b8ff" stroke="#63b8ff" points="504.77,-549.76 515.31,-548.65 506.38,-542.95 504.77,-549.76"/>
</a>
</g>
</g>
<!-- Node18&#45;&gt;Node16 -->
<g id="edge23_Node000018_Node000016" class="edge">
<title>Node18&#45;&gt;Node16</title>
<g id="a_edge23_Node000018_Node000016"><a xlink:title=" ">
<path fill="none" stroke="#63b8ff" d="M411.04,-480.09C440.67,-487.97 481.26,-498.75 508.63,-506.03"/>
<polygon fill="#63b8ff" stroke="#63b8ff" points="507.86,-509.45 518.43,-508.63 509.66,-502.68 507.86,-509.45"/>
</a>
</g>
</g>
<!-- Node19&#45;&gt;Node4 -->
<g id="edge29_Node000019_Node000004" class="edge">
<title>Node19&#45;&gt;Node4</title>
<g id="a_edge29_Node000019_Node000004"><a xlink:title=" ">
<path fill="none" stroke="#63b8ff" d="M244.42,-556.03C252.79,-558.89 261.9,-562.03 270.27,-565 285.98,-570.57 303.02,-576.76 318.53,-582.46"/>
<polygon fill="#63b8ff" stroke="#63b8ff" points="317.38,-585.77 327.97,-585.94 319.8,-579.2 317.38,-585.77"/>
</a>
</g>
</g>
<!-- Node19&#45;&gt;Node11 -->
<g id="edge30_Node000019_Node000011" class="edge">
<title>Node19&#45;&gt;Node11</title>
<g id="a_edge30_Node000019_Node000011"><a xlink:title=" ">
<path fill="none" stroke="#63b8ff" d="M257.38,-537.26C271.55,-534.36 287.69,-531.05 303.28,-527.87"/>
<polygon fill="#63b8ff" stroke="#63b8ff" points="304.31,-531.23 313.41,-525.79 302.91,-524.37 304.31,-531.23"/>
</a>
</g>
</g>
<!-- Node19&#45;&gt;Node14 -->
<g id="edge28_Node000019_Node000014" class="edge">
<title>Node19&#45;&gt;Node14</title>
<g id="a_edge28_Node000019_Node000014"><a xlink:title=" ">
<path fill="none" stroke="#63b8ff" d="M257.38,-549.28C270.98,-550.32 286.39,-551.5 301.37,-552.65"/>
<polygon fill="#63b8ff" stroke="#63b8ff" points="301.42,-556.17 311.65,-553.44 301.95,-549.19 301.42,-556.17"/>
</a>
</g>
</g>
<!-- Node20&#45;&gt;Node4 -->
<g id="edge33_Node000020_Node000004" class="edge">
<title>Node20&#45;&gt;Node4</title>
<g id="a_edge33_Node000020_Node000004"><a xlink:title=" ">
<path fill="none" stroke="#63b8ff" d="M256.55,-588.82C268.74,-590.23 282.44,-591.8 296.01,-593.36"/>
<polygon fill="#63b8ff" stroke="#63b8ff" points="296,-596.89 306.33,-594.55 296.8,-589.93 296,-596.89"/>
</a>
</g>
</g>
<!-- Node20&#45;&gt;Node14 -->
<g id="edge32_Node000020_Node000014" class="edge">
<title>Node20&#45;&gt;Node14</title>
<g id="a_edge32_Node000020_Node000014"><a xlink:title=" ">
<path fill="none" stroke="#63b8ff" d="M256.55,-577.03C270.44,-574.73 286.28,-572.09 301.66,-569.54"/>
<polygon fill="#63b8ff" stroke="#63b8ff" points="302.38,-572.96 311.67,-567.87 301.24,-566.06 302.38,-572.96"/>
</a>
</g>
</g>
<!-- Node22&#45;&gt;Node5 -->
<g id="edge44_Node000022_Node000005" class="edge">
<title>Node22&#45;&gt;Node5</title>
<g id="a_edge44_Node000022_Node000005"><a xlink:title=" ">
<path fill="none" stroke="#63b8ff" d="M261.75,-318C314.7,-318 401.39,-318 463.67,-318"/>
<polygon fill="#63b8ff" stroke="#63b8ff" points="463.83,-321.5 473.83,-318 463.83,-314.5 463.83,-321.5"/>
</a>
</g>
</g>
<!-- Node23 -->
<g id="Node000023" class="node">
<title>Node23</title>
<g id="a_Node000023"><a xlink:href="classvvm.html#aec9080346387072f75c1e5907a5f9964" target="_top" xlink:title=" ">
<polygon fill="white" stroke="#666666" points="426.3,-442 317.81,-442 317.81,-422 426.3,-422 426.3,-442"/>
<text text-anchor="middle" x="372.05" y="-429" font-family="Helvetica,sans-Serif" font-size="10.00">vvm::Advection_zeta</text>
</a>
</g>
</g>
<!-- Node22&#45;&gt;Node23 -->
<g id="edge36_Node000022_Node000023" class="edge">
<title>Node22&#45;&gt;Node23</title>
<g id="a_edge36_Node000022_Node000023"><a xlink:title=" ">
<path fill="none" stroke="#63b8ff" d="M221.68,-328.27C235.57,-347.73 268.43,-390.1 306.27,-413 309.41,-414.9 312.75,-416.62 316.2,-418.18"/>
<polygon fill="#63b8ff" stroke="#63b8ff" points="314.93,-421.44 325.51,-421.92 317.54,-414.95 314.93,-421.44"/>
</a>
</g>
</g>
<!-- Node28 -->
<g id="Node000028" class="node">
<title>Node28</title>
<g id="a_Node000028"><a xlink:href="classvvm.html#ad5a7610975364e5b4163e7aff3c8e7ef" target="_top" xlink:title=" ">
<polygon fill="white" stroke="#666666" points="413.85,-278 330.26,-278 330.26,-258 413.85,-258 413.85,-278"/>
<text text-anchor="middle" x="372.05" y="-265" font-family="Helvetica,sans-Serif" font-size="10.00">vvm::Bouyancy</text>
</a>
</g>
</g>
<!-- Node22&#45;&gt;Node28 -->
<g id="edge45_Node000022_Node000028" class="edge">
<title>Node22&#45;&gt;Node28</title>
<g id="a_edge45_Node000022_Node000028"><a xlink:title=" ">
<path fill="none" stroke="#63b8ff" d="M246.29,-307.88C270.43,-300.16 303.88,-289.47 330.07,-281.1"/>
<polygon fill="#63b8ff" stroke="#63b8ff" points="331.26,-284.4 339.72,-278.02 329.12,-277.73 331.26,-284.4"/>
</a>
</g>
</g>
<!-- Node23&#45;&gt;Node5 -->
<g id="edge37_Node000023_Node000005" class="edge">
<title>Node23&#45;&gt;Node5</title>
<g id="a_edge37_Node000023_Node000005"><a xlink:title=" ">
<path fill="none" stroke="#63b8ff" d="M422.94,-422C428.31,-419.61 433.41,-416.66 437.84,-413 464.81,-390.72 447.82,-366.38 473.84,-343 475.14,-341.84 476.49,-340.72 477.89,-339.66"/>
<polygon fill="#63b8ff" stroke="#63b8ff" points="479.94,-342.51 486.4,-334.11 476.11,-336.65 479.94,-342.51"/>
</a>
</g>
</g>
<!-- Node23&#45;&gt;Node15 -->
<g id="edge38_Node000023_Node000015" class="edge">
<title>Node23&#45;&gt;Node15</title>
<g id="a_edge38_Node000023_Node000015"><a xlink:title=" ">
<path fill="none" stroke="#63b8ff" d="M423.82,-442.04C428.9,-444.42 433.7,-447.36 437.84,-451 467.73,-477.28 443.95,-506.72 473.84,-533 482.6,-540.7 494.34,-545.29 505.43,-548.02"/>
<polygon fill="#63b8ff" stroke="#63b8ff" points="504.81,-551.46 515.31,-550.03 506.21,-544.6 504.81,-551.46"/>
</a>
</g>
</g>
<!-- Node23&#45;&gt;Node16 -->
<g id="edge39_Node000023_Node000016" class="edge">
<title>Node23&#45;&gt;Node16</title>
<g id="a_edge39_Node000023_Node000016"><a xlink:title=" ">
<path fill="none" stroke="#63b8ff" d="M419.88,-442.03C426.19,-444.43 432.37,-447.37 437.84,-451 458.9,-464.96 452.78,-481.04 473.84,-495 484.09,-501.79 496.82,-506.21 508.27,-509.05"/>
<polygon fill="#63b8ff" stroke="#63b8ff" points="507.81,-512.53 518.32,-511.25 509.3,-505.7 507.81,-512.53"/>
</a>
</g>
</g>
<!-- Node24 -->
<g id="Node000024" class="node">
<title>Node24</title>
<g id="a_Node000024"><a xlink:href="Advection_8cpp.html#ad84d7b263ba0496ac8d74df75d706075" target="_top" xlink:title=" ">
<polygon fill="white" stroke="#666666" points="563.3,-486 515.95,-486 515.95,-466 563.3,-466 563.3,-486"/>
<text text-anchor="middle" x="539.63" y="-473" font-family="Helvetica,sans-Serif" font-size="10.00">U_zeta</text>
</a>
</g>
</g>
<!-- Node23&#45;&gt;Node24 -->
<g id="edge40_Node000023_Node000024" class="edge">
<title>Node23&#45;&gt;Node24</title>
<g id="a_edge40_Node000023_Node000024"><a xlink:title=" ">
<path fill="none" stroke="#63b8ff" d="M411.04,-442.09C439.65,-449.7 478.49,-460.02 505.77,-467.27"/>
<polygon fill="#63b8ff" stroke="#63b8ff" points="505.05,-470.7 515.62,-469.89 506.85,-463.93 505.05,-470.7"/>
</a>
</g>
</g>
<!-- Node25 -->
<g id="Node000025" class="node">
<title>Node25</title>
<g id="a_Node000025"><a xlink:href="Advection_8cpp.html#afd67bfda19d291830edf3e9849cc9277" target="_top" xlink:title=" ">
<polygon fill="white" stroke="#666666" points="567.63,-448 511.62,-448 511.62,-428 567.63,-428 567.63,-448"/>
<text text-anchor="middle" x="539.63" y="-435" font-family="Helvetica,sans-Serif" font-size="10.00">Um_zeta</text>
</a>
</g>
</g>
<!-- Node23&#45;&gt;Node25 -->
<g id="edge41_Node000023_Node000025" class="edge">
<title>Node23&#45;&gt;Node25</title>
<g id="a_edge41_Node000023_Node000025"><a xlink:title=" ">
<path fill="none" stroke="#63b8ff" d="M426.35,-433.93C450.84,-434.82 479.28,-435.85 501.41,-436.65"/>
<polygon fill="#63b8ff" stroke="#63b8ff" points="501.29,-440.15 511.41,-437.01 501.54,-433.15 501.29,-440.15"/>
</a>
</g>
</g>
<!-- Node26 -->
<g id="Node000026" class="node">
<title>Node26</title>
<g id="a_Node000026"><a xlink:href="Advection_8cpp.html#aff7c21fcae63b86ac2b3234e1bc5f188" target="_top" xlink:title=" ">
<polygon fill="white" stroke="#666666" points="564.52,-410 514.73,-410 514.73,-390 564.52,-390 564.52,-410"/>
<text text-anchor="middle" x="539.63" y="-397" font-family="Helvetica,sans-Serif" font-size="10.00">W_zeta</text>
</a>
</g>
</g>
<!-- Node23&#45;&gt;Node26 -->
<g id="edge42_Node000023_Node000026" class="edge">
<title>Node23&#45;&gt;Node26</title>
<g id="a_edge42_Node000023_Node000026"><a xlink:title=" ">
<path fill="none" stroke="#63b8ff" d="M424.99,-421.96C450.98,-416.94 481.7,-411 504.64,-406.57"/>
<polygon fill="#63b8ff" stroke="#63b8ff" points="505.44,-409.98 514.59,-404.65 504.11,-403.11 505.44,-409.98"/>
</a>
</g>
</g>
<!-- Node27 -->
<g id="Node000027" class="node">
<title>Node27</title>
<g id="a_Node000027"><a xlink:href="Advection_8cpp.html#ac8a793aa9b91091521141a121f60ef90" target="_top" xlink:title=" ">
<polygon fill="white" stroke="#666666" points="568.85,-372 510.4,-372 510.4,-352 568.85,-352 568.85,-372"/>
<text text-anchor="middle" x="539.63" y="-359" font-family="Helvetica,sans-Serif" font-size="10.00">Wm_zeta</text>
</a>
</g>
</g>
<!-- Node23&#45;&gt;Node27 -->
<g id="edge43_Node000023_Node000027" class="edge">
<title>Node23&#45;&gt;Node27</title>
<g id="a_edge43_Node000023_Node000027"><a xlink:title=" ">
<path fill="none" stroke="#63b8ff" d="M416.99,-421.99C424.18,-419.55 431.38,-416.58 437.84,-413 456.57,-402.63 455.12,-391.37 473.84,-381 482.12,-376.41 491.63,-372.83 500.76,-370.07"/>
<polygon fill="#63b8ff" stroke="#63b8ff" points="501.74,-373.43 510.45,-367.39 499.88,-366.68 501.74,-373.43"/>
</a>
</g>
</g>
<!-- Node29 -->
<g id="Node000029" class="node">
<title>Node29</title>
<g id="a_Node000029"><a xlink:href="Buoyancy_8cpp.html#a8ecf3975b610cb48d26b59dead3553db" target="_top" xlink:title=" ">
<polygon fill="white" stroke="#666666" points="564.52,-278 514.73,-278 514.73,-258 564.52,-258 564.52,-278"/>
<text text-anchor="middle" x="539.63" y="-265" font-family="Helvetica,sans-Serif" font-size="10.00">getTHV</text>
</a>
</g>
</g>
<!-- Node28&#45;&gt;Node29 -->
<g id="edge46_Node000028_Node000029" class="edge">
<title>Node28&#45;&gt;Node29</title>
<g id="a_edge46_Node000028_Node000029"><a xlink:title=" ">
<path fill="none" stroke="#63b8ff" d="M413.98,-268C441.76,-268 478.06,-268 504.32,-268"/>
<polygon fill="#63b8ff" stroke="#63b8ff" points="504.55,-271.5 514.55,-268 504.55,-264.5 504.55,-271.5"/>
</a>
</g>
</g>
<!-- Node32 -->
<g id="Node000032" class="node">
<title>Node32</title>
<g id="a_Node000032"><a xlink:href="classvvm.html#ace6f793034804810c37b0363b70648ed" target="_top" xlink:title=" ">
<polygon fill="white" stroke="#666666" points="437.63,-32 306.48,-32 306.48,0 437.63,0 437.63,-32"/>
<text text-anchor="start" x="314.27" y="-19" font-family="Helvetica,sans-Serif" font-size="10.00">vvm::BoundaryProcess1D</text>
<text text-anchor="middle" x="372.05" y="-7" font-family="Helvetica,sans-Serif" font-size="10.00">_center</text>
</a>
</g>
</g>
<!-- Node31&#45;&gt;Node32 -->
<g id="edge49_Node000031_Node000032" class="edge">
<title>Node31&#45;&gt;Node32</title>
<g id="a_edge49_Node000031_Node000032"><a xlink:title=" ">
<path fill="none" stroke="#63b8ff" d="M270.67,-16C278.98,-16 287.66,-16 296.29,-16"/>
<polygon fill="#63b8ff" stroke="#63b8ff" points="296.36,-19.5 306.36,-16 296.36,-12.5 296.36,-19.5"/>
</a>
</g>
</g>
</g>
</svg>

<g id="navigator" transform="translate(0 0)" fill="#404254">
  <rect fill="#f2f5e9" fill-opacity="0.5" stroke="#606060" stroke-width=".5" x="0" y="0" width="60" height="60"/>
  <use id="zoomplus" xlink:href="#zoomPlus" x="17" y="9" onmousedown="handleZoom(evt,'in')"/>
  <use id="zoomminus" xlink:href="#zoomMin" x="42" y="9" onmousedown="handleZoom(evt,'out')"/>
  <use id="reset" xlink:href="#resetDef" x="30" y="36" onmousedown="handleReset()"/>
   <use id="arrowup" xlink:href="#arrowUp" x="0" y="0" onmousedown="handlePan(0,-1)"/>
  <use id="arrowright" xlink:href="#arrowRight" x="0" y="0" onmousedown="handlePan(1,0)"/>
  <use id="arrowdown" xlink:href="#arrowDown" x="0" y="0" onmousedown="handlePan(0,1)"/>
  <use id="arrowleft" xlink:href="#arrowLeft" x="0" y="0" onmousedown="handlePan(-1,0)"/>
</g>
<svg viewBox="0 0 15 15" width="100%" height="30px" preserveAspectRatio="xMaxYMin meet">
 <g id="arrow_out" transform="scale(0.3 0.3)">
  <a xlink:href="classIteration_ae341a02edb030229055de37fd518ac89_cgraph_org.svg" target="_base">
   <rect id="button" ry="5" rx="5" y="6" x="6" height="38" width="38"
        fill="#f2f5e9" fill-opacity="0.5" stroke="#606060" stroke-width="1.0"/>
   <path id="arrow"
     d="M 11.500037,31.436501 C 11.940474,20.09759 22.043105,11.32322 32.158766,21.979434 L 37.068811,17.246167 C 37.068811,17.246167 37.088388,32 37.088388,32 L 22.160133,31.978069 C 22.160133,31.978069 26.997745,27.140456 26.997745,27.140456 C 18.528582,18.264221 13.291696,25.230495 11.500037,31.436501 z"
     style="fill:#404040;"/>
  </a>
 </g>
</svg>

<style type='text/css'>
<![CDATA[
[data-mouse-over-selected='false'] { opacity: 0.7; }
[data-mouse-over-selected='true']  { opacity: 1.0; }
]]>
</style>
<script type="application/ecmascript"><![CDATA[
document.addEventListener('DOMContentLoaded', (event) => {
  highlightEdges();
  highlightAdjacentNodes();
});
]]></script>
</svg>
