<?xml version="1.0" encoding="UTF-8" standalone="no"?>
<!DOCTYPE svg PUBLIC "-//W3C//DTD SVG 1.1//EN"
 "http://www.w3.org/Graphics/SVG/1.1/DTD/svg11.dtd">
<!-- Generated by graphviz version 2.46.0 (20210118.1747)
 -->
<!-- Title: vvm::BoundaryProcess2D_westdown Pages: 1 -->
<!--zoomable 189 -->

<svg id="main" version="1.1" xmlns="http://www.w3.org/2000/svg" xmlns:xlink="http://www.w3.org/1999/xlink" xml:space="preserve" onload="init(evt)">
<style type="text/css"><![CDATA[
.node, .edge {opacity: 0.7;}
.node.selected, .edge.selected {opacity: 1;}
.edge:hover path { stroke: red; }
.edge:hover polygon { stroke: red; fill: red; }
]]></style>

<defs>
  <circle id="rim" cx="0" cy="0" r="7"/>
  <circle id="rim2" cx="0" cy="0" r="3.5"/>
  <g id="zoomPlus">
    <use xlink:href="#rim" fill="#404040"><set attributeName="fill" to="#808080" begin="zoomplus.mouseover" end="zoomplus.mouseout"/></use>
    <path d="M-4,0h8M0,-4v8" fill="none" stroke="white" stroke-width="1.5" pointer-events="none"/>
  </g>
  <g id="zoomMin">
    <use xlink:href="#rim" fill="#404040"><set attributeName="fill" to="#808080" begin="zoomminus.mouseover" end="zoomminus.mouseout"/></use>
    <path d="M-4,0h8" fill="none" stroke="white" stroke-width="1.5" pointer-events="none"/>
  </g>
  <g id="arrowUp" transform="translate(30 24)">
    <use xlink:href="#rim"/>
    <path pointer-events="none" fill="none" stroke="white" stroke-width="1.5" d="M0,-3.0v7 M-2.5,-0.5L0,-3.0L2.5,-0.5"/>
  </g>
  <g id="arrowRight" transform="rotate(90) translate(36 -43)">
    <use xlink:href="#rim"/>
    <path pointer-events="none" fill="none" stroke="white" stroke-width="1.5" d="M0,-3.0v7 M-2.5,-0.5L0,-3.0L2.5,-0.5"/>
  </g>
  <g id="arrowDown" transform="rotate(180) translate(-30 -48)">
    <use xlink:href="#rim"/>
    <path pointer-events="none" fill="none" stroke="white" stroke-width="1.5" d="M0,-3.0v7 M-2.5,-0.5L0,-3.0L2.5,-0.5"/>
  </g>
  <g id="arrowLeft" transform="rotate(270) translate(-36 17)">
    <use xlink:href="#rim"/>
    <path pointer-events="none" fill="none" stroke="white" stroke-width="1.5" d="M0,-3.0v7 M-2.5,-0.5L0,-3.0L2.5,-0.5"/>
  </g>
  <g id="resetDef">
    <use xlink:href="#rim2" fill="#404040"><set attributeName="fill" to="#808080" begin="reset.mouseover" end="reset.mouseout"/></use>
  </g>
</defs>
<script type="application/ecmascript">
var viewWidth = 654;
var viewHeight = 189;
var sectionId = 'dynsection-11';
</script>
<script type="application/ecmascript" xlink:href="svg.min.js"/>
<svg id="graph" class="graph">
<g id="viewport">
<title>vvm::BoundaryProcess2D_westdown</title>
<!-- Node1 -->
<g id="Node000001" class="node">
<title>Node1</title>
<g id="a_Node000001"><a xlink:title=" ">
<polygon fill="#999999" stroke="#666666" points="646.07,-111 514.92,-111 514.92,-79 646.07,-79 646.07,-111"/>
<text text-anchor="start" x="522.71" y="-98" font-family="Helvetica,sans-Serif" font-size="10.00">vvm::BoundaryProcess2D</text>
<text text-anchor="middle" x="580.49" y="-86" font-family="Helvetica,sans-Serif" font-size="10.00">_westdown</text>
</a>
</g>
</g>
<!-- Node2 -->
<g id="Node000002" class="node">
<title>Node2</title>
<g id="a_Node000002"><a xlink:href="classvvm.html#aec9080346387072f75c1e5907a5f9964" target="_top" xlink:title=" ">
<polygon fill="white" stroke="#666666" points="478.83,-181 370.34,-181 370.34,-161 478.83,-161 478.83,-181"/>
<text text-anchor="middle" x="424.58" y="-168" font-family="Helvetica,sans-Serif" font-size="10.00">vvm::Advection_zeta</text>
</a>
</g>
</g>
<!-- Node1&#45;&gt;Node2 -->
<g id="edge1_Node000001_Node000002" class="edge">
<title>Node1&#45;&gt;Node2</title>
<g id="a_edge1_Node000001_Node000002"><a xlink:title=" ">
<path fill="none" stroke="#63b8ff" d="M540.24,-115.85C521.69,-125.55 499.18,-137.1 478.71,-147 468.87,-151.76 457.87,-156.77 448.45,-160.98"/>
<polygon fill="#63b8ff" stroke="#63b8ff" points="542.04,-118.86 549.27,-111.12 538.79,-112.66 542.04,-118.86"/>
</a>
</g>
</g>
<!-- Node3 -->
<g id="Node000003" class="node">
<title>Node3</title>
<g id="a_Node000003"><a xlink:href="classIteration.html#a012d468a6070b5b181d88b226821ce5c" target="_top" xlink:title=" ">
<polygon fill="white" stroke="#666666" points="330.6,-143 234.54,-143 234.54,-123 330.6,-123 330.6,-143"/>
<text text-anchor="middle" x="282.57" y="-130" font-family="Helvetica,sans-Serif" font-size="10.00">Iteration::pzeta_pt</text>
</a>
</g>
</g>
<!-- Node1&#45;&gt;Node3 -->
<g id="edge10_Node000001_Node000003" class="edge">
<title>Node1&#45;&gt;Node3</title>
<g id="a_edge10_Node000001_Node000003"><a xlink:title=" ">
<path fill="none" stroke="#63b8ff" d="M504.55,-105.54C495.84,-106.73 487.08,-107.9 478.71,-109 428.28,-115.6 370.45,-122.65 330.91,-127.39"/>
<polygon fill="#63b8ff" stroke="#63b8ff" points="505.29,-108.97 514.72,-104.15 504.34,-102.04 505.29,-108.97"/>
</a>
</g>
</g>
<!-- Node4 -->
<g id="Node000004" class="node">
<title>Node4</title>
<g id="a_Node000004"><a xlink:href="classIteration.html#ae341a02edb030229055de37fd518ac89" target="_top" xlink:title=" ">
<polygon fill="white" stroke="#666666" points="194.68,-102 73.66,-102 73.66,-82 194.68,-82 194.68,-102"/>
<text text-anchor="middle" x="134.17" y="-89" font-family="Helvetica,sans-Serif" font-size="10.00">Iteration::TimeMarching</text>
</a>
</g>
</g>
<!-- Node1&#45;&gt;Node4 -->
<g id="edge11_Node000001_Node000004" class="edge">
<title>Node1&#45;&gt;Node4</title>
<g id="a_edge11_Node000001_Node000004"><a xlink:title=" ">
<path fill="none" stroke="#63b8ff" d="M504.79,-94.5C417.58,-93.91 275.07,-92.94 194.88,-92.4"/>
<polygon fill="#63b8ff" stroke="#63b8ff" points="504.86,-98 514.89,-94.56 504.91,-91 504.86,-98"/>
</a>
</g>
</g>
<!-- Node6 -->
<g id="Node000006" class="node">
<title>Node6</title>
<g id="a_Node000006"><a xlink:href="classvvm_1_1PoissonSolver.html#a03f3af096f7aa1861ee6512f41b5298f" target="_top" xlink:title=" ">
<polygon fill="white" stroke="#666666" points="334.35,-67 230.78,-67 230.78,-35 334.35,-35 334.35,-67"/>
<text text-anchor="start" x="238.67" y="-54" font-family="Helvetica,sans-Serif" font-size="10.00">vvm::PoissonSolver</text>
<text text-anchor="middle" x="282.57" y="-42" font-family="Helvetica,sans-Serif" font-size="10.00">::cal_w</text>
</a>
</g>
</g>
<!-- Node1&#45;&gt;Node6 -->
<g id="edge5_Node000001_Node000006" class="edge">
<title>Node1&#45;&gt;Node6</title>
<g id="a_edge5_Node000001_Node000006"><a xlink:title=" ">
<path fill="none" stroke="#63b8ff" d="M504.86,-83.9C451.71,-76 381.67,-65.59 334.75,-58.61"/>
<polygon fill="#63b8ff" stroke="#63b8ff" points="504.51,-87.39 514.92,-85.4 505.54,-80.47 504.51,-87.39"/>
</a>
</g>
</g>
<!-- Node7 -->
<g id="Node000007" class="node">
<title>Node7</title>
<g id="a_Node000007"><a xlink:href="classInit.html#a622540f0e2606ee86b781a8eb8f5a67c" target="_top" xlink:title=" ">
<polygon fill="white" stroke="#666666" points="164.02,-20 104.32,-20 104.32,0 164.02,0 164.02,-20"/>
<text text-anchor="middle" x="134.17" y="-7" font-family="Helvetica,sans-Serif" font-size="10.00">Init::Init2d</text>
</a>
</g>
</g>
<!-- Node1&#45;&gt;Node7 -->
<g id="edge8_Node000001_Node000007" class="edge">
<title>Node1&#45;&gt;Node7</title>
<g id="a_edge8_Node000001_Node000007"><a xlink:title=" ">
<path fill="none" stroke="#63b8ff" d="M526.35,-75.4C511.07,-70.08 494.32,-64.54 478.71,-60 415.46,-41.62 399.53,-36.22 334.46,-26 274.28,-16.55 202.95,-12.54 164.04,-10.95"/>
<polygon fill="#63b8ff" stroke="#63b8ff" points="525.56,-78.83 536.15,-78.85 527.88,-72.23 525.56,-78.83"/>
</a>
</g>
</g>
<!-- Node2&#45;&gt;Node3 -->
<g id="edge2_Node000002_Node000003" class="edge">
<title>Node2&#45;&gt;Node3</title>
<g id="a_edge2_Node000002_Node000003"><a xlink:title=" ">
<path fill="none" stroke="#63b8ff" d="M376.62,-158.26C358.48,-153.33 338.01,-147.77 320.9,-143.13"/>
<polygon fill="#63b8ff" stroke="#63b8ff" points="375.86,-161.67 386.43,-160.92 377.7,-154.92 375.86,-161.67"/>
</a>
</g>
</g>
<!-- Node3&#45;&gt;Node4 -->
<g id="edge3_Node000003_Node000004" class="edge">
<title>Node3&#45;&gt;Node4</title>
<g id="a_edge3_Node000003_Node000004"><a xlink:title=" ">
<path fill="none" stroke="#63b8ff" d="M236.12,-120.27C215.2,-114.41 190.73,-107.56 171.12,-102.07"/>
<polygon fill="#63b8ff" stroke="#63b8ff" points="235.18,-123.64 245.75,-122.97 237.07,-116.9 235.18,-123.64"/>
</a>
</g>
</g>
<!-- Node5 -->
<g id="Node000005" class="node">
<title>Node5</title>
<g id="a_Node000005"><a xlink:href="main_8cpp.html#a3c04138a5bfe5d72780bb7e82a18e627" target="_top" xlink:title=" ">
<polygon fill="white" stroke="#666666" points="37.5,-61 0.17,-61 0.17,-41 37.5,-41 37.5,-61"/>
<text text-anchor="middle" x="18.83" y="-48" font-family="Helvetica,sans-Serif" font-size="10.00">main</text>
</a>
</g>
</g>
<!-- Node4&#45;&gt;Node5 -->
<g id="edge4_Node000004_Node000005" class="edge">
<title>Node4&#45;&gt;Node5</title>
<g id="a_edge4_Node000004_Node000005"><a xlink:title=" ">
<path fill="none" stroke="#63b8ff" d="M95.89,-78.51C76.34,-71.44 53.29,-63.1 37.73,-57.48"/>
<polygon fill="#63b8ff" stroke="#63b8ff" points="94.85,-81.86 105.44,-81.97 97.23,-75.28 94.85,-81.86"/>
</a>
</g>
</g>
<!-- Node6&#45;&gt;Node4 -->
<g id="edge7_Node000006_Node000004" class="edge">
<title>Node6&#45;&gt;Node4</title>
<g id="a_edge7_Node000006_Node000004"><a xlink:title=" ">
<path fill="none" stroke="#63b8ff" d="M220.94,-67.98C204,-72.72 186.13,-77.73 171.12,-81.93"/>
<polygon fill="#63b8ff" stroke="#63b8ff" points="222.09,-71.29 230.78,-65.22 220.2,-64.55 222.09,-71.29"/>
</a>
</g>
</g>
<!-- Node6&#45;&gt;Node5 -->
<g id="edge6_Node000006_Node000005" class="edge">
<title>Node6&#45;&gt;Node5</title>
<g id="a_edge6_Node000006_Node000005"><a xlink:title=" ">
<path fill="none" stroke="#63b8ff" d="M220.47,-51C161.11,-51 74.69,-51 37.71,-51"/>
<polygon fill="#63b8ff" stroke="#63b8ff" points="220.48,-54.5 230.48,-51 220.48,-47.5 220.48,-54.5"/>
</a>
</g>
</g>
<!-- Node7&#45;&gt;Node5 -->
<g id="edge9_Node000007_Node000005" class="edge">
<title>Node7&#45;&gt;Node5</title>
<g id="a_edge9_Node000007_Node000005"><a xlink:title=" ">
<path fill="none" stroke="#63b8ff" d="M95.89,-23.49C76.34,-30.56 53.29,-38.9 37.73,-44.52"/>
<polygon fill="#63b8ff" stroke="#63b8ff" points="97.23,-26.72 105.44,-20.03 94.85,-20.14 97.23,-26.72"/>
</a>
</g>
</g>
</g>
</svg>

<g id="navigator" transform="translate(0 0)" fill="#404254">
  <rect fill="#f2f5e9" fill-opacity="0.5" stroke="#606060" stroke-width=".5" x="0" y="0" width="60" height="60"/>
  <use id="zoomplus" xlink:href="#zoomPlus" x="17" y="9" onmousedown="handleZoom(evt,'in')"/>
  <use id="zoomminus" xlink:href="#zoomMin" x="42" y="9" onmousedown="handleZoom(evt,'out')"/>
  <use id="reset" xlink:href="#resetDef" x="30" y="36" onmousedown="handleReset()"/>
   <use id="arrowup" xlink:href="#arrowUp" x="0" y="0" onmousedown="handlePan(0,-1)"/>
  <use id="arrowright" xlink:href="#arrowRight" x="0" y="0" onmousedown="handlePan(1,0)"/>
  <use id="arrowdown" xlink:href="#arrowDown" x="0" y="0" onmousedown="handlePan(0,1)"/>
  <use id="arrowleft" xlink:href="#arrowLeft" x="0" y="0" onmousedown="handlePan(-1,0)"/>
</g>
<svg viewBox="0 0 15 15" width="100%" height="30px" preserveAspectRatio="xMaxYMin meet">
 <g id="arrow_out" transform="scale(0.3 0.3)">
  <a xlink:href="classvvm_a88f21d908dca06f5c725da83a36caf96_icgraph_org.svg" target="_base">
   <rect id="button" ry="5" rx="5" y="6" x="6" height="38" width="38"
        fill="#f2f5e9" fill-opacity="0.5" stroke="#606060" stroke-width="1.0"/>
   <path id="arrow"
     d="M 11.500037,31.436501 C 11.940474,20.09759 22.043105,11.32322 32.158766,21.979434 L 37.068811,17.246167 C 37.068811,17.246167 37.088388,32 37.088388,32 L 22.160133,31.978069 C 22.160133,31.978069 26.997745,27.140456 26.997745,27.140456 C 18.528582,18.264221 13.291696,25.230495 11.500037,31.436501 z"
     style="fill:#404040;"/>
  </a>
 </g>
</svg>

<style type='text/css'>
<![CDATA[
[data-mouse-over-selected='false'] { opacity: 0.7; }
[data-mouse-over-selected='true']  { opacity: 1.0; }
]]>
</style>
<script type="application/ecmascript"><![CDATA[
document.addEventListener('DOMContentLoaded', (event) => {
  highlightEdges();
  highlightAdjacentNodes();
});
]]></script>
</svg>
