<?xml version="1.0" encoding="UTF-8" standalone="no"?>
<!DOCTYPE svg PUBLIC "-//W3C//DTD SVG 1.1//EN"
 "http://www.w3.org/Graphics/SVG/1.1/DTD/svg11.dtd">
<!-- Generated by graphviz version 2.46.0 (20210118.1747)
 -->
<!-- Title: Iteration::pqr_pt Pages: 1 -->
<svg width="346pt" height="166pt"
 viewBox="0.00 0.00 345.81 166.00" xmlns="http://www.w3.org/2000/svg" xmlns:xlink="http://www.w3.org/1999/xlink">

<svg id="main" version="1.1" xmlns="http://www.w3.org/2000/svg" xmlns:xlink="http://www.w3.org/1999/xlink" xml:space="preserve" onload="init(evt)">
<style type="text/css"><![CDATA[
.node, .edge {opacity: 0.7;}
.node.selected, .edge.selected {opacity: 1;}
.edge:hover path { stroke: red; }
.edge:hover polygon { stroke: red; fill: red; }
]]></style>
<script type="application/ecmascript" xlink:href="svg.min.js"/>
<svg id="graph" class="graph">
<g id="graph0" class="graph" transform="scale(1 1) rotate(0) translate(4 162)">
<title>Iteration::pqr_pt</title>
<!-- Node1 -->
<g id="Node000001" class="node">
<title>Node1</title>
<g id="a_Node000001"><a xlink:title=" ">
<polygon fill="#999999" stroke="#666666" points="86.03,-98 -0.01,-98 -0.01,-78 86.03,-78 86.03,-98"/>
<text text-anchor="middle" x="43.01" y="-85" font-family="Helvetica,sans-Serif" font-size="10.00">Iteration::pqr_pt</text>
</a>
</g>
</g>
<!-- Node2 -->
<g id="Node000002" class="node">
<title>Node2</title>
<g id="a_Node000002"><a xlink:href="classvvm.html#a5a6a59d52a4562766f6c57429cae2cb5" target="_top" xlink:title=" ">
<polygon fill="white" stroke="#666666" points="243.33,-158 132.29,-158 132.29,-138 243.33,-138 243.33,-158"/>
<text text-anchor="middle" x="187.81" y="-145" font-family="Helvetica,sans-Serif" font-size="10.00">vvm::Advection_qrVT</text>
</a>
</g>
</g>
<!-- Node1&#45;&gt;Node2 -->
<g id="edge1_Node000001_Node000002" class="edge">
<title>Node1&#45;&gt;Node2</title>
<g id="a_edge1_Node000001_Node000002"><a xlink:title=" ">
<path fill="none" stroke="#63b8ff" d="M60.89,-98.13C76.39,-107.12 100.18,-120.16 122.02,-129 127.18,-131.09 132.66,-133.06 138.16,-134.88"/>
<polygon fill="#63b8ff" stroke="#63b8ff" points="137.42,-138.31 148.01,-137.99 139.53,-131.64 137.42,-138.31"/>
</a>
</g>
</g>
<!-- Node5 -->
<g id="Node000005" class="node">
<title>Node5</title>
<g id="a_Node000005"><a xlink:href="classvvm.html#a7a376a97df688fa6a19e5f6d9fc02491" target="_top" xlink:title=" ">
<polygon fill="white" stroke="#666666" points="248.27,-120 127.35,-120 127.35,-100 248.27,-100 248.27,-120"/>
<text text-anchor="middle" x="187.81" y="-107" font-family="Helvetica,sans-Serif" font-size="10.00">vvm::Advection_thermo</text>
</a>
</g>
</g>
<!-- Node1&#45;&gt;Node5 -->
<g id="edge4_Node000001_Node000005" class="edge">
<title>Node1&#45;&gt;Node5</title>
<g id="a_edge4_Node000001_Node000005"><a xlink:title=" ">
<path fill="none" stroke="#63b8ff" d="M86.08,-94.48C95.87,-95.99 106.55,-97.63 117.18,-99.27"/>
<polygon fill="#63b8ff" stroke="#63b8ff" points="116.9,-102.77 127.32,-100.83 117.97,-95.85 116.9,-102.77"/>
</a>
</g>
</g>
<!-- Node6 -->
<g id="Node000006" class="node">
<title>Node6</title>
<g id="a_Node000006"><a xlink:href="classvvm.html#a0f7695aeeea1dac87393db3edfc7acd8" target="_top" xlink:title=" ">
<polygon fill="white" stroke="#666666" points="253.38,-82 122.24,-82 122.24,-50 253.38,-50 253.38,-82"/>
<text text-anchor="start" x="130.02" y="-69" font-family="Helvetica,sans-Serif" font-size="10.00">vvm::BoundaryProcess2D</text>
<text text-anchor="middle" x="187.81" y="-57" font-family="Helvetica,sans-Serif" font-size="10.00">_center</text>
</a>
</g>
</g>
<!-- Node1&#45;&gt;Node6 -->
<g id="edge7_Node000001_Node000006" class="edge">
<title>Node1&#45;&gt;Node6</title>
<g id="a_edge7_Node000001_Node000006"><a xlink:title=" ">
<path fill="none" stroke="#63b8ff" d="M86.08,-81.52C94.27,-80.26 103.08,-78.9 111.97,-77.53"/>
<polygon fill="#63b8ff" stroke="#63b8ff" points="112.65,-80.97 122,-75.99 111.58,-74.05 112.65,-80.97"/>
</a>
</g>
</g>
<!-- Node7 -->
<g id="Node000007" class="node">
<title>Node7</title>
<g id="a_Node000007"><a xlink:href="classvvm_1_1MicroPhysics.html#aa6a9e66b8c45fa524936db5a225d680e" target="_top" xlink:title=" ">
<polygon fill="white" stroke="#666666" points="246.44,-32 129.18,-32 129.18,0 246.44,0 246.44,-32"/>
<text text-anchor="start" x="137.24" y="-19" font-family="Helvetica,sans-Serif" font-size="10.00">vvm::MicroPhysics::</text>
<text text-anchor="middle" x="187.81" y="-7" font-family="Helvetica,sans-Serif" font-size="10.00">NegativeValueProcess</text>
</a>
</g>
</g>
<!-- Node1&#45;&gt;Node7 -->
<g id="edge8_Node000001_Node000007" class="edge">
<title>Node1&#45;&gt;Node7</title>
<g id="a_edge8_Node000001_Node000007"><a xlink:title=" ">
<path fill="none" stroke="#63b8ff" d="M59.11,-77.82C74.51,-67.7 99.3,-52.12 122.02,-41 125.52,-39.29 129.16,-37.61 132.86,-35.99"/>
<polygon fill="#63b8ff" stroke="#63b8ff" points="134.27,-39.19 142.11,-32.07 131.54,-32.75 134.27,-39.19"/>
</a>
</g>
</g>
<!-- Node3 -->
<g id="Node000003" class="node">
<title>Node3</title>
<g id="a_Node000003"><a xlink:href="Advection_8cpp.html#a8566d63c1693d34aba0fa86f658532a2" target="_top" xlink:title=" ">
<polygon fill="white" stroke="#666666" points="337.92,-158 289.49,-158 289.49,-138 337.92,-138 337.92,-158"/>
<text text-anchor="middle" x="313.7" y="-145" font-family="Helvetica,sans-Serif" font-size="10.00">MINUS</text>
</a>
</g>
</g>
<!-- Node2&#45;&gt;Node3 -->
<g id="edge2_Node000002_Node000003" class="edge">
<title>Node2&#45;&gt;Node3</title>
<g id="a_edge2_Node000002_Node000003"><a xlink:title=" ">
<path fill="none" stroke="#63b8ff" d="M243.51,-148C255.7,-148 268.26,-148 279.28,-148"/>
<polygon fill="#63b8ff" stroke="#63b8ff" points="279.31,-151.5 289.31,-148 279.31,-144.5 279.31,-151.5"/>
</a>
</g>
</g>
<!-- Node4 -->
<g id="Node000004" class="node">
<title>Node4</title>
<g id="a_Node000004"><a xlink:href="Advection_8cpp.html#ac35c0748e7807333a355cd2b8e5dfef8" target="_top" xlink:title=" ">
<polygon fill="white" stroke="#666666" points="334.82,-120 292.59,-120 292.59,-100 334.82,-100 334.82,-120"/>
<text text-anchor="middle" x="313.7" y="-107" font-family="Helvetica,sans-Serif" font-size="10.00">PLUS</text>
</a>
</g>
</g>
<!-- Node2&#45;&gt;Node4 -->
<g id="edge3_Node000002_Node000004" class="edge">
<title>Node2&#45;&gt;Node4</title>
<g id="a_edge3_Node000002_Node000004"><a xlink:title=" ">
<path fill="none" stroke="#63b8ff" d="M223.83,-137.91C233.49,-135.08 243.96,-131.96 253.6,-129 263.13,-126.07 273.49,-122.78 282.84,-119.76"/>
<polygon fill="#63b8ff" stroke="#63b8ff" points="284.07,-123.05 292.5,-116.64 281.91,-116.39 284.07,-123.05"/>
</a>
</g>
</g>
<!-- Node5&#45;&gt;Node3 -->
<g id="edge5_Node000005_Node000003" class="edge">
<title>Node5&#45;&gt;Node3</title>
<g id="a_edge5_Node000005_Node000003"><a xlink:title=" ">
<path fill="none" stroke="#63b8ff" d="M223.83,-120.09C233.49,-122.92 243.96,-126.04 253.6,-129 262.11,-131.62 271.29,-134.52 279.82,-137.26"/>
<polygon fill="#63b8ff" stroke="#63b8ff" points="278.86,-140.63 289.45,-140.37 281.01,-133.97 278.86,-140.63"/>
</a>
</g>
</g>
<!-- Node5&#45;&gt;Node4 -->
<g id="edge6_Node000005_Node000004" class="edge">
<title>Node5&#45;&gt;Node4</title>
<g id="a_edge6_Node000005_Node000004"><a xlink:title=" ">
<path fill="none" stroke="#63b8ff" d="M248.22,-110C260.02,-110 271.94,-110 282.27,-110"/>
<polygon fill="#63b8ff" stroke="#63b8ff" points="282.38,-113.5 292.38,-110 282.38,-106.5 282.38,-113.5"/>
</a>
</g>
</g>
</g>
</svg>
</svg>

<style type='text/css'>
<![CDATA[
[data-mouse-over-selected='false'] { opacity: 0.7; }
[data-mouse-over-selected='true']  { opacity: 1.0; }
]]>
</style>
<script type="application/ecmascript"><![CDATA[
document.addEventListener('DOMContentLoaded', (event) => {
  highlightEdges();
  highlightAdjacentNodes();
});
]]></script>
</svg>
