<?xml version="1.0" encoding="UTF-8" standalone="no"?>
<!DOCTYPE svg PUBLIC "-//W3C//DTD SVG 1.1//EN"
 "http://www.w3.org/Graphics/SVG/1.1/DTD/svg11.dtd">
<!-- Generated by graphviz version 2.46.0 (20210118.1747)
 -->
<!-- Title: vvm::Advection_thermo Pages: 1 -->
<svg width="483pt" height="142pt"
 viewBox="0.00 0.00 482.83 142.00" xmlns="http://www.w3.org/2000/svg" xmlns:xlink="http://www.w3.org/1999/xlink">
<g id="graph0" class="graph" transform="scale(1 1) rotate(0) translate(4 138)">
<title>vvm::Advection_thermo</title>
<!-- Node1 -->
<g id="Node000001" class="node">
<title>Node1</title>
<g id="a_Node000001"><a xlink:title=" ">
<polygon fill="#999999" stroke="#666666" points="475.06,-77 354.14,-77 354.14,-57 475.06,-57 475.06,-77"/>
<text text-anchor="middle" x="414.6" y="-64" font-family="Helvetica,sans-Serif" font-size="10.00">vvm::Advection_thermo</text>
</a>
</g>
</g>
<!-- Node2 -->
<g id="Node000002" class="node">
<title>Node2</title>
<g id="a_Node000002"><a xlink:href="classIteration.html#a6b9d511fea92c2569c8da11c1a86a066" target="_top" xlink:title=" ">
<polygon fill="white" stroke="#666666" points="318.22,-134 230.83,-134 230.83,-114 318.22,-114 318.22,-134"/>
<text text-anchor="middle" x="274.52" y="-121" font-family="Helvetica,sans-Serif" font-size="10.00">Iteration::pqc_pt</text>
</a>
</g>
</g>
<!-- Node1&#45;&gt;Node2 -->
<g id="edge1_Node000001_Node000002" class="edge">
<title>Node1&#45;&gt;Node2</title>
<g id="a_edge1_Node000001_Node000002"><a xlink:title=" ">
<path fill="none" stroke="#63b8ff" d="M379.89,-80.92C355.22,-91.1 322.33,-104.68 300.11,-113.85"/>
<polygon fill="#63b8ff" stroke="#63b8ff" points="381.32,-84.11 389.23,-77.06 378.65,-77.64 381.32,-84.11"/>
</a>
</g>
</g>
<!-- Node5 -->
<g id="Node000005" class="node">
<title>Node5</title>
<g id="a_Node000005"><a xlink:href="classIteration.html#ac30ea16c9e339a59c78637fa0753f775" target="_top" xlink:title=" ">
<polygon fill="white" stroke="#666666" points="317.54,-96 231.5,-96 231.5,-76 317.54,-76 317.54,-96"/>
<text text-anchor="middle" x="274.52" y="-83" font-family="Helvetica,sans-Serif" font-size="10.00">Iteration::pqr_pt</text>
</a>
</g>
</g>
<!-- Node1&#45;&gt;Node5 -->
<g id="edge4_Node000001_Node000005" class="edge">
<title>Node1&#45;&gt;Node5</title>
<g id="a_edge4_Node000001_Node000005"><a xlink:title=" ">
<path fill="none" stroke="#63b8ff" d="M344.11,-76.56C335.11,-77.8 326.11,-79.04 317.75,-80.19"/>
<polygon fill="#63b8ff" stroke="#63b8ff" points="344.81,-80 354.24,-75.17 343.86,-73.06 344.81,-80"/>
</a>
</g>
</g>
<!-- Node6 -->
<g id="Node000006" class="node">
<title>Node6</title>
<g id="a_Node000006"><a xlink:href="classIteration.html#ab92cc262ad139b14958847277b88d017" target="_top" xlink:title=" ">
<polygon fill="white" stroke="#666666" points="318.22,-58 230.83,-58 230.83,-38 318.22,-38 318.22,-58"/>
<text text-anchor="middle" x="274.52" y="-45" font-family="Helvetica,sans-Serif" font-size="10.00">Iteration::pqv_pt</text>
</a>
</g>
</g>
<!-- Node1&#45;&gt;Node6 -->
<g id="edge6_Node000001_Node000006" class="edge">
<title>Node1&#45;&gt;Node6</title>
<g id="a_edge6_Node000001_Node000006"><a xlink:title=" ">
<path fill="none" stroke="#63b8ff" d="M344.06,-57.43C335.37,-56.24 326.69,-55.04 318.57,-53.92"/>
<polygon fill="#63b8ff" stroke="#63b8ff" points="343.86,-60.94 354.24,-58.83 344.81,-54 343.86,-60.94"/>
</a>
</g>
</g>
<!-- Node7 -->
<g id="Node000007" class="node">
<title>Node7</title>
<g id="a_Node000007"><a xlink:href="classIteration.html#a7d5499ac76ee826bdda0184feb1fef5f" target="_top" xlink:title=" ">
<polygon fill="white" stroke="#666666" points="317.5,-20 231.55,-20 231.55,0 317.5,0 317.5,-20"/>
<text text-anchor="middle" x="274.52" y="-7" font-family="Helvetica,sans-Serif" font-size="10.00">Iteration::pth_pt</text>
</a>
</g>
</g>
<!-- Node1&#45;&gt;Node7 -->
<g id="edge8_Node000001_Node000007" class="edge">
<title>Node1&#45;&gt;Node7</title>
<g id="a_edge8_Node000001_Node000007"><a xlink:title=" ">
<path fill="none" stroke="#63b8ff" d="M379.89,-53.08C355.22,-42.9 322.33,-29.32 300.11,-20.15"/>
<polygon fill="#63b8ff" stroke="#63b8ff" points="378.65,-56.36 389.23,-56.94 381.32,-49.89 378.65,-56.36"/>
</a>
</g>
</g>
<!-- Node3 -->
<g id="Node000003" class="node">
<title>Node3</title>
<g id="a_Node000003"><a xlink:href="classIteration.html#ae341a02edb030229055de37fd518ac89" target="_top" xlink:title=" ">
<polygon fill="white" stroke="#666666" points="194.68,-77 73.66,-77 73.66,-57 194.68,-57 194.68,-77"/>
<text text-anchor="middle" x="134.17" y="-64" font-family="Helvetica,sans-Serif" font-size="10.00">Iteration::TimeMarching</text>
</a>
</g>
</g>
<!-- Node2&#45;&gt;Node3 -->
<g id="edge2_Node000002_Node000003" class="edge">
<title>Node2&#45;&gt;Node3</title>
<g id="a_edge2_Node000002_Node000003"><a xlink:title=" ">
<path fill="none" stroke="#63b8ff" d="M239.74,-110.08C215.03,-99.9 182.07,-86.32 159.81,-77.15"/>
<polygon fill="#63b8ff" stroke="#63b8ff" points="238.53,-113.37 249.11,-113.94 241.19,-106.9 238.53,-113.37"/>
</a>
</g>
</g>
<!-- Node4 -->
<g id="Node000004" class="node">
<title>Node4</title>
<g id="a_Node000004"><a xlink:href="main_8cpp.html#a3c04138a5bfe5d72780bb7e82a18e627" target="_top" xlink:title=" ">
<polygon fill="white" stroke="#666666" points="37.5,-77 0.17,-77 0.17,-57 37.5,-57 37.5,-77"/>
<text text-anchor="middle" x="18.83" y="-64" font-family="Helvetica,sans-Serif" font-size="10.00">main</text>
</a>
</g>
</g>
<!-- Node3&#45;&gt;Node4 -->
<g id="edge3_Node000003_Node000004" class="edge">
<title>Node3&#45;&gt;Node4</title>
<g id="a_edge3_Node000003_Node000004"><a xlink:title=" ">
<path fill="none" stroke="#63b8ff" d="M63.24,-67C53.91,-67 45.09,-67 37.86,-67"/>
<polygon fill="#63b8ff" stroke="#63b8ff" points="63.51,-70.5 73.51,-67 63.51,-63.5 63.51,-70.5"/>
</a>
</g>
</g>
<!-- Node5&#45;&gt;Node3 -->
<g id="edge5_Node000005_Node000003" class="edge">
<title>Node5&#45;&gt;Node3</title>
<g id="a_edge5_Node000005_Node000003"><a xlink:title=" ">
<path fill="none" stroke="#63b8ff" d="M221.29,-78.83C212.62,-77.64 203.58,-76.39 194.74,-75.18"/>
<polygon fill="#63b8ff" stroke="#63b8ff" points="220.88,-82.3 231.26,-80.2 221.83,-75.37 220.88,-82.3"/>
</a>
</g>
</g>
<!-- Node6&#45;&gt;Node3 -->
<g id="edge7_Node000006_Node000003" class="edge">
<title>Node6&#45;&gt;Node3</title>
<g id="a_edge7_Node000006_Node000003"><a xlink:title=" ">
<path fill="none" stroke="#63b8ff" d="M220.5,-55.28C212.13,-56.43 203.43,-57.63 194.93,-58.79"/>
<polygon fill="#63b8ff" stroke="#63b8ff" points="221.07,-58.74 230.5,-53.91 220.12,-51.8 221.07,-58.74"/>
</a>
</g>
</g>
<!-- Node7&#45;&gt;Node3 -->
<g id="edge9_Node000007_Node000003" class="edge">
<title>Node7&#45;&gt;Node3</title>
<g id="a_edge9_Node000007_Node000003"><a xlink:title=" ">
<path fill="none" stroke="#63b8ff" d="M239.74,-23.92C215.03,-34.1 182.07,-47.68 159.81,-56.85"/>
<polygon fill="#63b8ff" stroke="#63b8ff" points="241.19,-27.1 249.11,-20.06 238.53,-20.63 241.19,-27.1"/>
</a>
</g>
</g>
</g>
</svg>
