<?xml version="1.0" encoding="UTF-8" standalone="no"?>
<!DOCTYPE svg PUBLIC "-//W3C//DTD SVG 1.1//EN"
 "http://www.w3.org/Graphics/SVG/1.1/DTD/svg11.dtd">
<!-- Generated by graphviz version 2.46.0 (20210118.1747)
 -->
<!-- Title: vvm::Advection_zeta Pages: 1 -->
<svg width="284pt" height="268pt"
 viewBox="0.00 0.00 283.82 268.00" xmlns="http://www.w3.org/2000/svg" xmlns:xlink="http://www.w3.org/1999/xlink">
<g id="graph0" class="graph" transform="scale(1 1) rotate(0) translate(4 264)">
<title>vvm::Advection_zeta</title>
<!-- Node1 -->
<g id="Node000001" class="node">
<title>Node1</title>
<g id="a_Node000001"><a xlink:title=" ">
<polygon fill="#999999" stroke="#666666" points="108.37,-134 -0.12,-134 -0.12,-114 108.37,-114 108.37,-134"/>
<text text-anchor="middle" x="54.12" y="-121" font-family="Helvetica,sans-Serif" font-size="10.00">vvm::Advection_zeta</text>
</a>
</g>
</g>
<!-- Node2 -->
<g id="Node000002" class="node">
<title>Node2</title>
<g id="a_Node000002"><a xlink:href="classvvm.html#a88f21d908dca06f5c725da83a36caf96" target="_top" xlink:title=" ">
<polygon fill="white" stroke="#666666" points="275.61,-260 144.46,-260 144.46,-228 275.61,-228 275.61,-260"/>
<text text-anchor="start" x="152.25" y="-247" font-family="Helvetica,sans-Serif" font-size="10.00">vvm::BoundaryProcess2D</text>
<text text-anchor="middle" x="210.03" y="-235" font-family="Helvetica,sans-Serif" font-size="10.00">_westdown</text>
</a>
</g>
</g>
<!-- Node1&#45;&gt;Node2 -->
<g id="edge1_Node000001_Node000002" class="edge">
<title>Node1&#45;&gt;Node2</title>
<g id="a_edge1_Node000001_Node000002"><a xlink:title=" ">
<path fill="none" stroke="#63b8ff" d="M62.3,-134.3C76.11,-153.43 108.23,-194.74 144.25,-219 146.39,-220.44 148.63,-221.82 150.93,-223.13"/>
<polygon fill="#63b8ff" stroke="#63b8ff" points="149.58,-226.37 160.07,-227.87 152.8,-220.16 149.58,-226.37"/>
</a>
</g>
</g>
<!-- Node3 -->
<g id="Node000003" class="node">
<title>Node3</title>
<g id="a_Node000003"><a xlink:href="Advection_8cpp.html#a8566d63c1693d34aba0fa86f658532a2" target="_top" xlink:title=" ">
<polygon fill="white" stroke="#666666" points="234.25,-210 185.82,-210 185.82,-190 234.25,-190 234.25,-210"/>
<text text-anchor="middle" x="210.03" y="-197" font-family="Helvetica,sans-Serif" font-size="10.00">MINUS</text>
</a>
</g>
</g>
<!-- Node1&#45;&gt;Node3 -->
<g id="edge2_Node000001_Node000003" class="edge">
<title>Node1&#45;&gt;Node3</title>
<g id="a_edge2_Node000001_Node000003"><a xlink:title=" ">
<path fill="none" stroke="#63b8ff" d="M68.33,-134.16C85.15,-146.68 115.49,-167.91 144.25,-181 154.17,-185.52 165.43,-189.26 175.75,-192.19"/>
<polygon fill="#63b8ff" stroke="#63b8ff" points="175.11,-195.64 185.67,-194.86 176.92,-188.88 175.11,-195.64"/>
</a>
</g>
</g>
<!-- Node4 -->
<g id="Node000004" class="node">
<title>Node4</title>
<g id="a_Node000004"><a xlink:href="Advection_8cpp.html#ac35c0748e7807333a355cd2b8e5dfef8" target="_top" xlink:title=" ">
<polygon fill="white" stroke="#666666" points="231.15,-172 188.92,-172 188.92,-152 231.15,-152 231.15,-172"/>
<text text-anchor="middle" x="210.03" y="-159" font-family="Helvetica,sans-Serif" font-size="10.00">PLUS</text>
</a>
</g>
</g>
<!-- Node1&#45;&gt;Node4 -->
<g id="edge3_Node000001_Node000004" class="edge">
<title>Node1&#45;&gt;Node4</title>
<g id="a_edge3_Node000001_Node000004"><a xlink:title=" ">
<path fill="none" stroke="#63b8ff" d="M95.96,-134.08C122.03,-140.52 155.24,-148.72 178.92,-154.56"/>
<polygon fill="#63b8ff" stroke="#63b8ff" points="178.2,-157.99 188.74,-156.99 179.87,-151.2 178.2,-157.99"/>
</a>
</g>
</g>
<!-- Node5 -->
<g id="Node000005" class="node">
<title>Node5</title>
<g id="a_Node000005"><a xlink:href="Advection_8cpp.html#ad84d7b263ba0496ac8d74df75d706075" target="_top" xlink:title=" ">
<polygon fill="white" stroke="#666666" points="233.71,-134 186.36,-134 186.36,-114 233.71,-114 233.71,-134"/>
<text text-anchor="middle" x="210.03" y="-121" font-family="Helvetica,sans-Serif" font-size="10.00">U_zeta</text>
</a>
</g>
</g>
<!-- Node1&#45;&gt;Node5 -->
<g id="edge4_Node000001_Node000005" class="edge">
<title>Node1&#45;&gt;Node5</title>
<g id="a_edge4_Node000001_Node000005"><a xlink:title=" ">
<path fill="none" stroke="#63b8ff" d="M108.52,-124C130.94,-124 156.31,-124 175.95,-124"/>
<polygon fill="#63b8ff" stroke="#63b8ff" points="176.22,-127.5 186.22,-124 176.22,-120.5 176.22,-127.5"/>
</a>
</g>
</g>
<!-- Node6 -->
<g id="Node000006" class="node">
<title>Node6</title>
<g id="a_Node000006"><a xlink:href="Advection_8cpp.html#afd67bfda19d291830edf3e9849cc9277" target="_top" xlink:title=" ">
<polygon fill="white" stroke="#666666" points="238.04,-96 182.03,-96 182.03,-76 238.04,-76 238.04,-96"/>
<text text-anchor="middle" x="210.03" y="-83" font-family="Helvetica,sans-Serif" font-size="10.00">Um_zeta</text>
</a>
</g>
</g>
<!-- Node1&#45;&gt;Node6 -->
<g id="edge5_Node000001_Node000006" class="edge">
<title>Node1&#45;&gt;Node6</title>
<g id="a_edge5_Node000001_Node000006"><a xlink:title=" ">
<path fill="none" stroke="#63b8ff" d="M95.96,-113.92C119.55,-108.09 148.98,-100.83 171.91,-95.17"/>
<polygon fill="#63b8ff" stroke="#63b8ff" points="172.75,-98.56 181.62,-92.77 171.07,-91.77 172.75,-98.56"/>
</a>
</g>
</g>
<!-- Node7 -->
<g id="Node000007" class="node">
<title>Node7</title>
<g id="a_Node000007"><a xlink:href="Advection_8cpp.html#aff7c21fcae63b86ac2b3234e1bc5f188" target="_top" xlink:title=" ">
<polygon fill="white" stroke="#666666" points="234.93,-58 185.14,-58 185.14,-38 234.93,-38 234.93,-58"/>
<text text-anchor="middle" x="210.03" y="-45" font-family="Helvetica,sans-Serif" font-size="10.00">W_zeta</text>
</a>
</g>
</g>
<!-- Node1&#45;&gt;Node7 -->
<g id="edge6_Node000001_Node000007" class="edge">
<title>Node1&#45;&gt;Node7</title>
<g id="a_edge6_Node000001_Node000007"><a xlink:title=" ">
<path fill="none" stroke="#63b8ff" d="M68.33,-113.84C85.15,-101.32 115.49,-80.09 144.25,-67 154.01,-62.56 165.07,-58.86 175.25,-55.95"/>
<polygon fill="#63b8ff" stroke="#63b8ff" points="176.32,-59.29 185.06,-53.3 174.49,-52.53 176.32,-59.29"/>
</a>
</g>
</g>
<!-- Node8 -->
<g id="Node000008" class="node">
<title>Node8</title>
<g id="a_Node000008"><a xlink:href="Advection_8cpp.html#ac8a793aa9b91091521141a121f60ef90" target="_top" xlink:title=" ">
<polygon fill="white" stroke="#666666" points="239.26,-20 180.81,-20 180.81,0 239.26,0 239.26,-20"/>
<text text-anchor="middle" x="210.03" y="-7" font-family="Helvetica,sans-Serif" font-size="10.00">Wm_zeta</text>
</a>
</g>
</g>
<!-- Node1&#45;&gt;Node8 -->
<g id="edge7_Node000001_Node000008" class="edge">
<title>Node1&#45;&gt;Node8</title>
<g id="a_edge7_Node000001_Node000008"><a xlink:title=" ">
<path fill="none" stroke="#63b8ff" d="M61.9,-113.73C75.29,-94.25 107.07,-51.86 144.25,-29 152.39,-24 161.91,-20.25 171.11,-17.47"/>
<polygon fill="#63b8ff" stroke="#63b8ff" points="172.15,-20.82 180.89,-14.82 170.32,-14.06 172.15,-20.82"/>
</a>
</g>
</g>
</g>
</svg>
