<?xml version="1.0" encoding="UTF-8" standalone="no"?>
<!DOCTYPE svg PUBLIC "-//W3C//DTD SVG 1.1//EN"
 "http://www.w3.org/Graphics/SVG/1.1/DTD/svg11.dtd">
<!-- Generated by graphviz version 2.46.0 (20210118.1747)
 -->
<!-- Title: Iteration::pzeta_pt Pages: 1 -->
<svg width="416pt" height="306pt"
 viewBox="0.00 0.00 415.85 306.00" xmlns="http://www.w3.org/2000/svg" xmlns:xlink="http://www.w3.org/1999/xlink">

<svg id="main" version="1.1" xmlns="http://www.w3.org/2000/svg" xmlns:xlink="http://www.w3.org/1999/xlink" xml:space="preserve" onload="init(evt)">
<style type="text/css"><![CDATA[
.node, .edge {opacity: 0.7;}
.node.selected, .edge.selected {opacity: 1;}
.edge:hover path { stroke: red; }
.edge:hover polygon { stroke: red; fill: red; }
]]></style>
<script type="application/ecmascript" xlink:href="svg.min.js"/>
<svg id="graph" class="graph">
<g id="graph0" class="graph" transform="scale(1 1) rotate(0) translate(4 302)">
<title>Iteration::pzeta_pt</title>
<!-- Node1 -->
<g id="Node000001" class="node">
<title>Node1</title>
<g id="a_Node000001"><a xlink:title=" ">
<polygon fill="#999999" stroke="#666666" points="96.05,-172 -0.02,-172 -0.02,-152 96.05,-152 96.05,-172"/>
<text text-anchor="middle" x="48.02" y="-159" font-family="Helvetica,sans-Serif" font-size="10.00">Iteration::pzeta_pt</text>
</a>
</g>
</g>
<!-- Node2 -->
<g id="Node000002" class="node">
<title>Node2</title>
<g id="a_Node000002"><a xlink:href="classvvm.html#aec9080346387072f75c1e5907a5f9964" target="_top" xlink:title=" ">
<polygon fill="white" stroke="#666666" points="240.4,-172 131.91,-172 131.91,-152 240.4,-152 240.4,-172"/>
<text text-anchor="middle" x="186.16" y="-159" font-family="Helvetica,sans-Serif" font-size="10.00">vvm::Advection_zeta</text>
</a>
</g>
</g>
<!-- Node1&#45;&gt;Node2 -->
<g id="edge1_Node000001_Node000002" class="edge">
<title>Node1&#45;&gt;Node2</title>
<g id="a_edge1_Node000001_Node000002"><a xlink:title=" ">
<path fill="none" stroke="#63b8ff" d="M96.25,-162C104.53,-162 113.26,-162 121.89,-162"/>
<polygon fill="#63b8ff" stroke="#63b8ff" points="121.95,-165.5 131.95,-162 121.95,-158.5 121.95,-165.5"/>
</a>
</g>
</g>
<!-- Node3 -->
<g id="Node000003" class="node">
<title>Node3</title>
<g id="a_Node000003"><a xlink:href="classvvm.html#a88f21d908dca06f5c725da83a36caf96" target="_top" xlink:title=" ">
<polygon fill="white" stroke="#666666" points="407.64,-298 276.49,-298 276.49,-266 407.64,-266 407.64,-298"/>
<text text-anchor="start" x="284.28" y="-285" font-family="Helvetica,sans-Serif" font-size="10.00">vvm::BoundaryProcess2D</text>
<text text-anchor="middle" x="342.07" y="-273" font-family="Helvetica,sans-Serif" font-size="10.00">_westdown</text>
</a>
</g>
</g>
<!-- Node1&#45;&gt;Node3 -->
<g id="edge9_Node000001_Node000003" class="edge">
<title>Node1&#45;&gt;Node3</title>
<g id="a_edge9_Node000001_Node000003"><a xlink:title=" ">
<path fill="none" stroke="#63b8ff" d="M72.48,-172.06C113.62,-189.64 201.48,-226.94 276.28,-257 280.48,-258.69 284.85,-260.42 289.24,-262.15"/>
<polygon fill="#63b8ff" stroke="#63b8ff" points="288.24,-265.52 298.83,-265.9 290.79,-259 288.24,-265.52"/>
</a>
</g>
</g>
<!-- Node10 -->
<g id="Node000010" class="node">
<title>Node10</title>
<g id="a_Node000010"><a xlink:href="classvvm.html#ad5a7610975364e5b4163e7aff3c8e7ef" target="_top" xlink:title=" ">
<polygon fill="white" stroke="#666666" points="227.95,-77 144.36,-77 144.36,-57 227.95,-57 227.95,-77"/>
<text text-anchor="middle" x="186.16" y="-64" font-family="Helvetica,sans-Serif" font-size="10.00">vvm::Bouyancy</text>
</a>
</g>
</g>
<!-- Node1&#45;&gt;Node10 -->
<g id="edge10_Node000001_Node000010" class="edge">
<title>Node1&#45;&gt;Node10</title>
<g id="a_edge10_Node000001_Node000010"><a xlink:title=" ">
<path fill="none" stroke="#63b8ff" d="M63.59,-151.83C87.23,-135.33 134.14,-102.6 162.27,-82.97"/>
<polygon fill="#63b8ff" stroke="#63b8ff" points="164.49,-85.69 170.69,-77.09 160.49,-79.95 164.49,-85.69"/>
</a>
</g>
</g>
<!-- Node2&#45;&gt;Node3 -->
<g id="edge2_Node000002_Node000003" class="edge">
<title>Node2&#45;&gt;Node3</title>
<g id="a_edge2_Node000002_Node000003"><a xlink:title=" ">
<path fill="none" stroke="#63b8ff" d="M194.33,-172.3C208.14,-191.43 240.27,-232.74 276.28,-257 278.42,-258.44 280.66,-259.82 282.96,-261.13"/>
<polygon fill="#63b8ff" stroke="#63b8ff" points="281.61,-264.37 292.1,-265.87 284.83,-258.16 281.61,-264.37"/>
</a>
</g>
</g>
<!-- Node4 -->
<g id="Node000004" class="node">
<title>Node4</title>
<g id="a_Node000004"><a xlink:href="Advection_8cpp.html#a8566d63c1693d34aba0fa86f658532a2" target="_top" xlink:title=" ">
<polygon fill="white" stroke="#666666" points="366.28,-248 317.85,-248 317.85,-228 366.28,-228 366.28,-248"/>
<text text-anchor="middle" x="342.07" y="-235" font-family="Helvetica,sans-Serif" font-size="10.00">MINUS</text>
</a>
</g>
</g>
<!-- Node2&#45;&gt;Node4 -->
<g id="edge3_Node000002_Node000004" class="edge">
<title>Node2&#45;&gt;Node4</title>
<g id="a_edge3_Node000002_Node000004"><a xlink:title=" ">
<path fill="none" stroke="#63b8ff" d="M200.36,-172.16C217.18,-184.68 247.53,-205.91 276.28,-219 286.2,-223.52 297.46,-227.26 307.78,-230.19"/>
<polygon fill="#63b8ff" stroke="#63b8ff" points="307.14,-233.64 317.7,-232.86 308.95,-226.88 307.14,-233.64"/>
</a>
</g>
</g>
<!-- Node5 -->
<g id="Node000005" class="node">
<title>Node5</title>
<g id="a_Node000005"><a xlink:href="Advection_8cpp.html#ac35c0748e7807333a355cd2b8e5dfef8" target="_top" xlink:title=" ">
<polygon fill="white" stroke="#666666" points="363.18,-210 320.95,-210 320.95,-190 363.18,-190 363.18,-210"/>
<text text-anchor="middle" x="342.07" y="-197" font-family="Helvetica,sans-Serif" font-size="10.00">PLUS</text>
</a>
</g>
</g>
<!-- Node2&#45;&gt;Node5 -->
<g id="edge4_Node000002_Node000005" class="edge">
<title>Node2&#45;&gt;Node5</title>
<g id="a_edge4_Node000002_Node000005"><a xlink:title=" ">
<path fill="none" stroke="#63b8ff" d="M228,-172.08C254.06,-178.52 287.28,-186.72 310.95,-192.56"/>
<polygon fill="#63b8ff" stroke="#63b8ff" points="310.23,-195.99 320.78,-194.99 311.91,-189.2 310.23,-195.99"/>
</a>
</g>
</g>
<!-- Node6 -->
<g id="Node000006" class="node">
<title>Node6</title>
<g id="a_Node000006"><a xlink:href="Advection_8cpp.html#ad84d7b263ba0496ac8d74df75d706075" target="_top" xlink:title=" ">
<polygon fill="white" stroke="#666666" points="365.74,-172 318.39,-172 318.39,-152 365.74,-152 365.74,-172"/>
<text text-anchor="middle" x="342.07" y="-159" font-family="Helvetica,sans-Serif" font-size="10.00">U_zeta</text>
</a>
</g>
</g>
<!-- Node2&#45;&gt;Node6 -->
<g id="edge5_Node000002_Node000006" class="edge">
<title>Node2&#45;&gt;Node6</title>
<g id="a_edge5_Node000002_Node000006"><a xlink:title=" ">
<path fill="none" stroke="#63b8ff" d="M240.55,-162C262.97,-162 288.34,-162 307.98,-162"/>
<polygon fill="#63b8ff" stroke="#63b8ff" points="308.25,-165.5 318.25,-162 308.25,-158.5 308.25,-165.5"/>
</a>
</g>
</g>
<!-- Node7 -->
<g id="Node000007" class="node">
<title>Node7</title>
<g id="a_Node000007"><a xlink:href="Advection_8cpp.html#afd67bfda19d291830edf3e9849cc9277" target="_top" xlink:title=" ">
<polygon fill="white" stroke="#666666" points="370.07,-134 314.06,-134 314.06,-114 370.07,-114 370.07,-134"/>
<text text-anchor="middle" x="342.07" y="-121" font-family="Helvetica,sans-Serif" font-size="10.00">Um_zeta</text>
</a>
</g>
</g>
<!-- Node2&#45;&gt;Node7 -->
<g id="edge6_Node000002_Node000007" class="edge">
<title>Node2&#45;&gt;Node7</title>
<g id="a_edge6_Node000002_Node000007"><a xlink:title=" ">
<path fill="none" stroke="#63b8ff" d="M228,-151.92C251.58,-146.09 281.01,-138.83 303.94,-133.17"/>
<polygon fill="#63b8ff" stroke="#63b8ff" points="304.78,-136.56 313.65,-130.77 303.1,-129.77 304.78,-136.56"/>
</a>
</g>
</g>
<!-- Node8 -->
<g id="Node000008" class="node">
<title>Node8</title>
<g id="a_Node000008"><a xlink:href="Advection_8cpp.html#aff7c21fcae63b86ac2b3234e1bc5f188" target="_top" xlink:title=" ">
<polygon fill="white" stroke="#666666" points="366.96,-96 317.17,-96 317.17,-76 366.96,-76 366.96,-96"/>
<text text-anchor="middle" x="342.07" y="-83" font-family="Helvetica,sans-Serif" font-size="10.00">W_zeta</text>
</a>
</g>
</g>
<!-- Node2&#45;&gt;Node8 -->
<g id="edge7_Node000002_Node000008" class="edge">
<title>Node2&#45;&gt;Node8</title>
<g id="a_edge7_Node000002_Node000008"><a xlink:title=" ">
<path fill="none" stroke="#63b8ff" d="M200.36,-151.84C217.18,-139.32 247.53,-118.09 276.28,-105 286.04,-100.56 297.1,-96.86 307.28,-93.95"/>
<polygon fill="#63b8ff" stroke="#63b8ff" points="308.35,-97.29 317.09,-91.3 306.53,-90.53 308.35,-97.29"/>
</a>
</g>
</g>
<!-- Node9 -->
<g id="Node000009" class="node">
<title>Node9</title>
<g id="a_Node000009"><a xlink:href="Advection_8cpp.html#ac8a793aa9b91091521141a121f60ef90" target="_top" xlink:title=" ">
<polygon fill="white" stroke="#666666" points="371.29,-58 312.84,-58 312.84,-38 371.29,-38 371.29,-58"/>
<text text-anchor="middle" x="342.07" y="-45" font-family="Helvetica,sans-Serif" font-size="10.00">Wm_zeta</text>
</a>
</g>
</g>
<!-- Node2&#45;&gt;Node9 -->
<g id="edge8_Node000002_Node000009" class="edge">
<title>Node2&#45;&gt;Node9</title>
<g id="a_edge8_Node000002_Node000009"><a xlink:title=" ">
<path fill="none" stroke="#63b8ff" d="M193.94,-151.73C207.32,-132.25 239.1,-89.86 276.28,-67 284.42,-62 293.94,-58.25 303.14,-55.47"/>
<polygon fill="#63b8ff" stroke="#63b8ff" points="304.19,-58.82 312.92,-52.82 302.36,-52.06 304.19,-58.82"/>
</a>
</g>
</g>
<!-- Node11 -->
<g id="Node000011" class="node">
<title>Node11</title>
<g id="a_Node000011"><a xlink:href="Buoyancy_8cpp.html#a8ecf3975b610cb48d26b59dead3553db" target="_top" xlink:title=" ">
<polygon fill="white" stroke="#666666" points="366.96,-20 317.17,-20 317.17,0 366.96,0 366.96,-20"/>
<text text-anchor="middle" x="342.07" y="-7" font-family="Helvetica,sans-Serif" font-size="10.00">getTHV</text>
</a>
</g>
</g>
<!-- Node10&#45;&gt;Node11 -->
<g id="edge11_Node000010_Node000011" class="edge">
<title>Node10&#45;&gt;Node11</title>
<g id="a_edge11_Node000010_Node000011"><a xlink:title=" ">
<path fill="none" stroke="#63b8ff" d="M208.84,-56.9C226.72,-48.79 252.84,-37.4 276.28,-29 286.29,-25.41 297.35,-21.98 307.45,-19.04"/>
<polygon fill="#63b8ff" stroke="#63b8ff" points="308.49,-22.39 317.16,-16.29 306.58,-15.65 308.49,-22.39"/>
</a>
</g>
</g>
</g>
</svg>
</svg>

<style type='text/css'>
<![CDATA[
[data-mouse-over-selected='false'] { opacity: 0.7; }
[data-mouse-over-selected='true']  { opacity: 1.0; }
]]>
</style>
<script type="application/ecmascript"><![CDATA[
document.addEventListener('DOMContentLoaded', (event) => {
  highlightEdges();
  highlightAdjacentNodes();
});
]]></script>
</svg>
