<?xml version="1.0" encoding="UTF-8" standalone="no"?>
<!DOCTYPE svg PUBLIC "-//W3C//DTD SVG 1.1//EN"
 "http://www.w3.org/Graphics/SVG/1.1/DTD/svg11.dtd">
<!-- Generated by graphviz version 2.46.0 (20210118.1747)
 -->
<!-- Title: Iteration::pqc_pt Pages: 1 -->
<svg width="347pt" height="147pt"
 viewBox="0.00 0.00 347.48 147.00" xmlns="http://www.w3.org/2000/svg" xmlns:xlink="http://www.w3.org/1999/xlink">
<g id="graph0" class="graph" transform="scale(1 1) rotate(0) translate(4 143)">
<title>Iteration::pqc_pt</title>
<!-- Node1 -->
<g id="Node000001" class="node">
<title>Node1</title>
<g id="a_Node000001"><a xlink:title=" ">
<polygon fill="#999999" stroke="#666666" points="87.54,-76 0.15,-76 0.15,-56 87.54,-56 87.54,-76"/>
<text text-anchor="middle" x="43.85" y="-63" font-family="Helvetica,sans-Serif" font-size="10.00">Iteration::pqc_pt</text>
</a>
</g>
</g>
<!-- Node2 -->
<g id="Node000002" class="node">
<title>Node2</title>
<g id="a_Node000002"><a xlink:href="classvvm.html#a7a376a97df688fa6a19e5f6d9fc02491" target="_top" xlink:title=" ">
<polygon fill="white" stroke="#666666" points="249.94,-120 129.02,-120 129.02,-100 249.94,-100 249.94,-120"/>
<text text-anchor="middle" x="189.48" y="-107" font-family="Helvetica,sans-Serif" font-size="10.00">vvm::Advection_thermo</text>
</a>
</g>
</g>
<!-- Node1&#45;&gt;Node2 -->
<g id="edge1_Node000001_Node000002" class="edge">
<title>Node1&#45;&gt;Node2</title>
<g id="a_edge1_Node000001_Node000002"><a xlink:title=" ">
<path fill="none" stroke="#63b8ff" d="M75.88,-76.01C90.38,-80.65 107.9,-86.18 123.69,-91 130.25,-93 137.19,-95.08 143.99,-97.09"/>
<polygon fill="#63b8ff" stroke="#63b8ff" points="143.23,-100.51 153.81,-99.98 145.2,-93.8 143.23,-100.51"/>
</a>
</g>
</g>
<!-- Node5 -->
<g id="Node000005" class="node">
<title>Node5</title>
<g id="a_Node000005"><a xlink:href="classvvm.html#a0f7695aeeea1dac87393db3edfc7acd8" target="_top" xlink:title=" ">
<polygon fill="white" stroke="#666666" points="255.06,-82 123.91,-82 123.91,-50 255.06,-50 255.06,-82"/>
<text text-anchor="start" x="131.69" y="-69" font-family="Helvetica,sans-Serif" font-size="10.00">vvm::BoundaryProcess2D</text>
<text text-anchor="middle" x="189.48" y="-57" font-family="Helvetica,sans-Serif" font-size="10.00">_center</text>
</a>
</g>
</g>
<!-- Node1&#45;&gt;Node5 -->
<g id="edge4_Node000001_Node000005" class="edge">
<title>Node1&#45;&gt;Node5</title>
<g id="a_edge4_Node000001_Node000005"><a xlink:title=" ">
<path fill="none" stroke="#63b8ff" d="M87.55,-66C95.84,-66 104.76,-66 113.73,-66"/>
<polygon fill="#63b8ff" stroke="#63b8ff" points="113.86,-69.5 123.86,-66 113.86,-62.5 113.86,-69.5"/>
</a>
</g>
</g>
<!-- Node6 -->
<g id="Node000006" class="node">
<title>Node6</title>
<g id="a_Node000006"><a xlink:href="classvvm_1_1MicroPhysics.html#aa6a9e66b8c45fa524936db5a225d680e" target="_top" xlink:title=" ">
<polygon fill="white" stroke="#666666" points="248.12,-32 130.85,-32 130.85,0 248.12,0 248.12,-32"/>
<text text-anchor="start" x="138.91" y="-19" font-family="Helvetica,sans-Serif" font-size="10.00">vvm::MicroPhysics::</text>
<text text-anchor="middle" x="189.48" y="-7" font-family="Helvetica,sans-Serif" font-size="10.00">NegativeValueProcess</text>
</a>
</g>
</g>
<!-- Node1&#45;&gt;Node6 -->
<g id="edge5_Node000001_Node000006" class="edge">
<title>Node1&#45;&gt;Node6</title>
<g id="a_edge5_Node000001_Node000006"><a xlink:title=" ">
<path fill="none" stroke="#63b8ff" d="M73.91,-55.88C90.82,-50 112.7,-42.38 132.8,-35.38"/>
<polygon fill="#63b8ff" stroke="#63b8ff" points="134.2,-38.6 142.49,-32.01 131.9,-31.99 134.2,-38.6"/>
</a>
</g>
</g>
<!-- Node3 -->
<g id="Node000003" class="node">
<title>Node3</title>
<g id="a_Node000003"><a xlink:href="Advection_8cpp.html#a8566d63c1693d34aba0fa86f658532a2" target="_top" xlink:title=" ">
<polygon fill="white" stroke="#666666" points="339.59,-139 291.16,-139 291.16,-119 339.59,-119 339.59,-139"/>
<text text-anchor="middle" x="315.38" y="-126" font-family="Helvetica,sans-Serif" font-size="10.00">MINUS</text>
</a>
</g>
</g>
<!-- Node2&#45;&gt;Node3 -->
<g id="edge2_Node000002_Node000003" class="edge">
<title>Node2&#45;&gt;Node3</title>
<g id="a_edge2_Node000002_Node000003"><a xlink:title=" ">
<path fill="none" stroke="#63b8ff" d="M249.89,-119.11C260.65,-120.76 271.52,-122.43 281.18,-123.91"/>
<polygon fill="#63b8ff" stroke="#63b8ff" points="280.72,-127.38 291.14,-125.44 281.78,-120.46 280.72,-127.38"/>
</a>
</g>
</g>
<!-- Node4 -->
<g id="Node000004" class="node">
<title>Node4</title>
<g id="a_Node000004"><a xlink:href="Advection_8cpp.html#ac35c0748e7807333a355cd2b8e5dfef8" target="_top" xlink:title=" ">
<polygon fill="white" stroke="#666666" points="336.49,-101 294.26,-101 294.26,-81 336.49,-81 336.49,-101"/>
<text text-anchor="middle" x="315.38" y="-88" font-family="Helvetica,sans-Serif" font-size="10.00">PLUS</text>
</a>
</g>
</g>
<!-- Node2&#45;&gt;Node4 -->
<g id="edge3_Node000002_Node000004" class="edge">
<title>Node2&#45;&gt;Node4</title>
<g id="a_edge3_Node000002_Node000004"><a xlink:title=" ">
<path fill="none" stroke="#63b8ff" d="M249.89,-100.89C261.69,-99.08 273.61,-97.25 283.94,-95.67"/>
<polygon fill="#63b8ff" stroke="#63b8ff" points="284.7,-99.09 294.06,-94.12 283.64,-92.17 284.7,-99.09"/>
</a>
</g>
</g>
</g>
</svg>
