<?xml version="1.0" encoding="UTF-8" standalone="no"?>
<!DOCTYPE svg PUBLIC "-//W3C//DTD SVG 1.1//EN"
 "http://www.w3.org/Graphics/SVG/1.1/DTD/svg11.dtd">
<!-- Generated by graphviz version 2.46.0 (20210118.1747)
 -->
<!-- Title: vvm Pages: 1 -->
<svg width="182pt" height="200pt"
 viewBox="0.00 0.00 182.01 200.00" xmlns="http://www.w3.org/2000/svg" xmlns:xlink="http://www.w3.org/1999/xlink">
<g id="graph0" class="graph" transform="scale(1 1) rotate(0) translate(4 196)">
<title>vvm</title>
<!-- Node1 -->
<g id="Node000001" class="node">
<title>Node1</title>
<g id="a_Node000001"><a xlink:title=" ">
<polygon fill="#999999" stroke="transparent" points="126.69,-12 96.77,-12 96.77,0 126.69,0 126.69,-12"/>
<text text-anchor="middle" x="111.73" y="-3" font-family="Helvetica,sans-Serif" font-size="10.00">Node1</text>
</a>
</g>
</g>
<!-- Node2 -->
<g id="Node000002" class="node">
<title>Node2</title>
<g id="a_Node000002"><a xlink:title=" ">
<polygon fill="white" stroke="transparent" points="29.69,-192 -0.23,-192 -0.23,-180 29.69,-180 29.69,-192"/>
<text text-anchor="middle" x="14.73" y="-183" font-family="Helvetica,sans-Serif" font-size="10.00">Node2</text>
</a>
</g>
</g>
<!-- Node2&#45;&gt;Node1 -->
<g id="edge1_Node000001_Node000002" class="edge">
<title>Node2&#45;&gt;Node1</title>
<g id="a_edge1_Node000001_Node000002"><a xlink:title=" ">
<path fill="none" stroke="#63b8ff" d="M13.6,-179.95C9.18,-158.76 -4.86,-75.91 34.09,-30 46.48,-15.39 67.68,-9.82 84.8,-7.8"/>
<polygon fill="none" stroke="#63b8ff" points="84.91,-7.79 90.58,-3.34 96.88,-6.86 91.21,-11.31 84.91,-7.79"/>
</a>
</g>
<text text-anchor="middle" x="71.55" y="-153" font-family="Helvetica,sans-Serif" font-size="10.00" fill="grey"> +accretion</text>
<text text-anchor="middle" x="71.55" y="-141" font-family="Helvetica,sans-Serif" font-size="10.00" fill="grey">+autoconversion</text>
<text text-anchor="middle" x="71.55" y="-129" font-family="Helvetica,sans-Serif" font-size="10.00" fill="grey">+d2t</text>
<text text-anchor="middle" x="71.55" y="-117" font-family="Helvetica,sans-Serif" font-size="10.00" fill="grey">+evaporation</text>
<text text-anchor="middle" x="71.55" y="-105" font-family="Helvetica,sans-Serif" font-size="10.00" fill="grey">+pb</text>
<text text-anchor="middle" x="71.55" y="-93" font-family="Helvetica,sans-Serif" font-size="10.00" fill="grey">+pib</text>
<text text-anchor="middle" x="71.55" y="-81" font-family="Helvetica,sans-Serif" font-size="10.00" fill="grey">+precip</text>
<text text-anchor="middle" x="71.55" y="-69" font-family="Helvetica,sans-Serif" font-size="10.00" fill="grey">+qc</text>
<text text-anchor="middle" x="71.55" y="-57" font-family="Helvetica,sans-Serif" font-size="10.00" fill="grey">+qcm</text>
<text text-anchor="middle" x="71.55" y="-45" font-family="Helvetica,sans-Serif" font-size="10.00" fill="grey">+qcp</text>
<text text-anchor="middle" x="71.55" y="-33" font-family="Helvetica,sans-Serif" font-size="10.00" fill="grey">...</text>
</g>
<!-- Node3 -->
<g id="Node000003" class="node">
<title>Node3</title>
<g id="a_Node000003"><a xlink:title=" ">
<polygon fill="white" stroke="transparent" points="126.69,-192 96.77,-192 96.77,-180 126.69,-180 126.69,-192"/>
<text text-anchor="middle" x="111.73" y="-183" font-family="Helvetica,sans-Serif" font-size="10.00">Node3</text>
</a>
</g>
</g>
<!-- Node3&#45;&gt;Node1 -->
<g id="edge2_Node000001_Node000003" class="edge">
<title>Node3&#45;&gt;Node1</title>
<g id="a_edge2_Node000001_Node000003"><a xlink:title=" ">
<path fill="none" stroke="#63b8ff" d="M111.73,-179.86C111.73,-156.92 111.73,-63.19 111.73,-24.17"/>
<polygon fill="none" stroke="#63b8ff" points="111.73,-24.16 107.73,-18.16 111.73,-12.16 115.73,-18.16 111.73,-24.16"/>
</a>
</g>
<text text-anchor="middle" x="121.32" y="-99" font-family="Helvetica,sans-Serif" font-size="10.00" fill="grey"> +nx</text>
<text text-anchor="middle" x="121.32" y="-87" font-family="Helvetica,sans-Serif" font-size="10.00" fill="grey">+nz</text>
</g>
<!-- Node4 -->
<g id="Node000004" class="node">
<title>Node4</title>
<g id="a_Node000004"><a xlink:title=" ">
<polygon fill="white" stroke="transparent" points="173.69,-192 143.77,-192 143.77,-180 173.69,-180 173.69,-192"/>
<text text-anchor="middle" x="158.73" y="-183" font-family="Helvetica,sans-Serif" font-size="10.00">Node4</text>
</a>
</g>
</g>
<!-- Node4&#45;&gt;Node1 -->
<g id="edge3_Node000001_Node000004" class="edge">
<title>Node4&#45;&gt;Node1</title>
<g id="a_edge3_Node000001_Node000004"><a xlink:title=" ">
<path fill="none" stroke="#63b8ff" d="M159.05,-179.84C160.08,-159.5 161.83,-83.42 134.73,-30 133,-26.6 130.59,-23.4 127.97,-20.52"/>
<polygon fill="none" stroke="#63b8ff" points="127.78,-20.34 120.66,-19.2 118.97,-12.19 126.09,-13.33 127.78,-20.34"/>
</a>
</g>
<text text-anchor="middle" x="166.37" y="-99" font-family="Helvetica,sans-Serif" font-size="10.00" fill="grey"> +A</text>
<text text-anchor="middle" x="166.37" y="-87" font-family="Helvetica,sans-Serif" font-size="10.00" fill="grey">+G</text>
</g>
</g>
</svg>
