<?xml version="1.0" encoding="UTF-8" standalone="no"?>
<!DOCTYPE svg PUBLIC "-//W3C//DTD SVG 1.1//EN"
 "http://www.w3.org/Graphics/SVG/1.1/DTD/svg11.dtd">
<!-- Generated by graphviz version 2.46.0 (20210118.1747)
 -->
<!-- Title: Iteration::TimeMarching Pages: 1 -->
<!--zoomable 866 -->

<svg id="main" version="1.1" xmlns="http://www.w3.org/2000/svg" xmlns:xlink="http://www.w3.org/1999/xlink" xml:space="preserve" onload="init(evt)">
<style type="text/css"><![CDATA[
.node, .edge {opacity: 0.7;}
.node.selected, .edge.selected {opacity: 1;}
.edge:hover path { stroke: red; }
.edge:hover polygon { stroke: red; fill: red; }
]]></style>

<defs>
  <circle id="rim" cx="0" cy="0" r="7"/>
  <circle id="rim2" cx="0" cy="0" r="3.5"/>
  <g id="zoomPlus">
    <use xlink:href="#rim" fill="#404040"><set attributeName="fill" to="#808080" begin="zoomplus.mouseover" end="zoomplus.mouseout"/></use>
    <path d="M-4,0h8M0,-4v8" fill="none" stroke="white" stroke-width="1.5" pointer-events="none"/>
  </g>
  <g id="zoomMin">
    <use xlink:href="#rim" fill="#404040"><set attributeName="fill" to="#808080" begin="zoomminus.mouseover" end="zoomminus.mouseout"/></use>
    <path d="M-4,0h8" fill="none" stroke="white" stroke-width="1.5" pointer-events="none"/>
  </g>
  <g id="arrowUp" transform="translate(30 24)">
    <use xlink:href="#rim"/>
    <path pointer-events="none" fill="none" stroke="white" stroke-width="1.5" d="M0,-3.0v7 M-2.5,-0.5L0,-3.0L2.5,-0.5"/>
  </g>
  <g id="arrowRight" transform="rotate(90) translate(36 -43)">
    <use xlink:href="#rim"/>
    <path pointer-events="none" fill="none" stroke="white" stroke-width="1.5" d="M0,-3.0v7 M-2.5,-0.5L0,-3.0L2.5,-0.5"/>
  </g>
  <g id="arrowDown" transform="rotate(180) translate(-30 -48)">
    <use xlink:href="#rim"/>
    <path pointer-events="none" fill="none" stroke="white" stroke-width="1.5" d="M0,-3.0v7 M-2.5,-0.5L0,-3.0L2.5,-0.5"/>
  </g>
  <g id="arrowLeft" transform="rotate(270) translate(-36 17)">
    <use xlink:href="#rim"/>
    <path pointer-events="none" fill="none" stroke="white" stroke-width="1.5" d="M0,-3.0v7 M-2.5,-0.5L0,-3.0L2.5,-0.5"/>
  </g>
  <g id="resetDef">
    <use xlink:href="#rim2" fill="#404040"><set attributeName="fill" to="#808080" begin="reset.mouseover" end="reset.mouseout"/></use>
  </g>
</defs>
<script type="application/ecmascript">
var viewWidth = 627;
var viewHeight = 866;
var sectionId = 'dynsection-11';
</script>
<script type="application/ecmascript" xlink:href="svg.min.js"/>
<svg id="graph" class="graph">
<g id="viewport">
<title>Iteration::TimeMarching</title>
<!-- Node1 -->
<g id="Node000001" class="node">
<title>Node1</title>
<g id="a_Node000001"><a xlink:title=" ">
<polygon fill="#999999" stroke="#666666" points="121.01,-454 -0,-454 -0,-434 121.01,-434 121.01,-454"/>
<text text-anchor="middle" x="60.5" y="-441" font-family="Helvetica,sans-Serif" font-size="10.00">Iteration::TimeMarching</text>
</a>
</g>
</g>
<!-- Node2 -->
<g id="Node000002" class="node">
<title>Node2</title>
<g id="a_Node000002"><a xlink:href="classvvm_1_1MicroPhysics.html#a124b68c95137705e772e933f3ff388c9" target="_top" xlink:title=" ">
<polygon fill="white" stroke="#666666" points="272.9,-858 168.25,-858 168.25,-826 272.9,-826 272.9,-858"/>
<text text-anchor="start" x="176.41" y="-845" font-family="Helvetica,sans-Serif" font-size="10.00">vvm::MicroPhysics::</text>
<text text-anchor="middle" x="220.58" y="-833" font-family="Helvetica,sans-Serif" font-size="10.00">accretion</text>
</a>
</g>
</g>
<!-- Node1&#45;&gt;Node2 -->
<g id="edge1_Node000001_Node000002" class="edge">
<title>Node1&#45;&gt;Node2</title>
<g id="a_edge1_Node000001_Node000002"><a xlink:title=" ">
<path fill="none" stroke="#63b8ff" d="M61,-454.11C59.2,-501.5 57.76,-703.99 157.01,-817 158.02,-818.15 159.09,-819.25 160.22,-820.31"/>
<polygon fill="#63b8ff" stroke="#63b8ff" points="158.25,-823.2 168.3,-826.54 162.52,-817.66 158.25,-823.2"/>
</a>
</g>
</g>
<!-- Node3 -->
<g id="Node000003" class="node">
<title>Node3</title>
<g id="a_Node000003"><a xlink:href="classvvm.html#ae95d349fc79929ad9bd5b95e3cd97c0b" target="_top" xlink:title=" ">
<polygon fill="white" stroke="#666666" points="266.08,-732 175.07,-732 175.07,-712 266.08,-712 266.08,-732"/>
<text text-anchor="middle" x="220.58" y="-719" font-family="Helvetica,sans-Serif" font-size="10.00">vvm::AddForcing</text>
</a>
</g>
</g>
<!-- Node1&#45;&gt;Node3 -->
<g id="edge2_Node000001_Node000003" class="edge">
<title>Node1&#45;&gt;Node3</title>
<g id="a_edge2_Node000001_Node000003"><a xlink:title=" ">
<path fill="none" stroke="#63b8ff" d="M62.13,-454.15C65.05,-492.64 80.66,-630.99 157.01,-703 159.73,-705.57 162.78,-707.79 166.04,-709.71"/>
<polygon fill="#63b8ff" stroke="#63b8ff" points="164.54,-712.87 175.06,-714.12 167.62,-706.58 164.54,-712.87"/>
</a>
</g>
</g>
<!-- Node4 -->
<g id="Node000004" class="node">
<title>Node4</title>
<g id="a_Node000004"><a xlink:href="classvvm.html#a0f7695aeeea1dac87393db3edfc7acd8" target="_top" xlink:title=" ">
<polygon fill="white" stroke="#666666" points="451.51,-687 320.36,-687 320.36,-655 451.51,-655 451.51,-687"/>
<text text-anchor="start" x="328.14" y="-674" font-family="Helvetica,sans-Serif" font-size="10.00">vvm::BoundaryProcess2D</text>
<text text-anchor="middle" x="385.93" y="-662" font-family="Helvetica,sans-Serif" font-size="10.00">_center</text>
</a>
</g>
</g>
<!-- Node1&#45;&gt;Node4 -->
<g id="edge5_Node000001_Node000004" class="edge">
<title>Node1&#45;&gt;Node4</title>
<g id="a_edge5_Node000001_Node000004"><a xlink:title=" ">
<path fill="none" stroke="#63b8ff" d="M60.98,-454.28C59.38,-498.07 59.62,-670.02 157.01,-741 202.67,-774.28 230.22,-757.89 284.14,-741 313.5,-731.81 341.8,-710.72 360.9,-694.08"/>
<polygon fill="#63b8ff" stroke="#63b8ff" points="363.39,-696.55 368.5,-687.26 358.71,-691.33 363.39,-696.55"/>
</a>
</g>
</g>
<!-- Node5 -->
<g id="Node000005" class="node">
<title>Node5</title>
<g id="a_Node000005"><a xlink:href="classvvm_1_1MicroPhysics.html#a30ea0fb37f59a0c9196225aa460049e1" target="_top" xlink:title=" ">
<polygon fill="white" stroke="#666666" points="272.9,-340 168.25,-340 168.25,-308 272.9,-308 272.9,-340"/>
<text text-anchor="start" x="176.41" y="-327" font-family="Helvetica,sans-Serif" font-size="10.00">vvm::MicroPhysics::</text>
<text text-anchor="middle" x="220.58" y="-315" font-family="Helvetica,sans-Serif" font-size="10.00">autoconversion</text>
</a>
</g>
</g>
<!-- Node1&#45;&gt;Node5 -->
<g id="edge4_Node000001_Node000005" class="edge">
<title>Node1&#45;&gt;Node5</title>
<g id="a_edge4_Node000001_Node000005"><a xlink:title=" ">
<path fill="none" stroke="#63b8ff" d="M69.39,-433.78C84.53,-414.77 119.48,-373.66 157.01,-349 159.27,-347.52 161.63,-346.09 164.05,-344.74"/>
<polygon fill="#63b8ff" stroke="#63b8ff" points="165.76,-347.8 173.06,-340.12 162.56,-341.57 165.76,-347.8"/>
</a>
</g>
</g>
<!-- Node6 -->
<g id="Node000006" class="node">
<title>Node6</title>
<g id="a_Node000006"><a xlink:href="classvvm.html#a88f21d908dca06f5c725da83a36caf96" target="_top" xlink:title=" ">
<polygon fill="white" stroke="#666666" points="619.08,-402 487.93,-402 487.93,-370 619.08,-370 619.08,-402"/>
<text text-anchor="start" x="495.72" y="-389" font-family="Helvetica,sans-Serif" font-size="10.00">vvm::BoundaryProcess2D</text>
<text text-anchor="middle" x="553.5" y="-377" font-family="Helvetica,sans-Serif" font-size="10.00">_westdown</text>
</a>
</g>
</g>
<!-- Node1&#45;&gt;Node6 -->
<g id="edge6_Node000001_Node000006" class="edge">
<title>Node1&#45;&gt;Node6</title>
<g id="a_edge6_Node000001_Node000006"><a xlink:title=" ">
<path fill="none" stroke="#63b8ff" d="M121.22,-436.95C210.82,-426.36 379.94,-406.38 477.66,-394.84"/>
<polygon fill="#63b8ff" stroke="#63b8ff" points="478.24,-398.3 487.76,-393.65 477.42,-391.35 478.24,-398.3"/>
</a>
</g>
</g>
<!-- Node7 -->
<g id="Node000007" class="node">
<title>Node7</title>
<g id="a_Node000007"><a xlink:href="classvvm_1_1PoissonSolver.html#a741f59b97f794a79a15fd919b3b2501e" target="_top" xlink:title=" ">
<polygon fill="white" stroke="#666666" points="272.36,-694 168.79,-694 168.79,-662 272.36,-662 272.36,-694"/>
<text text-anchor="start" x="176.68" y="-681" font-family="Helvetica,sans-Serif" font-size="10.00">vvm::PoissonSolver</text>
<text text-anchor="middle" x="220.58" y="-669" font-family="Helvetica,sans-Serif" font-size="10.00">::cal_u</text>
</a>
</g>
</g>
<!-- Node1&#45;&gt;Node7 -->
<g id="edge7_Node000001_Node000007" class="edge">
<title>Node1&#45;&gt;Node7</title>
<g id="a_edge7_Node000001_Node000007"><a xlink:title=" ">
<path fill="none" stroke="#63b8ff" d="M63.38,-454.28C69.99,-487.63 95.19,-594.11 157.01,-653 158.12,-654.06 159.28,-655.08 160.49,-656.05"/>
<polygon fill="#63b8ff" stroke="#63b8ff" points="158.75,-659.1 168.96,-661.9 162.72,-653.34 158.75,-659.1"/>
</a>
</g>
</g>
<!-- Node8 -->
<g id="Node000008" class="node">
<title>Node8</title>
<g id="a_Node000008"><a xlink:href="classvvm_1_1PoissonSolver.html#a03f3af096f7aa1861ee6512f41b5298f" target="_top" xlink:title=" ">
<polygon fill="white" stroke="#666666" points="437.72,-466 334.14,-466 334.14,-434 437.72,-434 437.72,-466"/>
<text text-anchor="start" x="342.04" y="-453" font-family="Helvetica,sans-Serif" font-size="10.00">vvm::PoissonSolver</text>
<text text-anchor="middle" x="385.93" y="-441" font-family="Helvetica,sans-Serif" font-size="10.00">::cal_w</text>
</a>
</g>
</g>
<!-- Node1&#45;&gt;Node8 -->
<g id="edge9_Node000001_Node000008" class="edge">
<title>Node1&#45;&gt;Node8</title>
<g id="a_edge9_Node000001_Node000008"><a xlink:title=" ">
<path fill="none" stroke="#63b8ff" d="M121.2,-445.11C178.88,-446.18 265.84,-447.79 323.95,-448.87"/>
<polygon fill="#63b8ff" stroke="#63b8ff" points="324.03,-452.37 334.09,-449.06 324.16,-445.37 324.03,-452.37"/>
</a>
</g>
</g>
<!-- Node9 -->
<g id="Node000009" class="node">
<title>Node9</title>
<g id="a_Node000009"><a xlink:href="classvvm_1_1MicroPhysics.html#a0e14e9f52aabebc378538378e39da16f" target="_top" xlink:title=" ">
<polygon fill="white" stroke="#666666" points="272.9,-290 168.25,-290 168.25,-258 272.9,-258 272.9,-290"/>
<text text-anchor="start" x="176.41" y="-277" font-family="Helvetica,sans-Serif" font-size="10.00">vvm::MicroPhysics::</text>
<text text-anchor="middle" x="220.58" y="-265" font-family="Helvetica,sans-Serif" font-size="10.00">condensation</text>
</a>
</g>
</g>
<!-- Node1&#45;&gt;Node9 -->
<g id="edge11_Node000001_Node000009" class="edge">
<title>Node1&#45;&gt;Node9</title>
<g id="a_edge11_Node000001_Node000009"><a xlink:title=" ">
<path fill="none" stroke="#63b8ff" d="M65.66,-433.68C76.69,-407.54 109.12,-338.06 157.01,-299 158.57,-297.72 160.21,-296.51 161.9,-295.35"/>
<polygon fill="#63b8ff" stroke="#63b8ff" points="164.01,-298.17 170.76,-290 160.39,-292.17 164.01,-298.17"/>
</a>
</g>
</g>
<!-- Node10 -->
<g id="Node000010" class="node">
<title>Node10</title>
<g id="a_Node000010"><a xlink:href="classvvm.html#ac6e47dca620f5b32dd6b0d1be432a347" target="_top" xlink:title=" ">
<polygon fill="white" stroke="#666666" points="259.86,-240 181.3,-240 181.3,-220 259.86,-220 259.86,-240"/>
<text text-anchor="middle" x="220.58" y="-227" font-family="Helvetica,sans-Serif" font-size="10.00">vvm::Diffusion</text>
</a>
</g>
</g>
<!-- Node1&#45;&gt;Node10 -->
<g id="edge12_Node000001_Node000010" class="edge">
<title>Node1&#45;&gt;Node10</title>
<g id="a_edge12_Node000001_Node000010"><a xlink:title=" ">
<path fill="none" stroke="#63b8ff" d="M63.51,-433.75C70.35,-401.48 95.86,-301.04 157.01,-249 161.28,-245.37 166.23,-242.43 171.44,-240.05"/>
<polygon fill="#63b8ff" stroke="#63b8ff" points="172.94,-243.22 181,-236.35 170.41,-236.7 172.94,-243.22"/>
</a>
</g>
</g>
<!-- Node11 -->
<g id="Node000011" class="node">
<title>Node11</title>
<g id="a_Node000011"><a xlink:href="classvvm_1_1MicroPhysics.html#aaaad239d8aa4db479cde21ce4ce12a65" target="_top" xlink:title=" ">
<polygon fill="white" stroke="#666666" points="272.9,-202 168.25,-202 168.25,-170 272.9,-170 272.9,-202"/>
<text text-anchor="start" x="176.41" y="-189" font-family="Helvetica,sans-Serif" font-size="10.00">vvm::MicroPhysics::</text>
<text text-anchor="middle" x="220.58" y="-177" font-family="Helvetica,sans-Serif" font-size="10.00">evaporation</text>
</a>
</g>
</g>
<!-- Node1&#45;&gt;Node11 -->
<g id="edge13_Node000001_Node000011" class="edge">
<title>Node1&#45;&gt;Node11</title>
<g id="a_edge13_Node000001_Node000011"><a xlink:title=" ">
<path fill="none" stroke="#63b8ff" d="M62.86,-433.58C68.06,-397.65 89.94,-277.48 157.01,-211 158.07,-209.94 159.19,-208.93 160.34,-207.96"/>
<polygon fill="#63b8ff" stroke="#63b8ff" points="162.4,-210.79 168.52,-202.14 158.34,-205.09 162.4,-210.79"/>
</a>
</g>
</g>
<!-- Node12 -->
<g id="Node000012" class="node">
<title>Node12</title>
<g id="a_Node000012"><a xlink:href="classvvm_1_1MicroPhysics.html#aa6a9e66b8c45fa524936db5a225d680e" target="_top" xlink:title=" ">
<polygon fill="white" stroke="#666666" points="444.57,-554 327.3,-554 327.3,-522 444.57,-522 444.57,-554"/>
<text text-anchor="start" x="335.36" y="-541" font-family="Helvetica,sans-Serif" font-size="10.00">vvm::MicroPhysics::</text>
<text text-anchor="middle" x="385.93" y="-529" font-family="Helvetica,sans-Serif" font-size="10.00">NegativeValueProcess</text>
</a>
</g>
</g>
<!-- Node1&#45;&gt;Node12 -->
<g id="edge14_Node000001_Node000012" class="edge">
<title>Node1&#45;&gt;Node12</title>
<g id="a_edge14_Node000001_Node000012"><a xlink:title=" ">
<path fill="none" stroke="#63b8ff" d="M106.23,-454.04C151.45,-464.53 223.18,-482.06 284.14,-501 300.65,-506.13 318.43,-512.4 334.39,-518.31"/>
<polygon fill="#63b8ff" stroke="#63b8ff" points="333.47,-521.7 344.06,-521.93 335.92,-515.15 333.47,-521.7"/>
</a>
</g>
</g>
<!-- Node13 -->
<g id="Node000013" class="node">
<title>Node13</title>
<g id="a_Node000013"><a xlink:href="classOutput.html#a29f4af25257a72a15b771089d806fbb3" target="_top" xlink:title=" ">
<polygon fill="white" stroke="#666666" points="268.56,-152 172.59,-152 172.59,-132 268.56,-132 268.56,-152"/>
<text text-anchor="middle" x="220.58" y="-139" font-family="Helvetica,sans-Serif" font-size="10.00">Output::output_nc</text>
</a>
</g>
</g>
<!-- Node1&#45;&gt;Node13 -->
<g id="edge15_Node000001_Node000013" class="edge">
<title>Node1&#45;&gt;Node13</title>
<g id="a_edge15_Node000001_Node000013"><a xlink:title=" ">
<path fill="none" stroke="#63b8ff" d="M61.77,-433.78C63.39,-393.03 74.93,-240.6 157.01,-161 159.11,-158.96 161.42,-157.14 163.88,-155.52"/>
<polygon fill="#63b8ff" stroke="#63b8ff" points="165.61,-158.56 172.72,-150.71 162.26,-152.41 165.61,-158.56"/>
</a>
</g>
</g>
<!-- Node14 -->
<g id="Node000014" class="node">
<title>Node14</title>
<g id="a_Node000014"><a xlink:href="classIteration.html#a6b9d511fea92c2569c8da11c1a86a066" target="_top" xlink:title=" ">
<polygon fill="white" stroke="#666666" points="264.27,-530 176.88,-530 176.88,-510 264.27,-510 264.27,-530"/>
<text text-anchor="middle" x="220.58" y="-517" font-family="Helvetica,sans-Serif" font-size="10.00">Iteration::pqc_pt</text>
</a>
</g>
</g>
<!-- Node1&#45;&gt;Node14 -->
<g id="edge16_Node000001_Node000014" class="edge">
<title>Node1&#45;&gt;Node14</title>
<g id="a_edge16_Node000001_Node000014"><a xlink:title=" ">
<path fill="none" stroke="#63b8ff" d="M78.41,-454.09C97.23,-465.12 128.73,-482.95 157.01,-496 164.83,-499.61 173.36,-503.14 181.53,-506.33"/>
<polygon fill="#63b8ff" stroke="#63b8ff" points="180.31,-509.61 190.9,-509.91 182.81,-503.07 180.31,-509.61"/>
</a>
</g>
</g>
<!-- Node18 -->
<g id="Node000018" class="node">
<title>Node18</title>
<g id="a_Node000018"><a xlink:href="classIteration.html#ac30ea16c9e339a59c78637fa0753f775" target="_top" xlink:title=" ">
<polygon fill="white" stroke="#666666" points="263.6,-606 177.55,-606 177.55,-586 263.6,-586 263.6,-606"/>
<text text-anchor="middle" x="220.58" y="-593" font-family="Helvetica,sans-Serif" font-size="10.00">Iteration::pqr_pt</text>
</a>
</g>
</g>
<!-- Node1&#45;&gt;Node18 -->
<g id="edge22_Node000001_Node000018" class="edge">
<title>Node1&#45;&gt;Node18</title>
<g id="a_edge22_Node000001_Node000018"><a xlink:title=" ">
<path fill="none" stroke="#63b8ff" d="M65.89,-454.05C77.21,-478.83 109.86,-543.24 157.01,-577 160.43,-579.45 164.18,-581.6 168.09,-583.46"/>
<polygon fill="#63b8ff" stroke="#63b8ff" points="166.83,-586.73 177.41,-587.35 169.52,-580.27 166.83,-586.73"/>
</a>
</g>
</g>
<!-- Node20 -->
<g id="Node000020" class="node">
<title>Node20</title>
<g id="a_Node000020"><a xlink:href="classIteration.html#ab92cc262ad139b14958847277b88d017" target="_top" xlink:title=" ">
<polygon fill="white" stroke="#666666" points="264.27,-568 176.88,-568 176.88,-548 264.27,-548 264.27,-568"/>
<text text-anchor="middle" x="220.58" y="-555" font-family="Helvetica,sans-Serif" font-size="10.00">Iteration::pqv_pt</text>
</a>
</g>
</g>
<!-- Node1&#45;&gt;Node20 -->
<g id="edge29_Node000001_Node000020" class="edge">
<title>Node1&#45;&gt;Node20</title>
<g id="a_edge29_Node000001_Node000020"><a xlink:title=" ">
<path fill="none" stroke="#63b8ff" d="M68.97,-454.22C83.66,-473.61 118.27,-515.84 157.01,-539 160.22,-540.92 163.64,-542.66 167.16,-544.23"/>
<polygon fill="#63b8ff" stroke="#63b8ff" points="166.06,-547.56 176.65,-548.03 168.66,-541.06 166.06,-547.56"/>
</a>
</g>
</g>
<!-- Node21 -->
<g id="Node000021" class="node">
<title>Node21</title>
<g id="a_Node000021"><a xlink:href="classIteration.html#a7d5499ac76ee826bdda0184feb1fef5f" target="_top" xlink:title=" ">
<polygon fill="white" stroke="#666666" points="263.55,-644 177.6,-644 177.6,-624 263.55,-624 263.55,-644"/>
<text text-anchor="middle" x="220.58" y="-631" font-family="Helvetica,sans-Serif" font-size="10.00">Iteration::pth_pt</text>
</a>
</g>
</g>
<!-- Node1&#45;&gt;Node21 -->
<g id="edge33_Node000001_Node000021" class="edge">
<title>Node1&#45;&gt;Node21</title>
<g id="a_edge33_Node000001_Node000021"><a xlink:title=" ">
<path fill="none" stroke="#63b8ff" d="M64.26,-454.24C72.76,-483.83 101.4,-570.2 157.01,-615 160.39,-617.72 164.16,-620.06 168.12,-622.06"/>
<polygon fill="#63b8ff" stroke="#63b8ff" points="167.06,-625.41 177.63,-626.14 169.83,-618.98 167.06,-625.41"/>
</a>
</g>
</g>
<!-- Node22 -->
<g id="Node000022" class="node">
<title>Node22</title>
<g id="a_Node000022"><a xlink:href="classvvm_1_1PoissonSolver.html#a47ac6e26a9dde6ed72a178dcb92d3bab" target="_top" xlink:title=" ">
<polygon fill="white" stroke="#666666" points="272.36,-114 168.79,-114 168.79,-82 272.36,-82 272.36,-114"/>
<text text-anchor="start" x="176.68" y="-101" font-family="Helvetica,sans-Serif" font-size="10.00">vvm::PoissonSolver</text>
<text text-anchor="middle" x="220.58" y="-89" font-family="Helvetica,sans-Serif" font-size="10.00">::pubarTop_pt</text>
</a>
</g>
</g>
<!-- Node1&#45;&gt;Node22 -->
<g id="edge36_Node000001_Node000022" class="edge">
<title>Node1&#45;&gt;Node22</title>
<g id="a_edge36_Node000001_Node000022"><a xlink:title=" ">
<path fill="none" stroke="#63b8ff" d="M61.5,-433.86C62.04,-390.49 69.78,-218.54 157.01,-123 158.17,-121.72 159.41,-120.51 160.71,-119.36"/>
<polygon fill="#63b8ff" stroke="#63b8ff" points="162.8,-122.17 168.75,-113.41 158.63,-116.54 162.8,-122.17"/>
</a>
</g>
</g>
<!-- Node23 -->
<g id="Node000023" class="node">
<title>Node23</title>
<g id="a_Node000023"><a xlink:href="classIteration.html#a012d468a6070b5b181d88b226821ce5c" target="_top" xlink:title=" ">
<polygon fill="white" stroke="#666666" points="268.61,-378 172.54,-378 172.54,-358 268.61,-358 268.61,-378"/>
<text text-anchor="middle" x="220.58" y="-365" font-family="Helvetica,sans-Serif" font-size="10.00">Iteration::pzeta_pt</text>
</a>
</g>
</g>
<!-- Node1&#45;&gt;Node23 -->
<g id="edge37_Node000001_Node000023" class="edge">
<title>Node1&#45;&gt;Node23</title>
<g id="a_edge37_Node000001_Node000023"><a xlink:title=" ">
<path fill="none" stroke="#63b8ff" d="M78.41,-433.91C97.23,-422.88 128.73,-405.05 157.01,-392 164.83,-388.39 173.36,-384.86 181.53,-381.67"/>
<polygon fill="#63b8ff" stroke="#63b8ff" points="182.81,-384.93 190.9,-378.09 180.31,-378.39 182.81,-384.93"/>
</a>
</g>
</g>
<!-- Node31 -->
<g id="Node000031" class="node">
<title>Node31</title>
<g id="a_Node000031"><a xlink:href="classInit.html#a83424c08602c8f29653a28361be9c152" target="_top" xlink:title=" ">
<polygon fill="white" stroke="#666666" points="284.21,-808 156.94,-808 156.94,-788 284.21,-788 284.21,-808"/>
<text text-anchor="middle" x="220.58" y="-795" font-family="Helvetica,sans-Serif" font-size="10.00">Init::RandomPerturbation</text>
</a>
</g>
</g>
<!-- Node1&#45;&gt;Node31 -->
<g id="edge49_Node000001_Node000031" class="edge">
<title>Node1&#45;&gt;Node31</title>
<g id="a_edge49_Node000001_Node000031"><a xlink:title=" ">
<path fill="none" stroke="#63b8ff" d="M61.37,-454.15C61.34,-498.34 67.02,-676.06 157.01,-774 160.28,-777.56 164.14,-780.6 168.31,-783.19"/>
<polygon fill="#63b8ff" stroke="#63b8ff" points="166.73,-786.32 177.21,-787.9 170.01,-780.13 166.73,-786.32"/>
</a>
</g>
</g>
<!-- Node32 -->
<g id="Node000032" class="node">
<title>Node32</title>
<g id="a_Node000032"><a xlink:href="classvvm.html#ab10c85732f7f7256133cf53f099232c2" target="_top" xlink:title=" ">
<polygon fill="white" stroke="#666666" points="262.89,-64 178.26,-64 178.26,-44 262.89,-44 262.89,-64"/>
<text text-anchor="middle" x="220.58" y="-51" font-family="Helvetica,sans-Serif" font-size="10.00">vvm::TimeFilter</text>
</a>
</g>
</g>
<!-- Node1&#45;&gt;Node32 -->
<g id="edge51_Node000001_Node000032" class="edge">
<title>Node1&#45;&gt;Node32</title>
<g id="a_edge51_Node000001_Node000032"><a xlink:title=" ">
<path fill="none" stroke="#63b8ff" d="M62.75,-433.98C69.63,-380.36 104.44,-127.87 157.01,-73 160.41,-69.45 164.46,-66.55 168.83,-64.2"/>
<polygon fill="#63b8ff" stroke="#63b8ff" points="170.43,-67.32 178.16,-60.07 167.6,-60.91 170.43,-67.32"/>
</a>
</g>
</g>
<!-- Node33 -->
<g id="Node000033" class="node">
<title>Node33</title>
<g id="a_Node000033"><a xlink:href="classIteration.html#a8836fdf87b17b4bc628fd77db64c6af3" target="_top" xlink:title=" ">
<polygon fill="white" stroke="#666666" points="277.34,-26 163.82,-26 163.82,-6 277.34,-6 277.34,-26"/>
<text text-anchor="middle" x="220.58" y="-13" font-family="Helvetica,sans-Serif" font-size="10.00">Iteration::updateMean</text>
</a>
</g>
</g>
<!-- Node1&#45;&gt;Node33 -->
<g id="edge52_Node000001_Node000033" class="edge">
<title>Node1&#45;&gt;Node33</title>
<g id="a_edge52_Node000001_Node000033"><a xlink:title=" ">
<path fill="none" stroke="#63b8ff" d="M62.52,-433.72C68.41,-376.35 99.81,-96.07 157.01,-35 158.08,-33.86 159.21,-32.79 160.4,-31.78"/>
<polygon fill="#63b8ff" stroke="#63b8ff" points="162.61,-34.51 168.94,-26.01 158.7,-28.71 162.61,-34.51"/>
</a>
</g>
</g>
<!-- Node3&#45;&gt;Node4 -->
<g id="edge3_Node000003_Node000004" class="edge">
<title>Node3&#45;&gt;Node4</title>
<g id="a_edge3_Node000003_Node000004"><a xlink:title=" ">
<path fill="none" stroke="#63b8ff" d="M255.05,-711.92C264.46,-709.06 274.71,-705.93 284.14,-703 297.41,-698.88 311.63,-694.4 325.09,-690.14"/>
<polygon fill="#63b8ff" stroke="#63b8ff" points="326.26,-693.44 334.73,-687.08 324.14,-686.77 326.26,-693.44"/>
</a>
</g>
</g>
<!-- Node7&#45;&gt;Node4 -->
<g id="edge8_Node000007_Node000004" class="edge">
<title>Node7&#45;&gt;Node4</title>
<g id="a_edge8_Node000007_Node000004"><a xlink:title=" ">
<path fill="none" stroke="#63b8ff" d="M272.37,-675.82C284.34,-675.31 297.35,-674.75 310.13,-674.21"/>
<polygon fill="#63b8ff" stroke="#63b8ff" points="310.47,-677.69 320.31,-673.77 310.17,-670.7 310.47,-677.69"/>
</a>
</g>
</g>
<!-- Node8&#45;&gt;Node6 -->
<g id="edge10_Node000008_Node000006" class="edge">
<title>Node8&#45;&gt;Node6</title>
<g id="a_edge10_Node000008_Node000006"><a xlink:title=" ">
<path fill="none" stroke="#63b8ff" d="M428.61,-433.86C446.76,-426.84 468.29,-418.51 487.72,-411 492.12,-409.3 496.7,-407.53 501.29,-405.76"/>
<polygon fill="#63b8ff" stroke="#63b8ff" points="502.61,-409 510.68,-402.13 500.09,-402.47 502.61,-409"/>
</a>
</g>
</g>
<!-- Node14&#45;&gt;Node4 -->
<g id="edge20_Node000014_Node000004" class="edge">
<title>Node14&#45;&gt;Node4</title>
<g id="a_edge20_Node000014_Node000004"><a xlink:title=" ">
<path fill="none" stroke="#63b8ff" d="M264.52,-527.21C271.72,-529.96 278.63,-533.76 284.14,-539 318.38,-571.54 288.69,-603.76 320.14,-639 323.61,-642.88 327.64,-646.34 331.98,-649.42"/>
<polygon fill="#63b8ff" stroke="#63b8ff" points="330.3,-652.49 340.62,-654.87 334.03,-646.57 330.3,-652.49"/>
</a>
</g>
</g>
<!-- Node14&#45;&gt;Node12 -->
<g id="edge21_Node000014_Node000012" class="edge">
<title>Node14&#45;&gt;Node12</title>
<g id="a_edge21_Node000014_Node000012"><a xlink:title=" ">
<path fill="none" stroke="#63b8ff" d="M264.5,-524.73C280.54,-526.5 299.17,-528.55 316.93,-530.51"/>
<polygon fill="#63b8ff" stroke="#63b8ff" points="316.93,-534.03 327.25,-531.64 317.69,-527.07 316.93,-534.03"/>
</a>
</g>
</g>
<!-- Node15 -->
<g id="Node000015" class="node">
<title>Node15</title>
<g id="a_Node000015"><a xlink:href="classvvm.html#a7a376a97df688fa6a19e5f6d9fc02491" target="_top" xlink:title=" ">
<polygon fill="white" stroke="#666666" points="446.39,-592 325.47,-592 325.47,-572 446.39,-572 446.39,-592"/>
<text text-anchor="middle" x="385.93" y="-579" font-family="Helvetica,sans-Serif" font-size="10.00">vvm::Advection_thermo</text>
</a>
</g>
</g>
<!-- Node14&#45;&gt;Node15 -->
<g id="edge17_Node000014_Node000015" class="edge">
<title>Node14&#45;&gt;Node15</title>
<g id="a_edge17_Node000014_Node000015"><a xlink:title=" ">
<path fill="none" stroke="#63b8ff" d="M260.96,-530.03C268.8,-532.56 276.86,-535.56 284.14,-539 301.53,-547.22 302.72,-554.87 320.14,-563 324.56,-565.06 329.25,-566.95 334.01,-568.68"/>
<polygon fill="#63b8ff" stroke="#63b8ff" points="333.21,-572.1 343.8,-571.98 335.44,-565.47 333.21,-572.1"/>
</a>
</g>
</g>
<!-- Node16 -->
<g id="Node000016" class="node">
<title>Node16</title>
<g id="a_Node000016"><a xlink:href="Advection_8cpp.html#a8566d63c1693d34aba0fa86f658532a2" target="_top" xlink:title=" ">
<polygon fill="white" stroke="#666666" points="577.72,-630 529.29,-630 529.29,-610 577.72,-610 577.72,-630"/>
<text text-anchor="middle" x="553.5" y="-617" font-family="Helvetica,sans-Serif" font-size="10.00">MINUS</text>
</a>
</g>
</g>
<!-- Node15&#45;&gt;Node16 -->
<g id="edge18_Node000015_Node000016" class="edge">
<title>Node15&#45;&gt;Node16</title>
<g id="a_edge18_Node000015_Node000016"><a xlink:title=" ">
<path fill="none" stroke="#63b8ff" d="M430.87,-592.08C458.65,-598.46 493.99,-606.57 519.41,-612.4"/>
<polygon fill="#63b8ff" stroke="#63b8ff" points="518.78,-615.85 529.31,-614.68 520.34,-609.03 518.78,-615.85"/>
</a>
</g>
</g>
<!-- Node17 -->
<g id="Node000017" class="node">
<title>Node17</title>
<g id="a_Node000017"><a xlink:href="Advection_8cpp.html#ac35c0748e7807333a355cd2b8e5dfef8" target="_top" xlink:title=" ">
<polygon fill="white" stroke="#666666" points="574.62,-592 532.39,-592 532.39,-572 574.62,-572 574.62,-592"/>
<text text-anchor="middle" x="553.5" y="-579" font-family="Helvetica,sans-Serif" font-size="10.00">PLUS</text>
</a>
</g>
</g>
<!-- Node15&#45;&gt;Node17 -->
<g id="edge19_Node000015_Node000017" class="edge">
<title>Node15&#45;&gt;Node17</title>
<g id="a_edge19_Node000015_Node000017"><a xlink:title=" ">
<path fill="none" stroke="#63b8ff" d="M446.24,-582C471.96,-582 500.97,-582 522.18,-582"/>
<polygon fill="#63b8ff" stroke="#63b8ff" points="522.21,-585.5 532.2,-582 522.2,-578.5 522.21,-585.5"/>
</a>
</g>
</g>
<!-- Node18&#45;&gt;Node4 -->
<g id="edge27_Node000018_Node000004" class="edge">
<title>Node18&#45;&gt;Node4</title>
<g id="a_edge27_Node000018_Node000004"><a xlink:title=" ">
<path fill="none" stroke="#63b8ff" d="M260.96,-606.03C268.8,-608.56 276.86,-611.56 284.14,-615 301.53,-623.22 303.49,-629.39 320.14,-639 326.72,-642.79 333.8,-646.58 340.79,-650.15"/>
<polygon fill="#63b8ff" stroke="#63b8ff" points="339.69,-653.52 350.2,-654.87 342.83,-647.26 339.69,-653.52"/>
</a>
</g>
</g>
<!-- Node18&#45;&gt;Node12 -->
<g id="edge28_Node000018_Node000012" class="edge">
<title>Node18&#45;&gt;Node12</title>
<g id="a_edge28_Node000018_Node000012"><a xlink:title=" ">
<path fill="none" stroke="#63b8ff" d="M256.48,-585.91C265.53,-583.16 275.24,-580.08 284.14,-577 300.37,-571.39 304.14,-569.2 320.14,-563 324.55,-561.29 329.12,-559.52 333.71,-557.75"/>
<polygon fill="#63b8ff" stroke="#63b8ff" points="335.04,-560.99 343.1,-554.12 332.51,-554.46 335.04,-560.99"/>
</a>
</g>
</g>
<!-- Node18&#45;&gt;Node15 -->
<g id="edge26_Node000018_Node000015" class="edge">
<title>Node18&#45;&gt;Node15</title>
<g id="a_edge26_Node000018_Node000015"><a xlink:title=" ">
<path fill="none" stroke="#63b8ff" d="M263.64,-592.39C279.37,-591.05 297.68,-589.48 315.24,-587.97"/>
<polygon fill="#63b8ff" stroke="#63b8ff" points="315.8,-591.44 325.46,-587.1 315.2,-584.46 315.8,-591.44"/>
</a>
</g>
</g>
<!-- Node19 -->
<g id="Node000019" class="node">
<title>Node19</title>
<g id="a_Node000019"><a xlink:href="classvvm.html#a5a6a59d52a4562766f6c57429cae2cb5" target="_top" xlink:title=" ">
<polygon fill="white" stroke="#666666" points="441.45,-630 330.42,-630 330.42,-610 441.45,-610 441.45,-630"/>
<text text-anchor="middle" x="385.93" y="-617" font-family="Helvetica,sans-Serif" font-size="10.00">vvm::Advection_qrVT</text>
</a>
</g>
</g>
<!-- Node18&#45;&gt;Node19 -->
<g id="edge23_Node000018_Node000019" class="edge">
<title>Node18&#45;&gt;Node19</title>
<g id="a_edge23_Node000018_Node000019"><a xlink:title=" ">
<path fill="none" stroke="#63b8ff" d="M263.64,-602.18C280.87,-604.71 301.2,-607.7 320.24,-610.5"/>
<polygon fill="#63b8ff" stroke="#63b8ff" points="319.96,-613.99 330.36,-611.98 320.98,-607.07 319.96,-613.99"/>
</a>
</g>
</g>
<!-- Node19&#45;&gt;Node16 -->
<g id="edge24_Node000019_Node000016" class="edge">
<title>Node19&#45;&gt;Node16</title>
<g id="a_edge24_Node000019_Node000016"><a xlink:title=" ">
<path fill="none" stroke="#63b8ff" d="M441.6,-620C467.18,-620 496.83,-620 519.03,-620"/>
<polygon fill="#63b8ff" stroke="#63b8ff" points="519.28,-623.5 529.28,-620 519.28,-616.5 519.28,-623.5"/>
</a>
</g>
</g>
<!-- Node19&#45;&gt;Node17 -->
<g id="edge25_Node000019_Node000017" class="edge">
<title>Node19&#45;&gt;Node17</title>
<g id="a_edge25_Node000019_Node000017"><a xlink:title=" ">
<path fill="none" stroke="#63b8ff" d="M430.87,-609.92C459.66,-603.31 496.57,-594.84 522.14,-588.97"/>
<polygon fill="#63b8ff" stroke="#63b8ff" points="523.05,-592.35 532.02,-586.7 521.49,-585.53 523.05,-592.35"/>
</a>
</g>
</g>
<!-- Node20&#45;&gt;Node4 -->
<g id="edge31_Node000020_Node000004" class="edge">
<title>Node20&#45;&gt;Node4</title>
<g id="a_edge31_Node000020_Node000004"><a xlink:title=" ">
<path fill="none" stroke="#63b8ff" d="M264.43,-566.3C271.48,-568.94 278.36,-572.42 284.14,-577 309.12,-596.78 296.87,-617.24 320.14,-639 324.43,-643.01 329.31,-646.62 334.43,-649.84"/>
<polygon fill="#63b8ff" stroke="#63b8ff" points="332.79,-652.94 343.2,-654.91 336.29,-646.88 332.79,-652.94"/>
</a>
</g>
</g>
<!-- Node20&#45;&gt;Node12 -->
<g id="edge32_Node000020_Node000012" class="edge">
<title>Node20&#45;&gt;Node12</title>
<g id="a_edge32_Node000020_Node000012"><a xlink:title=" ">
<path fill="none" stroke="#63b8ff" d="M264.5,-552.75C280.54,-550.78 299.17,-548.5 316.93,-546.33"/>
<polygon fill="#63b8ff" stroke="#63b8ff" points="317.75,-549.75 327.25,-545.06 316.9,-542.8 317.75,-549.75"/>
</a>
</g>
</g>
<!-- Node20&#45;&gt;Node15 -->
<g id="edge30_Node000020_Node000015" class="edge">
<title>Node20&#45;&gt;Node15</title>
<g id="a_edge30_Node000020_Node000015"><a xlink:title=" ">
<path fill="none" stroke="#63b8ff" d="M264.5,-564.31C280.06,-566.59 298.08,-569.24 315.35,-571.78"/>
<polygon fill="#63b8ff" stroke="#63b8ff" points="315.01,-575.26 325.41,-573.26 316.03,-568.34 315.01,-575.26"/>
</a>
</g>
</g>
<!-- Node21&#45;&gt;Node4 -->
<g id="edge35_Node000021_Node000004" class="edge">
<title>Node21&#45;&gt;Node4</title>
<g id="a_edge35_Node000021_Node000004"><a xlink:title=" ">
<path fill="none" stroke="#63b8ff" d="M263.64,-643.53C277.89,-646.76 294.26,-650.46 310.27,-654.09"/>
<polygon fill="#63b8ff" stroke="#63b8ff" points="309.64,-657.54 320.17,-656.33 311.19,-650.71 309.64,-657.54"/>
</a>
</g>
</g>
<!-- Node21&#45;&gt;Node15 -->
<g id="edge34_Node000021_Node000015" class="edge">
<title>Node21&#45;&gt;Node15</title>
<g id="a_edge34_Node000021_Node000015"><a xlink:title=" ">
<path fill="none" stroke="#63b8ff" d="M256.48,-623.91C265.53,-621.16 275.24,-618.08 284.14,-615 300.37,-609.39 303.89,-606.53 320.14,-601 326.19,-598.94 332.59,-596.9 338.93,-594.96"/>
<polygon fill="#63b8ff" stroke="#63b8ff" points="340.2,-598.23 348.78,-592.01 338.19,-591.53 340.2,-598.23"/>
</a>
</g>
</g>
<!-- Node23&#45;&gt;Node6 -->
<g id="edge46_Node000023_Node000006" class="edge">
<title>Node23&#45;&gt;Node6</title>
<g id="a_edge46_Node000023_Node000006"><a xlink:title=" ">
<path fill="none" stroke="#63b8ff" d="M268.64,-370.56C323.1,-373.52 413.48,-378.44 477.62,-381.93"/>
<polygon fill="#63b8ff" stroke="#63b8ff" points="477.51,-385.43 487.68,-382.47 477.89,-378.44 477.51,-385.43"/>
</a>
</g>
</g>
<!-- Node24 -->
<g id="Node000024" class="node">
<title>Node24</title>
<g id="a_Node000024"><a xlink:href="classvvm.html#aec9080346387072f75c1e5907a5f9964" target="_top" xlink:title=" ">
<polygon fill="white" stroke="#666666" points="440.18,-504 331.68,-504 331.68,-484 440.18,-484 440.18,-504"/>
<text text-anchor="middle" x="385.93" y="-491" font-family="Helvetica,sans-Serif" font-size="10.00">vvm::Advection_zeta</text>
</a>
</g>
</g>
<!-- Node23&#45;&gt;Node24 -->
<g id="edge38_Node000023_Node000024" class="edge">
<title>Node23&#45;&gt;Node24</title>
<g id="a_edge38_Node000023_Node000024"><a xlink:title=" ">
<path fill="none" stroke="#63b8ff" d="M228.13,-378.25C242.29,-399.54 277.88,-448.75 320.14,-475 323.12,-476.85 326.29,-478.53 329.56,-480.05"/>
<polygon fill="#63b8ff" stroke="#63b8ff" points="328.4,-483.35 338.98,-483.92 331.06,-476.88 328.4,-483.35"/>
</a>
</g>
</g>
<!-- Node29 -->
<g id="Node000029" class="node">
<title>Node29</title>
<g id="a_Node000029"><a xlink:href="classvvm.html#ad5a7610975364e5b4163e7aff3c8e7ef" target="_top" xlink:title=" ">
<polygon fill="white" stroke="#666666" points="427.72,-340 344.14,-340 344.14,-320 427.72,-320 427.72,-340"/>
<text text-anchor="middle" x="385.93" y="-327" font-family="Helvetica,sans-Serif" font-size="10.00">vvm::Bouyancy</text>
</a>
</g>
</g>
<!-- Node23&#45;&gt;Node29 -->
<g id="edge47_Node000023_Node000029" class="edge">
<title>Node23&#45;&gt;Node29</title>
<g id="a_edge47_Node000023_Node000029"><a xlink:title=" ">
<path fill="none" stroke="#63b8ff" d="M264.92,-357.92C286.15,-352.98 311.85,-347 334.01,-341.85"/>
<polygon fill="#63b8ff" stroke="#63b8ff" points="334.97,-345.22 343.91,-339.54 333.38,-338.4 334.97,-345.22"/>
</a>
</g>
</g>
<!-- Node24&#45;&gt;Node6 -->
<g id="edge39_Node000024_Node000006" class="edge">
<title>Node24&#45;&gt;Node6</title>
<g id="a_edge39_Node000024_Node000006"><a xlink:title=" ">
<path fill="none" stroke="#63b8ff" d="M436.36,-483.98C441.86,-481.6 447.13,-478.65 451.72,-475 477.26,-454.69 463.04,-432.36 487.72,-411 489.07,-409.83 490.47,-408.72 491.93,-407.65"/>
<polygon fill="#63b8ff" stroke="#63b8ff" points="494.16,-410.39 500.73,-402.08 490.41,-404.47 494.16,-410.39"/>
</a>
</g>
</g>
<!-- Node24&#45;&gt;Node16 -->
<g id="edge40_Node000024_Node000016" class="edge">
<title>Node24&#45;&gt;Node16</title>
<g id="a_edge40_Node000024_Node000016"><a xlink:title=" ">
<path fill="none" stroke="#63b8ff" d="M438.11,-504.09C443.06,-506.46 447.71,-509.39 451.72,-513 483.1,-541.3 456.34,-572.7 487.72,-601 496.38,-608.81 508.1,-613.42 519.19,-616.14"/>
<polygon fill="#63b8ff" stroke="#63b8ff" points="518.6,-619.59 529.09,-618.14 519.98,-612.73 518.6,-619.59"/>
</a>
</g>
</g>
<!-- Node24&#45;&gt;Node17 -->
<g id="edge41_Node000024_Node000017" class="edge">
<title>Node24&#45;&gt;Node17</title>
<g id="a_edge41_Node000024_Node000017"><a xlink:title=" ">
<path fill="none" stroke="#63b8ff" d="M434.97,-504.12C440.9,-506.49 446.65,-509.41 451.72,-513 474.07,-528.82 465.37,-547.18 487.72,-563 497.83,-570.16 510.63,-574.64 522.17,-577.44"/>
<polygon fill="#63b8ff" stroke="#63b8ff" points="521.81,-580.94 532.31,-579.57 523.25,-574.09 521.81,-580.94"/>
</a>
</g>
</g>
<!-- Node25 -->
<g id="Node000025" class="node">
<title>Node25</title>
<g id="a_Node000025"><a xlink:href="Advection_8cpp.html#ad84d7b263ba0496ac8d74df75d706075" target="_top" xlink:title=" ">
<polygon fill="white" stroke="#666666" points="577.18,-554 529.83,-554 529.83,-534 577.18,-534 577.18,-554"/>
<text text-anchor="middle" x="553.5" y="-541" font-family="Helvetica,sans-Serif" font-size="10.00">U_zeta</text>
</a>
</g>
</g>
<!-- Node24&#45;&gt;Node25 -->
<g id="edge42_Node000024_Node000025" class="edge">
<title>Node24&#45;&gt;Node25</title>
<g id="a_edge42_Node000024_Node000025"><a xlink:title=" ">
<path fill="none" stroke="#63b8ff" d="M421.97,-504.02C431.63,-506.85 442.1,-509.99 451.72,-513 467.81,-518.04 471.62,-519.96 487.72,-525 498.12,-528.26 509.52,-531.66 519.81,-534.66"/>
<polygon fill="#63b8ff" stroke="#63b8ff" points="519.08,-538.1 529.66,-537.52 521.03,-531.37 519.08,-538.1"/>
</a>
</g>
</g>
<!-- Node26 -->
<g id="Node000026" class="node">
<title>Node26</title>
<g id="a_Node000026"><a xlink:href="Advection_8cpp.html#afd67bfda19d291830edf3e9849cc9277" target="_top" xlink:title=" ">
<polygon fill="white" stroke="#666666" points="581.51,-516 525.5,-516 525.5,-496 581.51,-496 581.51,-516"/>
<text text-anchor="middle" x="553.5" y="-503" font-family="Helvetica,sans-Serif" font-size="10.00">Um_zeta</text>
</a>
</g>
</g>
<!-- Node24&#45;&gt;Node26 -->
<g id="edge43_Node000024_Node000026" class="edge">
<title>Node24&#45;&gt;Node26</title>
<g id="a_edge43_Node000024_Node000026"><a xlink:title=" ">
<path fill="none" stroke="#63b8ff" d="M440.23,-497.86C464.71,-499.64 493.16,-501.7 515.29,-503.3"/>
<polygon fill="#63b8ff" stroke="#63b8ff" points="515.06,-506.8 525.29,-504.03 515.56,-499.81 515.06,-506.8"/>
</a>
</g>
</g>
<!-- Node27 -->
<g id="Node000027" class="node">
<title>Node27</title>
<g id="a_Node000027"><a xlink:href="Advection_8cpp.html#aff7c21fcae63b86ac2b3234e1bc5f188" target="_top" xlink:title=" ">
<polygon fill="white" stroke="#666666" points="578.4,-478 528.61,-478 528.61,-458 578.4,-458 578.4,-478"/>
<text text-anchor="middle" x="553.5" y="-465" font-family="Helvetica,sans-Serif" font-size="10.00">W_zeta</text>
</a>
</g>
</g>
<!-- Node24&#45;&gt;Node27 -->
<g id="edge44_Node000024_Node000027" class="edge">
<title>Node24&#45;&gt;Node27</title>
<g id="a_edge44_Node000024_Node000027"><a xlink:title=" ">
<path fill="none" stroke="#63b8ff" d="M440.23,-485.63C465.86,-481.61 495.82,-476.9 518.34,-473.36"/>
<polygon fill="#63b8ff" stroke="#63b8ff" points="519.1,-476.79 528.44,-471.78 518.02,-469.87 519.1,-476.79"/>
</a>
</g>
</g>
<!-- Node28 -->
<g id="Node000028" class="node">
<title>Node28</title>
<g id="a_Node000028"><a xlink:href="Advection_8cpp.html#ac8a793aa9b91091521141a121f60ef90" target="_top" xlink:title=" ">
<polygon fill="white" stroke="#666666" points="582.73,-440 524.28,-440 524.28,-420 582.73,-420 582.73,-440"/>
<text text-anchor="middle" x="553.5" y="-427" font-family="Helvetica,sans-Serif" font-size="10.00">Wm_zeta</text>
</a>
</g>
</g>
<!-- Node24&#45;&gt;Node28 -->
<g id="edge45_Node000024_Node000028" class="edge">
<title>Node24&#45;&gt;Node28</title>
<g id="a_edge45_Node000024_Node000028"><a xlink:title=" ">
<path fill="none" stroke="#63b8ff" d="M428.85,-483.98C436.63,-481.49 444.56,-478.51 451.72,-475 469.44,-466.32 469.99,-457.68 487.72,-449 496.05,-444.92 505.43,-441.54 514.41,-438.83"/>
<polygon fill="#63b8ff" stroke="#63b8ff" points="515.63,-442.12 524.3,-436.04 513.73,-435.38 515.63,-442.12"/>
</a>
</g>
</g>
<!-- Node30 -->
<g id="Node000030" class="node">
<title>Node30</title>
<g id="a_Node000030"><a xlink:href="Buoyancy_8cpp.html#a8ecf3975b610cb48d26b59dead3553db" target="_top" xlink:title=" ">
<polygon fill="white" stroke="#666666" points="578.4,-340 528.61,-340 528.61,-320 578.4,-320 578.4,-340"/>
<text text-anchor="middle" x="553.5" y="-327" font-family="Helvetica,sans-Serif" font-size="10.00">getTHV</text>
</a>
</g>
</g>
<!-- Node29&#45;&gt;Node30 -->
<g id="edge48_Node000029_Node000030" class="edge">
<title>Node29&#45;&gt;Node30</title>
<g id="a_edge48_Node000029_Node000030"><a xlink:title=" ">
<path fill="none" stroke="#63b8ff" d="M427.86,-330C455.63,-330 491.94,-330 518.2,-330"/>
<polygon fill="#63b8ff" stroke="#63b8ff" points="518.43,-333.5 528.43,-330 518.43,-326.5 518.43,-333.5"/>
</a>
</g>
</g>
<!-- Node31&#45;&gt;Node4 -->
<g id="edge50_Node000031_Node000004" class="edge">
<title>Node31&#45;&gt;Node4</title>
<g id="a_edge50_Node000031_Node000004"><a xlink:title=" ">
<path fill="none" stroke="#63b8ff" d="M255.67,-787.94C265.29,-784.32 275.49,-779.69 284.14,-774 317.29,-752.22 348.04,-717.92 366.64,-694.95"/>
<polygon fill="#63b8ff" stroke="#63b8ff" points="369.44,-697.05 372.93,-687.05 363.96,-692.7 369.44,-697.05"/>
</a>
</g>
</g>
<!-- Node34 -->
<g id="Node000034" class="node">
<title>Node34</title>
<g id="a_Node000034"><a xlink:href="classvvm.html#ace6f793034804810c37b0363b70648ed" target="_top" xlink:title=" ">
<polygon fill="white" stroke="#666666" points="451.51,-32 320.36,-32 320.36,0 451.51,0 451.51,-32"/>
<text text-anchor="start" x="328.14" y="-19" font-family="Helvetica,sans-Serif" font-size="10.00">vvm::BoundaryProcess1D</text>
<text text-anchor="middle" x="385.93" y="-7" font-family="Helvetica,sans-Serif" font-size="10.00">_center</text>
</a>
</g>
</g>
<!-- Node33&#45;&gt;Node34 -->
<g id="edge53_Node000033_Node000034" class="edge">
<title>Node33&#45;&gt;Node34</title>
<g id="a_edge53_Node000033_Node000034"><a xlink:title=" ">
<path fill="none" stroke="#63b8ff" d="M277.34,-16C287.88,-16 299.07,-16 310.09,-16"/>
<polygon fill="#63b8ff" stroke="#63b8ff" points="310.14,-19.5 320.14,-16 310.14,-12.5 310.14,-19.5"/>
</a>
</g>
</g>
</g>
</svg>

<g id="navigator" transform="translate(0 0)" fill="#404254">
  <rect fill="#f2f5e9" fill-opacity="0.5" stroke="#606060" stroke-width=".5" x="0" y="0" width="60" height="60"/>
  <use id="zoomplus" xlink:href="#zoomPlus" x="17" y="9" onmousedown="handleZoom(evt,'in')"/>
  <use id="zoomminus" xlink:href="#zoomMin" x="42" y="9" onmousedown="handleZoom(evt,'out')"/>
  <use id="reset" xlink:href="#resetDef" x="30" y="36" onmousedown="handleReset()"/>
   <use id="arrowup" xlink:href="#arrowUp" x="0" y="0" onmousedown="handlePan(0,-1)"/>
  <use id="arrowright" xlink:href="#arrowRight" x="0" y="0" onmousedown="handlePan(1,0)"/>
  <use id="arrowdown" xlink:href="#arrowDown" x="0" y="0" onmousedown="handlePan(0,1)"/>
  <use id="arrowleft" xlink:href="#arrowLeft" x="0" y="0" onmousedown="handlePan(-1,0)"/>
</g>
<svg viewBox="0 0 15 15" width="100%" height="30px" preserveAspectRatio="xMaxYMin meet">
 <g id="arrow_out" transform="scale(0.3 0.3)">
  <a xlink:href="classIteration_ae341a02edb030229055de37fd518ac89_cgraph_org.svg" target="_base">
   <rect id="button" ry="5" rx="5" y="6" x="6" height="38" width="38"
        fill="#f2f5e9" fill-opacity="0.5" stroke="#606060" stroke-width="1.0"/>
   <path id="arrow"
     d="M 11.500037,31.436501 C 11.940474,20.09759 22.043105,11.32322 32.158766,21.979434 L 37.068811,17.246167 C 37.068811,17.246167 37.088388,32 37.088388,32 L 22.160133,31.978069 C 22.160133,31.978069 26.997745,27.140456 26.997745,27.140456 C 18.528582,18.264221 13.291696,25.230495 11.500037,31.436501 z"
     style="fill:#404040;"/>
  </a>
 </g>
</svg>

<style type='text/css'>
<![CDATA[
[data-mouse-over-selected='false'] { opacity: 0.7; }
[data-mouse-over-selected='true']  { opacity: 1.0; }
]]>
</style>
<script type="application/ecmascript"><![CDATA[
document.addEventListener('DOMContentLoaded', (event) => {
  highlightEdges();
  highlightAdjacentNodes();
});
]]></script>
</svg>
