<?xml version="1.0" encoding="UTF-8" standalone="no"?>
<!DOCTYPE svg PUBLIC "-//W3C//DTD SVG 1.1//EN"
 "http://www.w3.org/Graphics/SVG/1.1/DTD/svg11.dtd">
<!-- Generated by graphviz version 2.46.0 (20210118.1747)
 -->
<!-- Title: vvm::BoundaryProcess2D_center Pages: 1 -->
<!--zoomable 248 -->

<svg id="main" version="1.1" xmlns="http://www.w3.org/2000/svg" xmlns:xlink="http://www.w3.org/1999/xlink" xml:space="preserve" onload="init(evt)">
<style type="text/css"><![CDATA[
.node, .edge {opacity: 0.7;}
.node.selected, .edge.selected {opacity: 1;}
.edge:hover path { stroke: red; }
.edge:hover polygon { stroke: red; fill: red; }
]]></style>

<defs>
  <circle id="rim" cx="0" cy="0" r="7"/>
  <circle id="rim2" cx="0" cy="0" r="3.5"/>
  <g id="zoomPlus">
    <use xlink:href="#rim" fill="#404040"><set attributeName="fill" to="#808080" begin="zoomplus.mouseover" end="zoomplus.mouseout"/></use>
    <path d="M-4,0h8M0,-4v8" fill="none" stroke="white" stroke-width="1.5" pointer-events="none"/>
  </g>
  <g id="zoomMin">
    <use xlink:href="#rim" fill="#404040"><set attributeName="fill" to="#808080" begin="zoomminus.mouseover" end="zoomminus.mouseout"/></use>
    <path d="M-4,0h8" fill="none" stroke="white" stroke-width="1.5" pointer-events="none"/>
  </g>
  <g id="arrowUp" transform="translate(30 24)">
    <use xlink:href="#rim"/>
    <path pointer-events="none" fill="none" stroke="white" stroke-width="1.5" d="M0,-3.0v7 M-2.5,-0.5L0,-3.0L2.5,-0.5"/>
  </g>
  <g id="arrowRight" transform="rotate(90) translate(36 -43)">
    <use xlink:href="#rim"/>
    <path pointer-events="none" fill="none" stroke="white" stroke-width="1.5" d="M0,-3.0v7 M-2.5,-0.5L0,-3.0L2.5,-0.5"/>
  </g>
  <g id="arrowDown" transform="rotate(180) translate(-30 -48)">
    <use xlink:href="#rim"/>
    <path pointer-events="none" fill="none" stroke="white" stroke-width="1.5" d="M0,-3.0v7 M-2.5,-0.5L0,-3.0L2.5,-0.5"/>
  </g>
  <g id="arrowLeft" transform="rotate(270) translate(-36 17)">
    <use xlink:href="#rim"/>
    <path pointer-events="none" fill="none" stroke="white" stroke-width="1.5" d="M0,-3.0v7 M-2.5,-0.5L0,-3.0L2.5,-0.5"/>
  </g>
  <g id="resetDef">
    <use xlink:href="#rim2" fill="#404040"><set attributeName="fill" to="#808080" begin="reset.mouseover" end="reset.mouseout"/></use>
  </g>
</defs>
<script type="application/ecmascript">
var viewWidth = 510;
var viewHeight = 248;
var sectionId = 'dynsection-8';
</script>
<script type="application/ecmascript" xlink:href="svg.min.js"/>
<svg id="graph" class="graph">
<g id="viewport">
<title>vvm::BoundaryProcess2D_center</title>
<!-- Node1 -->
<g id="Node000001" class="node">
<title>Node1</title>
<g id="a_Node000001"><a xlink:title=" ">
<polygon fill="#999999" stroke="#666666" points="501.82,-119.85 370.67,-119.85 370.67,-87.85 501.82,-87.85 501.82,-119.85"/>
<text text-anchor="start" x="378.46" y="-106.85" font-family="Helvetica,sans-Serif" font-size="10.00">vvm::BoundaryProcess2D</text>
<text text-anchor="middle" x="436.25" y="-94.85" font-family="Helvetica,sans-Serif" font-size="10.00">_center</text>
</a>
</g>
</g>
<!-- Node2 -->
<g id="Node000002" class="node">
<title>Node2</title>
<g id="a_Node000002"><a xlink:href="classvvm_1_1PoissonSolver.html#a741f59b97f794a79a15fd919b3b2501e" target="_top" xlink:title=" ">
<polygon fill="white" stroke="#666666" points="334.35,-239.85 230.78,-239.85 230.78,-207.85 334.35,-207.85 334.35,-239.85"/>
<text text-anchor="start" x="238.67" y="-226.85" font-family="Helvetica,sans-Serif" font-size="10.00">vvm::PoissonSolver</text>
<text text-anchor="middle" x="282.57" y="-214.85" font-family="Helvetica,sans-Serif" font-size="10.00">::cal_u</text>
</a>
</g>
</g>
<!-- Node1&#45;&gt;Node2 -->
<g id="edge1_Node000001_Node000002" class="edge">
<title>Node1&#45;&gt;Node2</title>
<g id="a_edge1_Node000001_Node000002"><a xlink:title=" ">
<path fill="none" stroke="#63b8ff" d="M412.02,-127C392.28,-146.06 362.73,-173.21 334.46,-193.85 327.75,-198.75 320.19,-203.55 312.99,-207.83"/>
<polygon fill="#63b8ff" stroke="#63b8ff" points="414.61,-129.35 419.33,-119.87 409.73,-124.34 414.61,-129.35"/>
</a>
</g>
</g>
<!-- Node4 -->
<g id="Node000004" class="node">
<title>Node4</title>
<g id="a_Node000004"><a xlink:href="classIteration.html#ae341a02edb030229055de37fd518ac89" target="_top" xlink:title=" ">
<polygon fill="white" stroke="#666666" points="194.68,-132.85 73.66,-132.85 73.66,-112.85 194.68,-112.85 194.68,-132.85"/>
<text text-anchor="middle" x="134.17" y="-119.85" font-family="Helvetica,sans-Serif" font-size="10.00">Iteration::TimeMarching</text>
</a>
</g>
</g>
<!-- Node1&#45;&gt;Node4 -->
<g id="edge15_Node000001_Node000004" class="edge">
<title>Node1&#45;&gt;Node4</title>
<g id="a_edge15_Node000001_Node000004"><a xlink:title=" ">
<path fill="none" stroke="#63b8ff" d="M405.95,-125.81C386.73,-138.8 360.42,-154.02 334.46,-160.85 289.85,-172.59 275.98,-169.53 230.67,-160.85 202.98,-155.55 173.09,-142.31 154.27,-132.96"/>
<polygon fill="#63b8ff" stroke="#63b8ff" points="408.04,-128.62 414.26,-120.04 404.05,-122.87 408.04,-128.62"/>
</a>
</g>
</g>
<!-- Node5 -->
<g id="Node000005" class="node">
<title>Node5</title>
<g id="a_Node000005"><a xlink:href="classInit.html#a622540f0e2606ee86b781a8eb8f5a67c" target="_top" xlink:title=" ">
<polygon fill="white" stroke="#666666" points="164.02,-56.85 104.32,-56.85 104.32,-36.85 164.02,-36.85 164.02,-56.85"/>
<text text-anchor="middle" x="134.17" y="-43.85" font-family="Helvetica,sans-Serif" font-size="10.00">Init::Init2d</text>
</a>
</g>
</g>
<!-- Node1&#45;&gt;Node5 -->
<g id="edge5_Node000001_Node000005" class="edge">
<title>Node1&#45;&gt;Node5</title>
<g id="a_edge5_Node000001_Node000005"><a xlink:title=" ">
<path fill="none" stroke="#63b8ff" d="M418.25,-79.53C400.43,-56.37 370.09,-23 334.46,-8.85 270.95,16.36 189.25,-18.46 153.4,-36.81"/>
<polygon fill="#63b8ff" stroke="#63b8ff" points="415.45,-81.63 424.24,-87.55 421.06,-77.44 415.45,-81.63"/>
</a>
</g>
</g>
<!-- Node6 -->
<g id="Node000006" class="node">
<title>Node6</title>
<g id="a_Node000006"><a xlink:href="classIteration.html#a6b9d511fea92c2569c8da11c1a86a066" target="_top" xlink:title=" ">
<polygon fill="white" stroke="#666666" points="326.26,-151.85 238.87,-151.85 238.87,-131.85 326.26,-131.85 326.26,-151.85"/>
<text text-anchor="middle" x="282.57" y="-138.85" font-family="Helvetica,sans-Serif" font-size="10.00">Iteration::pqc_pt</text>
</a>
</g>
</g>
<!-- Node1&#45;&gt;Node6 -->
<g id="edge7_Node000001_Node000006" class="edge">
<title>Node1&#45;&gt;Node6</title>
<g id="a_edge7_Node000001_Node000006"><a xlink:title=" ">
<path fill="none" stroke="#63b8ff" d="M361.43,-122.35C348.38,-125.61 335.26,-128.9 323.6,-131.82"/>
<polygon fill="#63b8ff" stroke="#63b8ff" points="362.51,-125.68 371.36,-119.86 360.81,-118.89 362.51,-125.68"/>
</a>
</g>
</g>
<!-- Node7 -->
<g id="Node000007" class="node">
<title>Node7</title>
<g id="a_Node000007"><a xlink:href="classIteration.html#ac30ea16c9e339a59c78637fa0753f775" target="_top" xlink:title=" ">
<polygon fill="white" stroke="#666666" points="325.59,-113.85 239.54,-113.85 239.54,-93.85 325.59,-93.85 325.59,-113.85"/>
<text text-anchor="middle" x="282.57" y="-100.85" font-family="Helvetica,sans-Serif" font-size="10.00">Iteration::pqr_pt</text>
</a>
</g>
</g>
<!-- Node1&#45;&gt;Node7 -->
<g id="edge9_Node000001_Node000007" class="edge">
<title>Node1&#45;&gt;Node7</title>
<g id="a_edge9_Node000001_Node000007"><a xlink:title=" ">
<path fill="none" stroke="#63b8ff" d="M360.13,-103.85C348.31,-103.85 336.46,-103.85 325.75,-103.85"/>
<polygon fill="#63b8ff" stroke="#63b8ff" points="360.48,-107.35 370.48,-103.85 360.48,-100.35 360.48,-107.35"/>
</a>
</g>
</g>
<!-- Node8 -->
<g id="Node000008" class="node">
<title>Node8</title>
<g id="a_Node000008"><a xlink:href="classIteration.html#ab92cc262ad139b14958847277b88d017" target="_top" xlink:title=" ">
<polygon fill="white" stroke="#666666" points="326.26,-75.85 238.87,-75.85 238.87,-55.85 326.26,-55.85 326.26,-75.85"/>
<text text-anchor="middle" x="282.57" y="-62.85" font-family="Helvetica,sans-Serif" font-size="10.00">Iteration::pqv_pt</text>
</a>
</g>
</g>
<!-- Node1&#45;&gt;Node8 -->
<g id="edge11_Node000001_Node000008" class="edge">
<title>Node1&#45;&gt;Node8</title>
<g id="a_edge11_Node000001_Node000008"><a xlink:title=" ">
<path fill="none" stroke="#63b8ff" d="M361.43,-85.36C348.38,-82.09 335.26,-78.8 323.6,-75.88"/>
<polygon fill="#63b8ff" stroke="#63b8ff" points="360.81,-88.81 371.36,-87.85 362.51,-82.02 360.81,-88.81"/>
</a>
</g>
</g>
<!-- Node9 -->
<g id="Node000009" class="node">
<title>Node9</title>
<g id="a_Node000009"><a xlink:href="classIteration.html#a7d5499ac76ee826bdda0184feb1fef5f" target="_top" xlink:title=" ">
<polygon fill="white" stroke="#666666" points="325.54,-37.85 239.59,-37.85 239.59,-17.85 325.54,-17.85 325.54,-37.85"/>
<text text-anchor="middle" x="282.57" y="-24.85" font-family="Helvetica,sans-Serif" font-size="10.00">Iteration::pth_pt</text>
</a>
</g>
</g>
<!-- Node1&#45;&gt;Node9 -->
<g id="edge13_Node000001_Node000009" class="edge">
<title>Node1&#45;&gt;Node9</title>
<g id="a_edge13_Node000001_Node000009"><a xlink:title=" ">
<path fill="none" stroke="#63b8ff" d="M400.66,-82.5C381.53,-71.15 357.11,-57.41 334.46,-46.85 327.62,-43.67 320.09,-40.61 312.96,-37.93"/>
<polygon fill="#63b8ff" stroke="#63b8ff" points="398.94,-85.55 409.32,-87.69 402.54,-79.55 398.94,-85.55"/>
</a>
</g>
</g>
<!-- Node3 -->
<g id="Node000003" class="node">
<title>Node3</title>
<g id="a_Node000003"><a xlink:href="main_8cpp.html#a3c04138a5bfe5d72780bb7e82a18e627" target="_top" xlink:title=" ">
<polygon fill="white" stroke="#666666" points="37.5,-132.85 0.17,-132.85 0.17,-112.85 37.5,-112.85 37.5,-132.85"/>
<text text-anchor="middle" x="18.83" y="-119.85" font-family="Helvetica,sans-Serif" font-size="10.00">main</text>
</a>
</g>
</g>
<!-- Node2&#45;&gt;Node3 -->
<g id="edge2_Node000002_Node000003" class="edge">
<title>Node2&#45;&gt;Node3</title>
<g id="a_edge2_Node000002_Node000003"><a xlink:title=" ">
<path fill="none" stroke="#63b8ff" d="M230.54,-204.16C171.3,-181.3 76.72,-144.81 37.63,-129.72"/>
<polygon fill="#63b8ff" stroke="#63b8ff" points="229.51,-207.51 240.09,-207.85 232.03,-200.98 229.51,-207.51"/>
</a>
</g>
</g>
<!-- Node2&#45;&gt;Node4 -->
<g id="edge3_Node000002_Node000004" class="edge">
<title>Node2&#45;&gt;Node4</title>
<g id="a_edge3_Node000002_Node000004"><a xlink:title=" ">
<path fill="none" stroke="#63b8ff" d="M244.2,-202.44C239.6,-199.63 235,-196.72 230.67,-193.85 200.03,-173.51 165.83,-147.13 147.83,-132.95"/>
<polygon fill="#63b8ff" stroke="#63b8ff" points="242.6,-205.57 252.97,-207.72 246.2,-199.57 242.6,-205.57"/>
</a>
</g>
</g>
<!-- Node4&#45;&gt;Node3 -->
<g id="edge4_Node000004_Node000003" class="edge">
<title>Node4&#45;&gt;Node3</title>
<g id="a_edge4_Node000004_Node000003"><a xlink:title=" ">
<path fill="none" stroke="#63b8ff" d="M63.24,-122.85C53.91,-122.85 45.09,-122.85 37.86,-122.85"/>
<polygon fill="#63b8ff" stroke="#63b8ff" points="63.51,-126.35 73.51,-122.85 63.51,-119.35 63.51,-126.35"/>
</a>
</g>
</g>
<!-- Node5&#45;&gt;Node3 -->
<g id="edge6_Node000005_Node000003" class="edge">
<title>Node5&#45;&gt;Node3</title>
<g id="a_edge6_Node000005_Node000003"><a xlink:title=" ">
<path fill="none" stroke="#63b8ff" d="M109.56,-62.68C87.09,-77.75 53.96,-99.97 34.88,-112.76"/>
<polygon fill="#63b8ff" stroke="#63b8ff" points="111.53,-65.58 117.88,-57.1 107.63,-59.76 111.53,-65.58"/>
</a>
</g>
</g>
<!-- Node6&#45;&gt;Node4 -->
<g id="edge8_Node000006_Node000004" class="edge">
<title>Node6&#45;&gt;Node4</title>
<g id="a_edge8_Node000006_Node000004"><a xlink:title=" ">
<path fill="none" stroke="#63b8ff" d="M228.9,-135.02C217.85,-133.58 206.11,-132.06 194.83,-130.59"/>
<polygon fill="#63b8ff" stroke="#63b8ff" points="228.46,-138.49 238.83,-136.31 229.36,-131.55 228.46,-138.49"/>
</a>
</g>
</g>
<!-- Node7&#45;&gt;Node4 -->
<g id="edge10_Node000007_Node000004" class="edge">
<title>Node7&#45;&gt;Node4</title>
<g id="a_edge10_Node000007_Node000004"><a xlink:title=" ">
<path fill="none" stroke="#63b8ff" d="M229.22,-110.65C218.08,-112.09 206.23,-113.63 194.84,-115.11"/>
<polygon fill="#63b8ff" stroke="#63b8ff" points="229.76,-114.11 239.22,-109.35 228.86,-107.16 229.76,-114.11"/>
</a>
</g>
</g>
<!-- Node8&#45;&gt;Node4 -->
<g id="edge12_Node000008_Node000004" class="edge">
<title>Node8&#45;&gt;Node4</title>
<g id="a_edge12_Node000008_Node000004"><a xlink:title=" ">
<path fill="none" stroke="#63b8ff" d="M244.74,-79.49C240,-81.28 235.22,-83.1 230.67,-84.85 206.7,-94.1 179.48,-104.96 160.25,-112.7"/>
<polygon fill="#63b8ff" stroke="#63b8ff" points="246.19,-82.69 254.32,-75.9 243.73,-76.14 246.19,-82.69"/>
</a>
</g>
</g>
<!-- Node9&#45;&gt;Node4 -->
<g id="edge14_Node000009_Node000004" class="edge">
<title>Node9&#45;&gt;Node4</title>
<g id="a_edge14_Node000009_Node000004"><a xlink:title=" ">
<path fill="none" stroke="#63b8ff" d="M240.7,-41.79C237.24,-43.36 233.86,-45.05 230.67,-46.85 196.74,-66.05 162.25,-96.91 145.53,-112.75"/>
<polygon fill="#63b8ff" stroke="#63b8ff" points="242.06,-45.01 249.92,-37.9 239.34,-38.56 242.06,-45.01"/>
</a>
</g>
</g>
</g>
</svg>

<g id="navigator" transform="translate(0 0)" fill="#404254">
  <rect fill="#f2f5e9" fill-opacity="0.5" stroke="#606060" stroke-width=".5" x="0" y="0" width="60" height="60"/>
  <use id="zoomplus" xlink:href="#zoomPlus" x="17" y="9" onmousedown="handleZoom(evt,'in')"/>
  <use id="zoomminus" xlink:href="#zoomMin" x="42" y="9" onmousedown="handleZoom(evt,'out')"/>
  <use id="reset" xlink:href="#resetDef" x="30" y="36" onmousedown="handleReset()"/>
   <use id="arrowup" xlink:href="#arrowUp" x="0" y="0" onmousedown="handlePan(0,-1)"/>
  <use id="arrowright" xlink:href="#arrowRight" x="0" y="0" onmousedown="handlePan(1,0)"/>
  <use id="arrowdown" xlink:href="#arrowDown" x="0" y="0" onmousedown="handlePan(0,1)"/>
  <use id="arrowleft" xlink:href="#arrowLeft" x="0" y="0" onmousedown="handlePan(-1,0)"/>
</g>
<svg viewBox="0 0 15 15" width="100%" height="30px" preserveAspectRatio="xMaxYMin meet">
 <g id="arrow_out" transform="scale(0.3 0.3)">
  <a xlink:href="classvvm_a0f7695aeeea1dac87393db3edfc7acd8_icgraph_org.svg" target="_base">
   <rect id="button" ry="5" rx="5" y="6" x="6" height="38" width="38"
        fill="#f2f5e9" fill-opacity="0.5" stroke="#606060" stroke-width="1.0"/>
   <path id="arrow"
     d="M 11.500037,31.436501 C 11.940474,20.09759 22.043105,11.32322 32.158766,21.979434 L 37.068811,17.246167 C 37.068811,17.246167 37.088388,32 37.088388,32 L 22.160133,31.978069 C 22.160133,31.978069 26.997745,27.140456 26.997745,27.140456 C 18.528582,18.264221 13.291696,25.230495 11.500037,31.436501 z"
     style="fill:#404040;"/>
  </a>
 </g>
</svg>

<style type='text/css'>
<![CDATA[
[data-mouse-over-selected='false'] { opacity: 0.7; }
[data-mouse-over-selected='true']  { opacity: 1.0; }
]]>
</style>
<script type="application/ecmascript"><![CDATA[
document.addEventListener('DOMContentLoaded', (event) => {
  highlightEdges();
  highlightAdjacentNodes();
});
]]></script>
</svg>
