<?xml version="1.0" encoding="UTF-8" standalone="no"?>
<!DOCTYPE svg PUBLIC "-//W3C//DTD SVG 1.1//EN"
 "http://www.w3.org/Graphics/SVG/1.1/DTD/svg11.dtd">
<!-- Generated by graphviz version 2.46.0 (20210118.1747)
 -->
<!-- Title: Init::Init2d Pages: 1 -->
<svg width="402pt" height="94pt"
 viewBox="0.00 0.00 402.50 93.91" xmlns="http://www.w3.org/2000/svg" xmlns:xlink="http://www.w3.org/1999/xlink">
<g id="graph0" class="graph" transform="scale(1 1) rotate(0) translate(4 89.91)">
<title>Init::Init2d</title>
<!-- Node1 -->
<g id="Node000001" class="node">
<title>Node1</title>
<g id="a_Node000001"><a xlink:title=" ">
<polygon fill="#999999" stroke="#666666" points="59.52,-64 -0.18,-64 -0.18,-44 59.52,-44 59.52,-64"/>
<text text-anchor="middle" x="29.67" y="-51" font-family="Helvetica,sans-Serif" font-size="10.00">Init::Init2d</text>
</a>
</g>
</g>
<!-- Node2 -->
<g id="Node000002" class="node">
<title>Node2</title>
<g id="a_Node000002"><a xlink:href="classvvm.html#a0f7695aeeea1dac87393db3edfc7acd8" target="_top" xlink:title=" ">
<polygon fill="white" stroke="#666666" points="394.28,-70 263.13,-70 263.13,-38 394.28,-38 394.28,-70"/>
<text text-anchor="start" x="270.92" y="-57" font-family="Helvetica,sans-Serif" font-size="10.00">vvm::BoundaryProcess2D</text>
<text text-anchor="middle" x="328.71" y="-45" font-family="Helvetica,sans-Serif" font-size="10.00">_center</text>
</a>
</g>
</g>
<!-- Node1&#45;&gt;Node2 -->
<g id="edge1_Node000001_Node000002" class="edge">
<title>Node1&#45;&gt;Node2</title>
<g id="a_edge1_Node000001_Node000002"><a xlink:title=" ">
<path fill="none" stroke="#63b8ff" d="M51.07,-64.12C63.53,-69.73 79.96,-76.13 95.35,-79 152.83,-89.72 168.88,-86.09 226.92,-79 238.88,-77.54 251.45,-75.14 263.51,-72.39"/>
<polygon fill="#63b8ff" stroke="#63b8ff" points="264.58,-75.73 273.5,-70.01 262.96,-68.92 264.58,-75.73"/>
</a>
</g>
</g>
<!-- Node3 -->
<g id="Node000003" class="node">
<title>Node3</title>
<g id="a_Node000003"><a xlink:href="classvvm.html#a88f21d908dca06f5c725da83a36caf96" target="_top" xlink:title=" ">
<polygon fill="white" stroke="#666666" points="226.71,-70 95.56,-70 95.56,-38 226.71,-38 226.71,-70"/>
<text text-anchor="start" x="103.35" y="-57" font-family="Helvetica,sans-Serif" font-size="10.00">vvm::BoundaryProcess2D</text>
<text text-anchor="middle" x="161.13" y="-45" font-family="Helvetica,sans-Serif" font-size="10.00">_westdown</text>
</a>
</g>
</g>
<!-- Node1&#45;&gt;Node3 -->
<g id="edge2_Node000001_Node000003" class="edge">
<title>Node1&#45;&gt;Node3</title>
<g id="a_edge2_Node000001_Node000003"><a xlink:title=" ">
<path fill="none" stroke="#63b8ff" d="M59.41,-54C67.28,-54 76.2,-54 85.4,-54"/>
<polygon fill="#63b8ff" stroke="#63b8ff" points="85.45,-57.5 95.45,-54 85.45,-50.5 85.45,-57.5"/>
</a>
</g>
</g>
<!-- Node4 -->
<g id="Node000004" class="node">
<title>Node4</title>
<g id="a_Node000004"><a xlink:href="classInit.html#a83424c08602c8f29653a28361be9c152" target="_top" xlink:title=" ">
<polygon fill="white" stroke="#666666" points="224.77,-20 97.5,-20 97.5,0 224.77,0 224.77,-20"/>
<text text-anchor="middle" x="161.13" y="-7" font-family="Helvetica,sans-Serif" font-size="10.00">Init::RandomPerturbation</text>
</a>
</g>
</g>
<!-- Node1&#45;&gt;Node4 -->
<g id="edge3_Node000001_Node000004" class="edge">
<title>Node1&#45;&gt;Node4</title>
<g id="a_edge3_Node000001_Node000004"><a xlink:title=" ">
<path fill="none" stroke="#63b8ff" d="M55.37,-43.89C67.36,-39.14 82.01,-33.52 95.35,-29 101.39,-26.95 107.8,-24.91 114.14,-22.97"/>
<polygon fill="#63b8ff" stroke="#63b8ff" points="115.41,-26.25 123.99,-20.02 113.4,-19.54 115.41,-26.25"/>
</a>
</g>
</g>
<!-- Node4&#45;&gt;Node2 -->
<g id="edge4_Node000004_Node000002" class="edge">
<title>Node4&#45;&gt;Node2</title>
<g id="a_edge4_Node000004_Node000002"><a xlink:title=" ">
<path fill="none" stroke="#63b8ff" d="M200.12,-20.09C217.11,-24.61 237.7,-30.08 257.34,-35.3"/>
<polygon fill="#63b8ff" stroke="#63b8ff" points="256.62,-38.73 267.19,-37.92 258.42,-31.97 256.62,-38.73"/>
</a>
</g>
</g>
</g>
</svg>
