<?xml version="1.0" encoding="UTF-8" standalone="no"?>
<!DOCTYPE svg PUBLIC "-//W3C//DTD SVG 1.1//EN"
 "http://www.w3.org/Graphics/SVG/1.1/DTD/svg11.dtd">
<!-- Generated by graphviz version 2.46.0 (20210118.1747)
 -->
<!-- Title: vvm::MicroPhysics::NegativeValueProcess Pages: 1 -->
<svg width="480pt" height="142pt"
 viewBox="0.00 0.00 479.50 142.00" xmlns="http://www.w3.org/2000/svg" xmlns:xlink="http://www.w3.org/1999/xlink">

<svg id="main" version="1.1" xmlns="http://www.w3.org/2000/svg" xmlns:xlink="http://www.w3.org/1999/xlink" xml:space="preserve" onload="init(evt)">
<style type="text/css"><![CDATA[
.node, .edge {opacity: 0.7;}
.node.selected, .edge.selected {opacity: 1;}
.edge:hover path { stroke: red; }
.edge:hover polygon { stroke: red; fill: red; }
]]></style>
<script type="application/ecmascript" xlink:href="svg.min.js"/>
<svg id="graph" class="graph">
<g id="graph0" class="graph" transform="scale(1 1) rotate(0) translate(4 138)">
<title>vvm::MicroPhysics::NegativeValueProcess</title>
<!-- Node1 -->
<g id="Node000001" class="node">
<title>Node1</title>
<g id="a_Node000001"><a xlink:title=" ">
<polygon fill="#999999" stroke="#666666" points="471.57,-83 354.3,-83 354.3,-51 471.57,-51 471.57,-83"/>
<text text-anchor="start" x="362.37" y="-70" font-family="Helvetica,sans-Serif" font-size="10.00">vvm::MicroPhysics::</text>
<text text-anchor="middle" x="412.93" y="-58" font-family="Helvetica,sans-Serif" font-size="10.00">NegativeValueProcess</text>
</a>
</g>
</g>
<!-- Node2 -->
<g id="Node000002" class="node">
<title>Node2</title>
<g id="a_Node000002"><a xlink:href="classIteration.html#a6b9d511fea92c2569c8da11c1a86a066" target="_top" xlink:title=" ">
<polygon fill="white" stroke="#666666" points="318.22,-134 230.83,-134 230.83,-114 318.22,-114 318.22,-134"/>
<text text-anchor="middle" x="274.52" y="-121" font-family="Helvetica,sans-Serif" font-size="10.00">Iteration::pqc_pt</text>
</a>
</g>
</g>
<!-- Node1&#45;&gt;Node2 -->
<g id="edge1_Node000001_Node000002" class="edge">
<title>Node1&#45;&gt;Node2</title>
<g id="a_edge1_Node000001_Node000002"><a xlink:title=" ">
<path fill="none" stroke="#63b8ff" d="M364.1,-86.99C342.24,-96.12 317.3,-106.54 299.46,-114"/>
<polygon fill="#63b8ff" stroke="#63b8ff" points="365.7,-90.11 373.57,-83.03 363,-83.66 365.7,-90.11"/>
</a>
</g>
</g>
<!-- Node3 -->
<g id="Node000003" class="node">
<title>Node3</title>
<g id="a_Node000003"><a xlink:href="classIteration.html#ae341a02edb030229055de37fd518ac89" target="_top" xlink:title=" ">
<polygon fill="white" stroke="#666666" points="194.68,-77 73.66,-77 73.66,-57 194.68,-57 194.68,-77"/>
<text text-anchor="middle" x="134.17" y="-64" font-family="Helvetica,sans-Serif" font-size="10.00">Iteration::TimeMarching</text>
</a>
</g>
</g>
<!-- Node1&#45;&gt;Node3 -->
<g id="edge8_Node000001_Node000003" class="edge">
<title>Node1&#45;&gt;Node3</title>
<g id="a_edge8_Node000001_Node000003"><a xlink:title=" ">
<path fill="none" stroke="#63b8ff" d="M344.13,-67C298.38,-67 238.59,-67 194.69,-67"/>
<polygon fill="#63b8ff" stroke="#63b8ff" points="344.25,-70.5 354.25,-67 344.25,-63.5 344.25,-70.5"/>
</a>
</g>
</g>
<!-- Node5 -->
<g id="Node000005" class="node">
<title>Node5</title>
<g id="a_Node000005"><a xlink:href="classIteration.html#ac30ea16c9e339a59c78637fa0753f775" target="_top" xlink:title=" ">
<polygon fill="white" stroke="#666666" points="317.54,-58 231.5,-58 231.5,-38 317.54,-38 317.54,-58"/>
<text text-anchor="middle" x="274.52" y="-45" font-family="Helvetica,sans-Serif" font-size="10.00">Iteration::pqr_pt</text>
</a>
</g>
</g>
<!-- Node1&#45;&gt;Node5 -->
<g id="edge4_Node000001_Node000005" class="edge">
<title>Node1&#45;&gt;Node5</title>
<g id="a_edge4_Node000001_Node000005"><a xlink:title=" ">
<path fill="none" stroke="#63b8ff" d="M344.01,-57.54C335.05,-56.29 326.09,-55.04 317.74,-53.88"/>
<polygon fill="#63b8ff" stroke="#63b8ff" points="343.7,-61.03 354.08,-58.94 344.66,-54.1 343.7,-61.03"/>
</a>
</g>
</g>
<!-- Node6 -->
<g id="Node000006" class="node">
<title>Node6</title>
<g id="a_Node000006"><a xlink:href="classIteration.html#ab92cc262ad139b14958847277b88d017" target="_top" xlink:title=" ">
<polygon fill="white" stroke="#666666" points="318.22,-20 230.83,-20 230.83,0 318.22,0 318.22,-20"/>
<text text-anchor="middle" x="274.52" y="-7" font-family="Helvetica,sans-Serif" font-size="10.00">Iteration::pqv_pt</text>
</a>
</g>
</g>
<!-- Node1&#45;&gt;Node6 -->
<g id="edge6_Node000001_Node000006" class="edge">
<title>Node1&#45;&gt;Node6</title>
<g id="a_edge6_Node000001_Node000006"><a xlink:title=" ">
<path fill="none" stroke="#63b8ff" d="M364.1,-47.01C342.24,-37.88 317.3,-27.46 299.46,-20"/>
<polygon fill="#63b8ff" stroke="#63b8ff" points="363,-50.34 373.57,-50.97 365.7,-43.89 363,-50.34"/>
</a>
</g>
</g>
<!-- Node2&#45;&gt;Node3 -->
<g id="edge2_Node000002_Node000003" class="edge">
<title>Node2&#45;&gt;Node3</title>
<g id="a_edge2_Node000002_Node000003"><a xlink:title=" ">
<path fill="none" stroke="#63b8ff" d="M239.74,-110.08C215.03,-99.9 182.07,-86.32 159.81,-77.15"/>
<polygon fill="#63b8ff" stroke="#63b8ff" points="238.53,-113.37 249.11,-113.94 241.19,-106.9 238.53,-113.37"/>
</a>
</g>
</g>
<!-- Node4 -->
<g id="Node000004" class="node">
<title>Node4</title>
<g id="a_Node000004"><a xlink:href="main_8cpp.html#a3c04138a5bfe5d72780bb7e82a18e627" target="_top" xlink:title=" ">
<polygon fill="white" stroke="#666666" points="37.5,-77 0.17,-77 0.17,-57 37.5,-57 37.5,-77"/>
<text text-anchor="middle" x="18.83" y="-64" font-family="Helvetica,sans-Serif" font-size="10.00">main</text>
</a>
</g>
</g>
<!-- Node3&#45;&gt;Node4 -->
<g id="edge3_Node000003_Node000004" class="edge">
<title>Node3&#45;&gt;Node4</title>
<g id="a_edge3_Node000003_Node000004"><a xlink:title=" ">
<path fill="none" stroke="#63b8ff" d="M63.24,-67C53.91,-67 45.09,-67 37.86,-67"/>
<polygon fill="#63b8ff" stroke="#63b8ff" points="63.51,-70.5 73.51,-67 63.51,-63.5 63.51,-70.5"/>
</a>
</g>
</g>
<!-- Node5&#45;&gt;Node3 -->
<g id="edge5_Node000005_Node000003" class="edge">
<title>Node5&#45;&gt;Node3</title>
<g id="a_edge5_Node000005_Node000003"><a xlink:title=" ">
<path fill="none" stroke="#63b8ff" d="M221.29,-55.17C212.62,-56.36 203.58,-57.61 194.74,-58.82"/>
<polygon fill="#63b8ff" stroke="#63b8ff" points="221.83,-58.63 231.26,-53.8 220.88,-51.7 221.83,-58.63"/>
</a>
</g>
</g>
<!-- Node6&#45;&gt;Node3 -->
<g id="edge7_Node000006_Node000003" class="edge">
<title>Node6&#45;&gt;Node3</title>
<g id="a_edge7_Node000006_Node000003"><a xlink:title=" ">
<path fill="none" stroke="#63b8ff" d="M239.74,-23.92C215.03,-34.1 182.07,-47.68 159.81,-56.85"/>
<polygon fill="#63b8ff" stroke="#63b8ff" points="241.19,-27.1 249.11,-20.06 238.53,-20.63 241.19,-27.1"/>
</a>
</g>
</g>
</g>
</svg>
</svg>

<style type='text/css'>
<![CDATA[
[data-mouse-over-selected='false'] { opacity: 0.7; }
[data-mouse-over-selected='true']  { opacity: 1.0; }
]]>
</style>
<script type="application/ecmascript"><![CDATA[
document.addEventListener('DOMContentLoaded', (event) => {
  highlightEdges();
  highlightAdjacentNodes();
});
]]></script>
</svg>
