<?xml version="1.0" encoding="UTF-8" standalone="no"?>
<!DOCTYPE svg PUBLIC "-//W3C//DTD SVG 1.1//EN"
 "http://www.w3.org/Graphics/SVG/1.1/DTD/svg11.dtd">
<!-- Generated by graphviz version 2.46.0 (20210118.1747)
 -->
<!-- Title: vvm::MicroPhysics::condensation Pages: 1 -->
<svg width="343pt" height="40pt"
 viewBox="0.00 0.00 343.00 40.00" xmlns="http://www.w3.org/2000/svg" xmlns:xlink="http://www.w3.org/1999/xlink">
<g id="graph0" class="graph" transform="scale(1 1) rotate(0) translate(4 36)">
<title>vvm::MicroPhysics::condensation</title>
<!-- Node1 -->
<g id="Node000001" class="node">
<title>Node1</title>
<g id="a_Node000001"><a xlink:title=" ">
<polygon fill="#999999" stroke="#666666" points="335.17,-32 230.51,-32 230.51,0 335.17,0 335.17,-32"/>
<text text-anchor="start" x="238.67" y="-19" font-family="Helvetica,sans-Serif" font-size="10.00">vvm::MicroPhysics::</text>
<text text-anchor="middle" x="282.84" y="-7" font-family="Helvetica,sans-Serif" font-size="10.00">condensation</text>
</a>
</g>
</g>
<!-- Node2 -->
<g id="Node000002" class="node">
<title>Node2</title>
<g id="a_Node000002"><a xlink:href="classIteration.html#ae341a02edb030229055de37fd518ac89" target="_top" xlink:title=" ">
<polygon fill="white" stroke="#666666" points="194.68,-26 73.66,-26 73.66,-6 194.68,-6 194.68,-26"/>
<text text-anchor="middle" x="134.17" y="-13" font-family="Helvetica,sans-Serif" font-size="10.00">Iteration::TimeMarching</text>
</a>
</g>
</g>
<!-- Node1&#45;&gt;Node2 -->
<g id="edge1_Node000001_Node000002" class="edge">
<title>Node1&#45;&gt;Node2</title>
<g id="a_edge1_Node000001_Node000002"><a xlink:title=" ">
<path fill="none" stroke="#63b8ff" d="M220.34,-16C211.87,-16 203.17,-16 194.73,-16"/>
<polygon fill="#63b8ff" stroke="#63b8ff" points="220.54,-19.5 230.54,-16 220.54,-12.5 220.54,-19.5"/>
</a>
</g>
</g>
<!-- Node3 -->
<g id="Node000003" class="node">
<title>Node3</title>
<g id="a_Node000003"><a xlink:href="main_8cpp.html#a3c04138a5bfe5d72780bb7e82a18e627" target="_top" xlink:title=" ">
<polygon fill="white" stroke="#666666" points="37.5,-26 0.17,-26 0.17,-6 37.5,-6 37.5,-26"/>
<text text-anchor="middle" x="18.83" y="-13" font-family="Helvetica,sans-Serif" font-size="10.00">main</text>
</a>
</g>
</g>
<!-- Node2&#45;&gt;Node3 -->
<g id="edge2_Node000002_Node000003" class="edge">
<title>Node2&#45;&gt;Node3</title>
<g id="a_edge2_Node000002_Node000003"><a xlink:title=" ">
<path fill="none" stroke="#63b8ff" d="M63.24,-16C53.91,-16 45.09,-16 37.86,-16"/>
<polygon fill="#63b8ff" stroke="#63b8ff" points="63.51,-19.5 73.51,-16 63.51,-12.5 63.51,-19.5"/>
</a>
</g>
</g>
</g>
</svg>
