<?xml version="1.0" encoding="UTF-8" standalone="no"?>
<!DOCTYPE svg PUBLIC "-//W3C//DTD SVG 1.1//EN"
 "http://www.w3.org/Graphics/SVG/1.1/DTD/svg11.dtd">
<!-- Generated by graphviz version 2.46.0 (20210118.1747)
 -->
<!-- Title: Iteration::pth_pt Pages: 1 -->
<svg width="345pt" height="97pt"
 viewBox="0.00 0.00 345.26 97.00" xmlns="http://www.w3.org/2000/svg" xmlns:xlink="http://www.w3.org/1999/xlink">

<svg id="main" version="1.1" xmlns="http://www.w3.org/2000/svg" xmlns:xlink="http://www.w3.org/1999/xlink" xml:space="preserve" onload="init(evt)">
<style type="text/css"><![CDATA[
.node, .edge {opacity: 0.7;}
.node.selected, .edge.selected {opacity: 1;}
.edge:hover path { stroke: red; }
.edge:hover polygon { stroke: red; fill: red; }
]]></style>
<script type="application/ecmascript" xlink:href="svg.min.js"/>
<svg id="graph" class="graph">
<g id="graph0" class="graph" transform="scale(1 1) rotate(0) translate(4 93)">
<title>Iteration::pth_pt</title>
<!-- Node1 -->
<g id="Node000001" class="node">
<title>Node1</title>
<g id="a_Node000001"><a xlink:title=" ">
<polygon fill="#999999" stroke="#666666" points="85.71,-48 -0.24,-48 -0.24,-28 85.71,-28 85.71,-48"/>
<text text-anchor="middle" x="42.74" y="-35" font-family="Helvetica,sans-Serif" font-size="10.00">Iteration::pth_pt</text>
</a>
</g>
</g>
<!-- Node2 -->
<g id="Node000002" class="node">
<title>Node2</title>
<g id="a_Node000002"><a xlink:href="classvvm.html#a7a376a97df688fa6a19e5f6d9fc02491" target="_top" xlink:title=" ">
<polygon fill="white" stroke="#666666" points="247.72,-70 126.8,-70 126.8,-50 247.72,-50 247.72,-70"/>
<text text-anchor="middle" x="187.26" y="-57" font-family="Helvetica,sans-Serif" font-size="10.00">vvm::Advection_thermo</text>
</a>
</g>
</g>
<!-- Node1&#45;&gt;Node2 -->
<g id="edge1_Node000001_Node000002" class="edge">
<title>Node1&#45;&gt;Node2</title>
<g id="a_edge1_Node000001_Node000002"><a xlink:title=" ">
<path fill="none" stroke="#63b8ff" d="M85.73,-44.48C95.5,-45.99 106.15,-47.63 116.76,-49.27"/>
<polygon fill="#63b8ff" stroke="#63b8ff" points="116.46,-52.77 126.88,-50.83 117.53,-45.85 116.46,-52.77"/>
</a>
</g>
</g>
<!-- Node5 -->
<g id="Node000005" class="node">
<title>Node5</title>
<g id="a_Node000005"><a xlink:href="classvvm.html#a0f7695aeeea1dac87393db3edfc7acd8" target="_top" xlink:title=" ">
<polygon fill="white" stroke="#666666" points="252.83,-32 121.69,-32 121.69,0 252.83,0 252.83,-32"/>
<text text-anchor="start" x="129.47" y="-19" font-family="Helvetica,sans-Serif" font-size="10.00">vvm::BoundaryProcess2D</text>
<text text-anchor="middle" x="187.26" y="-7" font-family="Helvetica,sans-Serif" font-size="10.00">_center</text>
</a>
</g>
</g>
<!-- Node1&#45;&gt;Node5 -->
<g id="edge4_Node000001_Node000005" class="edge">
<title>Node1&#45;&gt;Node5</title>
<g id="a_edge4_Node000001_Node000005"><a xlink:title=" ">
<path fill="none" stroke="#63b8ff" d="M85.73,-31.52C93.9,-30.26 102.7,-28.9 111.56,-27.53"/>
<polygon fill="#63b8ff" stroke="#63b8ff" points="112.22,-30.97 121.57,-25.99 111.16,-24.05 112.22,-30.97"/>
</a>
</g>
</g>
<!-- Node3 -->
<g id="Node000003" class="node">
<title>Node3</title>
<g id="a_Node000003"><a xlink:href="Advection_8cpp.html#a8566d63c1693d34aba0fa86f658532a2" target="_top" xlink:title=" ">
<polygon fill="white" stroke="#666666" points="337.37,-89 288.94,-89 288.94,-69 337.37,-69 337.37,-89"/>
<text text-anchor="middle" x="313.15" y="-76" font-family="Helvetica,sans-Serif" font-size="10.00">MINUS</text>
</a>
</g>
</g>
<!-- Node2&#45;&gt;Node3 -->
<g id="edge2_Node000002_Node000003" class="edge">
<title>Node2&#45;&gt;Node3</title>
<g id="a_edge2_Node000002_Node000003"><a xlink:title=" ">
<path fill="none" stroke="#63b8ff" d="M247.67,-69.11C258.43,-70.76 269.3,-72.43 278.96,-73.91"/>
<polygon fill="#63b8ff" stroke="#63b8ff" points="278.5,-77.38 288.92,-75.44 279.56,-70.46 278.5,-77.38"/>
</a>
</g>
</g>
<!-- Node4 -->
<g id="Node000004" class="node">
<title>Node4</title>
<g id="a_Node000004"><a xlink:href="Advection_8cpp.html#ac35c0748e7807333a355cd2b8e5dfef8" target="_top" xlink:title=" ">
<polygon fill="white" stroke="#666666" points="334.27,-51 292.04,-51 292.04,-31 334.27,-31 334.27,-51"/>
<text text-anchor="middle" x="313.15" y="-38" font-family="Helvetica,sans-Serif" font-size="10.00">PLUS</text>
</a>
</g>
</g>
<!-- Node2&#45;&gt;Node4 -->
<g id="edge3_Node000002_Node000004" class="edge">
<title>Node2&#45;&gt;Node4</title>
<g id="a_edge3_Node000002_Node000004"><a xlink:title=" ">
<path fill="none" stroke="#63b8ff" d="M247.67,-50.89C259.47,-49.08 271.39,-47.25 281.72,-45.67"/>
<polygon fill="#63b8ff" stroke="#63b8ff" points="282.48,-49.09 291.83,-44.12 281.42,-42.17 282.48,-49.09"/>
</a>
</g>
</g>
</g>
</svg>
</svg>

<style type='text/css'>
<![CDATA[
[data-mouse-over-selected='false'] { opacity: 0.7; }
[data-mouse-over-selected='true']  { opacity: 1.0; }
]]>
</style>
<script type="application/ecmascript"><![CDATA[
document.addEventListener('DOMContentLoaded', (event) => {
  highlightEdges();
  highlightAdjacentNodes();
});
]]></script>
</svg>
