<?xml version="1.0" encoding="UTF-8" standalone="no"?>
<!DOCTYPE svg PUBLIC "-//W3C//DTD SVG 1.1//EN"
 "http://www.w3.org/Graphics/SVG/1.1/DTD/svg11.dtd">
<!-- Generated by graphviz version 2.46.0 (20210118.1747)
 -->
<!-- Title: vvm Pages: 1 -->
<svg width="299pt" height="200pt"
 viewBox="0.00 0.00 298.82 200.00" xmlns="http://www.w3.org/2000/svg" xmlns:xlink="http://www.w3.org/1999/xlink">
<g id="graph0" class="graph" transform="scale(1 1) rotate(0) translate(4 196)">
<title>vvm</title>
<!-- Node1 -->
<g id="Node000001" class="node">
<title>Node1</title>
<g id="a_Node000001"><a xlink:title=" ">
<polygon fill="#999999" stroke="transparent" points="148.69,-12 118.77,-12 118.77,0 148.69,0 148.69,-12"/>
<text text-anchor="middle" x="133.73" y="-3" font-family="Helvetica,sans-Serif" font-size="10.00">Node1</text>
</a>
</g>
</g>
<!-- Node2 -->
<g id="Node000002" class="node">
<title>Node2</title>
<g id="a_Node000002"><a xlink:title=" ">
<polygon fill="white" stroke="transparent" points="29.69,-192 -0.23,-192 -0.23,-180 29.69,-180 29.69,-192"/>
<text text-anchor="middle" x="14.73" y="-183" font-family="Helvetica,sans-Serif" font-size="10.00">Node2</text>
</a>
</g>
</g>
<!-- Node2&#45;&gt;Node1 -->
<g id="edge1_Node000001_Node000002" class="edge">
<title>Node2&#45;&gt;Node1</title>
<g id="a_edge1_Node000001_Node000002"><a xlink:title=" ">
<path fill="none" stroke="#63b8ff" d="M13.07,-179.93C6.44,-158.62 -15.9,-75.38 23.09,-30 33.73,-17.61 77.33,-11.61 106.52,-8.93"/>
<polygon fill="none" stroke="#63b8ff" points="106.78,-8.9 112.43,-4.42 118.74,-7.92 113.09,-12.4 106.78,-8.9"/>
</a>
</g>
<text text-anchor="middle" x="60.55" y="-153" font-family="Helvetica,sans-Serif" font-size="10.00" fill="grey"> +Q1LS</text>
<text text-anchor="middle" x="60.55" y="-141" font-family="Helvetica,sans-Serif" font-size="10.00" fill="grey">+Q2LS</text>
<text text-anchor="middle" x="60.55" y="-129" font-family="Helvetica,sans-Serif" font-size="10.00" fill="grey">+accretion</text>
<text text-anchor="middle" x="60.55" y="-117" font-family="Helvetica,sans-Serif" font-size="10.00" fill="grey">+autoconversion</text>
<text text-anchor="middle" x="60.55" y="-105" font-family="Helvetica,sans-Serif" font-size="10.00" fill="grey">+d2t</text>
<text text-anchor="middle" x="60.55" y="-93" font-family="Helvetica,sans-Serif" font-size="10.00" fill="grey">+evaporation</text>
<text text-anchor="middle" x="60.55" y="-81" font-family="Helvetica,sans-Serif" font-size="10.00" fill="grey">+init_th_forcing</text>
<text text-anchor="middle" x="60.55" y="-69" font-family="Helvetica,sans-Serif" font-size="10.00" fill="grey">+pb</text>
<text text-anchor="middle" x="60.55" y="-57" font-family="Helvetica,sans-Serif" font-size="10.00" fill="grey">+pib</text>
<text text-anchor="middle" x="60.55" y="-45" font-family="Helvetica,sans-Serif" font-size="10.00" fill="grey">+precip</text>
<text text-anchor="middle" x="60.55" y="-33" font-family="Helvetica,sans-Serif" font-size="10.00" fill="grey">...</text>
</g>
<!-- Node3 -->
<g id="Node000003" class="node">
<title>Node3</title>
<g id="a_Node000003"><a xlink:title=" ">
<polygon fill="white" stroke="transparent" points="123.69,-192 93.77,-192 93.77,-180 123.69,-180 123.69,-192"/>
<text text-anchor="middle" x="108.73" y="-183" font-family="Helvetica,sans-Serif" font-size="10.00">Node3</text>
</a>
</g>
</g>
<!-- Node3&#45;&gt;Node1 -->
<g id="edge2_Node000001_Node000003" class="edge">
<title>Node3&#45;&gt;Node1</title>
<g id="a_edge2_Node000001_Node000003"><a xlink:title=" ">
<path fill="none" stroke="#63b8ff" d="M107.7,-179.94C103.88,-159.97 91.82,-85.1 113.55,-30 114.78,-26.89 116.62,-23.91 118.71,-21.2"/>
<polygon fill="none" stroke="#63b8ff" points="118.9,-21 120.11,-13.89 127.13,-12.27 125.92,-19.38 118.9,-21"/>
</a>
</g>
<text text-anchor="middle" x="122.32" y="-99" font-family="Helvetica,sans-Serif" font-size="10.00" fill="grey"> +nx</text>
<text text-anchor="middle" x="122.32" y="-87" font-family="Helvetica,sans-Serif" font-size="10.00" fill="grey">+nz</text>
</g>
<!-- Node4 -->
<g id="Node000004" class="node">
<title>Node4</title>
<g id="a_Node000004"><a xlink:title=" ">
<polygon fill="white" stroke="transparent" points="170.69,-192 140.77,-192 140.77,-180 170.69,-180 170.69,-192"/>
<text text-anchor="middle" x="155.73" y="-183" font-family="Helvetica,sans-Serif" font-size="10.00">Node4</text>
</a>
</g>
</g>
<!-- Node4&#45;&gt;Node1 -->
<g id="edge3_Node000001_Node000004" class="edge">
<title>Node4&#45;&gt;Node1</title>
<g id="a_edge3_Node000001_Node000004"><a xlink:title=" ">
<path fill="none" stroke="#63b8ff" d="M155.09,-179.86C152.26,-156.92 140.67,-63.19 135.85,-24.17"/>
<polygon fill="none" stroke="#63b8ff" points="135.84,-24.07 131.13,-18.6 134.36,-12.16 139.07,-17.62 135.84,-24.07"/>
</a>
</g>
<text text-anchor="middle" x="159.37" y="-99" font-family="Helvetica,sans-Serif" font-size="10.00" fill="grey"> +A</text>
<text text-anchor="middle" x="159.37" y="-87" font-family="Helvetica,sans-Serif" font-size="10.00" fill="grey">+G</text>
</g>
<!-- Node5 -->
<g id="Node000005" class="node">
<title>Node5</title>
<g id="a_Node000005"><a xlink:title=" ">
<polygon fill="white" stroke="transparent" points="217.69,-192 187.77,-192 187.77,-180 217.69,-180 217.69,-192"/>
<text text-anchor="middle" x="202.73" y="-183" font-family="Helvetica,sans-Serif" font-size="10.00">Node5</text>
</a>
</g>
</g>
<!-- Node5&#45;&gt;Node1 -->
<g id="edge4_Node000001_Node000005" class="edge">
<title>Node5&#45;&gt;Node1</title>
<g id="a_edge4_Node000001_Node000005"><a xlink:title=" ">
<path fill="none" stroke="#63b8ff" d="M203.04,-179.89C204.08,-159.13 205.47,-79.8 170.73,-30 167.38,-25.19 162.66,-21.19 157.72,-17.94"/>
<polygon fill="none" stroke="#63b8ff" points="157.49,-17.82 150.3,-18.43 146.98,-12.03 154.16,-11.42 157.49,-17.82"/>
</a>
</g>
<text text-anchor="start" x="202.73" y="-99" font-family="Helvetica,sans-Serif" font-size="10.00" fill="grey"> +status_for_adding</text>
<text text-anchor="middle" x="246.77" y="-87" font-family="Helvetica,sans-Serif" font-size="10.00" fill="grey">_forcing</text>
</g>
</g>
</svg>
