<?xml version="1.0" encoding="UTF-8" standalone="no"?>
<!DOCTYPE svg PUBLIC "-//W3C//DTD SVG 1.1//EN"
 "http://www.w3.org/Graphics/SVG/1.1/DTD/svg11.dtd">
<!-- Generated by graphviz version 2.46.0 (20210118.1747)
 -->
<!-- Title: vvm::BoundaryProcess1D_center Pages: 1 -->
<svg width="520pt" height="79pt"
 viewBox="0.00 0.00 519.51 78.64" xmlns="http://www.w3.org/2000/svg" xmlns:xlink="http://www.w3.org/1999/xlink">
<g id="graph0" class="graph" transform="scale(1 1) rotate(0) translate(4 74.64)">
<title>vvm::BoundaryProcess1D_center</title>
<!-- Node1 -->
<g id="Node000001" class="node">
<title>Node1</title>
<g id="a_Node000001"><a xlink:title=" ">
<polygon fill="#999999" stroke="#666666" points="511.29,-64 380.15,-64 380.15,-32 511.29,-32 511.29,-64"/>
<text text-anchor="start" x="387.93" y="-51" font-family="Helvetica,sans-Serif" font-size="10.00">vvm::BoundaryProcess1D</text>
<text text-anchor="middle" x="445.72" y="-39" font-family="Helvetica,sans-Serif" font-size="10.00">_center</text>
</a>
</g>
</g>
<!-- Node2 -->
<g id="Node000002" class="node">
<title>Node2</title>
<g id="a_Node000002"><a xlink:href="classInit.html#a4b373a923fb486df695e82608ff081c4" target="_top" xlink:title=" ">
<polygon fill="white" stroke="#666666" points="164.02,-58 104.32,-58 104.32,-38 164.02,-38 164.02,-58"/>
<text text-anchor="middle" x="134.17" y="-45" font-family="Helvetica,sans-Serif" font-size="10.00">Init::Init1d</text>
</a>
</g>
</g>
<!-- Node1&#45;&gt;Node2 -->
<g id="edge1_Node000001_Node000002" class="edge">
<title>Node1&#45;&gt;Node2</title>
<g id="a_edge1_Node000001_Node000002"><a xlink:title=" ">
<path fill="none" stroke="#63b8ff" d="M369.78,-63.72C361.1,-65.07 352.34,-66.21 343.93,-67 293.81,-71.68 280.77,-71.93 230.67,-67 208.13,-64.78 183.02,-59.68 164.21,-55.32"/>
<polygon fill="#63b8ff" stroke="#63b8ff" points="370.61,-67.13 379.91,-62.06 369.48,-60.22 370.61,-67.13"/>
</a>
</g>
</g>
<!-- Node4 -->
<g id="Node000004" class="node">
<title>Node4</title>
<g id="a_Node000004"><a xlink:href="classInit.html#a18f209b227e2b6894dcd45969eec4339" target="_top" xlink:title=" ">
<polygon fill="white" stroke="#666666" points="324.04,-58 250.57,-58 250.57,-38 324.04,-38 324.04,-58"/>
<text text-anchor="middle" x="287.3" y="-45" font-family="Helvetica,sans-Serif" font-size="10.00">Init::LoadFile</text>
</a>
</g>
</g>
<!-- Node1&#45;&gt;Node4 -->
<g id="edge3_Node000001_Node000004" class="edge">
<title>Node1&#45;&gt;Node4</title>
<g id="a_edge3_Node000001_Node000004"><a xlink:title=" ">
<path fill="none" stroke="#63b8ff" d="M369.44,-48C353.69,-48 337.78,-48 324.27,-48"/>
<polygon fill="#63b8ff" stroke="#63b8ff" points="369.74,-51.5 379.74,-48 369.74,-44.5 369.74,-51.5"/>
</a>
</g>
</g>
<!-- Node5 -->
<g id="Node000005" class="node">
<title>Node5</title>
<g id="a_Node000005"><a xlink:href="classIteration.html#a8836fdf87b17b4bc628fd77db64c6af3" target="_top" xlink:title=" ">
<polygon fill="white" stroke="#666666" points="344.06,-20 230.54,-20 230.54,0 344.06,0 344.06,-20"/>
<text text-anchor="middle" x="287.3" y="-7" font-family="Helvetica,sans-Serif" font-size="10.00">Iteration::updateMean</text>
</a>
</g>
</g>
<!-- Node1&#45;&gt;Node5 -->
<g id="edge5_Node000001_Node000005" class="edge">
<title>Node1&#45;&gt;Node5</title>
<g id="a_edge5_Node000001_Node000005"><a xlink:title=" ">
<path fill="none" stroke="#63b8ff" d="M369.74,-29.78C355.93,-26.43 341.98,-23.04 329.63,-20.04"/>
<polygon fill="#63b8ff" stroke="#63b8ff" points="369.2,-33.25 379.74,-32.21 370.85,-26.45 369.2,-33.25"/>
</a>
</g>
</g>
<!-- Node3 -->
<g id="Node000003" class="node">
<title>Node3</title>
<g id="a_Node000003"><a xlink:href="main_8cpp.html#a3c04138a5bfe5d72780bb7e82a18e627" target="_top" xlink:title=" ">
<polygon fill="white" stroke="#666666" points="37.5,-39 0.17,-39 0.17,-19 37.5,-19 37.5,-39"/>
<text text-anchor="middle" x="18.83" y="-26" font-family="Helvetica,sans-Serif" font-size="10.00">main</text>
</a>
</g>
</g>
<!-- Node2&#45;&gt;Node3 -->
<g id="edge2_Node000002_Node000003" class="edge">
<title>Node2&#45;&gt;Node3</title>
<g id="a_edge2_Node000002_Node000003"><a xlink:title=" ">
<path fill="none" stroke="#63b8ff" d="M94.27,-41.48C75.07,-38.26 52.83,-34.53 37.7,-31.99"/>
<polygon fill="#63b8ff" stroke="#63b8ff" points="93.84,-44.95 104.28,-43.16 94.99,-38.05 93.84,-44.95"/>
</a>
</g>
</g>
<!-- Node4&#45;&gt;Node2 -->
<g id="edge4_Node000004_Node000002" class="edge">
<title>Node4&#45;&gt;Node2</title>
<g id="a_edge4_Node000004_Node000002"><a xlink:title=" ">
<path fill="none" stroke="#63b8ff" d="M240.22,-48C215.45,-48 185.67,-48 164.15,-48"/>
<polygon fill="#63b8ff" stroke="#63b8ff" points="240.49,-51.5 250.49,-48 240.49,-44.5 240.49,-51.5"/>
</a>
</g>
</g>
<!-- Node6 -->
<g id="Node000006" class="node">
<title>Node6</title>
<g id="a_Node000006"><a xlink:href="classIteration.html#ae341a02edb030229055de37fd518ac89" target="_top" xlink:title=" ">
<polygon fill="white" stroke="#666666" points="194.68,-20 73.66,-20 73.66,0 194.68,0 194.68,-20"/>
<text text-anchor="middle" x="134.17" y="-7" font-family="Helvetica,sans-Serif" font-size="10.00">Iteration::TimeMarching</text>
</a>
</g>
</g>
<!-- Node5&#45;&gt;Node6 -->
<g id="edge6_Node000005_Node000006" class="edge">
<title>Node5&#45;&gt;Node6</title>
<g id="a_edge6_Node000005_Node000006"><a xlink:title=" ">
<path fill="none" stroke="#63b8ff" d="M220.26,-10C211.8,-10 203.19,-10 194.85,-10"/>
<polygon fill="#63b8ff" stroke="#63b8ff" points="220.46,-13.5 230.46,-10 220.46,-6.5 220.46,-13.5"/>
</a>
</g>
</g>
<!-- Node6&#45;&gt;Node3 -->
<g id="edge7_Node000006_Node000003" class="edge">
<title>Node6&#45;&gt;Node3</title>
<g id="a_edge7_Node000006_Node000003"><a xlink:title=" ">
<path fill="none" stroke="#63b8ff" d="M63.54,-21.67C54.1,-23.26 45.16,-24.75 37.86,-25.98"/>
<polygon fill="#63b8ff" stroke="#63b8ff" points="64.23,-25.11 73.51,-20 63.07,-18.2 64.23,-25.11"/>
</a>
</g>
</g>
</g>
</svg>
