<?xml version="1.0" encoding="UTF-8" standalone="no"?>
<!DOCTYPE svg PUBLIC "-//W3C//DTD SVG 1.1//EN"
 "http://www.w3.org/Graphics/SVG/1.1/DTD/svg11.dtd">
<!-- Generated by graphviz version 2.46.0 (20210118.1747)
 -->
<!-- Title: /home/Aaron/2DVVM/full/0402/model/src/Config.hpp Pages: 1 -->
<!--zoomable 448 -->

<svg id="main" version="1.1" xmlns="http://www.w3.org/2000/svg" xmlns:xlink="http://www.w3.org/1999/xlink" xml:space="preserve" onload="init(evt)">
<style type="text/css"><![CDATA[
.node, .edge {opacity: 0.7;}
.node.selected, .edge.selected {opacity: 1;}
.edge:hover path { stroke: red; }
.edge:hover polygon { stroke: red; fill: red; }
]]></style>

<defs>
  <circle id="rim" cx="0" cy="0" r="7"/>
  <circle id="rim2" cx="0" cy="0" r="3.5"/>
  <g id="zoomPlus">
    <use xlink:href="#rim" fill="#404040"><set attributeName="fill" to="#808080" begin="zoomplus.mouseover" end="zoomplus.mouseout"/></use>
    <path d="M-4,0h8M0,-4v8" fill="none" stroke="white" stroke-width="1.5" pointer-events="none"/>
  </g>
  <g id="zoomMin">
    <use xlink:href="#rim" fill="#404040"><set attributeName="fill" to="#808080" begin="zoomminus.mouseover" end="zoomminus.mouseout"/></use>
    <path d="M-4,0h8" fill="none" stroke="white" stroke-width="1.5" pointer-events="none"/>
  </g>
  <g id="arrowUp" transform="translate(30 24)">
    <use xlink:href="#rim"/>
    <path pointer-events="none" fill="none" stroke="white" stroke-width="1.5" d="M0,-3.0v7 M-2.5,-0.5L0,-3.0L2.5,-0.5"/>
  </g>
  <g id="arrowRight" transform="rotate(90) translate(36 -43)">
    <use xlink:href="#rim"/>
    <path pointer-events="none" fill="none" stroke="white" stroke-width="1.5" d="M0,-3.0v7 M-2.5,-0.5L0,-3.0L2.5,-0.5"/>
  </g>
  <g id="arrowDown" transform="rotate(180) translate(-30 -48)">
    <use xlink:href="#rim"/>
    <path pointer-events="none" fill="none" stroke="white" stroke-width="1.5" d="M0,-3.0v7 M-2.5,-0.5L0,-3.0L2.5,-0.5"/>
  </g>
  <g id="arrowLeft" transform="rotate(270) translate(-36 17)">
    <use xlink:href="#rim"/>
    <path pointer-events="none" fill="none" stroke="white" stroke-width="1.5" d="M0,-3.0v7 M-2.5,-0.5L0,-3.0L2.5,-0.5"/>
  </g>
  <g id="resetDef">
    <use xlink:href="#rim2" fill="#404040"><set attributeName="fill" to="#808080" begin="reset.mouseover" end="reset.mouseout"/></use>
  </g>
</defs>
<script type="application/ecmascript">
var viewWidth = 1568;
var viewHeight = 448;
var sectionId = 'dynsection-0';
</script>
<script type="application/ecmascript" xlink:href="svg.min.js"/>
<svg id="graph" class="graph">
<g id="viewport">
<title>/home/Aaron/2DVVM/full/0402/model/src/Config.hpp</title>
<!-- Node1 -->
<g id="Node000001" class="node">
<title>Node1</title>
<g id="a_Node000001"><a xlink:title="Here are the parameters for the model that you can tune to fit your needs.">
<polygon fill="#999999" stroke="#666666" points="829.22,-440 690.71,-440 690.71,-408 829.22,-408 829.22,-440"/>
<text text-anchor="start" x="698.83" y="-427" font-family="Helvetica,sans-Serif" font-size="10.00">/home/Aaron/2DVVM/full</text>
<text text-anchor="middle" x="759.96" y="-415" font-family="Helvetica,sans-Serif" font-size="10.00">/0402/model/src/Config.hpp</text>
</a>
</g>
</g>
<!-- Node2 -->
<g id="Node000002" class="node">
<title>Node2</title>
<g id="a_Node000002"><a xlink:href="Const_8hpp.html" target="_top" xlink:title="Here are some constants defined in this model. You don&#39;t need to change them.">
<polygon fill="white" stroke="#666666" points="827.94,-372 691.98,-372 691.98,-340 827.94,-340 827.94,-372"/>
<text text-anchor="start" x="700.22" y="-359" font-family="Helvetica,sans-Serif" font-size="10.00">/home/Aaron/2DVVM/full</text>
<text text-anchor="middle" x="759.96" y="-347" font-family="Helvetica,sans-Serif" font-size="10.00">/0402/model/src/Const.hpp</text>
</a>
</g>
</g>
<!-- Node1&#45;&gt;Node2 -->
<g id="edge1_Node000001_Node000002" class="edge">
<title>Node1&#45;&gt;Node2</title>
<g id="a_edge1_Node000001_Node000002"><a xlink:title=" ">
<path fill="none" stroke="#63b8ff" d="M759.96,-397.45C759.96,-388.93 759.96,-379.71 759.96,-372.22"/>
<polygon fill="#63b8ff" stroke="#63b8ff" points="756.46,-397.69 759.96,-407.69 763.46,-397.69 756.46,-397.69"/>
</a>
</g>
</g>
<!-- Node3 -->
<g id="Node000003" class="node">
<title>Node3</title>
<g id="a_Node000003"><a xlink:href="Declare_8hpp.html" target="_top" xlink:title="This file is used to declare the class vvm.">
<polygon fill="white" stroke="#666666" points="831.77,-304 688.16,-304 688.16,-272 831.77,-272 831.77,-304"/>
<text text-anchor="start" x="696.06" y="-291" font-family="Helvetica,sans-Serif" font-size="10.00">/home/Aaron/2DVVM/full</text>
<text text-anchor="middle" x="759.96" y="-279" font-family="Helvetica,sans-Serif" font-size="10.00">/0402/model/src/Declare.hpp</text>
</a>
</g>
</g>
<!-- Node2&#45;&gt;Node3 -->
<g id="edge2_Node000002_Node000003" class="edge">
<title>Node2&#45;&gt;Node3</title>
<g id="a_edge2_Node000002_Node000003"><a xlink:title=" ">
<path fill="none" stroke="#63b8ff" d="M759.96,-329.45C759.96,-320.93 759.96,-311.71 759.96,-304.22"/>
<polygon fill="#63b8ff" stroke="#63b8ff" points="756.46,-329.69 759.96,-339.69 763.46,-329.69 756.46,-329.69"/>
</a>
</g>
</g>
<!-- Node4 -->
<g id="Node000004" class="node">
<title>Node4</title>
<g id="a_Node000004"><a xlink:href="AddForcing_8cpp.html" target="_top" xlink:title=" ">
<polygon fill="white" stroke="#666666" points="159.89,-236 0.04,-236 0.04,-204 159.89,-204 159.89,-236"/>
<text text-anchor="start" x="8" y="-223" font-family="Helvetica,sans-Serif" font-size="10.00">/home/Aaron/2DVVM/full</text>
<text text-anchor="middle" x="79.96" y="-211" font-family="Helvetica,sans-Serif" font-size="10.00">/0402/model/src/AddForcing.cpp</text>
</a>
</g>
</g>
<!-- Node3&#45;&gt;Node4 -->
<g id="edge3_Node000003_Node000004" class="edge">
<title>Node3&#45;&gt;Node4</title>
<g id="a_edge3_Node000003_Node000004"><a xlink:title=" ">
<path fill="none" stroke="#63b8ff" d="M677.81,-282.02C563.46,-274.6 349.95,-259.02 168.96,-236 166.01,-235.62 163,-235.22 159.97,-234.8"/>
<polygon fill="#63b8ff" stroke="#63b8ff" points="677.69,-285.52 687.89,-282.67 678.14,-278.53 677.69,-285.52"/>
</a>
</g>
</g>
<!-- Node5 -->
<g id="Node000005" class="node">
<title>Node5</title>
<g id="a_Node000005"><a xlink:href="Advection_8cpp.html" target="_top" xlink:title=" ">
<polygon fill="white" stroke="#666666" points="330.17,-236 177.76,-236 177.76,-204 330.17,-204 330.17,-236"/>
<text text-anchor="start" x="185.61" y="-223" font-family="Helvetica,sans-Serif" font-size="10.00">/home/Aaron/2DVVM/full</text>
<text text-anchor="middle" x="253.96" y="-211" font-family="Helvetica,sans-Serif" font-size="10.00">/0402/model/src/Advection.cpp</text>
</a>
</g>
</g>
<!-- Node3&#45;&gt;Node5 -->
<g id="edge4_Node000003_Node000005" class="edge">
<title>Node3&#45;&gt;Node5</title>
<g id="a_edge4_Node000003_Node000005"><a xlink:title=" ">
<path fill="none" stroke="#63b8ff" d="M677.81,-278.38C592.83,-269.15 456.35,-253.46 338.96,-236 336.15,-235.58 333.28,-235.14 330.39,-234.69"/>
<polygon fill="#63b8ff" stroke="#63b8ff" points="677.6,-281.88 687.92,-279.47 678.35,-274.92 677.6,-281.88"/>
</a>
</g>
</g>
<!-- Node6 -->
<g id="Node000006" class="node">
<title>Node6</title>
<g id="a_Node000006"><a xlink:href="Boundary_8cpp.html" target="_top" xlink:title=" ">
<polygon fill="white" stroke="#666666" points="499.56,-236 348.37,-236 348.37,-204 499.56,-204 499.56,-236"/>
<text text-anchor="start" x="356.16" y="-223" font-family="Helvetica,sans-Serif" font-size="10.00">/home/Aaron/2DVVM/full</text>
<text text-anchor="middle" x="423.96" y="-211" font-family="Helvetica,sans-Serif" font-size="10.00">/0402/model/src/Boundary.cpp</text>
</a>
</g>
</g>
<!-- Node3&#45;&gt;Node6 -->
<g id="edge5_Node000003_Node000006" class="edge">
<title>Node3&#45;&gt;Node6</title>
<g id="a_edge5_Node000003_Node000006"><a xlink:title=" ">
<path fill="none" stroke="#63b8ff" d="M677.93,-270.89C623.56,-260.21 552.75,-246.3 499.71,-235.88"/>
<polygon fill="#63b8ff" stroke="#63b8ff" points="677.39,-274.35 687.88,-272.84 678.74,-267.48 677.39,-274.35"/>
</a>
</g>
</g>
<!-- Node7 -->
<g id="Node000007" class="node">
<title>Node7</title>
<g id="a_Node000007"><a xlink:href="Buoyancy_8cpp.html" target="_top" xlink:title=" ">
<polygon fill="white" stroke="#666666" points="670.17,-236 517.75,-236 517.75,-204 670.17,-204 670.17,-236"/>
<text text-anchor="start" x="525.61" y="-223" font-family="Helvetica,sans-Serif" font-size="10.00">/home/Aaron/2DVVM/full</text>
<text text-anchor="middle" x="593.96" y="-211" font-family="Helvetica,sans-Serif" font-size="10.00">/0402/model/src/Buoyancy.cpp</text>
</a>
</g>
</g>
<!-- Node3&#45;&gt;Node7 -->
<g id="edge6_Node000003_Node000007" class="edge">
<title>Node3&#45;&gt;Node7</title>
<g id="a_edge6_Node000003_Node000007"><a xlink:title=" ">
<path fill="none" stroke="#63b8ff" d="M712.38,-268.08C686.83,-257.92 655.77,-245.57 631.87,-236.07"/>
<polygon fill="#63b8ff" stroke="#63b8ff" points="711.29,-271.42 721.88,-271.86 713.88,-264.91 711.29,-271.42"/>
</a>
</g>
</g>
<!-- Node8 -->
<g id="Node000008" class="node">
<title>Node8</title>
<g id="a_Node000008"><a xlink:href="Declare_8cpp.html" target="_top" xlink:title=" ">
<polygon fill="white" stroke="#666666" points="831.71,-236 688.21,-236 688.21,-204 831.71,-204 831.71,-236"/>
<text text-anchor="start" x="696.34" y="-223" font-family="Helvetica,sans-Serif" font-size="10.00">/home/Aaron/2DVVM/full</text>
<text text-anchor="middle" x="759.96" y="-211" font-family="Helvetica,sans-Serif" font-size="10.00">/0402/model/src/Declare.cpp</text>
</a>
</g>
</g>
<!-- Node3&#45;&gt;Node8 -->
<g id="edge7_Node000003_Node000008" class="edge">
<title>Node3&#45;&gt;Node8</title>
<g id="a_edge7_Node000003_Node000008"><a xlink:title=" ">
<path fill="none" stroke="#63b8ff" d="M759.96,-261.45C759.96,-252.93 759.96,-243.71 759.96,-236.22"/>
<polygon fill="#63b8ff" stroke="#63b8ff" points="756.46,-261.69 759.96,-271.69 763.46,-261.69 756.46,-261.69"/>
</a>
</g>
</g>
<!-- Node9 -->
<g id="Node000009" class="node">
<title>Node9</title>
<g id="a_Node000009"><a xlink:href="Init_8hpp.html" target="_top" xlink:title=" ">
<polygon fill="white" stroke="#666666" points="975.98,-236 849.94,-236 849.94,-204 975.98,-204 975.98,-236"/>
<text text-anchor="start" x="857.95" y="-223" font-family="Helvetica,sans-Serif" font-size="10.00">/home/Aaron/2DVVM/full</text>
<text text-anchor="middle" x="912.96" y="-211" font-family="Helvetica,sans-Serif" font-size="10.00">/0402/model/src/Init.hpp</text>
</a>
</g>
</g>
<!-- Node3&#45;&gt;Node9 -->
<g id="edge8_Node000003_Node000009" class="edge">
<title>Node3&#45;&gt;Node9</title>
<g id="a_edge8_Node000003_Node000009"><a xlink:title=" ">
<path fill="none" stroke="#63b8ff" d="M804.44,-267.81C827.87,-257.71 856.19,-245.49 878.02,-236.07"/>
<polygon fill="#63b8ff" stroke="#63b8ff" points="802.86,-264.68 795.06,-271.86 805.63,-271.11 802.86,-264.68"/>
</a>
</g>
</g>
<!-- Node16 -->
<g id="Node000016" class="node">
<title>Node16</title>
<g id="a_Node000016"><a xlink:href="MicroPhysics_8cpp.html" target="_top" xlink:title=" ">
<polygon fill="white" stroke="#666666" points="1161.65,-236 994.28,-236 994.28,-204 1161.65,-204 1161.65,-236"/>
<text text-anchor="start" x="1002.12" y="-223" font-family="Helvetica,sans-Serif" font-size="10.00">/home/Aaron/2DVVM/full</text>
<text text-anchor="middle" x="1077.96" y="-211" font-family="Helvetica,sans-Serif" font-size="10.00">/0402/model/src/MicroPhysics.cpp</text>
</a>
</g>
</g>
<!-- Node3&#45;&gt;Node16 -->
<g id="edge15_Node000003_Node000016" class="edge">
<title>Node3&#45;&gt;Node16</title>
<g id="a_edge15_Node000003_Node000016"><a xlink:title=" ">
<path fill="none" stroke="#63b8ff" d="M842.04,-269.96C892.62,-259.47 956.86,-246.13 1005.54,-236.03"/>
<polygon fill="#63b8ff" stroke="#63b8ff" points="841.2,-266.56 832.12,-272.02 842.62,-273.42 841.2,-266.56"/>
</a>
</g>
</g>
<!-- Node17 -->
<g id="Node000017" class="node">
<title>Node17</title>
<g id="a_Node000017"><a xlink:href="NumericalProcess_8cpp.html" target="_top" xlink:title=" ">
<polygon fill="white" stroke="#666666" points="1369.87,-236 1180.05,-236 1180.05,-204 1369.87,-204 1369.87,-236"/>
<text text-anchor="start" x="1188.01" y="-223" font-family="Helvetica,sans-Serif" font-size="10.00">/home/Aaron/2DVVM/full</text>
<text text-anchor="middle" x="1274.96" y="-211" font-family="Helvetica,sans-Serif" font-size="10.00">/0402/model/src/NumericalProcess.cpp</text>
</a>
</g>
</g>
<!-- Node3&#45;&gt;Node17 -->
<g id="edge16_Node000003_Node000017" class="edge">
<title>Node3&#45;&gt;Node17</title>
<g id="a_edge16_Node000003_Node000017"><a xlink:title=" ">
<path fill="none" stroke="#63b8ff" d="M842.16,-277.29C925.17,-267.36 1057.06,-251.28 1170.96,-236 1173.95,-235.6 1176.98,-235.19 1180.04,-234.77"/>
<polygon fill="#63b8ff" stroke="#63b8ff" points="841.55,-273.83 832.03,-278.49 842.38,-280.78 841.55,-273.83"/>
</a>
</g>
</g>
<!-- Node18 -->
<g id="Node000018" class="node">
<title>Node18</title>
<g id="a_Node000018"><a xlink:href="PoissonSolver_8cpp.html" target="_top" xlink:title=" ">
<polygon fill="white" stroke="#666666" points="1560.17,-236 1387.76,-236 1387.76,-204 1560.17,-204 1560.17,-236"/>
<text text-anchor="start" x="1395.61" y="-223" font-family="Helvetica,sans-Serif" font-size="10.00">/home/Aaron/2DVVM/full</text>
<text text-anchor="middle" x="1473.96" y="-211" font-family="Helvetica,sans-Serif" font-size="10.00">/0402/model/src/PoissonSolver.cpp</text>
</a>
</g>
</g>
<!-- Node3&#45;&gt;Node18 -->
<g id="edge17_Node000003_Node000018" class="edge">
<title>Node3&#45;&gt;Node18</title>
<g id="a_edge17_Node000003_Node000018"><a xlink:title=" ">
<path fill="none" stroke="#63b8ff" d="M842.2,-282.18C960.96,-274.77 1187.29,-259 1378.96,-236 1381.78,-235.66 1384.64,-235.3 1387.53,-234.93"/>
<polygon fill="#63b8ff" stroke="#63b8ff" points="841.86,-278.69 832.09,-282.8 842.29,-285.68 841.86,-278.69"/>
</a>
</g>
</g>
<!-- Node10 -->
<g id="Node000010" class="node">
<title>Node10</title>
<g id="a_Node000010"><a xlink:href="Init_8cpp.html" target="_top" xlink:title=" ">
<polygon fill="white" stroke="#666666" points="900.98,-168 774.94,-168 774.94,-136 900.98,-136 900.98,-168"/>
<text text-anchor="start" x="782.95" y="-155" font-family="Helvetica,sans-Serif" font-size="10.00">/home/Aaron/2DVVM/full</text>
<text text-anchor="middle" x="837.96" y="-143" font-family="Helvetica,sans-Serif" font-size="10.00">/0402/model/src/Init.cpp</text>
</a>
</g>
</g>
<!-- Node9&#45;&gt;Node10 -->
<g id="edge9_Node000009_Node000010" class="edge">
<title>Node9&#45;&gt;Node10</title>
<g id="a_edge9_Node000009_Node000010"><a xlink:title=" ">
<path fill="none" stroke="#63b8ff" d="M887.76,-196.82C877.08,-187.42 864.9,-176.71 855.26,-168.22"/>
<polygon fill="#63b8ff" stroke="#63b8ff" points="885.75,-199.71 895.57,-203.69 890.37,-194.46 885.75,-199.71"/>
</a>
</g>
</g>
<!-- Node11 -->
<g id="Node000011" class="node">
<title>Node11</title>
<g id="a_Node000011"><a xlink:href="Output_8hpp.html" target="_top" xlink:title=" ">
<polygon fill="white" stroke="#666666" points="1058.84,-168 919.09,-168 919.09,-136 1058.84,-136 1058.84,-168"/>
<text text-anchor="start" x="927.27" y="-155" font-family="Helvetica,sans-Serif" font-size="10.00">/home/Aaron/2DVVM/full</text>
<text text-anchor="middle" x="988.96" y="-143" font-family="Helvetica,sans-Serif" font-size="10.00">/0402/model/src/Output.hpp</text>
</a>
</g>
</g>
<!-- Node9&#45;&gt;Node11 -->
<g id="edge10_Node000009_Node000011" class="edge">
<title>Node9&#45;&gt;Node11</title>
<g id="a_edge10_Node000009_Node000011"><a xlink:title=" ">
<path fill="none" stroke="#63b8ff" d="M938.18,-197.1C949.08,-187.63 961.57,-176.79 971.43,-168.22"/>
<polygon fill="#63b8ff" stroke="#63b8ff" points="935.84,-194.49 930.59,-203.69 940.43,-199.78 935.84,-194.49"/>
</a>
</g>
</g>
<!-- Node12 -->
<g id="Node000012" class="node">
<title>Node12</title>
<g id="a_Node000012"><a xlink:href="Iteration_8hpp.html" target="_top" xlink:title=" ">
<polygon fill="white" stroke="#666666" points="981.95,-100 835.98,-100 835.98,-68 981.95,-68 981.95,-100"/>
<text text-anchor="start" x="844.22" y="-87" font-family="Helvetica,sans-Serif" font-size="10.00">/home/Aaron/2DVVM/full</text>
<text text-anchor="middle" x="908.96" y="-75" font-family="Helvetica,sans-Serif" font-size="10.00">/0402/model/src/Iteration.hpp</text>
</a>
</g>
</g>
<!-- Node11&#45;&gt;Node12 -->
<g id="edge11_Node000011_Node000012" class="edge">
<title>Node11&#45;&gt;Node12</title>
<g id="a_edge11_Node000011_Node000012"><a xlink:title=" ">
<path fill="none" stroke="#63b8ff" d="M962.41,-129.1C950.94,-119.63 937.8,-108.79 927.42,-100.22"/>
<polygon fill="#63b8ff" stroke="#63b8ff" points="960.47,-132.03 970.41,-135.69 964.92,-126.63 960.47,-132.03"/>
</a>
</g>
</g>
<!-- Node15 -->
<g id="Node000015" class="node">
<title>Node15</title>
<g id="a_Node000015"><a xlink:href="Output_8cpp.html" target="_top" xlink:title=" ">
<polygon fill="white" stroke="#666666" points="1138.28,-100 999.64,-100 999.64,-68 1138.28,-68 1138.28,-100"/>
<text text-anchor="start" x="1007.55" y="-87" font-family="Helvetica,sans-Serif" font-size="10.00">/home/Aaron/2DVVM/full</text>
<text text-anchor="middle" x="1068.96" y="-75" font-family="Helvetica,sans-Serif" font-size="10.00">/0402/model/src/Output.cpp</text>
</a>
</g>
</g>
<!-- Node11&#45;&gt;Node15 -->
<g id="edge14_Node000011_Node000015" class="edge">
<title>Node11&#45;&gt;Node15</title>
<g id="a_edge14_Node000011_Node000015"><a xlink:title=" ">
<path fill="none" stroke="#63b8ff" d="M1015.51,-129.1C1026.98,-119.63 1040.13,-108.79 1050.51,-100.22"/>
<polygon fill="#63b8ff" stroke="#63b8ff" points="1013,-126.63 1007.52,-135.69 1017.46,-132.03 1013,-126.63"/>
</a>
</g>
</g>
<!-- Node13 -->
<g id="Node000013" class="node">
<title>Node13</title>
<g id="a_Node000013"><a xlink:href="Iteration_8cpp.html" target="_top" xlink:title=" ">
<polygon fill="white" stroke="#666666" points="903.39,-32 758.54,-32 758.54,0 903.39,0 903.39,-32"/>
<text text-anchor="start" x="766.5" y="-19" font-family="Helvetica,sans-Serif" font-size="10.00">/home/Aaron/2DVVM/full</text>
<text text-anchor="middle" x="830.96" y="-7" font-family="Helvetica,sans-Serif" font-size="10.00">/0402/model/src/Iteration.cpp</text>
</a>
</g>
</g>
<!-- Node12&#45;&gt;Node13 -->
<g id="edge12_Node000012_Node000013" class="edge">
<title>Node12&#45;&gt;Node13</title>
<g id="a_edge12_Node000012_Node000013"><a xlink:title=" ">
<path fill="none" stroke="#63b8ff" d="M883.08,-61.1C871.89,-51.63 859.08,-40.79 848.95,-32.22"/>
<polygon fill="#63b8ff" stroke="#63b8ff" points="880.98,-63.9 890.87,-67.69 885.5,-58.56 880.98,-63.9"/>
</a>
</g>
</g>
<!-- Node14 -->
<g id="Node000014" class="node">
<title>Node14</title>
<g id="a_Node000014"><a xlink:href="main_8cpp.html" target="_top" xlink:title=" ">
<polygon fill="white" stroke="#666666" points="1052.43,-32 921.49,-32 921.49,0 1052.43,0 1052.43,-32"/>
<text text-anchor="start" x="929.73" y="-19" font-family="Helvetica,sans-Serif" font-size="10.00">/home/Aaron/2DVVM/full</text>
<text text-anchor="middle" x="986.96" y="-7" font-family="Helvetica,sans-Serif" font-size="10.00">/0402/model/src/main.cpp</text>
</a>
</g>
</g>
<!-- Node12&#45;&gt;Node14 -->
<g id="edge13_Node000012_Node000014" class="edge">
<title>Node12&#45;&gt;Node14</title>
<g id="a_edge13_Node000012_Node000014"><a xlink:title=" ">
<path fill="none" stroke="#63b8ff" d="M934.85,-61.1C946.03,-51.63 958.85,-40.79 968.97,-32.22"/>
<polygon fill="#63b8ff" stroke="#63b8ff" points="932.43,-58.56 927.05,-67.69 936.95,-63.9 932.43,-58.56"/>
</a>
</g>
</g>
</g>
</svg>

<g id="navigator" transform="translate(0 0)" fill="#404254">
  <rect fill="#f2f5e9" fill-opacity="0.5" stroke="#606060" stroke-width=".5" x="0" y="0" width="60" height="60"/>
  <use id="zoomplus" xlink:href="#zoomPlus" x="17" y="9" onmousedown="handleZoom(evt,'in')"/>
  <use id="zoomminus" xlink:href="#zoomMin" x="42" y="9" onmousedown="handleZoom(evt,'out')"/>
  <use id="reset" xlink:href="#resetDef" x="30" y="36" onmousedown="handleReset()"/>
   <use id="arrowup" xlink:href="#arrowUp" x="0" y="0" onmousedown="handlePan(0,-1)"/>
  <use id="arrowright" xlink:href="#arrowRight" x="0" y="0" onmousedown="handlePan(1,0)"/>
  <use id="arrowdown" xlink:href="#arrowDown" x="0" y="0" onmousedown="handlePan(0,1)"/>
  <use id="arrowleft" xlink:href="#arrowLeft" x="0" y="0" onmousedown="handlePan(-1,0)"/>
</g>
<svg viewBox="0 0 15 15" width="100%" height="30px" preserveAspectRatio="xMaxYMin meet">
 <g id="arrow_out" transform="scale(0.3 0.3)">
  <a xlink:href="Config_8hpp__dep__incl_org.svg" target="_base">
   <rect id="button" ry="5" rx="5" y="6" x="6" height="38" width="38"
        fill="#f2f5e9" fill-opacity="0.5" stroke="#606060" stroke-width="1.0"/>
   <path id="arrow"
     d="M 11.500037,31.436501 C 11.940474,20.09759 22.043105,11.32322 32.158766,21.979434 L 37.068811,17.246167 C 37.068811,17.246167 37.088388,32 37.088388,32 L 22.160133,31.978069 C 22.160133,31.978069 26.997745,27.140456 26.997745,27.140456 C 18.528582,18.264221 13.291696,25.230495 11.500037,31.436501 z"
     style="fill:#404040;"/>
  </a>
 </g>
</svg>

<style type='text/css'>
<![CDATA[
[data-mouse-over-selected='false'] { opacity: 0.7; }
[data-mouse-over-selected='true']  { opacity: 1.0; }
]]>
</style>
<script type="application/ecmascript"><![CDATA[
document.addEventListener('DOMContentLoaded', (event) => {
  highlightEdges();
  highlightAdjacentNodes();
});
]]></script>
</svg>
