<?xml version="1.0" encoding="UTF-8" standalone="no"?>
<!DOCTYPE svg PUBLIC "-//W3C//DTD SVG 1.1//EN"
 "http://www.w3.org/Graphics/SVG/1.1/DTD/svg11.dtd">
<!-- Generated by graphviz version 2.46.0 (20210118.1747)
 -->
<!-- Title: Graph Legend Pages: 1 -->
<svg width="511pt" height="164pt"
 viewBox="0.00 0.00 510.67 164.00" xmlns="http://www.w3.org/2000/svg" xmlns:xlink="http://www.w3.org/1999/xlink">
<g id="graph0" class="graph" transform="scale(1 1) rotate(0) translate(4 160)">
<title>Graph Legend</title>
<!-- Node9 -->
<g id="Node000009" class="node">
<title>Node9</title>
<g id="a_Node000009"><a xlink:title=" ">
<polygon fill="#999999" stroke="#666666" points="293.41,-20 238.6,-20 238.6,0 293.41,0 293.41,-20"/>
<text text-anchor="middle" x="266.01" y="-7" font-family="Helvetica,sans-Serif" font-size="10.00">Inherited</text>
</a>
</g>
</g>
<!-- Node10 -->
<g id="Node000010" class="node">
<title>Node10</title>
<g id="a_Node000010"><a xlink:title=" ">
<polygon fill="white" stroke="#666666" points="66.02,-88 -0.01,-88 -0.01,-68 66.02,-68 66.02,-88"/>
<text text-anchor="middle" x="33.01" y="-75" font-family="Helvetica,sans-Serif" font-size="10.00">PublicBase</text>
</a>
</g>
</g>
<!-- Node10&#45;&gt;Node9 -->
<g id="edge1" class="edge">
<title>Node10&#45;&gt;Node9</title>
<g id="a_edge1"><a xlink:title=" ">
<path fill="none" stroke="#63b8ff" d="M74.56,-65.23C121.9,-51.82 197.94,-30.28 238.47,-18.8"/>
<polygon fill="#63b8ff" stroke="#63b8ff" points="73.58,-61.87 64.92,-67.96 75.49,-68.6 73.58,-61.87"/>
</a>
</g>
</g>
<!-- Node11 -->
<g id="Node000011" class="node">
<title>Node11</title>
<g id="a_Node000011"><a xlink:title=" ">
<polygon fill="#fff0f0" stroke="red" points="63.52,-156 2.49,-156 2.49,-136 63.52,-136 63.52,-156"/>
<text text-anchor="middle" x="33.01" y="-143" font-family="Helvetica,sans-Serif" font-size="10.00">Truncated</text>
</a>
</g>
</g>
<!-- Node11&#45;&gt;Node10 -->
<g id="edge2" class="edge">
<title>Node11&#45;&gt;Node10</title>
<g id="a_edge2"><a xlink:title=" ">
<path fill="none" stroke="#63b8ff" d="M33.01,-125.58C33.01,-113.19 33.01,-97.72 33.01,-88.1"/>
<polygon fill="#63b8ff" stroke="#63b8ff" points="29.51,-125.82 33.01,-135.82 36.51,-125.82 29.51,-125.82"/>
</a>
</g>
</g>
<!-- Node13 -->
<g id="node4" class="node">
<title>Node13</title>
<g id="a_node4"><a xlink:title=" ">
<polygon fill="white" stroke="#666666" points="165.59,-88 84.43,-88 84.43,-68 165.59,-68 165.59,-88"/>
<text text-anchor="middle" x="125.01" y="-75" font-family="Helvetica,sans-Serif" font-size="10.00">ProtectedBase</text>
</a>
</g>
</g>
<!-- Node13&#45;&gt;Node9 -->
<g id="edge3" class="edge">
<title>Node13&#45;&gt;Node9</title>
<g id="a_edge3"><a xlink:title=" ">
<path fill="none" stroke="darkgreen" d="M153.48,-63.67C181.13,-50.73 222.35,-31.43 246.48,-20.14"/>
<polygon fill="darkgreen" stroke="darkgreen" points="151.89,-60.55 144.32,-67.96 154.86,-66.89 151.89,-60.55"/>
</a>
</g>
</g>
<!-- Node14 -->
<g id="node5" class="node">
<title>Node14</title>
<g id="a_node5"><a xlink:title=" ">
<polygon fill="white" stroke="#666666" points="253.91,-88 184.1,-88 184.1,-68 253.91,-68 253.91,-88"/>
<text text-anchor="middle" x="219.01" y="-75" font-family="Helvetica,sans-Serif" font-size="10.00">PrivateBase</text>
</a>
</g>
</g>
<!-- Node14&#45;&gt;Node9 -->
<g id="edge4" class="edge">
<title>Node14&#45;&gt;Node9</title>
<g id="a_edge4"><a xlink:title=" ">
<path fill="none" stroke="#8b1a1a" d="M231.51,-59.45C240.52,-46.79 252.32,-30.21 259.53,-20.1"/>
<polygon fill="#8b1a1a" stroke="#8b1a1a" points="228.49,-57.65 225.54,-67.82 234.19,-61.71 228.49,-57.65"/>
</a>
</g>
</g>
<!-- Node15 -->
<g id="Node000015" class="node">
<title>Node15</title>
<g id="a_Node000015"><a xlink:title=" ">
<polygon fill="#e0e0e0" stroke="#999999" points="355.81,-88 272.21,-88 272.21,-68 355.81,-68 355.81,-88"/>
<text text-anchor="middle" x="314.01" y="-75" font-family="Helvetica,sans-Serif" font-size="10.00">Undocumented</text>
</a>
</g>
</g>
<!-- Node15&#45;&gt;Node9 -->
<g id="edge5" class="edge">
<title>Node15&#45;&gt;Node9</title>
<g id="a_edge5"><a xlink:title=" ">
<path fill="none" stroke="#63b8ff" d="M301.24,-59.45C292.03,-46.79 279.98,-30.21 272.62,-20.1"/>
<polygon fill="#63b8ff" stroke="#63b8ff" points="298.62,-61.79 307.33,-67.82 304.28,-57.68 298.62,-61.79"/>
</a>
</g>
</g>
<!-- Node16 -->
<g id="node7" class="node">
<title>Node16</title>
<g id="a_node7"><a xlink:title=" ">
<polygon fill="white" stroke="#666666" points="445.58,-88 374.44,-88 374.44,-68 445.58,-68 445.58,-88"/>
<text text-anchor="middle" x="410.01" y="-75" font-family="Helvetica,sans-Serif" font-size="10.00">Templ&lt; int &gt;</text>
</a>
</g>
</g>
<!-- Node16&#45;&gt;Node9 -->
<g id="edge6" class="edge">
<title>Node16&#45;&gt;Node9</title>
<g id="a_edge6"><a xlink:title=" ">
<path fill="none" stroke="#63b8ff" d="M380.93,-63.67C352.69,-50.73 310.59,-31.43 285.95,-20.14"/>
<polygon fill="#63b8ff" stroke="#63b8ff" points="379.74,-66.98 390.29,-67.96 382.65,-60.61 379.74,-66.98"/>
</a>
</g>
</g>
<!-- Node17 -->
<g id="node8" class="node">
<title>Node17</title>
<g id="a_node8"><a xlink:title=" ">
<polygon fill="white" stroke="#666666" points="443.63,-156 376.39,-156 376.39,-136 443.63,-136 443.63,-156"/>
<text text-anchor="middle" x="410.01" y="-143" font-family="Helvetica,sans-Serif" font-size="10.00">Templ&lt; T &gt;</text>
</a>
</g>
</g>
<!-- Node17&#45;&gt;Node16 -->
<g id="edge7" class="edge">
<title>Node17&#45;&gt;Node16</title>
<g id="a_edge7"><a xlink:title=" ">
<path fill="none" stroke="orange" stroke-dasharray="5,2" d="M410.01,-125.58C410.01,-113.19 410.01,-97.72 410.01,-88.1"/>
<polygon fill="orange" stroke="orange" points="406.51,-125.82 410.01,-135.82 413.51,-125.82 406.51,-125.82"/>
</a>
</g>
<text text-anchor="middle" x="423.9" y="-109" font-family="Helvetica,sans-Serif" font-size="10.00" fill="grey">&lt; int &gt;</text>
</g>
<!-- Node18 -->
<g id="node9" class="node">
<title>Node18</title>
<g id="a_node9"><a xlink:title=" ">
<polygon fill="white" stroke="#666666" points="502.84,-88 463.17,-88 463.17,-68 502.84,-68 502.84,-88"/>
<text text-anchor="middle" x="483.01" y="-75" font-family="Helvetica,sans-Serif" font-size="10.00">Used</text>
</a>
</g>
</g>
<!-- Node18&#45;&gt;Node9 -->
<g id="edge8" class="edge">
<title>Node18&#45;&gt;Node9</title>
<g id="a_edge8"><a xlink:title=" ">
<path fill="none" stroke="#9a32cd" stroke-dasharray="5,2" d="M453.55,-67.58C391.24,-48.22 328.65,-29.54 293.6,-19.15"/>
<polygon fill="#9a32cd" stroke="#9a32cd" points="452.55,-70.93 463.14,-70.56 454.63,-64.25 452.55,-70.93"/>
</a>
</g>
<text text-anchor="middle" x="422.29" y="-41" font-family="Helvetica,sans-Serif" font-size="10.00" fill="grey">m_usedClass</text>
</g>
</g>
</svg>
