<?xml version="1.0" encoding="UTF-8" standalone="no"?>
<!DOCTYPE svg PUBLIC "-//W3C//DTD SVG 1.1//EN"
 "http://www.w3.org/Graphics/SVG/1.1/DTD/svg11.dtd">
<!-- Generated by graphviz version 2.46.0 (20210118.1747)
 -->
<!-- Title: /home/Aaron/2DVVM/full/0402/model/src/Init.cpp Pages: 1 -->
<svg width="593pt" height="276pt"
 viewBox="0.00 0.00 593.12 276.00" xmlns="http://www.w3.org/2000/svg" xmlns:xlink="http://www.w3.org/1999/xlink">
<g id="graph0" class="graph" transform="scale(1 1) rotate(0) translate(4 272)">
<title>/home/Aaron/2DVVM/full/0402/model/src/Init.cpp</title>
<!-- Node1 -->
<g id="Node000001" class="node">
<title>Node1</title>
<g id="a_Node000001"><a xlink:title=" ">
<polygon fill="#999999" stroke="#666666" points="416.19,-268 290.16,-268 290.16,-236 416.19,-236 416.19,-268"/>
<text text-anchor="start" x="298.17" y="-255" font-family="Helvetica,sans-Serif" font-size="10.00">/home/Aaron/2DVVM/full</text>
<text text-anchor="middle" x="353.18" y="-243" font-family="Helvetica,sans-Serif" font-size="10.00">/0402/model/src/Init.cpp</text>
</a>
</g>
</g>
<!-- Node2 -->
<g id="Node000002" class="node">
<title>Node2</title>
<g id="a_Node000002"><a xlink:href="Init_8hpp.html" target="_top" xlink:title=" ">
<polygon fill="white" stroke="#666666" points="110.47,-194 61.88,-194 61.88,-174 110.47,-174 110.47,-194"/>
<text text-anchor="middle" x="86.17" y="-181" font-family="Helvetica,sans-Serif" font-size="10.00">Init.hpp</text>
</a>
</g>
</g>
<!-- Node1&#45;&gt;Node2 -->
<g id="edge1_Node000001_Node000002" class="edge">
<title>Node1&#45;&gt;Node2</title>
<g id="a_edge1_Node000001_Node000002"><a xlink:title=" ">
<path fill="none" stroke="#63b8ff" d="M290.13,-241C242.47,-232.55 175.8,-218.8 119.17,-200 117.49,-199.44 115.78,-198.82 114.06,-198.17"/>
<polygon fill="#63b8ff" stroke="#63b8ff" points="114.97,-194.75 104.4,-194.11 112.27,-201.21 114.97,-194.75"/>
</a>
</g>
</g>
<!-- Node7 -->
<g id="Node000007" class="node">
<title>Node7</title>
<g id="a_Node000007"><a xlink:title=" ">
<polygon fill="#e0e0e0" stroke="#999999" points="241.97,-200 128.38,-200 128.38,-168 241.97,-168 241.97,-200"/>
<text text-anchor="start" x="136.28" y="-187" font-family="Helvetica,sans-Serif" font-size="10.00">Eigen/src/SparseCore</text>
<text text-anchor="middle" x="185.18" y="-175" font-family="Helvetica,sans-Serif" font-size="10.00">/SparseMatrixBase.h</text>
</a>
</g>
</g>
<!-- Node1&#45;&gt;Node7 -->
<g id="edge6_Node000001_Node000007" class="edge">
<title>Node1&#45;&gt;Node7</title>
<g id="a_edge6_Node000001_Node000007"><a xlink:title=" ">
<path fill="none" stroke="#63b8ff" d="M314.63,-235.86C290.41,-226.34 258.97,-213.99 233.14,-203.84"/>
<polygon fill="#63b8ff" stroke="#63b8ff" points="234.13,-200.47 223.54,-200.07 231.57,-206.99 234.13,-200.47"/>
</a>
</g>
</g>
<!-- Node8 -->
<g id="Node000008" class="node">
<title>Node8</title>
<g id="a_Node000008"><a xlink:title=" ">
<polygon fill="#e0e0e0" stroke="#999999" points="310.01,-194 260.34,-194 260.34,-174 310.01,-174 310.01,-194"/>
<text text-anchor="middle" x="285.18" y="-181" font-family="Helvetica,sans-Serif" font-size="10.00">fstream</text>
</a>
</g>
</g>
<!-- Node1&#45;&gt;Node8 -->
<g id="edge7_Node000001_Node000008" class="edge">
<title>Node1&#45;&gt;Node8</title>
<g id="a_edge7_Node000001_Node000008"><a xlink:title=" ">
<path fill="none" stroke="#63b8ff" d="M337.4,-235.69C326.8,-225.4 312.83,-211.84 302,-201.33"/>
<polygon fill="#63b8ff" stroke="#63b8ff" points="304.39,-198.77 294.77,-194.32 299.51,-203.79 304.39,-198.77"/>
</a>
</g>
</g>
<!-- Node9 -->
<g id="Node000009" class="node">
<title>Node9</title>
<g id="a_Node000009"><a xlink:title=" ">
<polygon fill="#e0e0e0" stroke="#999999" points="378.68,-194 327.67,-194 327.67,-174 378.68,-174 378.68,-194"/>
<text text-anchor="middle" x="353.18" y="-181" font-family="Helvetica,sans-Serif" font-size="10.00">iomanip</text>
</a>
</g>
</g>
<!-- Node1&#45;&gt;Node9 -->
<g id="edge8_Node000001_Node000009" class="edge">
<title>Node1&#45;&gt;Node9</title>
<g id="a_edge8_Node000001_Node000009"><a xlink:title=" ">
<path fill="none" stroke="#63b8ff" d="M353.18,-235.69C353.18,-226.4 353.18,-214.44 353.18,-204.47"/>
<polygon fill="#63b8ff" stroke="#63b8ff" points="356.68,-204.32 353.18,-194.32 349.68,-204.32 356.68,-204.32"/>
</a>
</g>
</g>
<!-- Node10 -->
<g id="Node000010" class="node">
<title>Node10</title>
<g id="a_Node000010"><a xlink:title=" ">
<polygon fill="#e0e0e0" stroke="#999999" points="451.51,-194 396.84,-194 396.84,-174 451.51,-174 451.51,-194"/>
<text text-anchor="middle" x="424.18" y="-181" font-family="Helvetica,sans-Serif" font-size="10.00">iostream</text>
</a>
</g>
</g>
<!-- Node1&#45;&gt;Node10 -->
<g id="edge9_Node000001_Node000010" class="edge">
<title>Node1&#45;&gt;Node10</title>
<g id="a_edge9_Node000001_Node000010"><a xlink:title=" ">
<path fill="none" stroke="#63b8ff" d="M369.64,-235.69C380.72,-225.4 395.3,-211.84 406.6,-201.33"/>
<polygon fill="#63b8ff" stroke="#63b8ff" points="409.21,-203.69 414.15,-194.32 404.45,-198.56 409.21,-203.69"/>
</a>
</g>
</g>
<!-- Node11 -->
<g id="Node000011" class="node">
<title>Node11</title>
<g id="a_Node000011"><a xlink:title=" ">
<polygon fill="#e0e0e0" stroke="#999999" points="517.41,-194 468.94,-194 468.94,-174 517.41,-174 517.41,-194"/>
<text text-anchor="middle" x="493.18" y="-181" font-family="Helvetica,sans-Serif" font-size="10.00">petsc.h</text>
</a>
</g>
</g>
<!-- Node1&#45;&gt;Node11 -->
<g id="edge10_Node000001_Node000011" class="edge">
<title>Node1&#45;&gt;Node11</title>
<g id="a_edge10_Node000001_Node000011"><a xlink:title=" ">
<path fill="none" stroke="#63b8ff" d="M385.29,-235.86C409.17,-224.6 441.46,-209.38 464.47,-198.53"/>
<polygon fill="#63b8ff" stroke="#63b8ff" points="466.17,-201.6 473.72,-194.17 463.18,-195.27 466.17,-201.6"/>
</a>
</g>
</g>
<!-- Node12 -->
<g id="Node000012" class="node">
<title>Node12</title>
<g id="a_Node000012"><a xlink:title=" ">
<polygon fill="#e0e0e0" stroke="#999999" points="585.07,-194 535.28,-194 535.28,-174 585.07,-174 585.07,-194"/>
<text text-anchor="middle" x="560.17" y="-181" font-family="Helvetica,sans-Serif" font-size="10.00">random</text>
</a>
</g>
</g>
<!-- Node1&#45;&gt;Node12 -->
<g id="edge11_Node000001_Node000012" class="edge">
<title>Node1&#45;&gt;Node12</title>
<g id="a_edge11_Node000001_Node000012"><a xlink:title=" ">
<path fill="none" stroke="#63b8ff" d="M411.05,-235.95C444.95,-226.63 488.39,-213.84 526.17,-200 527.84,-199.39 529.54,-198.74 531.25,-198.06"/>
<polygon fill="#63b8ff" stroke="#63b8ff" points="533.06,-201.1 540.93,-194 530.36,-194.64 533.06,-201.1"/>
</a>
</g>
</g>
<!-- Node3 -->
<g id="Node000003" class="node">
<title>Node3</title>
<g id="a_Node000003"><a xlink:href="Declare_8hpp.html" target="_top" xlink:title="This file is used to declare the class vvm.">
<polygon fill="white" stroke="#666666" points="121.08,-132 51.27,-132 51.27,-112 121.08,-112 121.08,-132"/>
<text text-anchor="middle" x="86.17" y="-119" font-family="Helvetica,sans-Serif" font-size="10.00">Declare.hpp</text>
</a>
</g>
</g>
<!-- Node2&#45;&gt;Node3 -->
<g id="edge2_Node000002_Node000003" class="edge">
<title>Node2&#45;&gt;Node3</title>
<g id="a_edge2_Node000002_Node000003"><a xlink:title=" ">
<path fill="none" stroke="#63b8ff" d="M86.17,-173.89C86.17,-165.52 86.17,-152.84 86.17,-142.23"/>
<polygon fill="#63b8ff" stroke="#63b8ff" points="89.68,-142.2 86.17,-132.2 82.68,-142.2 89.68,-142.2"/>
</a>
</g>
</g>
<!-- Node4 -->
<g id="Node000004" class="node">
<title>Node4</title>
<g id="a_Node000004"><a xlink:href="Const_8hpp.html" target="_top" xlink:title="Here are some constants defined in this model. You don&#39;t need to change them.">
<polygon fill="white" stroke="#666666" points="62.75,-76 1.6,-76 1.6,-56 62.75,-56 62.75,-76"/>
<text text-anchor="middle" x="32.17" y="-63" font-family="Helvetica,sans-Serif" font-size="10.00">Const.hpp</text>
</a>
</g>
</g>
<!-- Node3&#45;&gt;Node4 -->
<g id="edge3_Node000003_Node000004" class="edge">
<title>Node3&#45;&gt;Node4</title>
<g id="a_edge3_Node000003_Node000004"><a xlink:title=" ">
<path fill="none" stroke="#63b8ff" d="M76.77,-111.59C69.03,-103.85 57.86,-92.69 48.64,-83.47"/>
<polygon fill="#63b8ff" stroke="#63b8ff" points="51.02,-80.89 41.47,-76.3 46.07,-85.84 51.02,-80.89"/>
</a>
</g>
</g>
<!-- Node6 -->
<g id="Node000006" class="node">
<title>Node6</title>
<g id="a_Node000006"><a xlink:title=" ">
<polygon fill="#e0e0e0" stroke="#999999" points="199.48,-76 80.87,-76 80.87,-56 199.48,-56 199.48,-76"/>
<text text-anchor="middle" x="140.18" y="-63" font-family="Helvetica,sans-Serif" font-size="10.00">../include/Eigen/Sparse</text>
</a>
</g>
</g>
<!-- Node3&#45;&gt;Node6 -->
<g id="edge5_Node000003_Node000006" class="edge">
<title>Node3&#45;&gt;Node6</title>
<g id="a_edge5_Node000003_Node000006"><a xlink:title=" ">
<path fill="none" stroke="#63b8ff" d="M95.58,-111.59C103.32,-103.85 114.49,-92.69 123.71,-83.47"/>
<polygon fill="#63b8ff" stroke="#63b8ff" points="126.28,-85.84 130.88,-76.3 121.33,-80.89 126.28,-85.84"/>
</a>
</g>
</g>
<!-- Node5 -->
<g id="Node000005" class="node">
<title>Node5</title>
<g id="a_Node000005"><a xlink:href="Config_8hpp.html" target="_top" xlink:title="Here are the parameters for the model that you can tune them to fit your needs.">
<polygon fill="white" stroke="#666666" points="64.53,-20 -0.18,-20 -0.18,0 64.53,0 64.53,-20"/>
<text text-anchor="middle" x="32.17" y="-7" font-family="Helvetica,sans-Serif" font-size="10.00">Config.hpp</text>
</a>
</g>
</g>
<!-- Node4&#45;&gt;Node5 -->
<g id="edge4_Node000004_Node000005" class="edge">
<title>Node4&#45;&gt;Node5</title>
<g id="a_edge4_Node000004_Node000005"><a xlink:title=" ">
<path fill="none" stroke="#63b8ff" d="M32.17,-55.59C32.17,-48.7 32.17,-39.1 32.17,-30.57"/>
<polygon fill="#63b8ff" stroke="#63b8ff" points="35.68,-30.3 32.17,-20.3 28.68,-30.3 35.68,-30.3"/>
</a>
</g>
</g>
</g>
</svg>
