<?xml version="1.0" encoding="UTF-8" standalone="no"?>
<!DOCTYPE svg PUBLIC "-//W3C//DTD SVG 1.1//EN"
 "http://www.w3.org/Graphics/SVG/1.1/DTD/svg11.dtd">
<!-- Generated by graphviz version 2.46.0 (20210118.1747)
 -->
<!-- Title: main Pages: 1 -->
<svg width="687pt" height="906pt"
 viewBox="0.00 0.00 687.08 905.65" xmlns="http://www.w3.org/2000/svg" xmlns:xlink="http://www.w3.org/1999/xlink">
<g id="graph0" class="graph" transform="scale(1 1) rotate(0) translate(4 901.65)">
<title>main</title>
<!-- Node1 -->
<g id="Node000001" class="node">
<title>Node1</title>
<g id="a_Node000001"><a xlink:title=" ">
<polygon fill="#999999" stroke="#666666" points="37.5,-500.65 0.17,-500.65 0.17,-480.65 37.5,-480.65 37.5,-500.65"/>
<text text-anchor="middle" x="18.83" y="-487.65" font-family="Helvetica,sans-Serif" font-size="10.00">main</text>
</a>
</g>
</g>
<!-- Node2 -->
<g id="Node000002" class="node">
<title>Node2</title>
<g id="a_Node000002"><a xlink:href="classvvm_1_1PoissonSolver.html#a741f59b97f794a79a15fd919b3b2501e" target="_top" xlink:title=" ">
<polygon fill="white" stroke="#666666" points="339.09,-771.65 235.52,-771.65 235.52,-739.65 339.09,-739.65 339.09,-771.65"/>
<text text-anchor="start" x="243.41" y="-758.65" font-family="Helvetica,sans-Serif" font-size="10.00">vvm::PoissonSolver</text>
<text text-anchor="middle" x="287.3" y="-746.65" font-family="Helvetica,sans-Serif" font-size="10.00">::cal_u</text>
</a>
</g>
</g>
<!-- Node1&#45;&gt;Node2 -->
<g id="edge1_Node000001_Node000002" class="edge">
<title>Node1&#45;&gt;Node2</title>
<g id="a_edge1_Node000001_Node000002"><a xlink:title=" ">
<path fill="none" stroke="#63b8ff" d="M28.05,-500.73C55.1,-533.62 144.59,-640.06 230.67,-715.65 237.76,-721.87 245.8,-728.08 253.51,-733.69"/>
<polygon fill="#63b8ff" stroke="#63b8ff" points="251.52,-736.56 261.7,-739.5 255.58,-730.86 251.52,-736.56"/>
</a>
</g>
</g>
<!-- Node4 -->
<g id="Node000004" class="node">
<title>Node4</title>
<g id="a_Node000004"><a xlink:href="classvvm_1_1PoissonSolver.html#a03f3af096f7aa1861ee6512f41b5298f" target="_top" xlink:title=" ">
<polygon fill="white" stroke="#666666" points="339.09,-897.65 235.52,-897.65 235.52,-865.65 339.09,-865.65 339.09,-897.65"/>
<text text-anchor="start" x="243.41" y="-884.65" font-family="Helvetica,sans-Serif" font-size="10.00">vvm::PoissonSolver</text>
<text text-anchor="middle" x="287.3" y="-872.65" font-family="Helvetica,sans-Serif" font-size="10.00">::cal_w</text>
</a>
</g>
</g>
<!-- Node1&#45;&gt;Node4 -->
<g id="edge3_Node000001_Node000004" class="edge">
<title>Node1&#45;&gt;Node4</title>
<g id="a_edge3_Node000001_Node000004"><a xlink:title=" ">
<path fill="none" stroke="#63b8ff" d="M20.28,-501C22.13,-533.77 31.18,-637.3 73.67,-708.65 115.5,-778.9 196.95,-832.78 246.01,-860.62"/>
<polygon fill="#63b8ff" stroke="#63b8ff" points="244.34,-863.69 254.77,-865.51 247.75,-857.58 244.34,-863.69"/>
</a>
</g>
</g>
<!-- Node6 -->
<g id="Node000006" class="node">
<title>Node6</title>
<g id="a_Node000006"><a xlink:href="classOutput.html#a4a0eecfc03693584192bc8e78c2f872b" target="_top" xlink:title=" ">
<polygon fill="white" stroke="#666666" points="181.58,-424.65 86.76,-424.65 86.76,-392.65 181.58,-392.65 181.58,-424.65"/>
<text text-anchor="start" x="94.71" y="-411.65" font-family="Helvetica,sans-Serif" font-size="10.00">Output::create_all</text>
<text text-anchor="middle" x="134.17" y="-399.65" font-family="Helvetica,sans-Serif" font-size="10.00">_directory</text>
</a>
</g>
</g>
<!-- Node1&#45;&gt;Node6 -->
<g id="edge5_Node000001_Node000006" class="edge">
<title>Node1&#45;&gt;Node6</title>
<g id="a_edge5_Node000001_Node000006"><a xlink:title=" ">
<path fill="none" stroke="#63b8ff" d="M27.2,-480.57C36.74,-468.13 54.42,-446.98 73.67,-433.65 75.76,-432.2 77.95,-430.81 80.21,-429.48"/>
<polygon fill="#63b8ff" stroke="#63b8ff" points="82.02,-432.48 89.16,-424.65 78.7,-426.32 82.02,-432.48"/>
</a>
</g>
</g>
<!-- Node7 -->
<g id="Node000007" class="node">
<title>Node7</title>
<g id="a_Node000007"><a xlink:href="classInit.html#a4b373a923fb486df695e82608ff081c4" target="_top" xlink:title=" ">
<polygon fill="white" stroke="#666666" points="164.02,-462.65 104.32,-462.65 104.32,-442.65 164.02,-442.65 164.02,-462.65"/>
<text text-anchor="middle" x="134.17" y="-449.65" font-family="Helvetica,sans-Serif" font-size="10.00">Init::Init1d</text>
</a>
</g>
</g>
<!-- Node1&#45;&gt;Node7 -->
<g id="edge6_Node000001_Node000007" class="edge">
<title>Node1&#45;&gt;Node7</title>
<g id="a_edge6_Node000001_Node000007"><a xlink:title=" ">
<path fill="none" stroke="#63b8ff" d="M37.73,-484.18C48.18,-480.44 61.64,-475.69 73.67,-471.65 80.37,-469.4 87.51,-467.06 94.44,-464.83"/>
<polygon fill="#63b8ff" stroke="#63b8ff" points="95.9,-468.04 104.36,-461.66 93.77,-461.37 95.9,-468.04"/>
</a>
</g>
</g>
<!-- Node10 -->
<g id="Node000010" class="node">
<title>Node10</title>
<g id="a_Node000010"><a xlink:href="classInit.html#a622540f0e2606ee86b781a8eb8f5a67c" target="_top" xlink:title=" ">
<polygon fill="white" stroke="#666666" points="317.15,-809.65 257.45,-809.65 257.45,-789.65 317.15,-789.65 317.15,-809.65"/>
<text text-anchor="middle" x="287.3" y="-796.65" font-family="Helvetica,sans-Serif" font-size="10.00">Init::Init2d</text>
</a>
</g>
</g>
<!-- Node1&#45;&gt;Node10 -->
<g id="edge10_Node000001_Node000010" class="edge">
<title>Node1&#45;&gt;Node10</title>
<g id="a_edge10_Node000001_Node000010"><a xlink:title=" ">
<path fill="none" stroke="#63b8ff" d="M21.95,-500.74C27.43,-525.19 43.74,-588.88 73.67,-633.65 126.78,-713.12 148.72,-731.44 230.67,-780.65 235.94,-783.81 241.81,-786.54 247.7,-788.86"/>
<polygon fill="#63b8ff" stroke="#63b8ff" points="246.95,-792.31 257.55,-792.39 249.31,-785.72 246.95,-792.31"/>
</a>
</g>
</g>
<!-- Node11 -->
<g id="Node000011" class="node">
<title>Node11</title>
<g id="a_Node000011"><a xlink:href="classOutput.html#ac9377ae1019ac4ee88877197685d19fe" target="_top" xlink:title=" ">
<polygon fill="white" stroke="#666666" points="176.52,-374.65 91.82,-374.65 91.82,-354.65 176.52,-354.65 176.52,-374.65"/>
<text text-anchor="middle" x="134.17" y="-361.65" font-family="Helvetica,sans-Serif" font-size="10.00">Output::printInit</text>
</a>
</g>
</g>
<!-- Node1&#45;&gt;Node11 -->
<g id="edge13_Node000001_Node000011" class="edge">
<title>Node1&#45;&gt;Node11</title>
<g id="a_edge13_Node000001_Node000011"><a xlink:title=" ">
<path fill="none" stroke="#63b8ff" d="M22.13,-480.46C27.43,-459.28 42.52,-410.26 73.67,-383.65 76.39,-381.33 79.4,-379.28 82.57,-377.49"/>
<polygon fill="#63b8ff" stroke="#63b8ff" points="84.34,-380.53 91.87,-373.07 81.34,-374.21 84.34,-380.53"/>
</a>
</g>
</g>
<!-- Node12 -->
<g id="Node000012" class="node">
<title>Node12</title>
<g id="a_Node000012"><a xlink:href="classIteration.html#ae341a02edb030229055de37fd518ac89" target="_top" xlink:title=" ">
<polygon fill="white" stroke="#666666" points="194.68,-500.65 73.66,-500.65 73.66,-480.65 194.68,-480.65 194.68,-500.65"/>
<text text-anchor="middle" x="134.17" y="-487.65" font-family="Helvetica,sans-Serif" font-size="10.00">Iteration::TimeMarching</text>
</a>
</g>
</g>
<!-- Node1&#45;&gt;Node12 -->
<g id="edge14_Node000001_Node000012" class="edge">
<title>Node1&#45;&gt;Node12</title>
<g id="a_edge14_Node000001_Node000012"><a xlink:title=" ">
<path fill="none" stroke="#63b8ff" d="M37.54,-490.65C44.84,-490.65 53.82,-490.65 63.31,-490.65"/>
<polygon fill="#63b8ff" stroke="#63b8ff" points="63.35,-494.15 73.35,-490.65 63.35,-487.15 63.35,-494.15"/>
</a>
</g>
</g>
<!-- Node3 -->
<g id="Node000003" class="node">
<title>Node3</title>
<g id="a_Node000003"><a xlink:href="classvvm.html#a0f7695aeeea1dac87393db3edfc7acd8" target="_top" xlink:title=" ">
<polygon fill="white" stroke="#666666" points="511.29,-566.65 380.15,-566.65 380.15,-534.65 511.29,-534.65 511.29,-566.65"/>
<text text-anchor="start" x="387.93" y="-553.65" font-family="Helvetica,sans-Serif" font-size="10.00">vvm::BoundaryProcess2D</text>
<text text-anchor="middle" x="445.72" y="-541.65" font-family="Helvetica,sans-Serif" font-size="10.00">_center</text>
</a>
</g>
</g>
<!-- Node2&#45;&gt;Node3 -->
<g id="edge2_Node000002_Node000003" class="edge">
<title>Node2&#45;&gt;Node3</title>
<g id="a_edge2_Node000002_Node000003"><a xlink:title=" ">
<path fill="none" stroke="#63b8ff" d="M325.01,-739.63C331.77,-735.67 338.43,-731 343.93,-725.65 389.08,-681.75 420.49,-613.3 435.21,-576.37"/>
<polygon fill="#63b8ff" stroke="#63b8ff" points="438.56,-577.42 438.92,-566.83 432.04,-574.88 438.56,-577.42"/>
</a>
</g>
</g>
<!-- Node5 -->
<g id="Node000005" class="node">
<title>Node5</title>
<g id="a_Node000005"><a xlink:href="classvvm.html#a88f21d908dca06f5c725da83a36caf96" target="_top" xlink:title=" ">
<polygon fill="white" stroke="#666666" points="678.87,-815.65 547.72,-815.65 547.72,-783.65 678.87,-783.65 678.87,-815.65"/>
<text text-anchor="start" x="555.51" y="-802.65" font-family="Helvetica,sans-Serif" font-size="10.00">vvm::BoundaryProcess2D</text>
<text text-anchor="middle" x="613.29" y="-790.65" font-family="Helvetica,sans-Serif" font-size="10.00">_westdown</text>
</a>
</g>
</g>
<!-- Node4&#45;&gt;Node5 -->
<g id="edge4_Node000004_Node000005" class="edge">
<title>Node4&#45;&gt;Node5</title>
<g id="a_edge4_Node000004_Node000005"><a xlink:title=" ">
<path fill="none" stroke="#63b8ff" d="M339.46,-879.74C385.42,-876.87 454.26,-869.67 511.51,-851.65 534.91,-844.28 559.41,-831.77 578.39,-820.86"/>
<polygon fill="#63b8ff" stroke="#63b8ff" points="580.39,-823.75 587.24,-815.67 576.84,-817.71 580.39,-823.75"/>
</a>
</g>
</g>
<!-- Node8 -->
<g id="Node000008" class="node">
<title>Node8</title>
<g id="a_Node000008"><a xlink:href="classvvm.html#ace6f793034804810c37b0363b70648ed" target="_top" xlink:title=" ">
<polygon fill="white" stroke="#666666" points="511.29,-59.65 380.15,-59.65 380.15,-27.65 511.29,-27.65 511.29,-59.65"/>
<text text-anchor="start" x="387.93" y="-46.65" font-family="Helvetica,sans-Serif" font-size="10.00">vvm::BoundaryProcess1D</text>
<text text-anchor="middle" x="445.72" y="-34.65" font-family="Helvetica,sans-Serif" font-size="10.00">_center</text>
</a>
</g>
</g>
<!-- Node7&#45;&gt;Node8 -->
<g id="edge7_Node000007_Node000008" class="edge">
<title>Node7&#45;&gt;Node8</title>
<g id="a_edge7_Node000007_Node000008"><a xlink:title=" ">
<path fill="none" stroke="#63b8ff" d="M163.88,-450.25C175.19,-447.78 187.22,-442.96 194.67,-433.65 251.67,-362.4 163.39,-86.27 230.67,-24.65 277,17.78 355,-3.83 402.96,-23.59"/>
<polygon fill="#63b8ff" stroke="#63b8ff" points="401.85,-26.92 412.42,-27.63 404.59,-20.49 401.85,-26.92"/>
</a>
</g>
</g>
<!-- Node9 -->
<g id="Node000009" class="node">
<title>Node9</title>
<g id="a_Node000009"><a xlink:href="classInit.html#a18f209b227e2b6894dcd45969eec4339" target="_top" xlink:title=" ">
<polygon fill="white" stroke="#666666" points="324.04,-53.65 250.57,-53.65 250.57,-33.65 324.04,-33.65 324.04,-53.65"/>
<text text-anchor="middle" x="287.3" y="-40.65" font-family="Helvetica,sans-Serif" font-size="10.00">Init::LoadFile</text>
</a>
</g>
</g>
<!-- Node7&#45;&gt;Node9 -->
<g id="edge8_Node000007_Node000009" class="edge">
<title>Node7&#45;&gt;Node9</title>
<g id="a_edge8_Node000007_Node000009"><a xlink:title=" ">
<path fill="none" stroke="#63b8ff" d="M163.84,-450.22C175.14,-447.74 187.18,-442.93 194.67,-433.65 298.74,-304.75 127.9,-192.58 230.67,-62.65 233.57,-58.99 237.2,-56.04 241.21,-53.65"/>
<polygon fill="#63b8ff" stroke="#63b8ff" points="242.93,-56.71 250.47,-49.27 239.93,-50.38 242.93,-56.71"/>
</a>
</g>
</g>
<!-- Node9&#45;&gt;Node8 -->
<g id="edge9_Node000009_Node000008" class="edge">
<title>Node9&#45;&gt;Node8</title>
<g id="a_edge9_Node000009_Node000008"><a xlink:title=" ">
<path fill="none" stroke="#63b8ff" d="M324.19,-43.65C337.8,-43.65 353.86,-43.65 369.75,-43.65"/>
<polygon fill="#63b8ff" stroke="#63b8ff" points="370.13,-47.15 380.13,-43.65 370.13,-40.15 370.13,-47.15"/>
</a>
</g>
</g>
<!-- Node10&#45;&gt;Node3 -->
<g id="edge11_Node000010_Node000003" class="edge">
<title>Node10&#45;&gt;Node3</title>
<g id="a_edge11_Node000010_Node000003"><a xlink:title=" ">
<path fill="none" stroke="#63b8ff" d="M317.02,-794.69C326.49,-791.88 336.5,-787.49 343.93,-780.65 405.12,-724.39 431.07,-624.37 440.33,-576.96"/>
<polygon fill="#63b8ff" stroke="#63b8ff" points="443.82,-577.36 442.2,-566.89 436.93,-576.08 443.82,-577.36"/>
</a>
</g>
</g>
<!-- Node10&#45;&gt;Node5 -->
<g id="edge12_Node000010_Node000005" class="edge">
<title>Node10&#45;&gt;Node5</title>
<g id="a_edge12_Node000010_Node000005"><a xlink:title=" ">
<path fill="none" stroke="#63b8ff" d="M317.06,-799.65C366.06,-799.65 467.27,-799.65 537.43,-799.65"/>
<polygon fill="#63b8ff" stroke="#63b8ff" points="537.54,-803.15 547.54,-799.65 537.54,-796.15 537.54,-803.15"/>
</a>
</g>
</g>
<!-- Node12&#45;&gt;Node2 -->
<g id="edge19_Node000012_Node000002" class="edge">
<title>Node12&#45;&gt;Node2</title>
<g id="a_edge19_Node000012_Node000002"><a xlink:title=" ">
<path fill="none" stroke="#63b8ff" d="M144.03,-500.89C157.03,-516.43 181.19,-547.4 194.67,-577.65 222.23,-639.48 189.31,-672.06 230.67,-725.65 232.85,-728.47 235.37,-731.06 238.12,-733.43"/>
<polygon fill="#63b8ff" stroke="#63b8ff" points="236.21,-736.38 246.33,-739.54 240.39,-730.76 236.21,-736.38"/>
</a>
</g>
</g>
<!-- Node12&#45;&gt;Node3 -->
<g id="edge17_Node000012_Node000003" class="edge">
<title>Node12&#45;&gt;Node3</title>
<g id="a_edge17_Node000012_Node000003"><a xlink:title=" ">
<path fill="none" stroke="#63b8ff" d="M143.57,-500.74C156.2,-516.35 180.14,-547.68 194.67,-577.65 218.05,-625.84 187.52,-660.94 230.67,-692.65 271.24,-722.46 299.21,-715.75 343.93,-692.65 391.16,-668.26 421.05,-610.39 435.15,-576.54"/>
<polygon fill="#63b8ff" stroke="#63b8ff" points="438.55,-577.45 439.02,-566.87 432.05,-574.85 438.55,-577.45"/>
</a>
</g>
</g>
<!-- Node12&#45;&gt;Node4 -->
<g id="edge20_Node000012_Node000004" class="edge">
<title>Node12&#45;&gt;Node4</title>
<g id="a_edge20_Node000012_Node000004"><a xlink:title=" ">
<path fill="none" stroke="#63b8ff" d="M135.06,-500.81C135.08,-546.74 140.79,-737.59 230.67,-851.65 232.98,-854.58 235.66,-857.26 238.57,-859.71"/>
<polygon fill="#63b8ff" stroke="#63b8ff" points="236.56,-862.58 246.7,-865.64 240.69,-856.92 236.56,-862.58"/>
</a>
</g>
</g>
<!-- Node12&#45;&gt;Node5 -->
<g id="edge18_Node000012_Node000005" class="edge">
<title>Node12&#45;&gt;Node5</title>
<g id="a_edge18_Node000012_Node000005"><a xlink:title=" ">
<path fill="none" stroke="#63b8ff" d="M137.91,-500.66C152.82,-555.11 223.88,-813.55 230.67,-818.65 277.37,-853.69 440.27,-831.56 537.5,-814.31"/>
<polygon fill="#63b8ff" stroke="#63b8ff" points="538.34,-817.72 547.56,-812.5 537.1,-810.83 538.34,-817.72"/>
</a>
</g>
</g>
<!-- Node13 -->
<g id="Node000013" class="node">
<title>Node13</title>
<g id="a_Node000013"><a xlink:href="classvvm_1_1MicroPhysics.html#a124b68c95137705e772e933f3ff388c9" target="_top" xlink:title=" ">
<polygon fill="white" stroke="#666666" points="339.63,-367.65 234.97,-367.65 234.97,-335.65 339.63,-335.65 339.63,-367.65"/>
<text text-anchor="start" x="243.14" y="-354.65" font-family="Helvetica,sans-Serif" font-size="10.00">vvm::MicroPhysics::</text>
<text text-anchor="middle" x="287.3" y="-342.65" font-family="Helvetica,sans-Serif" font-size="10.00">accretion</text>
</a>
</g>
</g>
<!-- Node12&#45;&gt;Node13 -->
<g id="edge15_Node000012_Node000013" class="edge">
<title>Node12&#45;&gt;Node13</title>
<g id="a_edge15_Node000012_Node000013"><a xlink:title=" ">
<path fill="none" stroke="#63b8ff" d="M181.34,-480.57C186.2,-478.2 190.78,-475.27 194.67,-471.65 226.21,-442.29 202,-413.8 230.67,-381.65 233.31,-378.69 236.31,-375.98 239.52,-373.49"/>
<polygon fill="#63b8ff" stroke="#63b8ff" points="241.57,-376.32 247.83,-367.76 237.6,-370.55 241.57,-376.32"/>
</a>
</g>
</g>
<!-- Node14 -->
<g id="Node000014" class="node">
<title>Node14</title>
<g id="a_Node000014"><a xlink:href="classvvm_1_1MicroPhysics.html#a30ea0fb37f59a0c9196225aa460049e1" target="_top" xlink:title=" ">
<polygon fill="white" stroke="#666666" points="339.63,-317.65 234.97,-317.65 234.97,-285.65 339.63,-285.65 339.63,-317.65"/>
<text text-anchor="start" x="243.14" y="-304.65" font-family="Helvetica,sans-Serif" font-size="10.00">vvm::MicroPhysics::</text>
<text text-anchor="middle" x="287.3" y="-292.65" font-family="Helvetica,sans-Serif" font-size="10.00">autoconversion</text>
</a>
</g>
</g>
<!-- Node12&#45;&gt;Node14 -->
<g id="edge16_Node000012_Node000014" class="edge">
<title>Node12&#45;&gt;Node14</title>
<g id="a_edge16_Node000012_Node000014"><a xlink:title=" ">
<path fill="none" stroke="#63b8ff" d="M182.72,-480.62C187.16,-478.24 191.26,-475.29 194.67,-471.65 240.06,-423.18 188.11,-377.61 230.67,-326.65 231.39,-325.8 232.13,-324.97 232.91,-324.17"/>
<polygon fill="#63b8ff" stroke="#63b8ff" points="235.23,-326.8 240.65,-317.7 230.74,-321.43 235.23,-326.8"/>
</a>
</g>
</g>
<!-- Node15 -->
<g id="Node000015" class="node">
<title>Node15</title>
<g id="a_Node000015"><a xlink:href="classvvm_1_1MicroPhysics.html#a0e14e9f52aabebc378538378e39da16f" target="_top" xlink:title=" ">
<polygon fill="white" stroke="#666666" points="339.63,-267.65 234.97,-267.65 234.97,-235.65 339.63,-235.65 339.63,-267.65"/>
<text text-anchor="start" x="243.14" y="-254.65" font-family="Helvetica,sans-Serif" font-size="10.00">vvm::MicroPhysics::</text>
<text text-anchor="middle" x="287.3" y="-242.65" font-family="Helvetica,sans-Serif" font-size="10.00">condensation</text>
</a>
</g>
</g>
<!-- Node12&#45;&gt;Node15 -->
<g id="edge21_Node000012_Node000015" class="edge">
<title>Node12&#45;&gt;Node15</title>
<g id="a_edge21_Node000012_Node000015"><a xlink:title=" ">
<path fill="none" stroke="#63b8ff" d="M183.52,-480.51C187.69,-478.14 191.52,-475.23 194.67,-471.65 252.93,-405.52 176.26,-345.97 230.67,-276.65 231.26,-275.9 231.87,-275.18 232.51,-274.47"/>
<polygon fill="#63b8ff" stroke="#63b8ff" points="234.99,-276.95 240.17,-267.71 230.36,-271.7 234.99,-276.95"/>
</a>
</g>
</g>
<!-- Node16 -->
<g id="Node000016" class="node">
<title>Node16</title>
<g id="a_Node000016"><a xlink:href="classvvm.html#ac6e47dca620f5b32dd6b0d1be432a347" target="_top" xlink:title=" ">
<polygon fill="white" stroke="#666666" points="326.58,-217.65 248.02,-217.65 248.02,-197.65 326.58,-197.65 326.58,-217.65"/>
<text text-anchor="middle" x="287.3" y="-204.65" font-family="Helvetica,sans-Serif" font-size="10.00">vvm::Diffusion</text>
</a>
</g>
</g>
<!-- Node12&#45;&gt;Node16 -->
<g id="edge22_Node000012_Node000016" class="edge">
<title>Node12&#45;&gt;Node16</title>
<g id="a_edge22_Node000012_Node000016"><a xlink:title=" ">
<path fill="none" stroke="#63b8ff" d="M183.65,-480.62C187.8,-478.24 191.59,-475.29 194.67,-471.65 265.9,-387.74 160.3,-311.27 230.67,-226.65 233,-223.86 235.75,-221.48 238.76,-219.44"/>
<polygon fill="#63b8ff" stroke="#63b8ff" points="240.67,-222.39 247.83,-214.59 237.36,-216.22 240.67,-222.39"/>
</a>
</g>
</g>
<!-- Node17 -->
<g id="Node000017" class="node">
<title>Node17</title>
<g id="a_Node000017"><a xlink:href="classvvm_1_1MicroPhysics.html#aaaad239d8aa4db479cde21ce4ce12a65" target="_top" xlink:title=" ">
<polygon fill="white" stroke="#666666" points="339.63,-179.65 234.97,-179.65 234.97,-147.65 339.63,-147.65 339.63,-179.65"/>
<text text-anchor="start" x="243.14" y="-166.65" font-family="Helvetica,sans-Serif" font-size="10.00">vvm::MicroPhysics::</text>
<text text-anchor="middle" x="287.3" y="-154.65" font-family="Helvetica,sans-Serif" font-size="10.00">evaporation</text>
</a>
</g>
</g>
<!-- Node12&#45;&gt;Node17 -->
<g id="edge23_Node000012_Node000017" class="edge">
<title>Node12&#45;&gt;Node17</title>
<g id="a_edge23_Node000012_Node000017"><a xlink:title=" ">
<path fill="none" stroke="#63b8ff" d="M184.01,-480.52C188.03,-478.15 191.69,-475.23 194.67,-471.65 275.78,-374.2 155.21,-290.54 230.67,-188.65 231.15,-188.01 231.64,-187.39 232.15,-186.78"/>
<polygon fill="#63b8ff" stroke="#63b8ff" points="234.78,-189.12 239.71,-179.74 230.01,-184 234.78,-189.12"/>
</a>
</g>
</g>
<!-- Node18 -->
<g id="Node000018" class="node">
<title>Node18</title>
<g id="a_Node000018"><a xlink:href="classvvm_1_1MicroPhysics.html#aa6a9e66b8c45fa524936db5a225d680e" target="_top" xlink:title=" ">
<polygon fill="white" stroke="#666666" points="504.35,-478.65 387.09,-478.65 387.09,-446.65 504.35,-446.65 504.35,-478.65"/>
<text text-anchor="start" x="395.15" y="-465.65" font-family="Helvetica,sans-Serif" font-size="10.00">vvm::MicroPhysics::</text>
<text text-anchor="middle" x="445.72" y="-453.65" font-family="Helvetica,sans-Serif" font-size="10.00">NegativeValueProcess</text>
</a>
</g>
</g>
<!-- Node12&#45;&gt;Node18 -->
<g id="edge24_Node000012_Node000018" class="edge">
<title>Node12&#45;&gt;Node18</title>
<g id="a_edge24_Node000012_Node000018"><a xlink:title=" ">
<path fill="none" stroke="#63b8ff" d="M179.2,-480.52C184.72,-478.15 190.04,-475.23 194.67,-471.65 218.38,-453.32 204.43,-429.11 230.67,-414.65 274.76,-390.35 294.94,-403.08 343.93,-414.65 361.34,-418.76 363.81,-424.89 379.93,-432.65 386.54,-435.83 393.55,-439.14 400.42,-442.35"/>
<polygon fill="#63b8ff" stroke="#63b8ff" points="399.12,-445.61 409.66,-446.65 402.07,-439.26 399.12,-445.61"/>
</a>
</g>
</g>
<!-- Node19 -->
<g id="Node000019" class="node">
<title>Node19</title>
<g id="a_Node000019"><a xlink:href="classOutput.html#a29f4af25257a72a15b771089d806fbb3" target="_top" xlink:title=" ">
<polygon fill="white" stroke="#666666" points="335.29,-683.65 239.32,-683.65 239.32,-663.65 335.29,-663.65 335.29,-683.65"/>
<text text-anchor="middle" x="287.3" y="-670.65" font-family="Helvetica,sans-Serif" font-size="10.00">Output::output_nc</text>
</a>
</g>
</g>
<!-- Node12&#45;&gt;Node19 -->
<g id="edge25_Node000012_Node000019" class="edge">
<title>Node12&#45;&gt;Node19</title>
<g id="a_edge25_Node000012_Node000019"><a xlink:title=" ">
<path fill="none" stroke="#63b8ff" d="M142.88,-500.74C154.8,-516.61 178.08,-548.57 194.67,-577.65 213.4,-610.46 202.56,-629.42 230.67,-654.65 232.18,-656 233.79,-657.26 235.48,-658.43"/>
<polygon fill="#63b8ff" stroke="#63b8ff" points="234.02,-661.63 244.43,-663.57 237.5,-655.56 234.02,-661.63"/>
</a>
</g>
</g>
<!-- Node20 -->
<g id="Node000020" class="node">
<title>Node20</title>
<g id="a_Node000020"><a xlink:href="classIteration.html#a6b9d511fea92c2569c8da11c1a86a066" target="_top" xlink:title=" ">
<polygon fill="white" stroke="#666666" points="331,-519.65 243.61,-519.65 243.61,-499.65 331,-499.65 331,-519.65"/>
<text text-anchor="middle" x="287.3" y="-506.65" font-family="Helvetica,sans-Serif" font-size="10.00">Iteration::pqc_pt</text>
</a>
</g>
</g>
<!-- Node12&#45;&gt;Node20 -->
<g id="edge26_Node000012_Node000020" class="edge">
<title>Node12&#45;&gt;Node20</title>
<g id="a_edge26_Node000012_Node000020"><a xlink:title=" ">
<path fill="none" stroke="#63b8ff" d="M194.9,-498.16C207.54,-499.75 220.79,-501.41 233.16,-502.97"/>
<polygon fill="#63b8ff" stroke="#63b8ff" points="232.95,-506.47 243.31,-504.24 233.83,-499.52 232.95,-506.47"/>
</a>
</g>
</g>
<!-- Node24 -->
<g id="Node000024" class="node">
<title>Node24</title>
<g id="a_Node000024"><a xlink:href="classIteration.html#ac30ea16c9e339a59c78637fa0753f775" target="_top" xlink:title=" ">
<polygon fill="white" stroke="#666666" points="330.33,-443.65 244.28,-443.65 244.28,-423.65 330.33,-423.65 330.33,-443.65"/>
<text text-anchor="middle" x="287.3" y="-430.65" font-family="Helvetica,sans-Serif" font-size="10.00">Iteration::pqr_pt</text>
</a>
</g>
</g>
<!-- Node12&#45;&gt;Node24 -->
<g id="edge32_Node000012_Node000024" class="edge">
<title>Node12&#45;&gt;Node24</title>
<g id="a_edge32_Node000012_Node000024"><a xlink:title=" ">
<path fill="none" stroke="#63b8ff" d="M170.16,-480.61C178.3,-477.97 186.87,-474.92 194.67,-471.65 211.36,-464.65 214.06,-459.82 230.67,-452.65 235.12,-450.73 239.84,-448.87 244.57,-447.11"/>
<polygon fill="#63b8ff" stroke="#63b8ff" points="245.97,-450.32 254.21,-443.66 243.61,-443.73 245.97,-450.32"/>
</a>
</g>
</g>
<!-- Node26 -->
<g id="Node000026" class="node">
<title>Node26</title>
<g id="a_Node000026"><a xlink:href="classIteration.html#ab92cc262ad139b14958847277b88d017" target="_top" xlink:title=" ">
<polygon fill="white" stroke="#666666" points="331,-481.65 243.61,-481.65 243.61,-461.65 331,-461.65 331,-481.65"/>
<text text-anchor="middle" x="287.3" y="-468.65" font-family="Helvetica,sans-Serif" font-size="10.00">Iteration::pqv_pt</text>
</a>
</g>
</g>
<!-- Node12&#45;&gt;Node26 -->
<g id="edge39_Node000012_Node000026" class="edge">
<title>Node12&#45;&gt;Node26</title>
<g id="a_edge39_Node000012_Node000026"><a xlink:title=" ">
<path fill="none" stroke="#63b8ff" d="M194.9,-483.14C207.54,-481.55 220.79,-479.89 233.16,-478.33"/>
<polygon fill="#63b8ff" stroke="#63b8ff" points="233.83,-481.77 243.31,-477.05 232.95,-474.83 233.83,-481.77"/>
</a>
</g>
</g>
<!-- Node27 -->
<g id="Node000027" class="node">
<title>Node27</title>
<g id="a_Node000027"><a xlink:href="classIteration.html#a7d5499ac76ee826bdda0184feb1fef5f" target="_top" xlink:title=" ">
<polygon fill="white" stroke="#666666" points="330.28,-557.65 244.33,-557.65 244.33,-537.65 330.28,-537.65 330.28,-557.65"/>
<text text-anchor="middle" x="287.3" y="-544.65" font-family="Helvetica,sans-Serif" font-size="10.00">Iteration::pth_pt</text>
</a>
</g>
</g>
<!-- Node12&#45;&gt;Node27 -->
<g id="edge43_Node000012_Node000027" class="edge">
<title>Node12&#45;&gt;Node27</title>
<g id="a_edge43_Node000012_Node000027"><a xlink:title=" ">
<path fill="none" stroke="#63b8ff" d="M159.38,-500.67C178.61,-508.53 206.24,-519.62 230.67,-528.65 235.63,-530.48 240.86,-532.35 246.05,-534.17"/>
<polygon fill="#63b8ff" stroke="#63b8ff" points="245.3,-537.61 255.89,-537.57 247.58,-530.99 245.3,-537.61"/>
</a>
</g>
</g>
<!-- Node28 -->
<g id="Node000028" class="node">
<title>Node28</title>
<g id="a_Node000028"><a xlink:href="classvvm_1_1PoissonSolver.html#a47ac6e26a9dde6ed72a178dcb92d3bab" target="_top" xlink:title=" ">
<polygon fill="white" stroke="#666666" points="339.09,-645.65 235.52,-645.65 235.52,-613.65 339.09,-613.65 339.09,-645.65"/>
<text text-anchor="start" x="243.41" y="-632.65" font-family="Helvetica,sans-Serif" font-size="10.00">vvm::PoissonSolver</text>
<text text-anchor="middle" x="287.3" y="-620.65" font-family="Helvetica,sans-Serif" font-size="10.00">::pubarTop_pt</text>
</a>
</g>
</g>
<!-- Node12&#45;&gt;Node28 -->
<g id="edge46_Node000012_Node000028" class="edge">
<title>Node12&#45;&gt;Node28</title>
<g id="a_edge46_Node000012_Node000028"><a xlink:title=" ">
<path fill="none" stroke="#63b8ff" d="M141.38,-500.8C155.07,-522.47 189.91,-573.8 230.67,-604.65 232.29,-605.87 233.97,-607.05 235.71,-608.19"/>
<polygon fill="#63b8ff" stroke="#63b8ff" points="234.31,-611.43 244.7,-613.5 237.87,-605.4 234.31,-611.43"/>
</a>
</g>
</g>
<!-- Node29 -->
<g id="Node000029" class="node">
<title>Node29</title>
<g id="a_Node000029"><a xlink:href="classIteration.html#a012d468a6070b5b181d88b226821ce5c" target="_top" xlink:title=" ">
<polygon fill="white" stroke="#666666" points="335.34,-129.65 239.27,-129.65 239.27,-109.65 335.34,-109.65 335.34,-129.65"/>
<text text-anchor="middle" x="287.3" y="-116.65" font-family="Helvetica,sans-Serif" font-size="10.00">Iteration::pzeta_pt</text>
</a>
</g>
</g>
<!-- Node12&#45;&gt;Node29 -->
<g id="edge47_Node000012_Node000029" class="edge">
<title>Node12&#45;&gt;Node29</title>
<g id="a_edge47_Node000012_Node000029"><a xlink:title=" ">
<path fill="none" stroke="#63b8ff" d="M184.08,-480.58C188.09,-478.2 191.72,-475.26 194.67,-471.65 288.82,-356.34 137.69,-254.9 230.67,-138.65 231.39,-137.75 232.15,-136.9 232.95,-136.08"/>
<polygon fill="#63b8ff" stroke="#63b8ff" points="235.32,-138.68 241.07,-129.79 231.03,-133.15 235.32,-138.68"/>
</a>
</g>
</g>
<!-- Node37 -->
<g id="Node000037" class="node">
<title>Node37</title>
<g id="a_Node000037"><a xlink:href="classvvm.html#ab10c85732f7f7256133cf53f099232c2" target="_top" xlink:title=" ">
<polygon fill="white" stroke="#666666" points="329.62,-595.65 244.99,-595.65 244.99,-575.65 329.62,-575.65 329.62,-595.65"/>
<text text-anchor="middle" x="287.3" y="-582.65" font-family="Helvetica,sans-Serif" font-size="10.00">vvm::TimeFilter</text>
</a>
</g>
</g>
<!-- Node12&#45;&gt;Node37 -->
<g id="edge59_Node000012_Node000037" class="edge">
<title>Node12&#45;&gt;Node37</title>
<g id="a_edge59_Node000012_Node000037"><a xlink:title=" ">
<path fill="none" stroke="#63b8ff" d="M145.47,-500.86C162.1,-516.86 196.47,-547.94 230.67,-566.65 234.1,-568.52 237.75,-570.26 241.47,-571.87"/>
<polygon fill="#63b8ff" stroke="#63b8ff" points="240.22,-575.13 250.8,-575.56 242.8,-568.63 240.22,-575.13"/>
</a>
</g>
</g>
<!-- Node38 -->
<g id="Node000038" class="node">
<title>Node38</title>
<g id="a_Node000038"><a xlink:href="classIteration.html#a8836fdf87b17b4bc628fd77db64c6af3" target="_top" xlink:title=" ">
<polygon fill="white" stroke="#666666" points="344.06,-91.65 230.54,-91.65 230.54,-71.65 344.06,-71.65 344.06,-91.65"/>
<text text-anchor="middle" x="287.3" y="-78.65" font-family="Helvetica,sans-Serif" font-size="10.00">Iteration::updateMean</text>
</a>
</g>
</g>
<!-- Node12&#45;&gt;Node38 -->
<g id="edge60_Node000012_Node000038" class="edge">
<title>Node12&#45;&gt;Node38</title>
<g id="a_edge60_Node000012_Node000038"><a xlink:title=" ">
<path fill="none" stroke="#63b8ff" d="M184.12,-480.61C188.12,-478.22 191.74,-475.28 194.67,-471.65 298.74,-342.75 127.9,-230.58 230.67,-100.65 231.39,-99.75 232.14,-98.89 232.94,-98.07"/>
<polygon fill="#63b8ff" stroke="#63b8ff" points="235.31,-100.67 241.03,-91.75 231,-95.15 235.31,-100.67"/>
</a>
</g>
</g>
<!-- Node20&#45;&gt;Node3 -->
<g id="edge30_Node000020_Node000003" class="edge">
<title>Node20&#45;&gt;Node3</title>
<g id="a_edge30_Node000020_Node000003"><a xlink:title=" ">
<path fill="none" stroke="#63b8ff" d="M326.57,-519.68C340.72,-523.39 357.27,-527.73 373.41,-531.96"/>
<polygon fill="#63b8ff" stroke="#63b8ff" points="372.83,-535.42 383.39,-534.57 374.6,-528.65 372.83,-535.42"/>
</a>
</g>
</g>
<!-- Node20&#45;&gt;Node18 -->
<g id="edge31_Node000020_Node000018" class="edge">
<title>Node20&#45;&gt;Node18</title>
<g id="a_edge31_Node000020_Node000018"><a xlink:title=" ">
<path fill="none" stroke="#63b8ff" d="M321.86,-499.57C339.29,-494.33 361.18,-487.75 381.64,-481.6"/>
<polygon fill="#63b8ff" stroke="#63b8ff" points="382.65,-484.95 391.22,-478.72 380.64,-478.25 382.65,-484.95"/>
</a>
</g>
</g>
<!-- Node21 -->
<g id="Node000021" class="node">
<title>Node21</title>
<g id="a_Node000021"><a xlink:href="classvvm.html#a7a376a97df688fa6a19e5f6d9fc02491" target="_top" xlink:title=" ">
<polygon fill="white" stroke="#666666" points="506.18,-516.65 385.26,-516.65 385.26,-496.65 506.18,-496.65 506.18,-516.65"/>
<text text-anchor="middle" x="445.72" y="-503.65" font-family="Helvetica,sans-Serif" font-size="10.00">vvm::Advection_thermo</text>
</a>
</g>
</g>
<!-- Node20&#45;&gt;Node21 -->
<g id="edge27_Node000020_Node000021" class="edge">
<title>Node20&#45;&gt;Node21</title>
<g id="a_edge27_Node000020_Node000021"><a xlink:title=" ">
<path fill="none" stroke="#63b8ff" d="M331.04,-508.83C344.64,-508.57 360.05,-508.27 375.04,-507.99"/>
<polygon fill="#63b8ff" stroke="#63b8ff" points="375.39,-511.48 385.32,-507.79 375.26,-504.48 375.39,-511.48"/>
</a>
</g>
</g>
<!-- Node22 -->
<g id="Node000022" class="node">
<title>Node22</title>
<g id="a_Node000022"><a xlink:href="Advection_8cpp.html#a8566d63c1693d34aba0fa86f658532a2" target="_top" xlink:title=" ">
<polygon fill="white" stroke="#666666" points="637.51,-400.65 589.08,-400.65 589.08,-380.65 637.51,-380.65 637.51,-400.65"/>
<text text-anchor="middle" x="613.29" y="-387.65" font-family="Helvetica,sans-Serif" font-size="10.00">MINUS</text>
</a>
</g>
</g>
<!-- Node21&#45;&gt;Node22 -->
<g id="edge28_Node000021_Node000022" class="edge">
<title>Node21&#45;&gt;Node22</title>
<g id="a_edge28_Node000021_Node000022"><a xlink:title=" ">
<path fill="none" stroke="#63b8ff" d="M497.42,-496.53C502.51,-494.17 507.34,-491.25 511.51,-487.65 540.42,-462.71 518.6,-434.59 547.51,-409.65 556.34,-402.03 568.1,-397.46 579.17,-394.73"/>
<polygon fill="#63b8ff" stroke="#63b8ff" points="579.96,-398.14 589.04,-392.69 578.54,-391.28 579.96,-398.14"/>
</a>
</g>
</g>
<!-- Node23 -->
<g id="Node000023" class="node">
<title>Node23</title>
<g id="a_Node000023"><a xlink:href="Advection_8cpp.html#ac35c0748e7807333a355cd2b8e5dfef8" target="_top" xlink:title=" ">
<polygon fill="white" stroke="#666666" points="634.41,-438.65 592.18,-438.65 592.18,-418.65 634.41,-418.65 634.41,-438.65"/>
<text text-anchor="middle" x="613.29" y="-425.65" font-family="Helvetica,sans-Serif" font-size="10.00">PLUS</text>
</a>
</g>
</g>
<!-- Node21&#45;&gt;Node23 -->
<g id="edge29_Node000021_Node000023" class="edge">
<title>Node21&#45;&gt;Node23</title>
<g id="a_edge29_Node000021_Node000023"><a xlink:title=" ">
<path fill="none" stroke="#63b8ff" d="M486.66,-496.6C495.01,-494.04 503.65,-491.04 511.51,-487.65 539.43,-475.6 569.24,-457.41 589.14,-444.41"/>
<polygon fill="#63b8ff" stroke="#63b8ff" points="591.13,-447.29 597.54,-438.85 587.27,-441.45 591.13,-447.29"/>
</a>
</g>
</g>
<!-- Node24&#45;&gt;Node3 -->
<g id="edge37_Node000024_Node000003" class="edge">
<title>Node24&#45;&gt;Node3</title>
<g id="a_edge37_Node000024_Node000003"><a xlink:title=" ">
<path fill="none" stroke="#63b8ff" d="M329.82,-443.68C334.92,-446.06 339.79,-449.01 343.93,-452.65 371.11,-476.53 353.23,-501.24 379.93,-525.65 381.22,-526.82 382.56,-527.95 383.96,-529.02"/>
<polygon fill="#63b8ff" stroke="#63b8ff" points="382.15,-532.02 392.43,-534.61 386.01,-526.18 382.15,-532.02"/>
</a>
</g>
</g>
<!-- Node24&#45;&gt;Node18 -->
<g id="edge38_Node000024_Node000018" class="edge">
<title>Node24&#45;&gt;Node18</title>
<g id="a_edge38_Node000024_Node000018"><a xlink:title=" ">
<path fill="none" stroke="#63b8ff" d="M330.63,-441.5C344.88,-444.14 361.16,-447.16 376.87,-450.07"/>
<polygon fill="#63b8ff" stroke="#63b8ff" points="376.62,-453.58 387.09,-451.96 377.89,-446.7 376.62,-453.58"/>
</a>
</g>
</g>
<!-- Node24&#45;&gt;Node21 -->
<g id="edge36_Node000024_Node000021" class="edge">
<title>Node24&#45;&gt;Node21</title>
<g id="a_edge36_Node000024_Node000021"><a xlink:title=" ">
<path fill="none" stroke="#63b8ff" d="M325.26,-443.69C331.71,-446.16 338.19,-449.13 343.93,-452.65 362.95,-464.32 360.66,-476.4 379.93,-487.65 383.31,-489.62 386.91,-491.4 390.61,-493.01"/>
<polygon fill="#63b8ff" stroke="#63b8ff" points="389.38,-496.28 399.96,-496.65 391.91,-489.76 389.38,-496.28"/>
</a>
</g>
</g>
<!-- Node25 -->
<g id="Node000025" class="node">
<title>Node25</title>
<g id="a_Node000025"><a xlink:href="classvvm.html#a5a6a59d52a4562766f6c57429cae2cb5" target="_top" xlink:title=" ">
<polygon fill="white" stroke="#666666" points="501.24,-390.65 390.2,-390.65 390.2,-370.65 501.24,-370.65 501.24,-390.65"/>
<text text-anchor="middle" x="445.72" y="-377.65" font-family="Helvetica,sans-Serif" font-size="10.00">vvm::Advection_qrVT</text>
</a>
</g>
</g>
<!-- Node24&#45;&gt;Node25 -->
<g id="edge33_Node000024_Node000025" class="edge">
<title>Node24&#45;&gt;Node25</title>
<g id="a_edge33_Node000024_Node000025"><a xlink:title=" ">
<path fill="none" stroke="#63b8ff" d="M318.09,-423.56C342.88,-415.16 378.37,-403.13 405.47,-393.95"/>
<polygon fill="#63b8ff" stroke="#63b8ff" points="406.69,-397.23 415.04,-390.71 404.45,-390.6 406.69,-397.23"/>
</a>
</g>
</g>
<!-- Node25&#45;&gt;Node22 -->
<g id="edge34_Node000025_Node000022" class="edge">
<title>Node25&#45;&gt;Node22</title>
<g id="a_edge34_Node000025_Node000022"><a xlink:title=" ">
<path fill="none" stroke="#63b8ff" d="M501.39,-383.95C526.97,-385.5 556.62,-387.29 578.82,-388.63"/>
<polygon fill="#63b8ff" stroke="#63b8ff" points="578.87,-392.14 589.07,-389.25 579.3,-385.15 578.87,-392.14"/>
</a>
</g>
</g>
<!-- Node25&#45;&gt;Node23 -->
<g id="edge35_Node000025_Node000023" class="edge">
<title>Node25&#45;&gt;Node23</title>
<g id="a_edge35_Node000025_Node000023"><a xlink:title=" ">
<path fill="none" stroke="#63b8ff" d="M481.43,-390.71C511.33,-399.38 554.03,-411.76 582.42,-419.99"/>
<polygon fill="#63b8ff" stroke="#63b8ff" points="581.61,-423.4 592.19,-422.82 583.56,-416.68 581.61,-423.4"/>
</a>
</g>
</g>
<!-- Node26&#45;&gt;Node3 -->
<g id="edge41_Node000026_Node000003" class="edge">
<title>Node26&#45;&gt;Node3</title>
<g id="a_edge41_Node000026_Node000003"><a xlink:title=" ">
<path fill="none" stroke="#63b8ff" d="M325.26,-481.69C331.71,-484.16 338.19,-487.13 343.93,-490.65 362.95,-502.32 361.14,-513.61 379.93,-525.65 382.36,-527.2 384.9,-528.69 387.51,-530.1"/>
<polygon fill="#63b8ff" stroke="#63b8ff" points="386.07,-533.29 396.58,-534.61 389.19,-527.02 386.07,-533.29"/>
</a>
</g>
</g>
<!-- Node26&#45;&gt;Node18 -->
<g id="edge42_Node000026_Node000018" class="edge">
<title>Node26&#45;&gt;Node18</title>
<g id="a_edge42_Node000026_Node000018"><a xlink:title=" ">
<path fill="none" stroke="#63b8ff" d="M331.04,-469.19C345.22,-468.37 361.36,-467.45 376.94,-466.55"/>
<polygon fill="#63b8ff" stroke="#63b8ff" points="377.29,-470.04 387.07,-465.97 376.89,-463.05 377.29,-470.04"/>
</a>
</g>
</g>
<!-- Node26&#45;&gt;Node21 -->
<g id="edge40_Node000026_Node000021" class="edge">
<title>Node26&#45;&gt;Node21</title>
<g id="a_edge40_Node000026_Node000021"><a xlink:title=" ">
<path fill="none" stroke="#63b8ff" d="M331.04,-481.21C349.22,-485.28 370.64,-490.07 389.96,-494.4"/>
<polygon fill="#63b8ff" stroke="#63b8ff" points="389.32,-497.84 399.84,-496.61 390.85,-491.01 389.32,-497.84"/>
</a>
</g>
</g>
<!-- Node27&#45;&gt;Node3 -->
<g id="edge45_Node000027_Node000003" class="edge">
<title>Node27&#45;&gt;Node3</title>
<g id="a_edge45_Node000027_Node000003"><a xlink:title=" ">
<path fill="none" stroke="#63b8ff" d="M330.22,-548.45C342.41,-548.69 356.1,-548.95 369.67,-549.21"/>
<polygon fill="#63b8ff" stroke="#63b8ff" points="369.94,-552.72 380,-549.41 370.07,-545.72 369.94,-552.72"/>
</a>
</g>
</g>
<!-- Node27&#45;&gt;Node21 -->
<g id="edge44_Node000027_Node000021" class="edge">
<title>Node27&#45;&gt;Node21</title>
<g id="a_edge44_Node000027_Node000021"><a xlink:title=" ">
<path fill="none" stroke="#63b8ff" d="M326.57,-537.62C347.68,-532.09 374.11,-525.16 396.61,-519.26"/>
<polygon fill="#63b8ff" stroke="#63b8ff" points="397.52,-522.64 406.31,-516.72 395.75,-515.87 397.52,-522.64"/>
</a>
</g>
</g>
<!-- Node29&#45;&gt;Node5 -->
<g id="edge56_Node000029_Node000005" class="edge">
<title>Node29&#45;&gt;Node5</title>
<g id="a_edge56_Node000029_Node000005"><a xlink:title=" ">
<path fill="none" stroke="#63b8ff" d="M333.16,-129.72C337.24,-132.09 340.95,-135.03 343.93,-138.65 418.41,-229.01 303.31,-311.1 379.93,-399.65 419.76,-445.68 468.67,-394.4 511.51,-437.65 605.46,-532.51 613.61,-707.06 613.1,-773.26"/>
<polygon fill="#63b8ff" stroke="#63b8ff" points="609.59,-773.57 612.93,-783.62 616.59,-773.68 609.59,-773.57"/>
</a>
</g>
</g>
<!-- Node30 -->
<g id="Node000030" class="node">
<title>Node30</title>
<g id="a_Node000030"><a xlink:href="classvvm.html#aec9080346387072f75c1e5907a5f9964" target="_top" xlink:title=" ">
<polygon fill="white" stroke="#666666" points="499.97,-343.65 391.47,-343.65 391.47,-323.65 499.97,-323.65 499.97,-343.65"/>
<text text-anchor="middle" x="445.72" y="-330.65" font-family="Helvetica,sans-Serif" font-size="10.00">vvm::Advection_zeta</text>
</a>
</g>
</g>
<!-- Node29&#45;&gt;Node30 -->
<g id="edge48_Node000029_Node000030" class="edge">
<title>Node29&#45;&gt;Node30</title>
<g id="a_edge48_Node000029_Node000030"><a xlink:title=" ">
<path fill="none" stroke="#63b8ff" d="M329.75,-129.75C334.87,-132.13 339.76,-135.05 343.93,-138.65 400.13,-187.09 429.14,-274.64 439.82,-313.79"/>
<polygon fill="#63b8ff" stroke="#63b8ff" points="436.43,-314.69 442.35,-323.48 443.21,-312.92 436.43,-314.69"/>
</a>
</g>
</g>
<!-- Node35 -->
<g id="Node000035" class="node">
<title>Node35</title>
<g id="a_Node000035"><a xlink:href="classvvm.html#ad5a7610975364e5b4163e7aff3c8e7ef" target="_top" xlink:title=" ">
<polygon fill="white" stroke="#666666" points="487.51,-129.65 403.93,-129.65 403.93,-109.65 487.51,-109.65 487.51,-129.65"/>
<text text-anchor="middle" x="445.72" y="-116.65" font-family="Helvetica,sans-Serif" font-size="10.00">vvm::Bouyancy</text>
</a>
</g>
</g>
<!-- Node29&#45;&gt;Node35 -->
<g id="edge57_Node000029_Node000035" class="edge">
<title>Node29&#45;&gt;Node35</title>
<g id="a_edge57_Node000029_Node000035"><a xlink:title=" ">
<path fill="none" stroke="#63b8ff" d="M335.66,-119.65C354.02,-119.65 375.08,-119.65 393.77,-119.65"/>
<polygon fill="#63b8ff" stroke="#63b8ff" points="393.87,-123.15 403.87,-119.65 393.87,-116.15 393.87,-123.15"/>
</a>
</g>
</g>
<!-- Node30&#45;&gt;Node5 -->
<g id="edge49_Node000030_Node000005" class="edge">
<title>Node30&#45;&gt;Node5</title>
<g id="a_edge49_Node000030_Node000005"><a xlink:title=" ">
<path fill="none" stroke="#63b8ff" d="M485.9,-343.73C495.46,-347.87 504.84,-353.65 511.51,-361.65 538.5,-394.06 591.79,-684.15 607.7,-773.54"/>
<polygon fill="#63b8ff" stroke="#63b8ff" points="604.26,-774.19 609.45,-783.42 611.15,-772.96 604.26,-774.19"/>
</a>
</g>
</g>
<!-- Node30&#45;&gt;Node22 -->
<g id="edge50_Node000030_Node000022" class="edge">
<title>Node30&#45;&gt;Node22</title>
<g id="a_edge50_Node000030_Node000022"><a xlink:title=" ">
<path fill="none" stroke="#63b8ff" d="M471.8,-343.71C492.08,-351.69 521.44,-362.93 547.51,-371.65 557.76,-375.08 569.04,-378.51 579.27,-381.48"/>
<polygon fill="#63b8ff" stroke="#63b8ff" points="578.5,-384.9 589.07,-384.3 580.43,-378.18 578.5,-384.9"/>
</a>
</g>
</g>
<!-- Node30&#45;&gt;Node23 -->
<g id="edge51_Node000030_Node000023" class="edge">
<title>Node30&#45;&gt;Node23</title>
<g id="a_edge51_Node000030_Node000023"><a xlink:title=" ">
<path fill="none" stroke="#63b8ff" d="M478.85,-343.72C489.89,-348.13 501.88,-354.06 511.51,-361.65 532.45,-378.16 525.59,-394.45 547.51,-409.65 557.68,-416.71 570.5,-421.17 582.03,-423.99"/>
<polygon fill="#63b8ff" stroke="#63b8ff" points="581.65,-427.49 592.16,-426.14 583.1,-420.64 581.65,-427.49"/>
</a>
</g>
</g>
<!-- Node31 -->
<g id="Node000031" class="node">
<title>Node31</title>
<g id="a_Node000031"><a xlink:href="Advection_8cpp.html#ad84d7b263ba0496ac8d74df75d706075" target="_top" xlink:title=" ">
<polygon fill="white" stroke="#666666" points="636.97,-362.65 589.62,-362.65 589.62,-342.65 636.97,-342.65 636.97,-362.65"/>
<text text-anchor="middle" x="613.29" y="-349.65" font-family="Helvetica,sans-Serif" font-size="10.00">U_zeta</text>
</a>
</g>
</g>
<!-- Node30&#45;&gt;Node31 -->
<g id="edge52_Node000030_Node000031" class="edge">
<title>Node30&#45;&gt;Node31</title>
<g id="a_edge52_Node000030_Node000031"><a xlink:title=" ">
<path fill="none" stroke="#63b8ff" d="M500.02,-339.77C526.14,-342.76 556.75,-346.28 579.41,-348.88"/>
<polygon fill="#63b8ff" stroke="#63b8ff" points="579.2,-352.37 589.53,-350.04 580,-345.42 579.2,-352.37"/>
</a>
</g>
</g>
<!-- Node32 -->
<g id="Node000032" class="node">
<title>Node32</title>
<g id="a_Node000032"><a xlink:href="Advection_8cpp.html#afd67bfda19d291830edf3e9849cc9277" target="_top" xlink:title=" ">
<polygon fill="white" stroke="#666666" points="641.3,-324.65 585.29,-324.65 585.29,-304.65 641.3,-304.65 641.3,-324.65"/>
<text text-anchor="middle" x="613.29" y="-311.65" font-family="Helvetica,sans-Serif" font-size="10.00">Um_zeta</text>
</a>
</g>
</g>
<!-- Node30&#45;&gt;Node32 -->
<g id="edge53_Node000030_Node000032" class="edge">
<title>Node30&#45;&gt;Node32</title>
<g id="a_edge53_Node000030_Node000032"><a xlink:title=" ">
<path fill="none" stroke="#63b8ff" d="M500.02,-327.53C524.5,-324.72 552.94,-321.46 575.08,-318.92"/>
<polygon fill="#63b8ff" stroke="#63b8ff" points="575.54,-322.39 585.07,-317.77 574.74,-315.44 575.54,-322.39"/>
</a>
</g>
</g>
<!-- Node33 -->
<g id="Node000033" class="node">
<title>Node33</title>
<g id="a_Node000033"><a xlink:href="Advection_8cpp.html#aff7c21fcae63b86ac2b3234e1bc5f188" target="_top" xlink:title=" ">
<polygon fill="white" stroke="#666666" points="638.19,-286.65 588.4,-286.65 588.4,-266.65 638.19,-266.65 638.19,-286.65"/>
<text text-anchor="middle" x="613.29" y="-273.65" font-family="Helvetica,sans-Serif" font-size="10.00">W_zeta</text>
</a>
</g>
</g>
<!-- Node30&#45;&gt;Node33 -->
<g id="edge54_Node000030_Node000033" class="edge">
<title>Node30&#45;&gt;Node33</title>
<g id="a_edge54_Node000030_Node000033"><a xlink:title=" ">
<path fill="none" stroke="#63b8ff" d="M471.8,-323.59C492.08,-315.61 521.44,-304.37 547.51,-295.65 557.51,-292.3 568.49,-288.96 578.52,-286.03"/>
<polygon fill="#63b8ff" stroke="#63b8ff" points="579.52,-289.39 588.16,-283.26 577.58,-282.66 579.52,-289.39"/>
</a>
</g>
</g>
<!-- Node34 -->
<g id="Node000034" class="node">
<title>Node34</title>
<g id="a_Node000034"><a xlink:href="Advection_8cpp.html#ac8a793aa9b91091521141a121f60ef90" target="_top" xlink:title=" ">
<polygon fill="white" stroke="#666666" points="642.52,-248.65 584.07,-248.65 584.07,-228.65 642.52,-228.65 642.52,-248.65"/>
<text text-anchor="middle" x="613.29" y="-235.65" font-family="Helvetica,sans-Serif" font-size="10.00">Wm_zeta</text>
</a>
</g>
</g>
<!-- Node30&#45;&gt;Node34 -->
<g id="edge55_Node000030_Node000034" class="edge">
<title>Node30&#45;&gt;Node34</title>
<g id="a_edge55_Node000030_Node000034"><a xlink:title=" ">
<path fill="none" stroke="#63b8ff" d="M457.32,-323.56C474.78,-307.44 511.28,-275.85 547.51,-257.65 555.8,-253.48 565.16,-250.07 574.14,-247.35"/>
<polygon fill="#63b8ff" stroke="#63b8ff" points="575.35,-250.65 584.03,-244.57 573.46,-243.91 575.35,-250.65"/>
</a>
</g>
</g>
<!-- Node36 -->
<g id="Node000036" class="node">
<title>Node36</title>
<g id="a_Node000036"><a xlink:href="Buoyancy_8cpp.html#a8ecf3975b610cb48d26b59dead3553db" target="_top" xlink:title=" ">
<polygon fill="white" stroke="#666666" points="638.19,-129.65 588.4,-129.65 588.4,-109.65 638.19,-109.65 638.19,-129.65"/>
<text text-anchor="middle" x="613.29" y="-116.65" font-family="Helvetica,sans-Serif" font-size="10.00">getTHV</text>
</a>
</g>
</g>
<!-- Node35&#45;&gt;Node36 -->
<g id="edge58_Node000035_Node000036" class="edge">
<title>Node35&#45;&gt;Node36</title>
<g id="a_edge58_Node000035_Node000036"><a xlink:title=" ">
<path fill="none" stroke="#63b8ff" d="M487.65,-119.65C515.42,-119.65 551.73,-119.65 577.99,-119.65"/>
<polygon fill="#63b8ff" stroke="#63b8ff" points="578.22,-123.15 588.22,-119.65 578.22,-116.15 578.22,-123.15"/>
</a>
</g>
</g>
<!-- Node38&#45;&gt;Node8 -->
<g id="edge61_Node000038_Node000008" class="edge">
<title>Node38&#45;&gt;Node8</title>
<g id="a_edge61_Node000038_Node000008"><a xlink:title=" ">
<path fill="none" stroke="#63b8ff" d="M329.81,-71.57C342.19,-68.56 356.16,-65.16 369.98,-61.81"/>
<polygon fill="#63b8ff" stroke="#63b8ff" points="371.11,-65.14 380,-59.37 369.45,-58.33 371.11,-65.14"/>
</a>
</g>
</g>
</g>
</svg>
