<?xml version="1.0" encoding="UTF-8" standalone="no"?>
<!DOCTYPE svg PUBLIC "-//W3C//DTD SVG 1.1//EN"
 "http://www.w3.org/Graphics/SVG/1.1/DTD/svg11.dtd">
<!-- Generated by graphviz version 2.46.0 (20210118.1747)
 -->
<!-- Title: /home/Aaron/2DVVM/full/0402/model/src/NumericalProcess.cpp Pages: 1 -->
<svg width="216pt" height="208pt"
 viewBox="0.00 0.00 216.36 208.00" xmlns="http://www.w3.org/2000/svg" xmlns:xlink="http://www.w3.org/1999/xlink">

<svg id="main" version="1.1" xmlns="http://www.w3.org/2000/svg" xmlns:xlink="http://www.w3.org/1999/xlink" xml:space="preserve" onload="init(evt)">
<style type="text/css"><![CDATA[
.node, .edge {opacity: 0.7;}
.node.selected, .edge.selected {opacity: 1;}
.edge:hover path { stroke: red; }
.edge:hover polygon { stroke: red; fill: red; }
]]></style>
<script type="application/ecmascript" xlink:href="svg.min.js"/>
<svg id="graph" class="graph">
<g id="graph0" class="graph" transform="scale(1 1) rotate(0) translate(4 204)">
<title>/home/Aaron/2DVVM/full/0402/model/src/NumericalProcess.cpp</title>
<!-- Node1 -->
<g id="Node000001" class="node">
<title>Node1</title>
<g id="a_Node000001"><a xlink:title=" ">
<polygon fill="#999999" stroke="#666666" points="189.87,-200 0.04,-200 0.04,-168 189.87,-168 189.87,-200"/>
<text text-anchor="start" x="8" y="-187" font-family="Helvetica,sans-Serif" font-size="10.00">/home/Aaron/2DVVM/full</text>
<text text-anchor="middle" x="94.96" y="-175" font-family="Helvetica,sans-Serif" font-size="10.00">/0402/model/src/NumericalProcess.cpp</text>
</a>
</g>
</g>
<!-- Node2 -->
<g id="Node000002" class="node">
<title>Node2</title>
<g id="a_Node000002"><a xlink:href="Declare_8hpp.html" target="_top" xlink:title="This file is used to declare the class vvm.">
<polygon fill="white" stroke="#666666" points="129.86,-132 60.06,-132 60.06,-112 129.86,-112 129.86,-132"/>
<text text-anchor="middle" x="94.96" y="-119" font-family="Helvetica,sans-Serif" font-size="10.00">Declare.hpp</text>
</a>
</g>
</g>
<!-- Node1&#45;&gt;Node2 -->
<g id="edge1_Node000001_Node000002" class="edge">
<title>Node1&#45;&gt;Node2</title>
<g id="a_edge1_Node000001_Node000002"><a xlink:title=" ">
<path fill="none" stroke="#63b8ff" d="M94.96,-167.86C94.96,-160.13 94.96,-150.63 94.96,-142.37"/>
<polygon fill="#63b8ff" stroke="#63b8ff" points="98.46,-142.15 94.96,-132.15 91.46,-142.15 98.46,-142.15"/>
</a>
</g>
</g>
<!-- Node3 -->
<g id="Node000003" class="node">
<title>Node3</title>
<g id="a_Node000003"><a xlink:href="Const_8hpp.html" target="_top" xlink:title="Here are some constants defined in this model. You don&#39;t need to change them.">
<polygon fill="white" stroke="#666666" points="71.53,-76 10.38,-76 10.38,-56 71.53,-56 71.53,-76"/>
<text text-anchor="middle" x="40.96" y="-63" font-family="Helvetica,sans-Serif" font-size="10.00">Const.hpp</text>
</a>
</g>
</g>
<!-- Node2&#45;&gt;Node3 -->
<g id="edge2_Node000002_Node000003" class="edge">
<title>Node2&#45;&gt;Node3</title>
<g id="a_edge2_Node000002_Node000003"><a xlink:title=" ">
<path fill="none" stroke="#63b8ff" d="M85.55,-111.59C77.81,-103.85 66.64,-92.69 57.42,-83.47"/>
<polygon fill="#63b8ff" stroke="#63b8ff" points="59.8,-80.89 50.25,-76.3 54.85,-85.84 59.8,-80.89"/>
</a>
</g>
</g>
<!-- Node5 -->
<g id="Node000005" class="node">
<title>Node5</title>
<g id="a_Node000005"><a xlink:title=" ">
<polygon fill="#e0e0e0" stroke="#999999" points="208.26,-76 89.65,-76 89.65,-56 208.26,-56 208.26,-76"/>
<text text-anchor="middle" x="148.96" y="-63" font-family="Helvetica,sans-Serif" font-size="10.00">../include/Eigen/Sparse</text>
</a>
</g>
</g>
<!-- Node2&#45;&gt;Node5 -->
<g id="edge4_Node000002_Node000005" class="edge">
<title>Node2&#45;&gt;Node5</title>
<g id="a_edge4_Node000002_Node000005"><a xlink:title=" ">
<path fill="none" stroke="#63b8ff" d="M104.36,-111.59C112.1,-103.85 123.27,-92.69 132.49,-83.47"/>
<polygon fill="#63b8ff" stroke="#63b8ff" points="135.06,-85.84 139.66,-76.3 130.11,-80.89 135.06,-85.84"/>
</a>
</g>
</g>
<!-- Node4 -->
<g id="Node000004" class="node">
<title>Node4</title>
<g id="a_Node000004"><a xlink:href="Config_8hpp.html" target="_top" xlink:title="Here are the parameters for the model that you can tune them to fit your needs.">
<polygon fill="white" stroke="#666666" points="73.31,-20 8.6,-20 8.6,0 73.31,0 73.31,-20"/>
<text text-anchor="middle" x="40.96" y="-7" font-family="Helvetica,sans-Serif" font-size="10.00">Config.hpp</text>
</a>
</g>
</g>
<!-- Node3&#45;&gt;Node4 -->
<g id="edge3_Node000003_Node000004" class="edge">
<title>Node3&#45;&gt;Node4</title>
<g id="a_edge3_Node000003_Node000004"><a xlink:title=" ">
<path fill="none" stroke="#63b8ff" d="M40.96,-55.59C40.96,-48.7 40.96,-39.1 40.96,-30.57"/>
<polygon fill="#63b8ff" stroke="#63b8ff" points="44.46,-30.3 40.96,-20.3 37.46,-30.3 44.46,-30.3"/>
</a>
</g>
</g>
</g>
</svg>
</svg>

<style type='text/css'>
<![CDATA[
[data-mouse-over-selected='false'] { opacity: 0.7; }
[data-mouse-over-selected='true']  { opacity: 1.0; }
]]>
</style>
<script type="application/ecmascript"><![CDATA[
document.addEventListener('DOMContentLoaded', (event) => {
  highlightEdges();
  highlightAdjacentNodes();
});
]]></script>
</svg>
