<?xml version="1.0" encoding="UTF-8" standalone="no"?>
<!DOCTYPE svg PUBLIC "-//W3C//DTD SVG 1.1//EN"
 "http://www.w3.org/Graphics/SVG/1.1/DTD/svg11.dtd">
<!-- Generated by graphviz version 2.46.0 (20210118.1747)
 -->
<!-- Title: /home/Aaron/2DVVM/full/0402/model/src/Output.hpp Pages: 1 -->
<svg width="388pt" height="176pt"
 viewBox="0.00 0.00 387.87 176.00" xmlns="http://www.w3.org/2000/svg" xmlns:xlink="http://www.w3.org/1999/xlink">
<g id="graph0" class="graph" transform="scale(1 1) rotate(0) translate(4 172)">
<title>/home/Aaron/2DVVM/full/0402/model/src/Output.hpp</title>
<!-- Node1 -->
<g id="Node000001" class="node">
<title>Node1</title>
<g id="a_Node000001"><a xlink:title=" ">
<polygon fill="#999999" stroke="#666666" points="300.34,-168 160.59,-168 160.59,-136 300.34,-136 300.34,-168"/>
<text text-anchor="start" x="168.77" y="-155" font-family="Helvetica,sans-Serif" font-size="10.00">/home/Aaron/2DVVM/full</text>
<text text-anchor="middle" x="230.46" y="-143" font-family="Helvetica,sans-Serif" font-size="10.00">/0402/model/src/Output.hpp</text>
</a>
</g>
</g>
<!-- Node2 -->
<g id="Node000002" class="node">
<title>Node2</title>
<g id="a_Node000002"><a xlink:href="Iteration_8hpp.html" target="_top" xlink:title=" ">
<polygon fill="white" stroke="#666666" points="223.45,-100 77.48,-100 77.48,-68 223.45,-68 223.45,-100"/>
<text text-anchor="start" x="85.72" y="-87" font-family="Helvetica,sans-Serif" font-size="10.00">/home/Aaron/2DVVM/full</text>
<text text-anchor="middle" x="150.46" y="-75" font-family="Helvetica,sans-Serif" font-size="10.00">/0402/model/src/Iteration.hpp</text>
</a>
</g>
</g>
<!-- Node1&#45;&gt;Node2 -->
<g id="edge1_Node000001_Node000002" class="edge">
<title>Node1&#45;&gt;Node2</title>
<g id="a_edge1_Node000001_Node000002"><a xlink:title=" ">
<path fill="none" stroke="#63b8ff" d="M203.91,-129.1C192.44,-119.63 179.3,-108.79 168.92,-100.22"/>
<polygon fill="#63b8ff" stroke="#63b8ff" points="201.97,-132.03 211.91,-135.69 206.42,-126.63 201.97,-132.03"/>
</a>
</g>
</g>
<!-- Node5 -->
<g id="Node000005" class="node">
<title>Node5</title>
<g id="a_Node000005"><a xlink:href="Output_8cpp.html" target="_top" xlink:title=" ">
<polygon fill="white" stroke="#666666" points="379.78,-100 241.14,-100 241.14,-68 379.78,-68 379.78,-100"/>
<text text-anchor="start" x="249.05" y="-87" font-family="Helvetica,sans-Serif" font-size="10.00">/home/Aaron/2DVVM/full</text>
<text text-anchor="middle" x="310.46" y="-75" font-family="Helvetica,sans-Serif" font-size="10.00">/0402/model/src/Output.cpp</text>
</a>
</g>
</g>
<!-- Node1&#45;&gt;Node5 -->
<g id="edge4_Node000001_Node000005" class="edge">
<title>Node1&#45;&gt;Node5</title>
<g id="a_edge4_Node000001_Node000005"><a xlink:title=" ">
<path fill="none" stroke="#63b8ff" d="M257.01,-129.1C268.48,-119.63 281.63,-108.79 292.01,-100.22"/>
<polygon fill="#63b8ff" stroke="#63b8ff" points="254.5,-126.63 249.02,-135.69 258.96,-132.03 254.5,-126.63"/>
</a>
</g>
</g>
<!-- Node3 -->
<g id="Node000003" class="node">
<title>Node3</title>
<g id="a_Node000003"><a xlink:href="Iteration_8cpp.html" target="_top" xlink:title=" ">
<polygon fill="white" stroke="#666666" points="144.89,-32 0.04,-32 0.04,0 144.89,0 144.89,-32"/>
<text text-anchor="start" x="8" y="-19" font-family="Helvetica,sans-Serif" font-size="10.00">/home/Aaron/2DVVM/full</text>
<text text-anchor="middle" x="72.46" y="-7" font-family="Helvetica,sans-Serif" font-size="10.00">/0402/model/src/Iteration.cpp</text>
</a>
</g>
</g>
<!-- Node2&#45;&gt;Node3 -->
<g id="edge2_Node000002_Node000003" class="edge">
<title>Node2&#45;&gt;Node3</title>
<g id="a_edge2_Node000002_Node000003"><a xlink:title=" ">
<path fill="none" stroke="#63b8ff" d="M124.58,-61.1C113.39,-51.63 100.58,-40.79 90.45,-32.22"/>
<polygon fill="#63b8ff" stroke="#63b8ff" points="122.48,-63.9 132.37,-67.69 127,-58.56 122.48,-63.9"/>
</a>
</g>
</g>
<!-- Node4 -->
<g id="Node000004" class="node">
<title>Node4</title>
<g id="a_Node000004"><a xlink:href="main_8cpp.html" target="_top" xlink:title=" ">
<polygon fill="white" stroke="#666666" points="293.93,-32 162.99,-32 162.99,0 293.93,0 293.93,-32"/>
<text text-anchor="start" x="171.23" y="-19" font-family="Helvetica,sans-Serif" font-size="10.00">/home/Aaron/2DVVM/full</text>
<text text-anchor="middle" x="228.46" y="-7" font-family="Helvetica,sans-Serif" font-size="10.00">/0402/model/src/main.cpp</text>
</a>
</g>
</g>
<!-- Node2&#45;&gt;Node4 -->
<g id="edge3_Node000002_Node000004" class="edge">
<title>Node2&#45;&gt;Node4</title>
<g id="a_edge3_Node000002_Node000004"><a xlink:title=" ">
<path fill="none" stroke="#63b8ff" d="M176.35,-61.1C187.53,-51.63 200.35,-40.79 210.47,-32.22"/>
<polygon fill="#63b8ff" stroke="#63b8ff" points="173.93,-58.56 168.55,-67.69 178.45,-63.9 173.93,-58.56"/>
</a>
</g>
</g>
</g>
</svg>
