<?xml version="1.0" encoding="UTF-8" standalone="no"?>
<!DOCTYPE svg PUBLIC "-//W3C//DTD SVG 1.1//EN"
 "http://www.w3.org/Graphics/SVG/1.1/DTD/svg11.dtd">
<!-- Generated by graphviz version 2.46.0 (20210118.1747)
 -->
<!-- Title: /home/Aaron/2DVVM/full/0402/model/src/PoissonSolver.cpp Pages: 1 -->
<svg width="574pt" height="208pt"
 viewBox="0.00 0.00 573.73 208.00" xmlns="http://www.w3.org/2000/svg" xmlns:xlink="http://www.w3.org/1999/xlink">
<g id="graph0" class="graph" transform="scale(1 1) rotate(0) translate(4 204)">
<title>/home/Aaron/2DVVM/full/0402/model/src/PoissonSolver.cpp</title>
<!-- Node1 -->
<g id="Node000001" class="node">
<title>Node1</title>
<g id="a_Node000001"><a xlink:title=" ">
<polygon fill="#999999" stroke="#666666" points="370.38,-200 197.97,-200 197.97,-168 370.38,-168 370.38,-200"/>
<text text-anchor="start" x="205.82" y="-187" font-family="Helvetica,sans-Serif" font-size="10.00">/home/Aaron/2DVVM/full</text>
<text text-anchor="middle" x="284.18" y="-175" font-family="Helvetica,sans-Serif" font-size="10.00">/0402/model/src/PoissonSolver.cpp</text>
</a>
</g>
</g>
<!-- Node2 -->
<g id="Node000002" class="node">
<title>Node2</title>
<g id="a_Node000002"><a xlink:href="Declare_8hpp.html" target="_top" xlink:title="This file is used to declare the class vvm.">
<polygon fill="white" stroke="#666666" points="121.08,-132 51.27,-132 51.27,-112 121.08,-112 121.08,-132"/>
<text text-anchor="middle" x="86.17" y="-119" font-family="Helvetica,sans-Serif" font-size="10.00">Declare.hpp</text>
</a>
</g>
</g>
<!-- Node1&#45;&gt;Node2 -->
<g id="edge1_Node000001_Node000002" class="edge">
<title>Node1&#45;&gt;Node2</title>
<g id="a_edge1_Node000001_Node000002"><a xlink:title=" ">
<path fill="none" stroke="#63b8ff" d="M234.47,-167.94C200.77,-157.73 156.84,-144.41 125.56,-134.94"/>
<polygon fill="#63b8ff" stroke="#63b8ff" points="126.47,-131.55 115.88,-132 124.44,-138.25 126.47,-131.55"/>
</a>
</g>
</g>
<!-- Node6 -->
<g id="Node000006" class="node">
<title>Node6</title>
<g id="a_Node000006"><a xlink:title=" ">
<polygon fill="#e0e0e0" stroke="#999999" points="167.68,-132 138.68,-132 138.68,-112 167.68,-112 167.68,-132"/>
<text text-anchor="middle" x="153.18" y="-119" font-family="Helvetica,sans-Serif" font-size="10.00">ios</text>
</a>
</g>
</g>
<!-- Node1&#45;&gt;Node6 -->
<g id="edge5_Node000001_Node000006" class="edge">
<title>Node1&#45;&gt;Node6</title>
<g id="a_edge5_Node000001_Node000006"><a xlink:title=" ">
<path fill="none" stroke="#63b8ff" d="M251.12,-167.86C228.06,-157.3 197.82,-143.45 177.08,-133.95"/>
<polygon fill="#63b8ff" stroke="#63b8ff" points="178.28,-130.65 167.73,-129.67 175.37,-137.01 178.28,-130.65"/>
</a>
</g>
</g>
<!-- Node7 -->
<g id="Node000007" class="node">
<title>Node7</title>
<g id="a_Node000007"><a xlink:title=" ">
<polygon fill="#e0e0e0" stroke="#999999" points="234.41,-132 185.94,-132 185.94,-112 234.41,-112 234.41,-132"/>
<text text-anchor="middle" x="210.18" y="-119" font-family="Helvetica,sans-Serif" font-size="10.00">petsc.h</text>
</a>
</g>
</g>
<!-- Node1&#45;&gt;Node7 -->
<g id="edge6_Node000001_Node000007" class="edge">
<title>Node1&#45;&gt;Node7</title>
<g id="a_edge6_Node000001_Node000007"><a xlink:title=" ">
<path fill="none" stroke="#63b8ff" d="M265.5,-167.86C254.45,-158.9 240.47,-147.57 229.33,-138.53"/>
<polygon fill="#63b8ff" stroke="#63b8ff" points="231.44,-135.73 221.46,-132.15 227.03,-141.17 231.44,-135.73"/>
</a>
</g>
</g>
<!-- Node8 -->
<g id="Node000008" class="node">
<title>Node8</title>
<g id="a_Node000008"><a xlink:title=" ">
<polygon fill="#e0e0e0" stroke="#999999" points="315.97,-132 252.38,-132 252.38,-112 315.97,-112 315.97,-132"/>
<text text-anchor="middle" x="284.18" y="-119" font-family="Helvetica,sans-Serif" font-size="10.00">petscksp.h</text>
</a>
</g>
</g>
<!-- Node1&#45;&gt;Node8 -->
<g id="edge7_Node000001_Node000008" class="edge">
<title>Node1&#45;&gt;Node8</title>
<g id="a_edge7_Node000001_Node000008"><a xlink:title=" ">
<path fill="none" stroke="#63b8ff" d="M284.18,-167.86C284.18,-160.13 284.18,-150.63 284.18,-142.37"/>
<polygon fill="#63b8ff" stroke="#63b8ff" points="287.68,-142.15 284.18,-132.15 280.68,-142.15 287.68,-142.15"/>
</a>
</g>
</g>
<!-- Node9 -->
<g id="Node000009" class="node">
<title>Node9</title>
<g id="a_Node000009"><a xlink:title=" ">
<polygon fill="#e0e0e0" stroke="#999999" points="397.97,-132 334.38,-132 334.38,-112 397.97,-112 397.97,-132"/>
<text text-anchor="middle" x="366.18" y="-119" font-family="Helvetica,sans-Serif" font-size="10.00">petscvec.h</text>
</a>
</g>
</g>
<!-- Node1&#45;&gt;Node9 -->
<g id="edge8_Node000001_Node000009" class="edge">
<title>Node1&#45;&gt;Node9</title>
<g id="a_edge8_Node000001_Node000009"><a xlink:title=" ">
<path fill="none" stroke="#63b8ff" d="M304.87,-167.86C317.24,-158.81 332.91,-147.34 345.31,-138.27"/>
<polygon fill="#63b8ff" stroke="#63b8ff" points="347.66,-140.88 353.67,-132.15 343.53,-135.23 347.66,-140.88"/>
</a>
</g>
</g>
<!-- Node10 -->
<g id="Node000010" class="node">
<title>Node10</title>
<g id="a_Node000010"><a xlink:title=" ">
<polygon fill="#e0e0e0" stroke="#999999" points="470.51,-132 415.84,-132 415.84,-112 470.51,-112 470.51,-132"/>
<text text-anchor="middle" x="443.18" y="-119" font-family="Helvetica,sans-Serif" font-size="10.00">iostream</text>
</a>
</g>
</g>
<!-- Node1&#45;&gt;Node10 -->
<g id="edge9_Node000001_Node000010" class="edge">
<title>Node1&#45;&gt;Node10</title>
<g id="a_edge9_Node000001_Node000010"><a xlink:title=" ">
<path fill="none" stroke="#63b8ff" d="M324.3,-167.86C350.61,-157.93 384.63,-145.09 409.52,-135.7"/>
<polygon fill="#63b8ff" stroke="#63b8ff" points="410.8,-138.96 418.92,-132.15 408.33,-132.41 410.8,-138.96"/>
</a>
</g>
</g>
<!-- Node11 -->
<g id="Node000011" class="node">
<title>Node11</title>
<g id="a_Node000011"><a xlink:title=" ">
<polygon fill="#e0e0e0" stroke="#999999" points="565.8,-132 488.55,-132 488.55,-112 565.8,-112 565.8,-132"/>
<text text-anchor="middle" x="527.17" y="-119" font-family="Helvetica,sans-Serif" font-size="10.00">petscviewer.h</text>
</a>
</g>
</g>
<!-- Node1&#45;&gt;Node11 -->
<g id="edge10_Node000001_Node000011" class="edge">
<title>Node1&#45;&gt;Node11</title>
<g id="a_edge10_Node000001_Node000011"><a xlink:title=" ">
<path fill="none" stroke="#63b8ff" d="M345.18,-167.94C387.25,-157.55 442.32,-143.95 480.81,-134.45"/>
<polygon fill="#63b8ff" stroke="#63b8ff" points="481.85,-137.8 490.72,-132 480.17,-131 481.85,-137.8"/>
</a>
</g>
</g>
<!-- Node3 -->
<g id="Node000003" class="node">
<title>Node3</title>
<g id="a_Node000003"><a xlink:href="Const_8hpp.html" target="_top" xlink:title="Here are some constants defined in this model. You don&#39;t need to change them.">
<polygon fill="white" stroke="#666666" points="62.75,-76 1.6,-76 1.6,-56 62.75,-56 62.75,-76"/>
<text text-anchor="middle" x="32.17" y="-63" font-family="Helvetica,sans-Serif" font-size="10.00">Const.hpp</text>
</a>
</g>
</g>
<!-- Node2&#45;&gt;Node3 -->
<g id="edge2_Node000002_Node000003" class="edge">
<title>Node2&#45;&gt;Node3</title>
<g id="a_edge2_Node000002_Node000003"><a xlink:title=" ">
<path fill="none" stroke="#63b8ff" d="M76.77,-111.59C69.03,-103.85 57.86,-92.69 48.64,-83.47"/>
<polygon fill="#63b8ff" stroke="#63b8ff" points="51.02,-80.89 41.47,-76.3 46.07,-85.84 51.02,-80.89"/>
</a>
</g>
</g>
<!-- Node5 -->
<g id="Node000005" class="node">
<title>Node5</title>
<g id="a_Node000005"><a xlink:title=" ">
<polygon fill="#e0e0e0" stroke="#999999" points="199.48,-76 80.87,-76 80.87,-56 199.48,-56 199.48,-76"/>
<text text-anchor="middle" x="140.18" y="-63" font-family="Helvetica,sans-Serif" font-size="10.00">../include/Eigen/Sparse</text>
</a>
</g>
</g>
<!-- Node2&#45;&gt;Node5 -->
<g id="edge4_Node000002_Node000005" class="edge">
<title>Node2&#45;&gt;Node5</title>
<g id="a_edge4_Node000002_Node000005"><a xlink:title=" ">
<path fill="none" stroke="#63b8ff" d="M95.58,-111.59C103.32,-103.85 114.49,-92.69 123.71,-83.47"/>
<polygon fill="#63b8ff" stroke="#63b8ff" points="126.28,-85.84 130.88,-76.3 121.33,-80.89 126.28,-85.84"/>
</a>
</g>
</g>
<!-- Node4 -->
<g id="Node000004" class="node">
<title>Node4</title>
<g id="a_Node000004"><a xlink:href="Config_8hpp.html" target="_top" xlink:title="Here are the parameters for the model that you can tune to fit your needs.">
<polygon fill="white" stroke="#666666" points="64.53,-20 -0.18,-20 -0.18,0 64.53,0 64.53,-20"/>
<text text-anchor="middle" x="32.17" y="-7" font-family="Helvetica,sans-Serif" font-size="10.00">Config.hpp</text>
</a>
</g>
</g>
<!-- Node3&#45;&gt;Node4 -->
<g id="edge3_Node000003_Node000004" class="edge">
<title>Node3&#45;&gt;Node4</title>
<g id="a_edge3_Node000003_Node000004"><a xlink:title=" ">
<path fill="none" stroke="#63b8ff" d="M32.17,-55.59C32.17,-48.7 32.17,-39.1 32.17,-30.57"/>
<polygon fill="#63b8ff" stroke="#63b8ff" points="35.68,-30.3 32.17,-20.3 28.68,-30.3 35.68,-30.3"/>
</a>
</g>
</g>
</g>
</svg>
